<?xml version="1.0" standalone="no"?>
<!DOCTYPE svg PUBLIC "-//W3C//DTD SVG 1.1//EN" "http://www.w3.org/Graphics/SVG/1.1/DTD/svg11.dtd">
<svg xmlns="http://www.w3.org/2000/svg">
<defs >
<font id="Fraunces" horiz-adv-x="1265" ><font-face
    font-family="Fraunces"
    units-per-em="2000"
    panose-1="0 0 0 0 0 0 0 0 0 0"
    ascent="1956"
    descent="-510"
    alphabetic="0" />
<glyph unicode=" " horiz-adv-x="421" />
<glyph unicode="!" horiz-adv-x="664" d="M332 1496Q442 1496 494 1445T546 1310Q546 1284 542 1253T528 1185L404 568Q394 527 378 507T332 487Q303 487 287 507T260 568L136 1185Q127 1222 123 1253T118 1310Q118 1394 170 1445T332 1496ZM331 -26Q274 -26 227
3T153 81T125 186Q125 245 152 292T227 368T331 397Q390 397 437 369T511 293T539 186Q539 130 512 82T437 4T331 -26Z" />
<glyph unicode="&quot;" horiz-adv-x="821" d="M614 825Q589 825 569 844T541 899L470 1326Q449 1443 488 1505T625 1567Q724 1567 760 1504T774 1326L695 898Q687 860 667 843T614 825ZM190 825Q165 825 145 844T117 899L46 1326Q25 1443 64 1505T201 1567Q300
1567 336 1504T350 1326L271 898Q263 860 243 843T190 825Z" />
<glyph unicode="#" horiz-adv-x="1345" d="M525 688Q515 650 502 598T474 488T444 367T413 246T385 135T361 43Q341 -20 280 -7Q249 2 238 23T236 75Q246 111 261 160T295 268T334 387T373 507T408 618T435 710Q446 749 458 801T484 913T511 1035T538 1157T564
1268T585 1356Q605 1419 666 1405Q698 1398 709 1377T711 1324Q701 1286 687 1236T654 1127T618 1008T583 888T551 778T525 688ZM714 979Q753 979 806 981T920 985T1039 991T1150 996T1239 999Q1272 999 1292 984T1312 939Q1312 910 1292 895T1238 878Q1201 878
1149 880T1038 884T919 888T806 892T713 894Q673 893 619 892T503 889T382 886T269 884T177 883Q143 882 124 897T104 942Q104 972 123 987T177 1002Q215 1002 268 1000T381 994T502 987T618 981T714 979ZM642 449Q602 449 548 448T432 445T311 442T197 439T106
438Q72 438 53 453T33 497Q33 528 52 542T106 557Q144 557 196 555T309 549T431 542T547 536T643 534Q682 534 735 536T849 540T968 546T1079 551T1168 553Q1201 553 1221 538T1241 494Q1241 464 1221 449T1167 433Q1129 434 1077 435T966 438T848 443T735 447T642
449ZM747 43Q727 -20 666 -7Q635 2 624 23T621 75Q631 111 646 160T681 268T720 387T759 507T794 618T821 710Q832 749 844 801T870 914T897 1036T924 1157T950 1267T972 1355Q990 1420 1052 1405Q1084 1398 1094 1376T1096 1323Q1086 1286 1071 1235T1039 1126T1004
1007T968 888T936 778T911 688Q901 650 888 598T860 487T829 367T799 246T771 135T747 43Z" />
<glyph unicode="$" horiz-adv-x="1233" d="M647 1393Q806 1393 916 1352T1085 1237T1143 1068Q1143 1001 1104 954T1001 906Q929 906 881 947T832 1056V1142Q832 1226 780 1279T634 1332Q570 1332 520 1307T442 1234T414 1120Q414 1059 442 1009T538 916T721 836Q890
780 985 715T1121 574T1161 411Q1161 288 1095 197T905 55T607 5Q439 5 322 48T143 163T82 323Q82 393 123 438T237 483Q300 483 345 440T391 324V246Q391 169 450 120T610 70Q716 70 780 122T844 263Q844 355 776 422T527 549Q370 603 277 666T142 808T100 983Q100
1097 166 1190T356 1338T647 1393ZM670 754H605Q605 910 599 1028T586 1236T572 1393T566 1516Q566 1554 586 1574T638 1594Q668 1594 689 1574T710 1514Q710 1463 704 1397T690 1242T676 1032T670 754ZM581 668H646Q646 512 652 393T666 185T680 30T686 -89Q686
-127 666 -147T614 -167Q583 -167 563 -147T542 -87Q542 -32 548 35T561 190T575 396T581 668Z" />
<glyph unicode="%" horiz-adv-x="1649" d="M438 1431Q602 1431 702 1332T803 1061Q803 933 755 845T623 710T430 664Q251 664 153 764T54 1048Q54 1222 157 1326T438 1431ZM541 1043Q541 1214 512 1284T430 1354Q374 1354 346 1284T318 1061Q318 883 347 812T432
741Q465 741 489 768T527 861T541 1043ZM927 779Q909 756 895 751T858 756Q841 766 839 781T848 822Q863 852 885 898T934 998T988 1109T1042 1218T1091 1311T1126 1374Q1152 1415 1188 1426T1269 1414Q1311 1391 1317 1356T1299 1280Q1285 1259 1259 1222T1198
1138T1126 1039T1050 939T981 848T927 779ZM725 625Q744 647 759 653T795 649Q813 638 814 622T803 582Q789 551 767 505T718 405T664 293T610 184T562 91T526 27Q500 -12 463 -23T383 -11Q343 11 336 46T355 122Q368 143 394 180T455 266T528 365T603 465T672
556T725 625ZM1229 735Q1393 735 1493 636T1594 365Q1594 237 1546 149T1414 14T1221 -32Q1042 -32 944 68T845 352Q845 526 948 630T1229 735ZM1332 347Q1332 518 1303 588T1221 658Q1165 658 1137 588T1109 365Q1109 187 1138 116T1223 45Q1256 45 1280 72T1318
165T1332 347Z" />
<glyph unicode="&amp;" horiz-adv-x="1989" d="M1320 -46Q1505 -46 1637 24T1839 228T1910 551Q1910 758 1833 945T1605 1280Q1465 1417 1275 1491T868 1565Q623 1565 454 1495T198 1299T111 1000Q111 897 157 832T286 767Q356 767 401 809T446 918Q446 961 436
992T412 1051T388 1109T378 1179Q378 1260 427 1326T583 1432T861 1471Q1060 1471 1231 1401T1527 1207Q1667 1068 1733 896T1800 550Q1800 400 1757 303T1639 159T1473 111Q1407 111 1350 142T1229 245T1082 442Q1010 546 965 636T897 811T874 981Q874 1074 904
1130T983 1187Q1020 1187 1041 1137T1062 1005Q1062 915 1039 849T974 746T877 705L890 649Q1031 653 1132 694T1289 808T1344 978Q1344 1064 1301 1130T1180 1234T1000 1272Q868 1272 774 1216T630 1063T579 845Q579 742 604 644T677 446T798 239Q863 141 938
78T1108 -15T1320 -46ZM1188 236L1219 180Q1420 258 1513 370T1606 610Q1606 695 1570 743T1468 792Q1405 792 1365 746T1324 637Q1324 606 1332 583T1349 532T1357 466Q1357 429 1339 390T1284 312T1188 236ZM648 619V689Q472 684 349 635T162 502T97 307Q97 145
203 58T505 -29Q604 -29 680 -11T814 42T912 121L864 192Q822 153 779 134T679 115Q587 115 530 184T473 367Q473 437 493 492T552 580T648 619Z" />
<glyph unicode="&apos;" horiz-adv-x="397" d="M190 825Q165 825 145 844T117 899L46 1326Q25 1443 64 1505T201 1567Q300 1567 336 1504T350 1326L271 898Q263 860 243 843T190 825Z" />
<glyph unicode="(" horiz-adv-x="763" d="M149 610Q149 820 215 995T391 1292T636 1466Q713 1494 734 1467Q745 1453 738 1434T702 1379Q628 1294 569 1175T476 913T442 610Q442 450 476 307T569 45T702 -159Q731 -194 738 -213T734 -248Q713 -275 636 -247Q502
-195 392 -73T215 224T149 610Z" />
<glyph unicode=")" horiz-adv-x="763" d="M614 609Q614 399 548 224T372 -73T127 -247Q50 -275 29 -248Q18 -234 25 -215T61 -160Q135 -75 194 44T287 306T321 609Q321 769 287 912T194 1174T61 1378Q32 1413 25 1432T29 1467Q50 1494 127 1466Q261 1414 371 1292T548
995T614 609Z" />
<glyph unicode="*" horiz-adv-x="1246" d="M646 997H608Q608 1073 586 1132T535 1240T484 1335T462 1427Q462 1559 626 1559Q704 1559 747 1525T791 1427Q791 1380 769 1335T719 1241T668 1132T646 997ZM633 1014L620 979Q548 1003 485 1001T365 987T257 968T161
975Q36 1017 86 1170Q111 1243 156 1273T263 1283Q309 1268 345 1234T421 1158T510 1077T633 1014ZM611 1007L642 985Q597 923 580 863T556 746T541 640T503 553Q427 446 293 541Q230 586 215 638T237 743Q265 781 309 804T407 851T513 910T611 1007ZM611 985L642
1007Q687 945 740 910T847 852T944 805T1017 743Q1094 636 961 541Q899 496 843 498T750 553Q722 591 713 640T698 745T674 862T611 985ZM620 1014Q693 1037 743 1076T833 1157T908 1234T990 1283Q1116 1323 1167 1170Q1191 1098 1173 1047T1092 975Q1047 961 997
968T890 987T769 1000T633 979L620 1014Z" />
<glyph unicode="+" horiz-adv-x="1131" d="M113 682Q113 713 132 731T178 750H955Q980 750 999 732T1018 682Q1018 650 999 633T955 615H177Q152 615 133 632T113 682ZM561 248Q530 248 512 267T493 313V1090Q493 1115 511 1134T561 1153Q593 1153 610 1134T628
1090V312Q628 287 611 268T561 248Z" />
<glyph unicode="," horiz-adv-x="620" d="M291 -15Q198 -15 152 36T106 165Q106 251 165 309T312 367Q408 367 473 297T539 82Q539 -14 514 -90T443 -222T331 -316T185 -371Q142 -380 118 -372T90 -344Q85 -322 99 -304T158 -273Q239 -248 288 -214T361 -140T384
-53Q384 -34 375 -25T342 -15H291Z" />
<glyph unicode="-" horiz-adv-x="808" d="M679 669Q762 669 730 583L703 505Q689 465 669 451T616 436H129Q46 436 78 522L105 600Q120 640 139 654T191 669H679Z" />
<glyph unicode="." horiz-adv-x="596" d="M298 -26Q240 -26 193 3T119 81T91 186Q91 245 118 292T193 368T298 397Q357 397 404 369T478 293T505 186Q505 130 478 82T404 4T298 -26Z" />
<glyph unicode="/" horiz-adv-x="1004" d="M568 581Q545 530 516 461T457 315T395 157T334 -1T276 -144T225 -260Q207 -298 170 -308T85 -296Q37 -274 21 -239T22 -165Q45 -116 77 -52T149 84T229 232T310 382T383 522T441 640Q466 692 494 760T553 907T615 1065T676
1223T734 1366T785 1481Q803 1520 840 1530T925 1518Q973 1496 989 1461T988 1387Q966 1338 933 1274T861 1137T780 988T700 839T626 699T568 581Z" />
<glyph unicode="0" horiz-adv-x="1404" d="M708 1435Q908 1435 1048 1349T1262 1098T1336 697Q1336 472 1257 308T1035 54T696 -36Q496 -36 356 50T142 302T68 703Q68 928 147 1092T370 1345T708 1435ZM942 653Q942 899 915 1048T832 1265T695 1333Q619 1333 567
1273T489 1083T462 747Q462 501 490 351T572 134T709 67Q785 67 837 127T915 317T942 653Z" />
<glyph unicode="1" horiz-adv-x="978" d="M166 1196H253Q287 1196 302 1179T317 1116V220Q317 183 301 164T255 138L139 117Q81 104 81 57Q81 31 99 16T155 0H850Q883 0 899 15T916 57Q916 105 866 116L762 138Q733 144 719 163T704 220V1365Q704 1433 636 1433Q614
1433 595 1427T554 1407Q486 1366 427 1347T280 1327H171Q134 1327 113 1308T91 1261Q91 1232 109 1214T166 1196Z" />
<glyph unicode="2" horiz-adv-x="1283" d="M250 301L191 349L407 484Q522 553 598 630T712 803T750 1020Q750 1138 732 1210T679 1315T596 1348Q524 1348 493 1297T461 1160V1034Q461 954 413 907T279 859Q199 859 151 910T103 1054Q103 1153 160 1240T336 1381T635
1435Q813 1435 927 1384T1097 1241T1153 1033Q1153 931 1099 843T927 669T619 489L250 301ZM72 153Q72 264 157 331T403 399Q478 399 545 386T678 356T810 327T950 314Q1019 314 1060 341T1133 429Q1146 452 1162 460T1196 468Q1218 466 1229 447T1238 387Q1225
234 1182 141T1067 6T900 -36Q824 -36 766 -14T662 57T581 190Q555 239 536 255T492 271Q463 271 446 247T424 164Q418 90 394 47T328 -16T231 -36Q162 -36 117 15T72 153Z" />
<glyph unicode="3" horiz-adv-x="1182" d="M546 730L516 760Q534 765 554 768T598 773T647 775Q792 775 899 731T1066 605T1125 408Q1125 274 1058 174T867 19T573 -36Q409 -36 299 6T134 120T78 284Q78 370 131 423T265 477Q349 477 391 432T434 310V209Q434
143 470 100T573 56Q630 56 671 87T736 183T759 353Q759 511 703 582T538 653H469Q433 653 416 668T399 712Q399 734 409 751T446 794L895 1215L905 1112H364Q325 1112 304 1098T275 1053L252 962Q246 937 230 922T182 907Q152 908 133 924T117 975L152 1319Q155
1356 182 1378T256 1400H1045Q1095 1400 1117 1388T1139 1347Q1139 1328 1125 1305T1065 1238L546 730Z" />
<glyph unicode="4" horiz-adv-x="1325" d="M654 651Q654 676 662 694T686 727L915 935Q938 956 952 962T981 968Q1001 968 1012 957T1023 920L1025 205Q1025 175 1039 160T1078 137L1152 116Q1180 107 1194 93T1209 57Q1209 31 1192 16T1137 0H528Q456 0 456 56Q456
101 512 116L602 137Q628 144 641 158T654 203V651ZM444 871Q491 914 512 950T534 1023Q534 1055 523 1082T497 1138T471 1198T460 1272Q460 1327 487 1370T567 1438T702 1463Q800 1463 859 1414T919 1274Q919 1236 906 1195T853 1100T733 972L157 412L136 465H1170Q1201
465 1220 453T1239 413Q1239 354 1168 354H108Q72 354 52 372T32 420Q32 437 43 457T84 504L444 871Z" />
<glyph unicode="5" horiz-adv-x="1219" d="M92 281Q92 367 146 422T281 477Q364 477 406 430T449 309V182Q449 127 485 89T591 50Q669 50 720 129T771 376Q771 557 706 640T535 724Q497 724 462 712T394 677T326 619Q300 598 281 589T238 580Q212 580 193 594T174
640V1333Q174 1376 198 1400T274 1424Q296 1424 321 1419T387 1398Q436 1381 494 1368T619 1347T753 1339Q865 1339 930 1360T1032 1417Q1063 1440 1081 1444T1114 1443Q1127 1439 1134 1425T1138 1380Q1119 1253 1063 1175T912 1062T680 1026Q597 1026 514 1038T355
1072T223 1123L303 1220V672L253 684Q308 740 365 776T490 829T645 846Q793 846 903 794T1075 646T1137 423Q1137 277 1067 175T870 18T573 -36Q416 -36 309 6T147 120T92 281Z" />
<glyph unicode="6" horiz-adv-x="1291" d="M737 1435Q882 1435 982 1393T1135 1281T1187 1132Q1187 1044 1136 995T998 946Q911 946 863 991T815 1120V1209Q815 1270 786 1302T695 1334Q644 1334 600 1298T522 1180T469 964T450 635Q450 414 479 289T556 114T665
64Q754 64 806 144T859 395Q859 552 799 632T641 713Q586 713 538 688T456 616T415 511L351 541Q357 623 415 693T570 807T786 851Q921 851 1020 803T1173 663T1227 439Q1227 298 1159 191T965 24T669 -36Q477 -36 343 48T139 287T67 653Q67 903 148 1077T380 1343T737
1435Z" />
<glyph unicode="7" horiz-adv-x="1099" d="M831 1111L895 1078H313Q274 1078 257 1065T231 1019L203 908Q197 883 179 868T132 853Q98 853 81 870T66 922L95 1320Q97 1356 120 1378T185 1400H1022Q1070 1400 1095 1379T1121 1323Q1121 1302 1107 1277T1056 1207L834
912Q762 824 718 763T651 658T621 583T613 519Q613 467 634 430T683 358T732 280T754 175Q754 90 694 27T515 -36Q399 -36 328 31T257 227Q257 302 283 377T374 547T554 772L831 1111Z" />
<glyph unicode="8" horiz-adv-x="1307" d="M617 -35Q434 -35 318 10T148 133T93 311Q93 390 141 456T291 566T553 623L557 600Q507 560 487 486T466 339Q466 202 516 126T663 49Q751 49 796 105T841 260Q841 329 814 386T720 489T534 568Q301 633 200 741T98 986Q98
1104 163 1206T362 1372T699 1435Q864 1435 982 1386T1163 1249T1227 1051Q1227 962 1178 885T1022 755T745 692L717 717Q759 751 792 801T844 914T863 1049Q863 1145 839 1211T767 1312T651 1347Q591 1347 550 1319T487 1240T465 1125Q465 1036 496 968T602 847T808
755Q1025 689 1127 591T1230 366Q1230 249 1158 159T950 17T617 -35Z" />
<glyph unicode="9" horiz-adv-x="1294" d="M559 -35Q414 -35 313 7T158 118T105 268Q105 357 156 405T294 454Q382 454 430 409T478 280V190Q478 131 508 99T601 66Q670 66 725 132T812 352T844 766Q844 988 816 1112T739 1286T631 1336Q541 1336 489 1257T436
1012Q436 860 496 782T653 704Q709 704 758 728T840 794T880 893L944 875Q938 793 880 723T725 609T509 565Q373 565 274 612T121 749T67 968Q67 1107 136 1212T330 1376T627 1435Q819 1435 952 1352T1156 1114T1227 748Q1227 499 1146 324T916 57T559 -35Z" />
<glyph unicode=":" horiz-adv-x="600" d="M300 -26Q242 -26 195 3T121 81T93 186Q93 245 120 292T195 368T300 397Q359 397 406 369T480 293T507 186Q507 130 480 82T406 4T300 -26ZM300 558Q242 558 195 587T121 665T93 770Q93 829 120 876T195 952T300 981Q359
981 406 953T480 877T507 770Q507 714 480 666T406 588T300 558Z" />
<glyph unicode=";" horiz-adv-x="624" d="M312 557Q254 557 207 586T133 664T105 769Q105 828 132 875T207 951T312 980Q371 980 418 952T492 876T519 769Q519 713 492 665T418 587T312 557ZM292 -15Q199 -15 153 36T107 165Q107 251 166 309T313 367Q409 367
474 297T540 82Q540 -14 515 -90T444 -222T332 -316T186 -371Q143 -380 119 -372T91 -344Q86 -322 100 -304T159 -273Q240 -248 289 -214T362 -140T385 -53Q385 -34 376 -25T343 -15H292Z" />
<glyph unicode="&lt;" horiz-adv-x="1046" d="M269 697V671L866 1018Q901 1036 916 1058T931 1099Q932 1127 916 1144T865 1162Q837 1162 809 1150T737 1116L169 789Q131 770 111 744T91 684Q91 650 111 624T169 578L741 250Q783 229 812 217T869 204Q903 204
919 222T934 268Q934 287 919 309T870 349L269 697Z" />
<glyph unicode="=" horiz-adv-x="1131" d="M120 864Q120 895 139 913T185 932H962Q987 932 1006 914T1025 864Q1025 832 1006 815T962 797H184Q159 797 140 814T120 864ZM120 507Q120 538 139 556T185 575H962Q987 575 1006 557T1025 507Q1025 475 1006 458T962
440H184Q159 440 140 457T120 507Z" />
<glyph unicode="&gt;" horiz-adv-x="1046" d="M770 671V697L173 350Q138 332 123 310T108 269Q107 241 123 224T174 206Q202 206 230 218T302 252L870 579Q908 598 928 624T948 684Q948 718 928 744T870 790L298 1118Q256 1139 227 1151T170 1164Q136 1164 120
1146T105 1100Q105 1081 120 1059T169 1019L770 671Z" />
<glyph unicode="?" horiz-adv-x="1138" d="M417 667L437 545Q445 513 462 499T512 484Q541 484 557 497T584 548L603 655Q611 688 625 703T671 726L740 742Q920 781 999 870T1079 1098Q1079 1276 952 1372T566 1468Q418 1468 303 1419T122 1289T56 1110Q56 1022
104 974T233 926Q326 926 376 982T426 1139V1226Q426 1291 460 1327T554 1363Q619 1363 653 1308T687 1145Q687 1015 662 940T561 832L495 804Q441 781 424 749T417 667ZM505 -26Q448 -26 401 3T327 81T299 186Q299 245 326 292T401 368T505 397Q565 397 612 369T686
293T713 186Q713 130 686 82T612 4T505 -26Z" />
<glyph unicode="@" horiz-adv-x="1905" d="M1087 496Q1061 507 1037 513T979 519Q925 519 888 484T851 384Q851 318 883 283T965 248Q1005 248 1039 265T1092 312L1116 255Q1071 183 986 144T806 104Q675 104 596 165T516 327Q516 444 626 517T946 590Q1005 590
1040 583T1112 557L1087 496ZM1451 238Q1497 238 1539 264T1615 340T1668 464T1687 633Q1687 845 1592 998T1335 1233T970 1315Q801 1315 662 1260T422 1102T268 861T214 555Q214 323 311 149T580 -121T976 -218Q1164 -218 1330 -156T1645 49Q1674 75 1696 80T1734
72Q1749 59 1745 36T1710 -20Q1640 -100 1533 -167T1284 -276T975 -318Q785 -318 624 -258T343 -84T157 191T91 555Q91 736 155 892T337 1166T618 1349T978 1415Q1152 1415 1303 1363T1568 1211T1745 965T1809 634Q1809 477 1757 358T1606 171T1368 104Q1285 104
1223 122T1125 175T1084 258L1058 264V838Q1058 889 1034 921T963 953Q921 953 897 930T873 870V806Q873 737 822 699T700 660Q642 660 598 689T554 785Q554 859 605 917T756 1008T1003 1041Q1116 1041 1201 1012T1334 923T1382 771V316Q1382 278 1398 258T1451
238Z" />
<glyph unicode="A" horiz-adv-x="1521" d="M352 582H938L941 457H347L352 582ZM490 56Q490 31 473 16T418 0H100Q64 0 46 15T28 56Q28 74 37 87T70 113L96 126Q128 143 145 170T184 265L472 1169Q488 1221 483 1244T441 1281Q414 1293 403 1308T391 1344Q391 1371
409 1385T464 1400H1029Q1066 1400 1083 1386T1101 1344Q1101 1322 1090 1307T1054 1283Q1028 1273 1023 1256T1031 1199L1340 246Q1358 188 1375 161T1423 122Q1455 107 1466 93T1477 56Q1477 31 1459 16T1404 0H919Q881 0 864 15T846 56Q846 77 857 90T893 113L938
126Q964 136 962 155T946 217L621 1253L659 1278L343 285Q329 239 329 210T347 162T403 125L444 111Q465 102 477 90T490 56Z" />
<glyph unicode="B" horiz-adv-x="1481" d="M1440 336Q1440 186 1311 93T918 0H168Q131 0 114 15T96 56Q96 101 143 118L190 131Q216 140 228 154T241 193V1208Q241 1231 229 1245T190 1269L143 1282Q96 1299 96 1344Q96 1370 113 1385T168 1400H754Q945 1400 1080
1349T1288 1205T1360 990Q1360 890 1302 812T1131 688T854 643L905 679Q1066 679 1186 636T1373 515T1440 336ZM783 597H522V692H746Q828 692 883 723T967 815T996 969Q996 1068 960 1139T854 1250T687 1290H627V217Q627 162 659 136T752 110H831Q904 110 954 138T1031
220T1058 348Q1058 463 987 530T783 597Z" />
<glyph unicode="C" horiz-adv-x="1424" d="M1362 386Q1362 311 1322 236T1207 99T1025 -1T784 -39Q564 -39 404 54T156 313T69 692Q69 853 121 989T266 1225T485 1381T757 1437Q853 1437 913 1420T1009 1384T1067 1365Q1094 1365 1110 1381T1143 1414T1187 1430Q1209
1430 1223 1417T1246 1371L1350 1020Q1358 994 1344 973T1303 945Q1275 939 1252 950T1216 990Q1163 1110 1100 1179T965 1277T815 1306Q734 1306 668 1268T555 1160T483 990T458 766Q458 569 514 436T670 234T899 166Q1018 166 1110 225T1259 394Q1273 422 1289
430T1326 435Q1345 432 1353 420T1362 386Z" />
<glyph unicode="D" horiz-adv-x="1633" d="M96 56Q96 101 143 118L191 131Q216 140 228 154T241 192V1208Q241 1231 229 1245T191 1269L143 1282Q96 1299 96 1344Q96 1370 114 1385T168 1400H744Q929 1400 1080 1346T1340 1191T1507 954T1566 652Q1566 463 1478
316T1226 85T838 0H168Q132 0 114 15T96 56ZM794 120Q904 120 988 177T1120 353T1168 658Q1168 803 1136 918T1043 1114T896 1237T701 1280H627V220Q627 168 655 144T738 120H794Z" />
<glyph unicode="E" horiz-adv-x="1351" d="M483 766H772Q834 766 860 791T904 886Q912 915 927 928T964 942Q1010 943 1022 892L1100 585Q1107 553 1099 535T1067 509Q1043 501 1023 507T987 535Q957 582 932 606T876 640T797 649H483V766ZM96 1344Q96 1370 114
1385T169 1400H928Q969 1400 995 1409T1045 1428T1099 1438Q1136 1438 1155 1417T1188 1349L1271 1065Q1280 1035 1271 1015T1235 986Q1205 976 1181 987T1142 1027Q1101 1106 1065 1155T993 1232T917 1269T824 1280H627V229Q627 175 656 148T742 120H854Q925 120
978 143T1081 231T1188 420Q1201 447 1222 457T1269 462Q1299 457 1312 436T1316 381L1227 53Q1213 8 1194 -14T1133 -36Q1107 -36 1084 -27T1034 -9T967 0H169Q132 0 114 15T96 56Q96 101 143 118L191 131Q216 140 228 154T241 192V1208Q241 1231 229 1245T191
1269L143 1282Q96 1299 96 1344Z" />
<glyph unicode="F" horiz-adv-x="1263" d="M889 1400Q931 1400 959 1408T1011 1425T1057 1434Q1096 1434 1116 1415T1149 1349L1234 1048Q1242 1022 1227 1004T1184 981Q1161 977 1139 985T1103 1023Q1051 1130 1004 1185T906 1260T790 1280H627V192Q627 169 639
153T678 131L753 119Q781 113 793 99T805 56Q805 31 788 16T733 0H169Q132 0 114 15T96 56Q96 101 143 118L191 131Q216 140 228 154T241 192V1208Q241 1231 229 1245T191 1269L143 1282Q96 1299 96 1344Q96 1370 114 1385T169 1400H889ZM483 728H778Q842 728 868
753T915 852Q923 878 938 889T973 900Q1022 902 1034 853L1110 544Q1118 513 1109 496T1077 471Q1054 463 1033 470T994 503Q966 545 942 568T887 601T807 610H483V728Z" />
<glyph unicode="G" horiz-adv-x="1549" d="M1370 32Q1370 -4 1354 -21T1303 -38Q1274 -38 1251 -22T1206 17T1166 56T1126 73Q1103 73 1075 56T1005 18T906 -21T764 -38Q601 -38 472 14T254 164T117 397T69 698Q69 857 123 992T274 1227T502 1382T786 1437Q889
1437 953 1419T1057 1383T1120 1365Q1147 1365 1163 1381T1197 1414T1241 1430Q1262 1430 1276 1417T1300 1371L1403 1019Q1411 992 1397 971T1357 944Q1328 938 1305 948T1269 988Q1216 1111 1149 1180T1004 1277T842 1306Q725 1306 639 1240T505 1053T457 764Q457
559 512 419T662 208T879 137Q915 137 942 145T988 168T1017 205T1027 254V488Q1027 511 1016 522T972 542L918 555Q890 562 875 576T860 612Q860 637 878 651T933 666H1424Q1462 666 1480 652T1498 613Q1498 592 1487 579T1451 557L1420 547Q1395 539 1383 527T1370
488V32Z" />
<glyph unicode="H" horiz-adv-x="1752" d="M403 725H1258V600H403V725ZM627 192Q627 169 640 155T678 131L725 118Q772 101 772 56Q772 31 755 16T700 0H168Q131 0 114 15T96 56Q96 101 143 118L190 131Q216 140 228 154T241 192V1208Q241 1231 229 1245T190 1269L143
1282Q96 1299 96 1344Q96 1370 113 1385T168 1400H700Q737 1400 754 1385T772 1344Q772 1299 725 1282L678 1269Q653 1260 640 1246T627 1208V192ZM1511 192Q1511 169 1524 155T1561 131L1609 118Q1656 101 1656 56Q1656 31 1639 16T1583 0H1052Q1015 0 998 15T980
56Q980 101 1026 118L1074 131Q1099 140 1112 154T1125 192V1208Q1125 1231 1112 1245T1074 1269L1026 1282Q980 1299 980 1344Q980 1370 997 1385T1052 1400H1583Q1621 1400 1638 1385T1656 1344Q1656 1299 1609 1282L1561 1269Q1537 1260 1524 1246T1511 1208V192Z"
/>
<glyph unicode="I" horiz-adv-x="868" d="M627 192Q627 169 640 155T677 131L725 118Q772 101 772 56Q772 31 755 16T699 0H168Q131 0 114 15T96 56Q96 101 142 118L190 131Q216 140 228 154T241 192V1208Q241 1231 229 1245T190 1269L142 1282Q96 1299 96 1344Q96
1370 113 1385T168 1400H699Q737 1400 754 1385T772 1344Q772 1299 725 1282L677 1269Q653 1260 640 1246T627 1208V192Z" />
<glyph unicode="J" horiz-adv-x="1110" d="M961 262Q961 129 837 48T496 -34Q291 -34 177 43T62 253Q62 341 110 395T241 449Q312 449 358 400T404 260V179Q404 127 429 99T511 70Q567 70 601 100T636 187Q636 237 614 281T561 375T508 491T485 650V1207Q485 1232
474 1247T435 1269L370 1281Q343 1287 330 1302T317 1344Q317 1370 334 1385T389 1400H944Q981 1400 998 1385T1016 1344Q1016 1299 969 1282L922 1269Q897 1260 884 1246T871 1208V675Q871 599 885 545T916 448T947 362T961 262Z" />
<glyph unicode="K" horiz-adv-x="1656" d="M508 560L1069 1099Q1115 1143 1129 1176T1133 1234T1088 1271L1047 1284Q1024 1294 1013 1308T1001 1344Q1001 1370 1019 1385T1074 1400H1491Q1528 1400 1546 1385T1564 1344Q1564 1321 1550 1309T1496 1280Q1481 1275
1465 1266T1424 1238T1358 1182T1249 1084L561 446L508 560ZM731 719L1028 966L1497 199Q1520 162 1540 146T1585 123Q1615 111 1626 94T1637 56Q1637 30 1619 15T1564 0H1039Q1002 0 984 15T966 57Q966 79 977 94T1006 115L1046 125Q1065 131 1065 149T1044 204L731
719ZM627 192Q627 169 637 155T670 131L710 118Q737 106 746 92T756 56Q756 31 739 16T684 0H169Q132 0 114 15T96 56Q96 101 143 118L191 131Q216 140 228 154T241 192V1208Q241 1231 229 1245T191 1269L143 1282Q96 1299 96 1344Q96 1370 114 1385T169 1400H700Q737
1400 754 1385T772 1344Q772 1299 725 1282L678 1269Q653 1260 640 1246T627 1208V192Z" />
<glyph unicode="L" horiz-adv-x="1297" d="M725 1282L677 1269Q653 1260 640 1246T627 1208V193Q627 153 648 137T709 120H831Q886 120 925 135T999 190T1068 306L1133 446Q1147 476 1168 486T1218 488Q1246 480 1258 461T1261 408L1166 53Q1152 7 1132 -14T1073
-36Q1050 -36 1027 -27T976 -9T906 0H168Q131 0 114 15T96 56Q96 101 142 118L190 131Q216 140 228 154T241 192V1208Q241 1231 229 1245T190 1269L142 1282Q96 1299 96 1344Q96 1370 113 1385T168 1400H699Q737 1400 754 1385T772 1344Q772 1299 725 1282Z" />
<glyph unicode="M" horiz-adv-x="1910" d="M1025 432L902 404L1239 1288Q1263 1352 1294 1376T1382 1400H1721Q1758 1400 1776 1385T1794 1344Q1794 1321 1782 1306T1748 1282L1703 1268Q1670 1258 1659 1241T1650 1186L1720 205Q1722 169 1733 155T1772 131L1816
118Q1838 111 1849 96T1860 59Q1860 34 1842 17T1787 0H1266Q1228 0 1211 15T1193 56Q1193 78 1203 93T1240 118L1285 131Q1317 142 1328 157T1338 205L1259 1227L1370 1236L956 141Q933 80 909 63T852 45Q828 45 808 51T771 78T735 147L313 1202L419 1229L337
238Q334 193 357 169T418 127L457 111Q473 103 482 91T491 59Q491 32 474 16T419 0H112Q75 0 58 15T40 56Q40 82 54 95T91 120L122 132Q155 145 176 169T202 239L278 1153Q282 1207 270 1232T225 1268L181 1282Q157 1290 145 1305T133 1343Q133 1400 206 1400H542Q594
1400 625 1379T682 1292L1025 432Z" />
<glyph unicode="N" horiz-adv-x="1544" d="M544 56Q544 31 527 16T472 0H149Q112 1 94 16T76 56Q76 99 127 120L161 132Q207 151 225 175T243 252V1062Q243 1097 236 1117T201 1172L120 1277Q101 1303 94 1317T87 1348Q87 1373 104 1386T149 1400H434Q468 1400
490 1388T536 1344L1247 371L1194 226V1148Q1194 1199 1178 1223T1113 1268L1079 1280Q1028 1303 1028 1344Q1028 1370 1046 1385T1100 1400H1423Q1460 1400 1478 1385T1496 1344Q1496 1302 1445 1280L1411 1268Q1365 1250 1347 1226T1329 1148V325Q1329 289 1335
263T1357 214L1419 130Q1442 101 1446 86T1451 55Q1451 30 1434 15T1387 0H1058Q1002 0 1002 45Q1002 62 995 78T957 136L260 1091L378 1167V251Q378 202 394 178T459 132L493 120Q544 98 544 56Z" />
<glyph unicode="O" horiz-adv-x="1600" d="M795 1437Q964 1437 1099 1384T1331 1231T1478 995T1529 691Q1529 536 1479 403T1333 171T1104 17T803 -38Q635 -38 500 15T269 168T122 404T70 708Q70 863 121 996T266 1228T495 1382T795 1437ZM1132 464Q1132 598 1109
723T1046 956T952 1144T839 1270T715 1316Q639 1316 584 1272T500 1143T471 935Q471 801 494 676T557 443T650 254T763 128T887 82Q965 82 1019 126T1103 256T1132 464Z" />
<glyph unicode="P" horiz-adv-x="1463" d="M1407 882Q1407 751 1339 656T1145 507T845 454Q730 454 639 479T476 548L490 653Q528 627 566 610T647 585T738 577Q821 577 887 612T993 718T1032 892Q1032 1012 987 1099T863 1233T679 1281H627V192Q627 169 639 153T678
131L751 119Q780 113 792 99T804 56Q804 31 787 16T732 0H169Q132 0 114 15T96 56Q96 101 143 118L191 131Q216 140 228 154T241 192V1208Q241 1231 229 1245T191 1269L143 1282Q96 1299 96 1344Q96 1370 114 1385T168 1400H690Q918 1400 1078 1334T1323 1150T1407
882Z" />
<glyph unicode="Q" horiz-adv-x="1601" d="M793 1437Q962 1437 1097 1384T1329 1231T1477 995T1528 691Q1528 536 1478 403T1332 171T1103 17T802 -38Q634 -38 499 15T267 168T120 404T68 708Q68 863 119 996T265 1228T493 1382T793 1437ZM1133 464Q1133 598 1110
723T1046 956T952 1144T839 1270T715 1316Q639 1316 584 1272T500 1143T471 935Q471 802 494 677T557 443T650 254T763 128T887 82Q965 82 1019 126T1103 256T1133 464ZM821 342Q812 375 819 400T856 433Q887 441 906 425T934 376Q974 250 1018 168T1115 37T1230
-31T1370 -51Q1422 -51 1449 -41T1493 -19T1534 -4Q1552 -3 1560 -12T1569 -39Q1569 -52 1565 -67T1551 -102L1503 -211Q1488 -246 1459 -261T1371 -277Q1282 -277 1203 -243T1053 -135T925 57T821 342Z" />
<glyph unicode="R" horiz-adv-x="1581" d="M1436 914Q1436 820 1393 743T1271 614T1080 541Q1034 532 995 522T917 505T828 498Q766 498 712 506T614 531T534 569L538 676Q566 656 599 643T673 623T761 616Q892 616 966 688T1040 906Q1040 1018 996 1104T873 1240T690
1290H627V193Q627 169 637 155T670 131L718 118Q746 106 755 92T765 56Q765 0 693 0H168Q131 0 114 15T96 56Q96 101 142 118L190 131Q216 140 228 154T241 193V1208Q241 1231 229 1245T190 1269L142 1282Q96 1299 96 1344Q96 1370 113 1385T168 1400H705Q941 1400
1104 1338T1351 1167T1436 914ZM803 545L1179 587L1420 189Q1438 159 1455 143T1500 117Q1528 106 1539 92T1550 56Q1550 31 1533 16T1477 0H1015Q946 0 946 56Q946 70 952 81T975 101L996 109Q1015 121 1018 134T1007 173L803 545Z" />
<glyph unicode="S" horiz-adv-x="1256" d="M672 -30Q596 -30 542 -14T452 20T395 37Q374 37 358 26T326 1T295 -24T258 -35Q233 -35 216 -20T193 31L130 367Q127 392 138 410T175 437Q204 447 225 437T263 395Q323 278 385 213T512 120T645 92Q738 92 792 138T847
265Q847 318 822 359T724 440T507 523Q353 571 260 635T125 789T83 1000Q83 1125 143 1221T314 1372T574 1426Q660 1426 718 1410T815 1377T882 1360Q906 1360 922 1377T956 1412T1005 1430Q1032 1430 1050 1413T1081 1350L1174 1020Q1182 989 1171 965T1133 931Q1104
922 1083 933T1047 971Q983 1097 912 1169T766 1273T618 1304Q527 1304 475 1253T423 1119Q423 1068 447 1025T543 940T754 848Q909 793 1000 729T1133 582T1173 389Q1173 273 1114 178T942 27T672 -30Z" />
<glyph unicode="T" horiz-adv-x="1442" d="M376 1400H1066Q1108 1400 1136 1408T1186 1425T1232 1434Q1272 1434 1292 1415T1325 1348L1390 1019Q1397 985 1385 964T1344 938Q1317 932 1297 941T1261 980Q1205 1099 1165 1162T1088 1249T1001 1274H914V192Q914
169 927 155T965 131L1012 118Q1059 101 1059 56Q1059 0 987 0H455Q418 0 401 15T383 56Q383 101 430 118L477 131Q503 140 515 154T528 192V1274H441Q393 1274 355 1250T277 1162T181 980Q167 951 146 942T98 938Q70 943 58 964T52 1019L117 1348Q129 1395 149
1414T210 1434Q234 1434 256 1426T306 1409T376 1400Z" />
<glyph unicode="U" horiz-adv-x="1516" d="M1194 610L1157 1155Q1154 1205 1135 1232T1074 1270L1036 1279Q1001 1288 987 1303T973 1343Q973 1369 991 1384T1042 1400H1408Q1441 1400 1459 1385T1477 1343Q1477 1318 1462 1304T1413 1279L1377 1270Q1323 1255
1306 1225T1292 1146L1330 613Q1335 561 1337 511T1340 406Q1342 280 1282 180T1097 21T781 -38Q585 -38 454 16T258 170T194 404Q194 425 195 456T199 533T206 644L241 1204Q243 1233 230 1247T181 1269L136 1279Q73 1293 73 1343Q73 1369 91 1384T142 1400H723Q757
1400 774 1385T792 1343Q792 1318 778 1303T729 1279L682 1269Q655 1264 643 1249T628 1206L594 642Q590 576 589 522T587 428Q586 256 662 178T875 100Q977 100 1050 137T1163 244T1202 409Q1201 480 1199 525T1194 610Z" />
<glyph unicode="V" horiz-adv-x="1475" d="M996 1344Q996 1370 1013 1385T1068 1400H1386Q1423 1400 1440 1385T1458 1344Q1458 1325 1447 1313T1412 1289L1379 1275Q1345 1259 1322 1229T1278 1131L977 224Q963 182 958 157T952 106V55Q952 29 936 15T894 0H587Q562
0 547 14T531 58V108Q531 125 525 146T510 194L167 1196Q155 1230 142 1245T105 1272L71 1285Q31 1304 31 1344Q31 1370 49 1385T104 1400H631Q669 1400 686 1385T703 1344Q703 1323 692 1311T656 1288L607 1273Q581 1263 575 1242T583 1175L907 215L798 121L1140
1144Q1156 1193 1145 1223T1085 1275L1042 1289Q1020 1298 1008 1310T996 1344Z" />
<glyph unicode="W" horiz-adv-x="2178" d="M1043 1104L1174 1080L897 199Q889 175 884 152T879 96V57Q879 29 864 15T824 0H534Q509 0 494 14T478 57V96Q478 115 475 129T462 175L153 1202Q143 1235 130 1249T93 1274L53 1288Q32 1296 23 1311T14 1345Q14 1371
31 1385T86 1400H597Q634 1400 651 1385T669 1345Q669 1305 629 1292L580 1281Q555 1274 550 1251T558 1185L851 194L726 106L1043 1104ZM1726 1344Q1726 1370 1744 1385T1798 1400H2098Q2136 1400 2153 1385T2170 1344Q2170 1325 2161 1313T2124 1289L2092 1275Q2057
1258 2034 1228T1993 1136L1732 199Q1722 162 1718 142T1714 96V57Q1714 29 1699 15T1659 0H1360Q1336 0 1320 14T1304 57V96Q1304 113 1302 128T1289 177L993 1202Q981 1245 972 1258T945 1278L906 1293Q884 1301 875 1313T866 1344Q866 1370 884 1385T938 1400H1433Q1470
1400 1487 1385T1505 1344Q1505 1324 1494 1311T1460 1289L1415 1278Q1392 1271 1387 1252T1394 1184L1675 193L1563 109L1858 1152Q1872 1201 1861 1232T1803 1281L1765 1292Q1745 1300 1736 1312T1726 1344Z" />
<glyph unicode="X" horiz-adv-x="1485" d="M1298 213Q1320 181 1336 164T1371 137T1417 118Q1442 108 1455 93T1469 56Q1469 30 1452 15T1397 0H819Q782 0 765 15T747 56Q747 80 760 95T806 121Q834 130 846 145T854 183T830 235L184 1199Q168 1224 155 1239T126
1264T86 1282Q57 1295 46 1308T35 1344Q35 1370 53 1385T108 1400H662Q700 1400 716 1385T732 1344Q732 1321 724 1307T694 1286L657 1277Q626 1269 623 1251T642 1197L1298 213ZM859 689L724 730L1043 1156Q1077 1202 1073 1231T1030 1273L997 1284Q978 1292 966
1307T954 1344Q954 1370 971 1385T1024 1400H1337Q1410 1400 1410 1345Q1410 1323 1394 1308T1344 1276Q1304 1259 1272 1225T1185 1118L859 689ZM615 731L750 682L405 236Q368 187 374 160T415 120L443 112Q464 103 474 90T485 56Q485 31 468 16T415 0H101Q65
0 47 15T29 56Q29 76 41 90T84 119Q126 138 156 161T213 215T270 284L615 731Z" />
<glyph unicode="Y" horiz-adv-x="1400" d="M880 440L572 393L163 1201Q145 1238 132 1252T95 1275L66 1286Q44 1295 34 1310T24 1344Q24 1370 42 1385T97 1400H621Q658 1400 676 1385T695 1344Q695 1297 645 1283L607 1274Q574 1264 568 1246T579 1188L874 541L748
478L1068 1144Q1089 1189 1079 1223T1020 1275L983 1286Q966 1293 955 1307T944 1344Q944 1370 962 1385T1017 1400H1312Q1349 1400 1366 1385T1384 1344Q1384 1324 1375 1311T1345 1287L1329 1279Q1309 1271 1292 1256T1257 1212T1212 1130L880 440ZM525 515H911V192Q911
169 924 155T961 131L1009 118Q1056 101 1056 56Q1056 31 1039 16T984 0H452Q415 0 398 15T380 56Q380 101 427 118L474 131Q500 140 512 154T525 192V515Z" />
<glyph unicode="Z" horiz-adv-x="1304" d="M1196 1261L439 44L247 120H799Q847 120 887 129T962 164T1027 236T1088 354L1117 428Q1129 458 1151 467T1200 471Q1229 465 1240 444T1244 392L1171 54Q1161 10 1140 -11T1078 -33Q1055 -33 1033 -25T983 -9T914 0H99Q66
0 50 15T34 57Q34 73 41 93T65 138L827 1362L867 1280H493Q435 1280 393 1264T316 1206T249 1092L222 1031Q207 1001 185 993T140 987Q111 992 97 1011T90 1066L142 1348Q151 1394 173 1415T235 1436Q258 1436 280 1427T331 1409T399 1400H1162Q1194 1400 1211
1386T1229 1344Q1229 1329 1221 1308T1196 1261Z" />
<glyph unicode="[" horiz-adv-x="734" d="M431 1301V-77Q431 -114 450 -129T510 -145H657Q725 -145 725 -201Q725 -225 709 -240T657 -255H241Q195 -255 176 -234T156 -166V1390Q156 1436 175 1457T241 1478H657Q692 1478 708 1463T725 1423Q725 1367 657 1367H510Q469
1367 450 1353T431 1301Z" />
<glyph unicode="\" horiz-adv-x="1003" d="M435 581Q458 530 487 461T546 315T608 157T669 -1T727 -144T778 -260Q796 -298 833 -308T918 -296Q966 -274 982 -239T981 -165Q958 -116 926 -52T854 84T774 232T693 382T620 522T562 640Q537 692 509 760T450 907T388
1065T327 1223T269 1366T218 1481Q200 1520 163 1530T78 1518Q30 1496 14 1461T15 1387Q37 1338 70 1274T142 1137T223 988T303 839T377 699T435 581Z" />
<glyph unicode="]" horiz-adv-x="749" d="M318 -78V1300Q318 1337 299 1352T239 1368H92Q24 1368 24 1424Q24 1448 40 1463T92 1478H508Q554 1478 573 1457T593 1389V-167Q593 -213 574 -234T508 -255H92Q57 -255 41 -240T24 -200Q24 -144 92 -144H239Q280 -144
299 -130T318 -78Z" />
<glyph unicode="^" horiz-adv-x="952" d="M530 1288H428L714 793Q748 750 780 741T840 746Q863 759 866 787T850 850L614 1329Q577 1392 548 1411T478 1430Q440 1430 410 1411T343 1329L102 852Q81 817 84 789T112 747Q139 733 171 742T237 795L530 1288Z" />
<glyph unicode="_" horiz-adv-x="1011" d="M1 -265Q1 -230 15 -210T63 -189H948Q981 -189 995 -209T1009 -265Q1009 -300 995 -320T948 -341H63Q30 -341 16 -321T1 -265Z" />
<glyph unicode="`" horiz-adv-x="542" d="M362 1316L445 1118Q454 1102 457 1086T446 1057Q434 1046 415 1046T377 1053L199 1167Q136 1201 102 1237T61 1327Q54 1374 84 1417T175 1466Q242 1476 286 1434T362 1316Z" />
<glyph unicode="a" horiz-adv-x="1159" d="M674 132V153L649 156V778Q649 832 621 863T543 894Q500 894 475 875T449 827V728Q449 656 400 617T262 578Q186 578 148 611T109 706Q109 770 165 833T331 938T607 980Q804 980 900 904T997 697V198Q997 174 1007 161T1038
148Q1058 148 1068 158T1088 178Q1094 184 1100 189T1116 194Q1131 194 1137 184T1144 156Q1144 117 1117 75T1034 4T897 -26Q797 -26 736 17T674 132ZM70 211Q70 342 187 420T517 498Q579 498 627 489T708 462L680 387Q653 401 626 408T567 415Q501 415 464 378T426
271Q426 201 460 165T548 128Q589 128 627 147T688 197L711 129Q659 55 568 15T372 -26Q237 -26 154 40T70 211Z" />
<glyph unicode="b" horiz-adv-x="1257" d="M486 1422V90L343 13Q276 -10 249 -17T197 -25Q169 -25 152 -9T134 38V1228Q134 1256 126 1268T101 1284L63 1290Q44 1295 35 1306T26 1334Q26 1354 37 1366T80 1389L286 1467Q332 1484 358 1491T406 1498Q446 1498 466
1477T486 1422ZM420 640L363 702Q445 833 549 907T785 981Q904 981 997 921T1145 753T1199 507Q1199 346 1134 226T956 40T704 -26Q584 -26 493 27T340 186L428 250Q475 177 526 143T636 109Q694 109 739 146T809 264T834 470Q834 588 809 662T740 772T640 808Q576
808 522 768T420 640Z" />
<glyph unicode="c" horiz-adv-x="1078" d="M1014 689Q1014 623 966 577T836 531Q758 531 718 573T677 684V717Q677 783 643 822T551 862Q502 862 462 830T398 736T374 583Q374 461 415 379T528 255T691 213Q766 213 824 238T925 318Q948 340 960 348T986 356Q1004
356 1012 340T1020 299Q1017 211 960 137T804 19T575 -26Q427 -26 311 33T127 201T60 453Q60 604 126 723T312 912T595 981Q724 981 818 942T963 836T1014 689Z" />
<glyph unicode="d" horiz-adv-x="1280" d="M784 171L773 174V1228Q773 1256 765 1268T740 1284L702 1290Q683 1295 674 1306T665 1334Q665 1354 676 1366T719 1389L925 1467Q969 1483 996 1490T1048 1498Q1085 1498 1105 1477T1125 1422V183Q1125 148 1132 133T1156
111L1186 101Q1207 93 1216 80T1226 50Q1226 27 1211 14T1161 0H928Q869 0 827 40T784 141V171ZM60 448Q60 609 125 729T302 915T555 981Q675 981 765 928T918 769L831 704Q783 778 732 812T622 846Q564 846 520 809T450 692T424 485Q424 367 449 293T519 183T619
147Q683 147 737 187T838 315L895 253Q814 123 709 49T473 -26Q354 -26 261 34T114 202T60 448Z" />
<glyph unicode="e" horiz-adv-x="1091" d="M1032 598Q1032 537 998 504T901 471H292V560H630Q682 560 682 609Q682 739 644 800T541 862Q492 862 455 830T395 736T373 582Q373 394 459 303T692 212Q770 212 830 238T935 320Q958 342 970 350T995 358Q1013 358
1021 341T1029 300Q1027 213 969 139T810 19T576 -26Q427 -26 311 34T127 201T59 454Q59 611 122 729T303 914T588 981Q732 981 831 932T981 796T1032 598Z" />
<glyph unicode="f" horiz-adv-x="848" d="M572 184Q572 152 583 135T620 114L723 102Q749 99 760 85T772 51Q772 0 709 0H145Q117 0 101 13T84 48Q84 70 95 83T133 103L167 112Q197 121 209 137T221 182V734Q221 753 211 766T173 791L129 808Q94 823 81 837T68
869Q68 889 82 902T128 915H295L222 882V913Q222 937 206 961T167 1013T127 1079T110 1172Q110 1301 209 1380T486 1459Q599 1459 677 1424T796 1331T837 1204Q837 1131 797 1093T692 1055Q621 1055 579 1097T536 1211V1283Q536 1327 511 1348T445 1370Q396 1370
371 1341T346 1256Q346 1208 366 1170T415 1099T475 1037T525 978T545 913V864L507 915H741Q768 915 783 904T799 871Q799 839 768 818T666 796H572V184Z" />
<glyph unicode="g" horiz-adv-x="1193" d="M744 120Q607 137 546 149T470 174T454 198Q454 210 464 221T499 241L484 259Q366 253 299 225T204 155T176 64Q176 12 206 -24T316 -87T547 -133Q670 -149 739 -166T837 -205T865 -261Q865 -299 842 -325T763 -364T612
-378Q446 -378 380 -329T314 -196Q314 -163 336 -135T401 -96L389 -66Q196 -88 123 -144T50 -275Q50 -339 95 -387T251 -463T552 -490Q855 -490 1014 -397T1173 -158Q1173 -77 1132 -22T996 67T744 120ZM745 877L822 870Q856 946 879 973T938 1000Q971 1000 989
984T1022 947T1056 911T1114 895Q1168 895 1200 934T1233 1039Q1233 1112 1189 1152T1074 1192Q986 1192 909 1134T780 955L745 877ZM1089 619Q1089 720 1032 801T866 929T603 977Q443 977 325 928T144 789T80 583Q80 482 137 401T304 272T567 225Q728 225 845
274T1025 413T1089 619ZM541 877Q608 885 653 819T719 615Q740 480 717 410T627 331Q583 326 548 353T488 441T449 592Q435 683 441 744T472 838T541 877Z" />
<glyph unicode="h" horiz-adv-x="1323" d="M521 1422V183Q521 148 528 133T552 111L581 100Q613 84 613 53Q613 0 548 0H132Q99 0 84 13T68 50Q68 67 77 80T107 101L138 111Q155 117 162 132T169 183V1228Q169 1256 161 1268T136 1284L99 1290Q79 1295 71 1306T62
1334Q62 1354 73 1366T115 1389L322 1467Q365 1483 392 1490T444 1498Q482 1498 501 1477T521 1422ZM488 670L436 725L470 756Q603 878 698 929T875 981Q1002 981 1072 896T1156 671L1207 184Q1211 149 1217 133T1240 111L1269 101Q1289 92 1298 80T1308 50Q1308
27 1293 14T1244 0H824Q758 0 758 53Q758 84 790 100L820 111Q837 118 846 133T851 184L806 621Q798 697 769 734T680 772Q644 772 605 755T526 703L488 670Z" />
<glyph unicode="i" horiz-adv-x="667" d="M521 903V183Q521 148 528 133T553 111L583 101Q604 93 613 80T622 50Q622 27 607 14T558 0H132Q99 0 84 13T68 50Q68 67 77 79T107 101L138 111Q155 117 162 132T170 183V708Q170 736 162 748T136 765L99 770Q79 776
71 786T62 814Q62 834 73 846T116 870L322 947Q368 964 394 971T441 979Q481 979 501 958T521 903ZM324 1099Q228 1099 172 1145T115 1271Q115 1349 171 1394T324 1440Q420 1440 476 1395T533 1271Q533 1192 477 1146T324 1099Z" />
<glyph unicode="j" horiz-adv-x="667" d="M521 229Q521 173 538 122T577 21T616 -79T633 -182Q633 -311 538 -388T278 -466Q159 -466 80 -432T-40 -343T-80 -222Q-80 -142 -37 -102T78 -62Q148 -62 189 -107T230 -228V-294Q230 -336 252 -356T314 -377Q359 -377
383 -352T407 -278Q407 -232 383 -189T324 -102T253 -16T194 72T170 165V708Q170 736 162 748T136 765L99 770Q79 776 71 786T62 814Q62 834 73 846T116 870L322 947Q369 964 395 971T443 979Q482 979 501 958T521 903V229ZM321 1099Q225 1099 169 1145T112 1271Q112
1349 168 1394T321 1440Q417 1440 474 1395T531 1271Q531 1192 474 1146T321 1099Z" />
<glyph unicode="k" horiz-adv-x="1276" d="M131 0Q97 0 83 13T68 50Q68 67 77 80T107 101L138 111Q155 117 162 132T169 183V1228Q169 1256 161 1268T136 1284L99 1290Q79 1295 71 1306T62 1334Q62 1354 73 1366T115 1389L322 1467Q365 1483 392 1490T444 1498Q482
1498 501 1477T521 1422V183Q521 148 528 133T552 111L581 100Q613 84 613 53Q613 0 548 0H131ZM418 434L812 753Q846 781 843 808T801 848L770 858Q751 866 744 876T737 905Q737 928 753 941T798 955H1169Q1198 955 1214 942T1231 907Q1231 885 1218 870T1160
844Q1107 831 1064 807T956 732L459 339L418 434ZM800 700L1158 172Q1178 144 1193 131T1235 106Q1257 93 1268 79T1280 46Q1280 25 1264 13T1219 0H779Q754 0 739 13T724 49Q724 64 730 74T753 93L779 102Q801 111 803 127T780 180L569 492L800 700Z" />
<glyph unicode="l" horiz-adv-x="669" d="M522 1422V183Q522 148 529 133T553 111L583 101Q604 93 613 80T623 50Q623 27 608 14T558 0H133Q99 0 84 13T68 50Q68 67 77 80T108 101L139 111Q155 117 162 132T170 183V1228Q170 1256 162 1268T137 1284L99 1290Q80
1295 71 1306T62 1334Q62 1354 73 1366T116 1389L322 1467Q368 1484 394 1491T442 1498Q482 1498 502 1477T522 1422Z" />
<glyph unicode="m" horiz-adv-x="1963" d="M521 903V183Q521 148 528 133T553 111L581 100Q613 84 613 53Q613 0 547 0H132Q99 0 84 13T68 50Q68 67 77 80T107 101L138 111Q155 117 162 132T169 183V708Q169 736 161 748T136 765L99 770Q79 776 71 786T62 814Q62
834 73 846T115 870L322 947Q365 964 392 971T444 979Q482 979 501 958T521 903ZM488 670L436 725L470 756Q604 881 701 931T883 981Q1014 981 1092 896T1170 671V184Q1170 148 1177 133T1202 111L1229 100Q1261 84 1261 53Q1261 0 1196 0H791Q726 0 726 53Q726
84 757 100L786 111Q804 118 811 133T818 185V621Q818 696 784 734T687 772Q649 772 608 755T526 703L488 670ZM1137 670L1084 725L1119 756Q1249 877 1342 929T1516 981Q1642 981 1713 896T1797 671L1848 184Q1852 148 1858 133T1880 111L1909 101Q1930 92 1939
80T1948 50Q1948 27 1933 14T1884 0H1465Q1399 0 1399 53Q1399 84 1431 100L1460 111Q1477 118 1486 133T1492 185L1447 621Q1439 696 1410 734T1320 772Q1286 772 1249 754T1174 703L1137 670Z" />
<glyph unicode="n" horiz-adv-x="1322" d="M521 903V183Q521 148 528 133T552 111L581 100Q613 84 613 53Q613 0 548 0H132Q99 0 84 13T68 50Q68 67 77 79T107 101L138 111Q155 117 162 132T169 183V708Q169 736 161 748T136 765L99 770Q79 776 71 786T62 814Q62
834 73 846T115 870L322 947Q365 964 392 971T444 979Q482 979 501 958T521 903ZM488 670L436 725L470 756Q603 878 698 929T875 981Q1001 981 1072 896T1156 671L1207 184Q1211 149 1217 133T1240 111L1269 101Q1289 92 1298 80T1308 50Q1308 27 1293 14T1244
0H824Q758 0 758 53Q758 84 790 100L820 111Q837 118 846 133T851 184L806 621Q798 697 769 734T680 772Q644 772 605 755T526 703L488 670Z" />
<glyph unicode="o" horiz-adv-x="1217" d="M614 981Q776 981 898 917T1087 739T1155 474Q1155 333 1085 220T890 40T601 -26Q440 -26 318 38T128 217T60 480Q60 624 130 737T325 915T614 981ZM686 97Q739 107 770 155T805 291T784 509Q759 636 721 717T634 833T530
858Q477 848 446 800T411 664T432 446Q456 320 494 239T581 122T686 97Z" />
<glyph unicode="p" horiz-adv-x="1287" d="M500 903V802L515 771V-283Q515 -318 522 -333T546 -355L584 -365Q605 -373 614 -386T624 -416Q624 -439 609 -452T559 -466H126Q93 -466 78 -453T62 -416Q62 -399 71 -387T101 -365L132 -355Q149 -349 156 -334T163
-283V708Q163 736 155 748T130 765L93 770Q73 776 65 786T56 814Q56 834 67 845T109 869L300 947Q342 965 369 972T419 979Q460 979 480 958T500 903ZM450 640L393 702Q475 833 579 907T815 981Q934 981 1027 921T1174 753T1228 507Q1228 346 1163 226T986 40T733
-26Q614 -26 523 27T370 186L457 251Q505 177 556 143T666 109Q724 109 768 146T838 263T864 470Q864 588 839 662T770 772T669 808Q606 808 552 768T450 640Z" />
<glyph unicode="q" horiz-adv-x="1259" d="M729 -466Q696 -466 681 -453T665 -416Q665 -399 674 -386T705 -365L742 -355Q759 -349 766 -334T774 -283V865L917 942Q977 964 1007 972T1058 980Q1090 980 1107 964T1125 917V-283Q1125 -318 1132 -333T1157 -355L1188
-365Q1208 -374 1217 -386T1227 -416Q1227 -439 1212 -452T1163 -466H729ZM896 253Q815 123 710 49T474 -26Q355 -26 262 34T115 202T61 448Q61 609 126 729T303 915T556 981Q676 981 766 928T919 770L831 705Q784 778 733 812T623 846Q565 846 521 809T451 692T425
485Q425 367 450 293T520 183T620 147Q684 147 738 187T839 315L896 253Z" />
<glyph unicode="r" horiz-adv-x="1011" d="M484 538Q484 687 524 785T632 932T776 981Q877 981 931 923T985 749Q985 639 940 586T824 533Q752 533 715 571T678 676V715Q677 744 665 758T626 773Q598 773 575 750T536 677T521 548L484 538ZM499 903L521 683V183Q521
152 531 138T575 118L656 104Q683 99 695 87T708 51Q708 27 691 14T642 0H132Q99 0 84 13T68 50Q68 67 77 80T108 101L138 111Q155 117 162 132T169 183V705Q169 733 161 745T136 762L99 767Q79 773 71 783T62 811Q62 831 73 843T116 867L316 942Q376 965 402 971T444
978Q468 978 481 961T499 903Z" />
<glyph unicode="s" horiz-adv-x="1020" d="M521 81Q584 81 616 111T649 185Q649 212 638 234T591 276T485 310Q315 341 225 391T101 507T67 656Q67 807 172 894T481 981Q553 981 596 970T667 946T716 934Q739 934 752 946T778 969T815 981Q833 981 847 970T871
926L930 735Q944 692 939 666T906 629Q879 619 859 628T820 666Q775 739 724 785T618 852T503 874Q427 874 389 844T350 763Q350 733 366 709T428 666T561 627Q699 600 779 554T895 441T930 284Q930 191 881 121T746 13T547 -26Q478 -26 437 -14T370 11T319 24Q295
24 278 12T246 -13T208 -26Q190 -26 178 -13T159 32L124 215Q116 260 122 282T152 314Q179 325 199 313T240 270Q306 167 377 124T521 81Z" />
<glyph unicode="t" horiz-adv-x="828" d="M111 842L71 855Q48 864 38 876T28 905Q28 929 44 942T87 955H145Q166 955 182 964T220 998L358 1157Q384 1186 407 1200T454 1214Q478 1214 492 1198T506 1152V324Q506 252 532 215T607 177Q644 177 664 193T697 231T722
270T756 288Q773 288 783 276T793 236Q793 165 751 106T633 12T462 -24Q316 -24 236 47T155 263V780Q155 808 145 820T111 842ZM378 836V955H726Q753 955 768 944T784 911Q784 879 753 858T651 836H378Z" />
<glyph unicode="u" horiz-adv-x="1300" d="M796 172V205L784 207V708Q784 736 776 748T751 764L714 770Q694 775 686 786T677 814Q677 834 688 846T730 869L936 947Q980 963 1007 970T1059 978Q1097 978 1116 957T1136 903V183Q1136 148 1143 133T1167 111L1197
101Q1218 93 1227 80T1237 50Q1237 27 1222 14T1172 0H948Q886 0 841 50T796 172ZM147 284V708Q147 736 139 748T114 764L76 770Q57 775 48 786T39 814Q39 834 50 846T93 869L299 947Q345 964 371 971T419 978Q459 978 479 957T499 903V334Q499 258 534 221T632
183Q671 183 714 200T797 252L835 285L887 230L852 199Q719 74 621 24T437 -26Q307 -26 227 59T147 284Z" />
<glyph unicode="v" horiz-adv-x="1141" d="M637 -4H505Q469 -4 443 14T401 72L114 778Q99 815 89 828T66 845L39 854Q20 862 12 874T3 904Q3 928 19 941T65 955H558Q620 955 620 905Q620 886 610 874T576 856L543 848Q500 837 491 812T506 725L721 165L642 118L866
724Q890 787 881 812T829 848L797 856Q774 862 763 874T752 905Q752 928 769 941T814 955H1079Q1108 955 1124 942T1141 904Q1141 888 1133 876T1100 856L1075 849Q1057 843 1041 816T1000 725L742 64Q725 24 697 10T637 -4Z" />
<glyph unicode="w" horiz-adv-x="1721" d="M597 -4H472Q436 -4 409 13T367 72L113 780Q101 816 90 828T66 845L39 854Q20 862 12 874T3 904Q3 928 19 941T65 955H532Q561 955 577 942T594 905Q594 886 584 874T550 856L517 848Q489 841 484 820T501 733L685 183L602
116L840 777L943 709L701 64Q686 24 658 10T597 -4ZM1256 -4H1135Q1100 -4 1073 13T1030 72L786 783Q773 818 763 829T739 845L712 854Q693 862 685 874T676 905Q676 955 739 955H1192Q1253 955 1253 904Q1253 886 1244 874T1214 857L1169 850Q1145 846 1142 821T1157
737L1336 182L1259 114L1448 711Q1472 785 1468 813T1431 848L1399 856Q1376 862 1366 874T1355 905Q1355 928 1371 941T1416 955H1659Q1688 955 1704 942T1721 904Q1721 888 1713 876T1681 856L1656 849Q1637 843 1622 816T1585 725L1360 65Q1346 25 1317 11T1256
-4Z" />
<glyph unicode="x" horiz-adv-x="1150" d="M438 522L532 474L346 226Q315 183 320 153T362 108L388 100Q407 92 416 81T425 52Q425 29 408 15T362 1H86Q57 1 41 15T24 52Q24 69 34 81T69 107Q101 121 126 140T179 190T245 271L438 522ZM568 779L742 538L756 521L1004
191Q1035 150 1054 132T1094 103Q1114 92 1123 80T1132 51Q1132 28 1115 14T1068 0H589Q558 0 541 14T524 52Q524 69 532 80T557 97L584 104Q611 112 613 128T593 175L415 424L400 443L168 771Q143 807 122 822T75 848Q50 857 42 869T33 903Q33 927 50 941T97 955H566Q595
955 612 942T629 904Q629 887 622 876T601 857L575 845Q551 835 550 821T568 779ZM706 438L612 486L795 729Q828 772 823 803T780 847L754 856Q735 864 726 875T717 904Q717 928 734 941T780 955H1056Q1086 955 1102 942T1118 904Q1118 886 1108 874T1073 849Q1025
829 990 794T897 685L706 438Z" />
<glyph unicode="y" horiz-adv-x="1175" d="M748 173L558 -151L125 774Q108 812 90 827T40 854Q20 862 12 874T3 904Q3 928 19 941T65 955H559Q587 955 603 942T620 905Q620 886 610 874T576 856L543 848Q501 837 494 812T512 724L748 173ZM541 -123L587 -12L632
73L886 708Q911 770 904 800T852 843L815 853Q792 859 781 872T770 905Q770 928 786 941T831 955H1113Q1142 955 1158 942T1175 904Q1175 889 1166 877T1134 853Q1093 837 1068 811T1019 724L687 -88Q625 -241 573 -324T459 -439T310 -471Q180 -471 104 -402T27
-229Q27 -155 64 -113T163 -70Q224 -70 256 -105T311 -200L328 -243Q339 -278 357 -296T397 -315Q419 -315 438 -302T481 -248T541 -123Z" />
<glyph unicode="z" horiz-adv-x="1020" d="M936 809L407 39L361 104H565Q629 104 671 118T750 170T829 281L867 346Q882 371 901 379T943 383Q967 378 977 362T981 317L923 26Q917 -3 903 -15T864 -28Q838 -28 812 -14T730 0H140Q91 0 71 13T50 53Q50 71 59 93T89
146L617 913L674 851H450Q397 851 360 840T293 798T230 710L187 635Q175 613 157 605T114 603Q92 609 82 628T77 675L127 927Q133 956 147 969T186 983Q213 983 239 969T319 955H884Q934 955 954 942T974 901Q974 883 966 862T936 809Z" />
<glyph unicode="{" horiz-adv-x="830" d="M408 612Q408 582 443 582Q555 582 618 541T681 428Q681 379 654 331T590 234T526 137T498 37Q498 -49 543 -97T674 -145H727Q794 -145 794 -201Q794 -223 777 -239T715 -255H615Q477 -255 387 -220T252 -123T208 16Q208
99 243 164T325 282T407 379T443 466Q443 506 419 528T347 550Q314 550 296 537T258 510T202 496Q155 496 128 530T101 612Q101 659 128 693T202 728Q238 728 257 715T295 688T347 674Q394 674 418 696T443 757Q443 800 408 844T326 941T244 1059T208 1208Q208
1286 252 1347T386 1443T615 1479H715Q759 1479 776 1463T794 1425Q794 1369 727 1369H674Q589 1369 544 1321T498 1187Q498 1136 525 1088T589 991T653 894T681 795Q681 725 618 684T443 642Q408 642 408 612Z" />
<glyph unicode="|" horiz-adv-x="610" d="M242 616Q242 690 235 796T219 1019T203 1243T196 1425Q196 1479 223 1509T305 1540Q359 1540 386 1510T413 1425Q413 1368 409 1288T398 1116T384 932T373 758T368 616Q368 541 374 435T390 212T406 -11T413 -194Q413
-247 386 -277T305 -308Q251 -308 224 -278T196 -194Q196 -136 200 -56T212 116T226 300T237 473T242 616Z" />
<glyph unicode="}" horiz-adv-x="830" d="M422 612Q422 642 387 642Q275 642 212 683T149 796Q149 845 176 893T240 990T304 1087T332 1187Q332 1273 287 1321T156 1369H103Q36 1369 36 1425Q36 1447 53 1463T115 1479H215Q353 1479 443 1444T578 1347T622 1208Q622
1125 587 1060T505 942T423 845T387 758Q387 718 411 696T483 674Q516 674 534 687T572 714T628 728Q675 728 702 694T729 612Q729 565 702 531T628 496Q592 496 573 509T535 536T483 550Q436 550 412 528T387 467Q387 424 422 380T504 283T586 165T622 16Q622
-62 578 -123T444 -219T215 -255H115Q71 -255 54 -239T36 -201Q36 -145 103 -145H156Q241 -145 286 -97T332 37Q332 88 305 136T241 233T177 330T149 429Q149 499 212 540T387 582Q422 582 422 612Z" />
<glyph unicode="~" horiz-adv-x="1278" d="M886 515Q821 515 758 545T634 615T515 684T400 714Q337 714 294 676T239 564Q231 539 213 526T170 513Q105 513 105 589Q105 664 143 728T246 830T392 869Q473 869 541 839T669 770T780 701T879 670Q941 670 984 704T1036
810Q1047 841 1066 855T1108 870Q1174 870 1174 793Q1174 715 1136 653T1032 553T886 515Z" />
<glyph unicode="&#xa0;" horiz-adv-x="421" />
<glyph unicode="&#xa1;" horiz-adv-x="633" d="M322 -346Q212 -346 160 -295T108 -160Q108 -134 112 -103T126 -35L250 582Q260 623 276 643T322 663Q351 663 367 643T394 582L518 -35Q527 -72 531 -103T536 -160Q536 -244 484 -295T322 -346ZM323 1176Q380 1176
427 1147T501 1069T529 964Q529 905 502 858T427 782T323 753Q264 753 217 781T143 857T115 964Q115 1020 142 1068T217 1146T323 1176Z" />
<glyph unicode="&#xa2;" horiz-adv-x="1068" d="M598 498Q598 407 600 329T604 183T609 60T613 -40T615 -117Q615 -143 602 -157T566 -171Q546 -171 532 -158T518 -114Q518 -83 520 -40T524 59T529 181T533 328T535 498Q535 581 533 653T528 788T524 901T520 992T518
1061Q518 1087 532 1100T569 1114Q589 1114 602 1101T615 1059Q615 1030 614 990T610 900T604 788T600 654T598 498ZM1010 683Q1010 615 970 571T862 527Q791 527 753 573T715 700V752Q715 810 677 843T572 876Q515 876 468 840T393 736T365 568Q365 448 404 366T512
242T666 200Q752 200 811 235T911 331Q929 346 939 352T960 357Q975 356 984 346T992 314Q987 225 931 154T780 42T560 0Q416 0 303 55T125 212T60 454Q60 600 125 714T309 895T589 961Q721 961 815 924T960 823T1010 683Z" />
<glyph unicode="&#xa3;" horiz-adv-x="1311" d="M482 344L395 352Q437 381 456 413T474 482Q474 529 444 576T370 672T282 774T207 888T177 1019Q177 1141 239 1234T428 1380T748 1433Q912 1433 1018 1383T1175 1249T1226 1065Q1226 973 1180 921T1051 868Q966
868 913 923T860 1076V1191Q860 1273 825 1315T724 1357Q644 1357 605 1290T565 1081Q565 1022 574 962T594 842T615 724T623 610Q622 529 592 458T482 344ZM74 143Q74 214 108 273T210 367T375 402Q452 402 521 389T654 357T780 325T906 311Q997 311 1048 340T1128
434Q1137 450 1153 460T1189 470Q1207 469 1219 456T1232 418Q1226 261 1182 162T1063 17T887 -30Q823 -30 769 -10T668 60T578 196Q550 237 531 253T482 270Q459 270 446 249T428 174Q426 103 404 58T340 -8T239 -30Q157 -30 116 18T74 143ZM140 650Q140 667 152
677T182 688L413 700L488 617H183Q164 617 152 626T140 650ZM558 617L553 688H918Q936 688 946 678T957 652Q957 617 918 617H558Z" />
<glyph unicode="&#xa4;" horiz-adv-x="1183" d="M146 323Q122 302 118 273T140 220Q164 198 195 201T250 227L428 407L322 503L146 323ZM140 1114Q114 1091 118 1062T146 1011L323 830L427 928L250 1108Q226 1130 195 1133T140 1114ZM1046 1115Q1022 1138 991
1135T934 1110L756 930L861 834L1040 1015Q1064 1037 1068 1065T1046 1115ZM1046 219Q1072 241 1068 269T1040 319L862 500L757 404L934 224Q959 202 990 199T1046 219ZM591 316Q694 316 778 359T911 482T961 669Q961 776 912 854T779 975T592 1019Q490 1019 407
976T274 854T225 669Q225 563 274 484T406 360T591 316ZM593 424Q524 424 473 456T395 545T367 669Q367 738 394 793T473 880T593 913Q662 913 713 881T793 793T822 669Q822 601 794 545T714 457T593 424Z" />
<glyph unicode="&#xa5;" horiz-adv-x="1401" d="M864 451L571 403L183 1201Q166 1233 154 1248T115 1275L87 1286Q65 1295 55 1310T44 1344Q44 1370 62 1385T117 1400H617Q654 1400 672 1385T691 1344Q691 1300 641 1282L605 1274Q562 1258 560 1241T576 1188L859
551L746 490L1050 1144Q1070 1190 1060 1224T1002 1275L965 1286Q947 1293 936 1307T925 1344Q925 1370 942 1385T997 1400H1287Q1324 1400 1342 1385T1360 1344Q1360 1324 1351 1311T1320 1287L1305 1279Q1286 1270 1269 1255T1232 1211T1188 1130L864 451ZM524
527L891 530V192Q891 172 903 156T941 131L989 118Q1035 98 1035 56Q1035 31 1018 16T963 0H451Q414 0 397 15T379 56Q379 98 426 118L474 131Q503 142 513 158T524 192V527ZM172 481Q172 498 183 508T211 519H1201Q1220 519 1231 509T1242 481Q1242 443 1201 443H209Q172
443 172 481ZM913 686L942 763H1201Q1220 763 1231 753T1242 725Q1242 686 1201 686H913ZM172 725Q172 742 183 752T211 763H653L688 686H209Q172 686 172 725Z" />
<glyph unicode="&#xa6;" horiz-adv-x="684" d="M389 793Q389 746 374 726T325 706Q296 706 279 727T262 793Q262 852 256 935T240 1109T224 1283T217 1425Q217 1479 244 1509T325 1539Q379 1539 406 1509T434 1425Q434 1369 427 1286T411 1112T396 937T389 793ZM262
437Q262 484 277 504T325 524Q355 524 372 503T389 437Q389 378 395 295T411 121T427 -53T434 -195Q434 -249 407 -279T325 -310Q271 -310 244 -280T217 -195Q217 -139 223 -56T239 118T255 293T262 437Z" />
<glyph unicode="&#xa7;" horiz-adv-x="1208" d="M662 191L655 265Q744 268 793 310T842 418Q842 467 819 504T740 574T587 640Q423 690 329 752T196 891T156 1064Q156 1170 207 1251T352 1379T572 1425Q641 1425 688 1412T767 1386T823 1373Q844 1373 860 1387T893
1416T934 1430Q958 1430 974 1415T1003 1361L1082 1074Q1091 1048 1080 1030T1042 1004Q996 994 971 1039Q916 1144 855 1205T731 1293T606 1320Q533 1320 490 1277T447 1165Q447 1115 469 1077T538 1008T659 952Q819 901 909 840T1035 705T1071 544Q1071 448 1022
369T882 243T662 191ZM513 799L528 726Q451 721 406 679T361 571Q361 517 390 479T479 409T634 345Q793 296 882 233T1009 96T1046 -66Q1046 -166 994 -247T847 -375T617 -422Q555 -422 510 -411T436 -388T388 -376Q364 -376 344 -388T306 -413T267 -426Q241 -426
227 -413T206 -371L145 -93Q133 -46 180 -33Q202 -26 222 -34T259 -67Q313 -164 367 -218T478 -295T595 -318Q672 -318 717 -276T763 -166Q763 -122 745 -87T683 -23T562 34Q397 85 303 146T169 283T130 453Q130 547 176 623T308 745T513 799Z" />
<glyph unicode="&#xa8;" horiz-adv-x="875" d="M225 1049Q148 1049 103 1091T57 1205Q57 1278 102 1320T225 1363Q302 1363 347 1321T392 1205Q392 1135 347 1092T225 1049ZM662 1049Q585 1049 539 1091T493 1205Q493 1277 539 1320T662 1363Q740 1363 785 1321T830
1205Q830 1135 785 1092T662 1049Z" />
<glyph unicode="&#xa9;" horiz-adv-x="1878" d="M939 -135Q1128 -135 1286 -73T1559 101T1738 367T1802 704Q1802 887 1739 1040T1560 1306T1286 1480T939 1542Q751 1542 593 1480T320 1306T141 1041T77 704Q77 521 140 368T319 102T593 -73T939 -135ZM939 -35Q720
-35 554 60T293 323T199 704Q199 919 293 1085T553 1347T939 1442Q1104 1442 1239 1388T1473 1235T1626 1001T1680 704Q1680 543 1626 408T1474 173T1240 20T939 -35ZM1397 498Q1395 444 1366 389T1280 288T1144 214T964 185Q807 185 691 250T511 431T447 700Q447
848 514 964T697 1148T957 1215Q1020 1215 1059 1202T1123 1176T1170 1163Q1193 1163 1209 1173T1239 1193T1269 1203Q1290 1203 1301 1192T1318 1154L1376 902Q1382 878 1369 863T1334 842Q1308 836 1289 846T1261 885Q1217 1013 1154 1060T1022 1107Q957 1107
913 1063T846 938T823 747Q823 624 855 540T947 413T1085 370Q1156 370 1210 399T1294 477Q1312 501 1325 515T1348 534T1370 538Q1397 532 1397 498Z" />
<glyph unicode="&#xaa;" horiz-adv-x="1069" d="M136 1200Q136 1254 185 1306T332 1394T574 1429Q735 1429 813 1364T892 1183V768Q892 748 900 737T927 725Q943 725 950 733T964 749T979 757Q994 757 1002 748T1011 723Q1011 694 988 660T919 603T805 579Q721
579 669 616T616 713L594 734V1258Q594 1303 570 1328T504 1354Q465 1354 442 1335T419 1287V1222Q419 1164 377 1128T261 1092Q200 1092 168 1120T136 1200ZM620 934Q596 946 572 952T518 959Q463 959 431 926T399 833Q399 773 429 742T507 711Q543 711 575 727T628
771L647 713Q603 649 524 614T355 579Q240 579 169 635T98 781Q98 892 200 958T489 1024Q539 1024 578 1016T645 994L620 934Z" />
<glyph unicode="&#xab;" horiz-adv-x="1261" d="M88 487Q88 514 105 542T159 600Q214 644 268 687T373 770T466 844T543 904Q564 920 580 922T608 915Q620 906 619 889T606 851Q578 801 542 742T459 609T349 439V536Q411 442 458 368T541 234T606 124Q617 102
618 86T608 59Q596 50 580 52T543 71Q510 96 467 130T373 204T269 287T159 375Q123 404 106 432T88 487ZM636 487Q636 514 653 542T707 600Q762 644 816 687T921 770T1014 844T1091 904Q1112 920 1128 922T1156 915Q1168 906 1167 889T1154 851Q1126 801 1090 742T1007
609T897 439V536Q959 442 1006 368T1089 234T1154 124Q1165 102 1166 86T1156 59Q1144 50 1128 52T1091 71Q1058 96 1015 130T921 204T817 287T707 375Q671 404 654 432T636 487Z" />
<glyph unicode="&#xac;" horiz-adv-x="1128" d="M114 783Q114 817 136 836T189 855H905Q945 855 970 835T995 773V447Q995 421 975 402T916 382Q879 382 858 402T837 448V735L858 714H188Q159 714 137 732T114 783Z" />
<glyph unicode="&#xad;" horiz-adv-x="808" d="M679 669Q762 669 730 583L703 505Q689 465 669 451T616 436H129Q46 436 78 522L105 600Q120 640 139 654T191 669H679Z" />
<glyph unicode="&#xae;" horiz-adv-x="1454" d="M725 254Q874 254 998 302T1214 437T1356 641T1407 897Q1407 1034 1357 1148T1214 1347T998 1477T725 1524Q578 1524 454 1478T239 1347T98 1149T48 897Q48 758 97 641T237 437T452 302T725 254ZM725 340Q559 340
432 412T232 611T160 897Q160 1056 233 1178T433 1369T725 1438Q889 1438 1017 1369T1220 1177T1295 897Q1295 738 1222 612T1021 413T725 340ZM1075 1002Q1075 935 1028 886T902 822Q865 816 838 806T770 796Q717 796 678 809T610 840L609 906Q642 883 669 876T734
868Q792 868 823 900T854 999Q854 1074 818 1123T721 1172H666V663Q666 645 670 638T686 624L705 617Q718 610 721 603T725 586Q725 556 684 556H422Q380 556 380 586Q380 607 405 619L425 627Q437 631 442 638T448 663V1138Q448 1153 443 1161T428 1173L405 1181Q380
1191 380 1215Q380 1245 422 1245H723Q893 1245 984 1177T1075 1002ZM747 823L953 847L1053 656Q1063 641 1071 633T1091 620Q1106 614 1111 607T1116 590Q1116 574 1105 565T1075 556H839Q799 556 799 586Q799 600 812 609L824 614Q834 617 835 626T829 650L747
823Z" />
<glyph unicode="&#xaf;" horiz-adv-x="812" d="M57 1191Q57 1235 76 1254T130 1274H639Q674 1274 693 1255T712 1192Q712 1148 693 1128T639 1108H130Q95 1108 76 1128T57 1191Z" />
<glyph unicode="&#xb0;" horiz-adv-x="791" d="M396 1430Q486 1430 555 1391T663 1284T703 1127Q703 1041 663 975T554 872T396 834Q306 834 237 872T129 978T89 1131Q89 1215 127 1283T234 1390T396 1430ZM396 1323Q316 1323 268 1268T220 1131Q220 1048 269
995T396 941Q471 941 521 994T571 1129Q571 1214 522 1268T396 1323Z" />
<glyph unicode="&#xb1;" horiz-adv-x="1133" d="M121 839Q121 870 140 888T186 907H963Q988 907 1007 889T1026 839Q1026 807 1007 790T963 772H185Q160 772 141 789T121 839ZM569 405Q538 405 520 424T501 470V1247Q501 1272 519 1291T569 1310Q601 1310 618
1291T636 1247V469Q636 444 619 425T569 405ZM119 174Q119 205 138 223T184 242H961Q986 242 1005 224T1024 174Q1024 142 1005 125T961 107H183Q158 107 139 124T119 174Z" />
<glyph unicode="&#xb2;" horiz-adv-x="774" d="M172 851L124 878L246 945Q316 981 358 1019T418 1105T437 1215Q437 1305 420 1341T365 1378Q326 1378 311 1354T295 1288V1224Q295 1176 263 1148T178 1119Q126 1119 96 1147T65 1225Q65 1304 143 1367T386 1431Q542
1431 616 1372T690 1218Q690 1167 663 1124T576 1040T414 955L172 851ZM52 770Q52 837 111 873T295 909Q344 909 389 899T476 877T554 866Q584 866 605 879T637 927Q642 942 653 948T678 953Q724 952 717 900Q707 776 658 723T526 669Q459 669 417 696T341 783Q323
808 314 819T292 831Q278 831 272 817T264 772Q262 719 236 694T157 669Q109 669 81 696T52 770Z" />
<glyph unicode="&#xb3;" horiz-adv-x="717" d="M346 1051L327 1068Q344 1073 364 1075T411 1078Q528 1078 601 1026T674 881Q674 779 586 719T346 658Q201 658 128 708T55 833Q55 881 89 911T175 942Q227 942 255 915T283 843V786Q283 755 300 734T350 713Q387
713 408 746T429 856Q429 934 403 969T333 1004H292Q271 1004 258 1013T244 1040Q244 1054 251 1065T274 1089L513 1286L522 1225H243Q198 1225 189 1191L178 1150Q174 1135 163 1126T129 1116Q108 1116 95 1126T83 1159L103 1353Q105 1374 122 1387T170 1400H628Q653
1400 667 1389T681 1360Q681 1346 670 1334T633 1304L346 1051Z" />
<glyph unicode="&#xb4;" horiz-adv-x="523" d="M153 1316Q185 1391 228 1433T339 1466Q400 1460 430 1417T454 1327Q447 1274 413 1238T315 1167L138 1053Q120 1045 101 1045T69 1057Q55 1070 58 1086T70 1118L153 1316Z" />
<glyph unicode="&#xb5;" horiz-adv-x="1306" d="M146 296H202Q202 171 222 76T269 -92T316 -222T337 -331Q337 -395 294 -435T188 -476Q123 -476 80 -434T37 -320Q37 -274 53 -215T91 -81T129 88T146 296ZM808 287L860 232L813 189Q686 75 590 25T412 -25Q293
-25 219 52T145 268V817Q145 853 164 876T215 912L339 955Q373 966 394 971T438 976Q463 976 477 961T491 923V335Q491 259 523 222T613 184Q650 184 688 199T769 251L808 287ZM1026 -25Q918 -25 856 24T790 173L779 202V816Q779 853 798 876T851 912L973 955Q1007
966 1028 971T1073 976Q1097 976 1111 961T1126 923V200Q1126 176 1136 163T1167 149Q1185 149 1194 159T1210 178T1228 188Q1245 188 1254 177T1264 150Q1264 113 1238 73T1158 4T1026 -25Z" />
<glyph unicode="&#xb6;" horiz-adv-x="1410" d="M959 218V1179Q959 1214 940 1236T875 1258Q830 1258 811 1234T791 1179V218Q791 188 810 164T875 140Q921 140 940 162T959 218ZM1254 0H449Q425 0 409 13T393 49Q393 77 408 94T447 119L515 135Q547 144 562 159T578
197V590Q551 585 525 581T468 576Q268 576 153 681T37 965Q37 1096 96 1193T265 1345T524 1400H1260Q1285 1400 1306 1387T1327 1345Q1327 1323 1315 1309T1285 1286L1230 1266Q1202 1255 1187 1237T1172 1193V206Q1172 180 1184 162T1224 135L1279 119Q1301 111
1314 98T1327 59Q1327 29 1303 15T1254 0Z" />
<glyph unicode="&#xb7;" horiz-adv-x="619" d="M309 298Q251 298 204 327T130 405T102 510Q102 569 129 616T204 692T309 721Q368 721 415 693T489 617T516 510Q516 454 489 406T415 328T309 298Z" />
<glyph unicode="&#xb8;" horiz-adv-x="607" d="M258 13H346L266 -140L207 -126Q228 -121 252 -119T313 -116Q414 -116 468 -158T522 -275Q522 -354 459 -402T278 -450Q182 -450 123 -418T58 -341Q57 -321 68 -309T97 -297Q112 -295 123 -301T147 -315Q166 -340
190 -350T243 -361Q317 -361 317 -272Q317 -233 296 -212T232 -190H204Q180 -190 174 -176T177 -141L258 13Z" />
<glyph unicode="&#xb9;" horiz-adv-x="630" d="M122 1296H159Q180 1296 188 1287T197 1250V823Q197 802 189 791T163 777L104 764Q64 757 64 728Q64 692 114 692H527Q576 692 576 727Q576 755 539 764L485 777Q470 781 462 791T454 823V1394Q454 1436 406 1436Q394
1436 383 1433T356 1422Q323 1401 284 1389T179 1377H126Q101 1377 87 1366T73 1336Q73 1318 85 1307T122 1296Z" />
<glyph unicode="&#xba;" horiz-adv-x="1075" d="M543 1427Q680 1427 784 1373T945 1222T1003 998Q1003 877 944 782T778 631T531 576Q395 576 291 630T129 780T71 1004Q71 1124 131 1220T297 1371T543 1427ZM604 680Q646 687 671 730T700 849T684 1028Q663 1136
630 1203T556 1301T473 1323Q433 1316 408 1274T378 1157T393 975Q415 869 448 801T521 703T604 680Z" />
<glyph unicode="&#xbb;" horiz-adv-x="1261" d="M1173 489Q1173 462 1156 434T1102 376Q1047 332 993 289T888 206T795 132T718 72Q697 56 681 54T653 61Q641 70 642 87T655 125Q683 175 719 234T802 367T912 537V440Q850 534 803 608T720 742T655 852Q644 874
643 890T653 917Q665 926 681 924T718 905Q751 880 794 846T888 772T992 689T1102 601Q1138 572 1155 544T1173 489ZM625 489Q625 462 608 434T554 376Q499 332 445 289T340 206T247 132T170 72Q149 56 133 54T105 61Q93 70 94 87T107 125Q135 175 171 234T254
367T364 537V440Q302 534 255 608T172 742T107 852Q96 874 95 890T105 917Q117 926 133 924T170 905Q203 880 246 846T340 772T444 689T554 601Q590 572 607 544T625 489Z" />
<glyph unicode="&#xbc;" horiz-adv-x="1606" d="M163 1296H200Q221 1296 229 1287T238 1250V823Q238 802 230 791T204 777L145 764Q105 757 105 728Q105 692 155 692H568Q617 692 617 727Q617 755 580 764L526 777Q511 781 503 791T495 823V1394Q495 1436 447
1436Q435 1436 424 1433T397 1422Q364 1401 325 1389T220 1377H167Q142 1377 128 1366T114 1336Q114 1318 126 1307T163 1296ZM1138 304Q1138 320 1143 330T1159 349L1309 478Q1325 490 1335 494T1356 499Q1385 499 1385 468L1386 130Q1386 110 1394 100T1418 85L1457
73Q1475 68 1485 59T1496 36Q1496 1 1446 1H1069Q1019 1 1019 36Q1019 64 1058 73L1104 85Q1121 89 1129 99T1138 130V304ZM1008 428Q1039 452 1053 474T1067 516Q1067 540 1053 559T1025 600T1011 653Q1011 701 1049 733T1166 766Q1230 766 1269 737T1308 656Q1308
620 1286 580T1189 476L884 217L867 248H1461Q1483 248 1496 241T1509 216Q1509 179 1461 179H847Q823 179 810 190T797 218Q797 229 804 241T832 268L1008 428ZM872 776Q854 753 840 748T803 753Q786 763 784 778T793 819Q808 849 830 895T879 995T933 1106T987
1215T1036 1308T1071 1371Q1097 1412 1133 1423T1214 1411Q1256 1388 1262 1353T1244 1277Q1230 1256 1204 1219T1143 1135T1071 1036T995 936T926 845T872 776ZM670 622Q689 644 704 650T740 646Q758 635 759 619T748 579Q734 548 712 502T663 402T609 290T555
181T507 88T471 24Q445 -15 408 -26T328 -14Q288 8 281 43T300 119Q313 140 339 177T400 263T473 362T548 462T617 553T670 622Z" />
<glyph unicode="&#xbd;" horiz-adv-x="1644" d="M167 1296H204Q225 1296 233 1287T242 1250V823Q242 802 234 791T208 777L149 764Q109 757 109 728Q109 692 159 692H572Q621 692 621 727Q621 755 584 764L530 777Q515 781 507 791T499 823V1394Q499 1436 451
1436Q439 1436 428 1433T401 1422Q368 1401 329 1389T224 1377H171Q146 1377 132 1366T118 1336Q118 1318 130 1307T167 1296ZM872 776Q854 753 840 748T803 753Q786 763 784 778T793 819Q808 849 830 895T879 995T933 1106T987 1215T1036 1308T1071 1371Q1097
1412 1133 1423T1214 1411Q1256 1388 1262 1353T1244 1277Q1230 1256 1204 1219T1143 1135T1071 1036T995 936T926 845T872 776ZM670 622Q689 644 704 650T740 646Q758 635 759 619T748 579Q734 548 712 502T663 402T609 290T555 181T507 88T471 24Q445 -15 408
-26T328 -14Q288 8 281 43T300 119Q313 140 339 177T400 263T473 362T548 462T617 553T670 622ZM1012 161L964 188L1086 255Q1156 291 1198 329T1258 415T1277 525Q1277 615 1260 651T1205 688Q1166 688 1151 664T1135 598V534Q1135 486 1103 458T1018 429Q966
429 936 457T905 535Q905 614 983 677T1226 741Q1382 741 1456 682T1530 528Q1530 477 1503 434T1416 350T1254 265L1012 161ZM892 80Q892 147 951 183T1135 219Q1184 219 1229 209T1316 187T1394 176Q1424 176 1445 189T1477 237Q1482 252 1493 258T1518 263Q1564
262 1557 210Q1547 86 1498 33T1366 -21Q1299 -21 1257 6T1181 93Q1163 118 1154 129T1132 141Q1118 141 1112 127T1104 82Q1102 29 1076 4T997 -21Q949 -21 921 6T892 80Z" />
<glyph unicode="&#xbe;" horiz-adv-x="1673" d="M1205 303Q1205 319 1210 329T1226 348L1376 477Q1392 489 1402 493T1423 498Q1452 498 1452 467L1453 129Q1453 109 1461 99T1485 84L1524 72Q1542 67 1552 58T1563 35Q1563 0 1513 0H1136Q1086 0 1086 35Q1086
63 1125 72L1171 84Q1188 88 1196 98T1205 129V303ZM1075 427Q1106 451 1120 473T1134 515Q1134 539 1120 558T1092 599T1078 652Q1078 700 1116 732T1233 765Q1297 765 1336 736T1375 655Q1375 619 1353 579T1256 475L951 216L934 247H1528Q1550 247 1563 240T1576
215Q1576 178 1528 178H914Q890 178 877 189T864 217Q864 228 871 240T899 267L1075 427ZM944 776Q926 753 912 748T875 753Q858 763 856 778T865 819Q880 849 902 895T951 995T1005 1106T1059 1215T1108 1308T1143 1371Q1169 1412 1205 1423T1286 1411Q1328 1388
1334 1353T1316 1277Q1302 1256 1276 1219T1215 1135T1143 1036T1067 936T998 845T944 776ZM742 622Q761 644 776 650T812 646Q830 635 831 619T820 579Q806 548 784 502T735 402T681 290T627 181T579 88T543 24Q517 -15 480 -26T400 -14Q360 8 353 43T372 119Q385
140 411 177T472 263T545 362T620 462T689 553T742 622ZM402 1051L383 1068Q400 1073 420 1075T467 1078Q584 1078 657 1026T730 881Q730 779 642 719T402 658Q257 658 184 708T111 833Q111 881 145 911T231 942Q283 942 311 915T339 843V786Q339 755 356 734T406
713Q443 713 464 746T485 856Q485 934 459 969T389 1004H348Q327 1004 314 1013T300 1040Q300 1054 307 1065T330 1089L569 1286L578 1225H299Q254 1225 245 1191L234 1150Q230 1135 219 1126T185 1116Q164 1116 151 1126T139 1159L159 1353Q161 1374 178 1387T226
1400H684Q709 1400 723 1389T737 1360Q737 1346 726 1334T689 1304L402 1051Z" />
<glyph unicode="&#xbf;" horiz-adv-x="1084" d="M719 483L699 605Q691 637 674 651T624 666Q595 666 579 653T552 602L533 495Q525 462 511 447T465 424L396 408Q216 369 137 280T57 52Q57 -126 184 -222T570 -318Q718 -318 833 -269T1014 -139T1080 40Q1080 128
1032 176T903 224Q810 224 760 168T710 11V-76Q710 -141 676 -177T582 -213Q517 -213 483 -158T449 5Q449 135 474 210T575 318L641 346Q695 369 712 401T719 483ZM631 1176Q688 1176 735 1147T809 1069T837 964Q837 905 810 858T735 782T631 753Q571 753 524 781T450
857T423 964Q423 1020 450 1068T524 1146T631 1176Z" />
<glyph unicode="&#xc0;" horiz-adv-x="1521" d="M352 582H938L941 457H347L352 582ZM490 56Q490 31 473 16T418 0H100Q64 0 46 15T28 56Q28 74 37 87T70 113L96 126Q128 143 145 170T184 265L472 1169Q488 1221 483 1244T441 1281Q414 1293 403 1308T391 1344Q391
1371 409 1385T464 1400H1029Q1066 1400 1083 1386T1101 1344Q1101 1322 1090 1307T1054 1283Q1028 1273 1023 1256T1031 1199L1340 246Q1358 188 1375 161T1423 122Q1455 107 1466 93T1477 56Q1477 31 1459 16T1404 0H919Q881 0 864 15T846 56Q846 77 857 90T893
113L938 126Q964 136 962 155T946 217L621 1253L659 1278L343 285Q329 239 329 210T347 162T403 125L444 111Q465 102 477 90T490 56ZM790 1723L899 1548Q910 1533 914 1518T907 1489Q896 1477 877 1476T841 1480L654 1558Q588 1583 549 1615T501 1701Q490 1745
517 1788T599 1843Q660 1855 705 1821T790 1723Z" />
<glyph unicode="&#xc1;" horiz-adv-x="1521" d="M352 582H938L941 457H347L352 582ZM490 56Q490 31 473 16T418 0H100Q64 0 46 15T28 56Q28 74 37 87T70 113L96 126Q128 143 145 170T184 265L472 1169Q488 1221 483 1244T441 1281Q414 1293 403 1308T391 1344Q391
1371 409 1385T464 1400H1029Q1066 1400 1083 1386T1101 1344Q1101 1322 1090 1307T1054 1283Q1028 1273 1023 1256T1031 1199L1340 246Q1358 188 1375 161T1423 122Q1455 107 1466 93T1477 56Q1477 31 1459 16T1404 0H919Q881 0 864 15T846 56Q846 77 857 90T893
113L938 126Q964 136 962 155T946 217L621 1253L659 1278L343 285Q329 239 329 210T347 162T403 125L444 111Q465 102 477 90T490 56ZM820 1723Q859 1787 904 1821T1011 1843Q1066 1832 1092 1789T1109 1701Q1099 1647 1061 1615T956 1558L769 1480Q751 1474 733
1475T703 1489Q692 1502 696 1517T710 1548L820 1723Z" />
<glyph unicode="&#xc2;" horiz-adv-x="1521" d="M352 582H938L941 457H347L352 582ZM490 56Q490 31 473 16T418 0H100Q64 0 46 15T28 56Q28 74 37 87T70 113L96 126Q128 143 145 170T184 265L472 1169Q488 1221 483 1244T441 1281Q414 1293 403 1308T391 1344Q391
1371 409 1385T464 1400H1029Q1066 1400 1083 1386T1101 1344Q1101 1322 1090 1307T1054 1283Q1028 1273 1023 1256T1031 1199L1340 246Q1358 188 1375 161T1423 122Q1455 107 1466 93T1477 56Q1477 31 1459 16T1404 0H919Q881 0 864 15T846 56Q846 77 857 90T893
113L938 126Q964 136 962 155T946 217L621 1253L659 1278L343 285Q329 239 329 210T347 162T403 125L444 111Q465 102 477 90T490 56ZM830 1655H675L973 1491Q1026 1462 1057 1487Q1069 1497 1070 1515T1051 1555L859 1768Q832 1795 810 1811T753 1828Q718 1828
696 1812T645 1768L454 1555Q433 1534 435 1516T449 1487Q479 1462 532 1491L830 1655Z" />
<glyph unicode="&#xc3;" horiz-adv-x="1521" d="M352 582H938L941 457H347L352 582ZM490 56Q490 31 473 16T418 0H100Q64 0 46 15T28 56Q28 74 37 87T70 113L96 126Q128 143 145 170T184 265L472 1169Q488 1221 483 1244T441 1281Q414 1293 403 1308T391 1344Q391
1371 409 1385T464 1400H1029Q1066 1400 1083 1386T1101 1344Q1101 1322 1090 1307T1054 1283Q1028 1273 1023 1256T1031 1199L1340 246Q1358 188 1375 161T1423 122Q1455 107 1466 93T1477 56Q1477 31 1459 16T1404 0H919Q881 0 864 15T846 56Q846 77 857 90T893
113L938 126Q964 136 962 155T946 217L621 1253L659 1278L343 285Q329 239 329 210T347 162T403 125L444 111Q465 102 477 90T490 56ZM894 1486Q850 1486 813 1502T745 1539T685 1576T629 1592Q572 1592 557 1511Q545 1478 510 1478Q464 1478 464 1538Q464 1657
510 1718T634 1780Q679 1780 716 1764T784 1728T844 1692T900 1676Q959 1676 972 1756Q983 1789 1019 1789Q1064 1789 1064 1729Q1064 1610 1018 1548T894 1486Z" />
<glyph unicode="&#xc4;" horiz-adv-x="1521" d="M352 582H938L941 457H347L352 582ZM490 56Q490 31 473 16T418 0H100Q64 0 46 15T28 56Q28 74 37 87T70 113L96 126Q128 143 145 170T184 265L472 1169Q488 1221 483 1244T441 1281Q414 1293 403 1308T391 1344Q391
1371 409 1385T464 1400H1029Q1066 1400 1083 1386T1101 1344Q1101 1322 1090 1307T1054 1283Q1028 1273 1023 1256T1031 1199L1340 246Q1358 188 1375 161T1423 122Q1455 107 1466 93T1477 56Q1477 31 1459 16T1404 0H919Q881 0 864 15T846 56Q846 77 857 90T893
113L938 126Q964 136 962 155T946 217L621 1253L659 1278L343 285Q329 239 329 210T347 162T403 125L444 111Q465 102 477 90T490 56ZM531 1480Q456 1480 411 1521T365 1633Q365 1704 410 1745T531 1786Q608 1786 652 1745T697 1633Q697 1564 653 1522T531 1480ZM964
1480Q888 1480 843 1521T798 1633Q798 1703 843 1744T964 1786Q1042 1786 1087 1745T1132 1633Q1132 1564 1087 1522T964 1480Z" />
<glyph unicode="&#xc5;" horiz-adv-x="1521" d="M352 582H938L941 457H347L352 582ZM490 56Q490 31 473 16T418 0H100Q64 0 46 15T28 56Q28 74 37 87T70 113L96 126Q128 143 145 170T184 265L472 1169Q488 1221 483 1244T441 1281Q414 1293 403 1308T391 1344Q391
1371 409 1385T464 1400H1029Q1066 1400 1083 1386T1101 1344Q1101 1322 1090 1307T1054 1283Q1028 1273 1023 1256T1031 1199L1340 246Q1358 188 1375 161T1423 122Q1455 107 1466 93T1477 56Q1477 31 1459 16T1404 0H919Q881 0 864 15T846 56Q846 77 857 90T893
113L938 126Q964 136 962 155T946 217L621 1253L659 1278L343 285Q329 239 329 210T347 162T403 125L444 111Q465 102 477 90T490 56ZM759 1470Q662 1470 596 1519T529 1656Q529 1743 595 1791T759 1840Q858 1840 923 1791T989 1656Q989 1570 924 1520T759 1470ZM760
1763Q726 1763 705 1736T683 1656Q683 1603 704 1575T760 1546Q795 1546 815 1575T836 1656Q836 1708 815 1735T760 1763Z" />
<glyph unicode="&#xc6;" horiz-adv-x="2035" d="M1060 1400L1011 1276H919L370 285Q336 224 348 184T406 125L446 111Q467 102 479 90T492 56Q492 31 475 16T420 0H83Q46 0 29 15T11 56Q11 88 52 113L78 125Q106 140 134 176T191 265L696 1169Q722 1215 713 1241T665
1281Q638 1292 626 1307T614 1344Q614 1370 632 1385T687 1400H1060ZM448 653H997L1000 528H444L448 653ZM1174 766H1456Q1518 766 1544 791T1588 886Q1602 941 1648 942Q1693 943 1706 892L1783 585Q1798 524 1750 509Q1701 492 1671 535Q1641 582 1616 606T1560
640T1480 649H1174V766ZM932 192V1400H1611Q1652 1400 1678 1409T1728 1428T1783 1438Q1820 1438 1839 1417T1872 1349L1955 1065Q1964 1035 1955 1015T1919 986Q1889 976 1865 987T1826 1027Q1784 1106 1749 1155T1677 1232T1600 1269T1508 1280H1319V229Q1319
175 1348 148T1433 120H1539Q1610 120 1664 143T1767 231T1873 420Q1886 447 1907 457T1954 462Q1984 457 1997 436T2001 381L1912 53Q1899 8 1879 -14T1819 -36Q1792 -36 1769 -27T1719 -9T1652 0H860Q823 0 806 15T788 56Q788 101 834 118L882 131Q907 140 919
154T932 192Z" />
<glyph unicode="&#xc7;" horiz-adv-x="1424" d="M1362 386Q1362 311 1322 236T1207 99T1025 -1T784 -39Q564 -39 404 54T156 313T69 692Q69 853 121 989T266 1225T485 1381T757 1437Q853 1437 913 1420T1009 1384T1067 1365Q1094 1365 1110 1381T1143 1414T1187
1430Q1209 1430 1223 1417T1246 1371L1350 1020Q1358 994 1344 973T1303 945Q1275 939 1252 950T1216 990Q1163 1110 1100 1179T965 1277T815 1306Q734 1306 668 1268T555 1160T483 990T458 766Q458 569 514 436T670 234T899 166Q1018 166 1110 225T1259 394Q1273
422 1289 430T1326 435Q1345 432 1353 420T1362 386ZM720 13H808L728 -140L669 -126Q690 -121 714 -119T775 -116Q876 -116 930 -158T984 -275Q984 -354 921 -402T740 -450Q644 -450 585 -418T520 -341Q519 -321 530 -309T559 -297Q574 -295 585 -301T609 -315Q628
-340 652 -350T705 -361Q779 -361 779 -272Q779 -233 758 -212T694 -190H666Q642 -190 636 -176T639 -141L720 13Z" />
<glyph unicode="&#xc8;" horiz-adv-x="1351" d="M483 766H772Q834 766 860 791T904 886Q912 915 927 928T964 942Q1010 943 1022 892L1100 585Q1107 553 1099 535T1067 509Q1043 501 1023 507T987 535Q957 582 932 606T876 640T797 649H483V766ZM96 1344Q96 1370
114 1385T169 1400H928Q969 1400 995 1409T1045 1428T1099 1438Q1136 1438 1155 1417T1188 1349L1271 1065Q1280 1035 1271 1015T1235 986Q1205 976 1181 987T1142 1027Q1101 1106 1065 1155T993 1232T917 1269T824 1280H627V229Q627 175 656 148T742 120H854Q925
120 978 143T1081 231T1188 420Q1201 447 1222 457T1269 462Q1299 457 1312 436T1316 381L1227 53Q1213 8 1194 -14T1133 -36Q1107 -36 1084 -27T1034 -9T967 0H169Q132 0 114 15T96 56Q96 101 143 118L191 131Q216 140 228 154T241 192V1208Q241 1231 229 1245T191
1269L143 1282Q96 1299 96 1344ZM699 1723L808 1548Q819 1533 823 1518T816 1489Q805 1477 786 1476T750 1480L563 1558Q497 1583 458 1615T410 1701Q399 1745 426 1788T508 1843Q569 1855 614 1821T699 1723Z" />
<glyph unicode="&#xc9;" horiz-adv-x="1351" d="M483 766H772Q834 766 860 791T904 886Q912 915 927 928T964 942Q1010 943 1022 892L1100 585Q1107 553 1099 535T1067 509Q1043 501 1023 507T987 535Q957 582 932 606T876 640T797 649H483V766ZM96 1344Q96 1370
114 1385T169 1400H928Q969 1400 995 1409T1045 1428T1099 1438Q1136 1438 1155 1417T1188 1349L1271 1065Q1280 1035 1271 1015T1235 986Q1205 976 1181 987T1142 1027Q1101 1106 1065 1155T993 1232T917 1269T824 1280H627V229Q627 175 656 148T742 120H854Q925
120 978 143T1081 231T1188 420Q1201 447 1222 457T1269 462Q1299 457 1312 436T1316 381L1227 53Q1213 8 1194 -14T1133 -36Q1107 -36 1084 -27T1034 -9T967 0H169Q132 0 114 15T96 56Q96 101 143 118L191 131Q216 140 228 154T241 192V1208Q241 1231 229 1245T191
1269L143 1282Q96 1299 96 1344ZM728 1723Q767 1787 812 1821T919 1843Q974 1832 1000 1789T1017 1701Q1007 1647 969 1615T864 1558L677 1480Q659 1474 641 1475T611 1489Q600 1502 604 1517T618 1548L728 1723Z" />
<glyph unicode="&#xca;" horiz-adv-x="1351" d="M483 766H772Q834 766 860 791T904 886Q912 915 927 928T964 942Q1010 943 1022 892L1100 585Q1107 553 1099 535T1067 509Q1043 501 1023 507T987 535Q957 582 932 606T876 640T797 649H483V766ZM96 1344Q96 1370
114 1385T169 1400H928Q969 1400 995 1409T1045 1428T1099 1438Q1136 1438 1155 1417T1188 1349L1271 1065Q1280 1035 1271 1015T1235 986Q1205 976 1181 987T1142 1027Q1101 1106 1065 1155T993 1232T917 1269T824 1280H627V229Q627 175 656 148T742 120H854Q925
120 978 143T1081 231T1188 420Q1201 447 1222 457T1269 462Q1299 457 1312 436T1316 381L1227 53Q1213 8 1194 -14T1133 -36Q1107 -36 1084 -27T1034 -9T967 0H169Q132 0 114 15T96 56Q96 101 143 118L191 131Q216 140 228 154T241 192V1208Q241 1231 229 1245T191
1269L143 1282Q96 1299 96 1344ZM758 1655H603L901 1491Q954 1462 985 1487Q997 1497 998 1515T979 1555L787 1768Q760 1795 738 1811T681 1828Q646 1828 624 1812T573 1768L382 1555Q361 1534 363 1516T377 1487Q407 1462 460 1491L758 1655Z" />
<glyph unicode="&#xcb;" horiz-adv-x="1351" d="M483 766H772Q834 766 860 791T904 886Q912 915 927 928T964 942Q1010 943 1022 892L1100 585Q1107 553 1099 535T1067 509Q1043 501 1023 507T987 535Q957 582 932 606T876 640T797 649H483V766ZM96 1344Q96 1370
114 1385T169 1400H928Q969 1400 995 1409T1045 1428T1099 1438Q1136 1438 1155 1417T1188 1349L1271 1065Q1280 1035 1271 1015T1235 986Q1205 976 1181 987T1142 1027Q1101 1106 1065 1155T993 1232T917 1269T824 1280H627V229Q627 175 656 148T742 120H854Q925
120 978 143T1081 231T1188 420Q1201 447 1222 457T1269 462Q1299 457 1312 436T1316 381L1227 53Q1213 8 1194 -14T1133 -36Q1107 -36 1084 -27T1034 -9T967 0H169Q132 0 114 15T96 56Q96 101 143 118L191 131Q216 140 228 154T241 192V1208Q241 1231 229 1245T191
1269L143 1282Q96 1299 96 1344ZM463 1480Q388 1480 343 1521T297 1633Q297 1704 342 1745T463 1786Q540 1786 584 1745T629 1633Q629 1564 585 1522T463 1480ZM896 1480Q820 1480 775 1521T730 1633Q730 1703 775 1744T896 1786Q974 1786 1019 1745T1064 1633Q1064
1564 1019 1522T896 1480Z" />
<glyph unicode="&#xcc;" horiz-adv-x="868" d="M627 192Q627 169 640 155T677 131L725 118Q772 101 772 56Q772 31 755 16T699 0H168Q131 0 114 15T96 56Q96 101 142 118L190 131Q216 140 228 154T241 192V1208Q241 1231 229 1245T190 1269L142 1282Q96 1299 96
1344Q96 1370 113 1385T168 1400H699Q737 1400 754 1385T772 1344Q772 1299 725 1282L677 1269Q653 1260 640 1246T627 1208V192ZM453 1723L562 1548Q573 1533 577 1518T570 1489Q559 1477 540 1476T504 1480L317 1558Q251 1583 212 1615T164 1701Q153 1745 180
1788T262 1843Q323 1855 368 1821T453 1723Z" />
<glyph unicode="&#xcd;" horiz-adv-x="868" d="M627 192Q627 169 640 155T677 131L725 118Q772 101 772 56Q772 31 755 16T699 0H168Q131 0 114 15T96 56Q96 101 142 118L190 131Q216 140 228 154T241 192V1208Q241 1231 229 1245T190 1269L142 1282Q96 1299 96
1344Q96 1370 113 1385T168 1400H699Q737 1400 754 1385T772 1344Q772 1299 725 1282L677 1269Q653 1260 640 1246T627 1208V192ZM482 1723Q521 1787 566 1821T673 1843Q728 1832 754 1789T771 1701Q761 1647 723 1615T618 1558L431 1480Q413 1474 395 1475T365
1489Q354 1502 358 1517T372 1548L482 1723Z" />
<glyph unicode="&#xce;" horiz-adv-x="868" d="M627 192Q627 169 640 155T677 131L725 118Q772 101 772 56Q772 31 755 16T699 0H168Q131 0 114 15T96 56Q96 101 142 118L190 131Q216 140 228 154T241 192V1208Q241 1231 229 1245T190 1269L142 1282Q96 1299 96
1344Q96 1370 113 1385T168 1400H699Q737 1400 754 1385T772 1344Q772 1299 725 1282L677 1269Q653 1260 640 1246T627 1208V192ZM512 1655H357L655 1491Q708 1462 739 1487Q751 1497 752 1515T733 1555L541 1768Q514 1795 492 1811T435 1828Q400 1828 378 1812T327
1768L136 1555Q115 1534 117 1516T131 1487Q161 1462 214 1491L512 1655Z" />
<glyph unicode="&#xcf;" horiz-adv-x="868" d="M627 192Q627 169 640 155T677 131L725 118Q772 101 772 56Q772 31 755 16T699 0H168Q131 0 114 15T96 56Q96 101 142 118L190 131Q216 140 228 154T241 192V1208Q241 1231 229 1245T190 1269L142 1282Q96 1299 96
1344Q96 1370 113 1385T168 1400H699Q737 1400 754 1385T772 1344Q772 1299 725 1282L677 1269Q653 1260 640 1246T627 1208V192ZM216 1480Q141 1480 96 1521T50 1633Q50 1704 95 1745T216 1786Q293 1786 337 1745T382 1633Q382 1564 338 1522T216 1480ZM649 1480Q573
1480 528 1521T483 1633Q483 1703 528 1744T649 1786Q727 1786 772 1745T817 1633Q817 1564 772 1522T649 1480Z" />
<glyph unicode="&#xd0;" horiz-adv-x="1633" d="M65 707Q65 726 78 738T112 750H808Q829 750 842 738T856 707Q856 685 843 674T808 662H110Q90 662 78 673T65 707ZM96 56Q96 101 142 118L190 131Q216 140 228 154T241 192V1208Q241 1231 229 1245T190 1269L142
1282Q96 1299 96 1344Q96 1370 113 1385T168 1400H743Q928 1400 1079 1346T1340 1191T1507 954T1566 652Q1566 463 1478 316T1226 85T837 0H168Q131 0 114 15T96 56ZM794 120Q903 120 987 177T1119 353T1167 658Q1167 803 1136 918T1043 1114T896 1237T700 1280H627V220Q627
168 655 144T737 120H794Z" />
<glyph unicode="&#xd1;" horiz-adv-x="1544" d="M544 56Q544 31 527 16T472 0H149Q112 1 94 16T76 56Q76 99 127 120L161 132Q207 151 225 175T243 252V1062Q243 1097 236 1117T201 1172L120 1277Q101 1303 94 1317T87 1348Q87 1373 104 1386T149 1400H434Q468
1400 490 1388T536 1344L1247 371L1194 226V1148Q1194 1199 1178 1223T1113 1268L1079 1280Q1028 1303 1028 1344Q1028 1370 1046 1385T1100 1400H1423Q1460 1400 1478 1385T1496 1344Q1496 1302 1445 1280L1411 1268Q1365 1250 1347 1226T1329 1148V325Q1329 289
1335 263T1357 214L1419 130Q1442 101 1446 86T1451 55Q1451 30 1434 15T1387 0H1058Q1002 0 1002 45Q1002 62 995 78T957 136L260 1091L378 1167V251Q378 202 394 178T459 132L493 120Q544 98 544 56ZM940 1486Q896 1486 859 1502T791 1539T731 1576T675 1592Q618
1592 603 1511Q591 1478 556 1478Q510 1478 510 1538Q510 1657 556 1718T680 1780Q725 1780 762 1764T830 1728T890 1692T946 1676Q1005 1676 1018 1756Q1029 1789 1065 1789Q1110 1789 1110 1729Q1110 1610 1064 1548T940 1486Z" />
<glyph unicode="&#xd2;" horiz-adv-x="1600" d="M795 1437Q964 1437 1099 1384T1331 1231T1478 995T1529 691Q1529 536 1479 403T1333 171T1104 17T803 -38Q635 -38 500 15T269 168T122 404T70 708Q70 863 121 996T266 1228T495 1382T795 1437ZM1132 464Q1132
598 1109 723T1046 956T952 1144T839 1270T715 1316Q639 1316 584 1272T500 1143T471 935Q471 801 494 676T557 443T650 254T763 128T887 82Q965 82 1019 126T1103 256T1132 464ZM819 1723L928 1548Q939 1533 943 1518T936 1489Q925 1477 906 1476T870 1480L683
1558Q617 1583 578 1615T530 1701Q519 1745 546 1788T628 1843Q689 1855 734 1821T819 1723Z" />
<glyph unicode="&#xd3;" horiz-adv-x="1600" d="M795 1437Q964 1437 1099 1384T1331 1231T1478 995T1529 691Q1529 536 1479 403T1333 171T1104 17T803 -38Q635 -38 500 15T269 168T122 404T70 708Q70 863 121 996T266 1228T495 1382T795 1437ZM1132 464Q1132
598 1109 723T1046 956T952 1144T839 1270T715 1316Q639 1316 584 1272T500 1143T471 935Q471 801 494 676T557 443T650 254T763 128T887 82Q965 82 1019 126T1103 256T1132 464ZM849 1725Q888 1789 933 1823T1040 1845Q1095 1834 1121 1791T1138 1703Q1128 1649
1090 1617T985 1560L798 1482Q780 1476 762 1477T732 1491Q721 1504 725 1519T739 1550L849 1725Z" />
<glyph unicode="&#xd4;" horiz-adv-x="1600" d="M795 1437Q964 1437 1099 1384T1331 1231T1478 995T1529 691Q1529 536 1479 403T1333 171T1104 17T803 -38Q635 -38 500 15T269 168T122 404T70 708Q70 863 121 996T266 1228T495 1382T795 1437ZM1132 464Q1132
598 1109 723T1046 956T952 1144T839 1270T715 1316Q639 1316 584 1272T500 1143T471 935Q471 801 494 676T557 443T650 254T763 128T887 82Q965 82 1019 126T1103 256T1132 464ZM877 1655H722L1020 1491Q1073 1462 1104 1487Q1116 1497 1117 1515T1098 1555L906
1768Q879 1795 857 1811T800 1828Q765 1828 743 1812T692 1768L501 1555Q480 1534 482 1516T496 1487Q526 1462 579 1491L877 1655Z" />
<glyph unicode="&#xd5;" horiz-adv-x="1600" d="M795 1437Q964 1437 1099 1384T1331 1231T1478 995T1529 691Q1529 536 1479 403T1333 171T1104 17T803 -38Q635 -38 500 15T269 168T122 404T70 708Q70 863 121 996T266 1228T495 1382T795 1437ZM1132 464Q1132
598 1109 723T1046 956T952 1144T839 1270T715 1316Q639 1316 584 1272T500 1143T471 935Q471 801 494 676T557 443T650 254T763 128T887 82Q965 82 1019 126T1103 256T1132 464ZM930 1488Q886 1488 849 1504T781 1541T721 1578T665 1594Q608 1594 593 1513Q581
1480 546 1480Q500 1480 500 1540Q500 1659 546 1720T670 1782Q715 1782 752 1766T820 1730T880 1694T936 1678Q995 1678 1008 1758Q1019 1791 1055 1791Q1100 1791 1100 1731Q1100 1612 1054 1550T930 1488Z" />
<glyph unicode="&#xd6;" horiz-adv-x="1600" d="M795 1437Q964 1437 1099 1384T1331 1231T1478 995T1529 691Q1529 536 1479 403T1333 171T1104 17T803 -38Q635 -38 500 15T269 168T122 404T70 708Q70 863 121 996T266 1228T495 1382T795 1437ZM1132 464Q1132
598 1109 723T1046 956T952 1144T839 1270T715 1316Q639 1316 584 1272T500 1143T471 935Q471 801 494 676T557 443T650 254T763 128T887 82Q965 82 1019 126T1103 256T1132 464ZM583 1480Q508 1480 463 1521T417 1633Q417 1704 462 1745T583 1786Q660 1786 704
1745T749 1633Q749 1564 705 1522T583 1480ZM1016 1480Q940 1480 895 1521T850 1633Q850 1703 895 1744T1016 1786Q1094 1786 1139 1745T1184 1633Q1184 1564 1139 1522T1016 1480Z" />
<glyph unicode="&#xd7;" horiz-adv-x="1073" d="M182 304Q129 351 184 401L789 1058Q813 1080 839 1080T893 1058Q920 1035 920 1014T894 966L289 308Q264 286 237 283T182 304ZM894 304Q869 283 839 285T788 305L183 964Q158 987 159 1011T185 1057Q234 1102
286 1056L896 394Q919 373 919 350T894 304Z" />
<glyph unicode="&#xd8;" horiz-adv-x="1600" d="M201 -62Q185 -53 183 -38T193 -8L1315 1450Q1326 1465 1342 1467T1374 1458Q1390 1447 1392 1433T1385 1406L260 -53Q248 -69 233 -71T201 -62ZM795 1437Q964 1437 1099 1384T1331 1231T1478 995T1529 691Q1529
536 1479 403T1333 171T1104 17T803 -38Q635 -38 500 15T269 168T122 404T70 708Q70 863 121 996T266 1228T495 1382T795 1437ZM1132 464Q1132 598 1109 723T1046 956T952 1144T839 1270T715 1316Q639 1316 584 1272T500 1143T471 935Q471 801 494 676T557 443T650
254T763 128T887 82Q965 82 1019 126T1103 256T1132 464Z" />
<glyph unicode="&#xd9;" horiz-adv-x="1516" d="M1194 610L1157 1155Q1154 1205 1135 1232T1074 1270L1036 1279Q1001 1288 987 1303T973 1343Q973 1369 991 1384T1042 1400H1408Q1441 1400 1459 1385T1477 1343Q1477 1318 1462 1304T1413 1279L1377 1270Q1323
1255 1306 1225T1292 1146L1330 613Q1335 561 1337 511T1340 406Q1342 280 1282 180T1097 21T781 -38Q585 -38 454 16T258 170T194 404Q194 425 195 456T199 533T206 644L241 1204Q243 1233 230 1247T181 1269L136 1279Q73 1293 73 1343Q73 1369 91 1384T142 1400H723Q757
1400 774 1385T792 1343Q792 1318 778 1303T729 1279L682 1269Q655 1264 643 1249T628 1206L594 642Q590 576 589 522T587 428Q586 256 662 178T875 100Q977 100 1050 137T1163 244T1202 409Q1201 480 1199 525T1194 610ZM884 1723L993 1548Q1004 1533 1008 1518T1001
1489Q990 1477 971 1476T935 1480L748 1558Q682 1583 643 1615T595 1701Q584 1745 611 1788T693 1843Q754 1855 799 1821T884 1723Z" />
<glyph unicode="&#xda;" horiz-adv-x="1516" d="M1194 610L1157 1155Q1154 1205 1135 1232T1074 1270L1036 1279Q1001 1288 987 1303T973 1343Q973 1369 991 1384T1042 1400H1408Q1441 1400 1459 1385T1477 1343Q1477 1318 1462 1304T1413 1279L1377 1270Q1323
1255 1306 1225T1292 1146L1330 613Q1335 561 1337 511T1340 406Q1342 280 1282 180T1097 21T781 -38Q585 -38 454 16T258 170T194 404Q194 425 195 456T199 533T206 644L241 1204Q243 1233 230 1247T181 1269L136 1279Q73 1293 73 1343Q73 1369 91 1384T142 1400H723Q757
1400 774 1385T792 1343Q792 1318 778 1303T729 1279L682 1269Q655 1264 643 1249T628 1206L594 642Q590 576 589 522T587 428Q586 256 662 178T875 100Q977 100 1050 137T1163 244T1202 409Q1201 480 1199 525T1194 610ZM914 1723Q953 1787 998 1821T1105 1843Q1160
1832 1186 1789T1203 1701Q1193 1647 1155 1615T1050 1558L863 1480Q845 1474 827 1475T797 1489Q786 1502 790 1517T804 1548L914 1723Z" />
<glyph unicode="&#xdb;" horiz-adv-x="1516" d="M1194 610L1157 1155Q1154 1205 1135 1232T1074 1270L1036 1279Q1001 1288 987 1303T973 1343Q973 1369 991 1384T1042 1400H1408Q1441 1400 1459 1385T1477 1343Q1477 1318 1462 1304T1413 1279L1377 1270Q1323
1255 1306 1225T1292 1146L1330 613Q1335 561 1337 511T1340 406Q1342 280 1282 180T1097 21T781 -38Q585 -38 454 16T258 170T194 404Q194 425 195 456T199 533T206 644L241 1204Q243 1233 230 1247T181 1269L136 1279Q73 1293 73 1343Q73 1369 91 1384T142 1400H723Q757
1400 774 1385T792 1343Q792 1318 778 1303T729 1279L682 1269Q655 1264 643 1249T628 1206L594 642Q590 576 589 522T587 428Q586 256 662 178T875 100Q977 100 1050 137T1163 244T1202 409Q1201 480 1199 525T1194 610ZM943 1655H788L1086 1491Q1139 1462 1170
1487Q1182 1497 1183 1515T1164 1555L972 1768Q945 1795 923 1811T866 1828Q831 1828 809 1812T758 1768L567 1555Q546 1534 548 1516T562 1487Q592 1462 645 1491L943 1655Z" />
<glyph unicode="&#xdc;" horiz-adv-x="1516" d="M1194 610L1157 1155Q1154 1205 1135 1232T1074 1270L1036 1279Q1001 1288 987 1303T973 1343Q973 1369 991 1384T1042 1400H1408Q1441 1400 1459 1385T1477 1343Q1477 1318 1462 1304T1413 1279L1377 1270Q1323
1255 1306 1225T1292 1146L1330 613Q1335 561 1337 511T1340 406Q1342 280 1282 180T1097 21T781 -38Q585 -38 454 16T258 170T194 404Q194 425 195 456T199 533T206 644L241 1204Q243 1233 230 1247T181 1269L136 1279Q73 1293 73 1343Q73 1369 91 1384T142 1400H723Q757
1400 774 1385T792 1343Q792 1318 778 1303T729 1279L682 1269Q655 1264 643 1249T628 1206L594 642Q590 576 589 522T587 428Q586 256 662 178T875 100Q977 100 1050 137T1163 244T1202 409Q1201 480 1199 525T1194 610ZM648 1480Q573 1480 528 1521T482 1633Q482
1704 527 1745T648 1786Q725 1786 769 1745T814 1633Q814 1564 770 1522T648 1480ZM1081 1480Q1005 1480 960 1521T915 1633Q915 1703 960 1744T1081 1786Q1159 1786 1204 1745T1249 1633Q1249 1564 1204 1522T1081 1480Z" />
<glyph unicode="&#xdd;" horiz-adv-x="1400" d="M880 440L572 393L163 1201Q145 1238 132 1252T95 1275L66 1286Q44 1295 34 1310T24 1344Q24 1370 42 1385T97 1400H621Q658 1400 676 1385T695 1344Q695 1297 645 1283L607 1274Q574 1264 568 1246T579 1188L874
541L748 478L1068 1144Q1089 1189 1079 1223T1020 1275L983 1286Q966 1293 955 1307T944 1344Q944 1370 962 1385T1017 1400H1312Q1349 1400 1366 1385T1384 1344Q1384 1324 1375 1311T1345 1287L1329 1279Q1309 1271 1292 1256T1257 1212T1212 1130L880 440ZM525
515H911V192Q911 169 924 155T961 131L1009 118Q1056 101 1056 56Q1056 31 1039 16T984 0H452Q415 0 398 15T380 56Q380 101 427 118L474 131Q500 140 512 154T525 192V515ZM852 1723Q891 1787 936 1821T1043 1843Q1098 1832 1124 1789T1141 1701Q1131 1647 1093
1615T988 1558L801 1480Q783 1474 765 1475T735 1489Q724 1502 728 1517T742 1548L852 1723Z" />
<glyph unicode="&#xde;" horiz-adv-x="1475" d="M468 1021V1124H828Q1000 1124 1131 1073T1336 927T1410 701Q1410 572 1339 482T1139 344T833 297Q748 297 685 308T571 340T468 391L482 481Q521 457 559 439T644 411T748 400Q855 400 921 470T987 698Q987 847
910 934T678 1021H468ZM619 192Q619 166 633 154T669 131L717 112Q739 100 751 87T764 52Q764 28 747 14T692 0H168Q131 0 114 15T96 56Q96 98 142 118L191 131Q214 139 227 152T241 192V1208Q241 1234 228 1247T191 1269L142 1282Q96 1302 96 1344Q96 1370 113
1385T168 1400H692Q729 1400 746 1387T764 1348Q764 1327 752 1314T717 1288L669 1269Q648 1259 634 1247T619 1208V192Z" />
<glyph unicode="&#xdf;" horiz-adv-x="1473" d="M1427 359Q1427 489 1364 586T1182 736T892 789L877 761Q1019 773 1119 821T1273 948T1326 1128Q1326 1221 1275 1297T1113 1418T828 1464Q624 1464 490 1395T291 1201T225 913V866L273 927H121Q92 927 75 915T57
882Q57 859 74 844T123 820L174 803Q194 796 207 785T221 744V178Q221 150 208 134T173 113L131 102Q81 89 81 46Q81 26 98 13T146 0H481Q525 0 543 22T561 85V956Q561 1153 623 1257T805 1361Q889 1361 939 1302T990 1136Q990 1064 971 1002T901 895T759 823Q719
806 706 790T692 752Q692 724 710 710T771 685Q867 671 938 623T1050 498T1091 316Q1091 214 1054 167T957 120Q909 120 874 149T811 249L781 310Q769 333 753 348T710 363Q686 363 671 346T656 301V41Q656 15 672 -3T718 -22Q736 -22 754 -12T790 12T825 36T855
46Q871 46 896 27T964 -10T1076 -29Q1177 -29 1256 18T1381 153T1427 359Z" />
<glyph unicode="&#xe0;" horiz-adv-x="1159" d="M674 132V153L649 156V778Q649 832 621 863T543 894Q500 894 475 875T449 827V728Q449 656 400 617T262 578Q186 578 148 611T109 706Q109 770 165 833T331 938T607 980Q804 980 900 904T997 697V198Q997 174 1007
161T1038 148Q1058 148 1068 158T1088 178Q1094 184 1100 189T1116 194Q1131 194 1137 184T1144 156Q1144 117 1117 75T1034 4T897 -26Q797 -26 736 17T674 132ZM70 211Q70 342 187 420T517 498Q579 498 627 489T708 462L680 387Q653 401 626 408T567 415Q501 415
464 378T426 271Q426 201 460 165T548 128Q589 128 627 147T688 197L711 129Q659 55 568 15T372 -26Q237 -26 154 40T70 211ZM614 1316L697 1118Q706 1102 709 1086T698 1057Q686 1046 667 1046T629 1053L451 1167Q388 1201 354 1237T313 1327Q306 1374 336 1417T427
1466Q494 1476 538 1434T614 1316Z" />
<glyph unicode="&#xe1;" horiz-adv-x="1159" d="M674 132V153L649 156V778Q649 832 621 863T543 894Q500 894 475 875T449 827V728Q449 656 400 617T262 578Q186 578 148 611T109 706Q109 770 165 833T331 938T607 980Q804 980 900 904T997 697V198Q997 174 1007
161T1038 148Q1058 148 1068 158T1088 178Q1094 184 1100 189T1116 194Q1131 194 1137 184T1144 156Q1144 117 1117 75T1034 4T897 -26Q797 -26 736 17T674 132ZM70 211Q70 342 187 420T517 498Q579 498 627 489T708 462L680 387Q653 401 626 408T567 415Q501 415
464 378T426 271Q426 201 460 165T548 128Q589 128 627 147T688 197L711 129Q659 55 568 15T372 -26Q237 -26 154 40T70 211ZM605 1316Q637 1391 680 1433T791 1466Q852 1460 882 1417T906 1327Q899 1274 865 1238T767 1167L590 1053Q572 1045 553 1045T521 1057Q507
1070 510 1086T522 1118L605 1316Z" />
<glyph unicode="&#xe2;" horiz-adv-x="1159" d="M674 132V153L649 156V778Q649 832 621 863T543 894Q500 894 475 875T449 827V728Q449 656 400 617T262 578Q186 578 148 611T109 706Q109 770 165 833T331 938T607 980Q804 980 900 904T997 697V198Q997 174 1007
161T1038 148Q1058 148 1068 158T1088 178Q1094 184 1100 189T1116 194Q1131 194 1137 184T1144 156Q1144 117 1117 75T1034 4T897 -26Q797 -26 736 17T674 132ZM70 211Q70 342 187 420T517 498Q579 498 627 489T708 462L680 387Q653 401 626 408T567 415Q501 415
464 378T426 271Q426 201 460 165T548 128Q589 128 627 147T688 197L711 129Q659 55 568 15T372 -26Q237 -26 154 40T70 211ZM660 1272H503L807 1056Q831 1040 854 1040T892 1051Q904 1062 904 1080T886 1121L690 1374Q665 1404 641 1420T582 1436Q547 1436 523
1420T472 1374L276 1121Q257 1099 257 1081T271 1051Q286 1040 309 1040T356 1056L660 1272Z" />
<glyph unicode="&#xe3;" horiz-adv-x="1159" d="M674 132V153L649 156V778Q649 832 621 863T543 894Q500 894 475 875T449 827V728Q449 656 400 617T262 578Q186 578 148 611T109 706Q109 770 165 833T331 938T607 980Q804 980 900 904T997 697V198Q997 174 1007
161T1038 148Q1058 148 1068 158T1088 178Q1094 184 1100 189T1116 194Q1131 194 1137 184T1144 156Q1144 117 1117 75T1034 4T897 -26Q797 -26 736 17T674 132ZM70 211Q70 342 187 420T517 498Q579 498 627 489T708 462L680 387Q653 401 626 408T567 415Q501 415
464 378T426 271Q426 201 460 165T548 128Q589 128 627 147T688 197L711 129Q659 55 568 15T372 -26Q237 -26 154 40T70 211ZM714 1053Q670 1053 632 1072T562 1116T500 1161T443 1180Q412 1180 395 1157T370 1083Q358 1049 323 1049Q275 1049 275 1111Q275 1240
322 1306T449 1373Q495 1373 532 1354T602 1310T663 1266T721 1247Q753 1247 769 1271T794 1344Q806 1377 842 1377Q888 1377 888 1316Q888 1187 841 1120T714 1053Z" />
<glyph unicode="&#xe4;" horiz-adv-x="1159" d="M674 132V153L649 156V778Q649 832 621 863T543 894Q500 894 475 875T449 827V728Q449 656 400 617T262 578Q186 578 148 611T109 706Q109 770 165 833T331 938T607 980Q804 980 900 904T997 697V198Q997 174 1007
161T1038 148Q1058 148 1068 158T1088 178Q1094 184 1100 189T1116 194Q1131 194 1137 184T1144 156Q1144 117 1117 75T1034 4T897 -26Q797 -26 736 17T674 132ZM70 211Q70 342 187 420T517 498Q579 498 627 489T708 462L680 387Q653 401 626 408T567 415Q501 415
464 378T426 271Q426 201 460 165T548 128Q589 128 627 147T688 197L711 129Q659 55 568 15T372 -26Q237 -26 154 40T70 211ZM363 1049Q286 1049 241 1091T195 1205Q195 1278 240 1320T363 1363Q440 1363 485 1321T530 1205Q530 1135 485 1092T363 1049ZM800 1049Q723
1049 677 1091T631 1205Q631 1277 677 1320T800 1363Q878 1363 923 1321T968 1205Q968 1135 923 1092T800 1049Z" />
<glyph unicode="&#xe5;" horiz-adv-x="1159" d="M674 132V153L649 156V778Q649 832 621 863T543 894Q500 894 475 875T449 827V728Q449 656 400 617T262 578Q186 578 148 611T109 706Q109 770 165 833T331 938T607 980Q804 980 900 904T997 697V198Q997 174 1007
161T1038 148Q1058 148 1068 158T1088 178Q1094 184 1100 189T1116 194Q1131 194 1137 184T1144 156Q1144 117 1117 75T1034 4T897 -26Q797 -26 736 17T674 132ZM70 211Q70 342 187 420T517 498Q579 498 627 489T708 462L680 387Q653 401 626 408T567 415Q501 415
464 378T426 271Q426 201 460 165T548 128Q589 128 627 147T688 197L711 129Q659 55 568 15T372 -26Q237 -26 154 40T70 211ZM582 1039Q481 1039 411 1091T341 1239Q341 1333 411 1385T582 1437Q686 1437 754 1384T823 1239Q823 1147 755 1093T582 1039ZM583 1357Q545
1357 519 1327T493 1239Q493 1182 519 1151T583 1120Q623 1120 647 1152T672 1239Q672 1296 648 1326T583 1357Z" />
<glyph unicode="&#xe6;" horiz-adv-x="1689" d="M678 394Q649 409 621 415T557 422Q496 422 460 383T424 273Q424 198 459 159T549 119Q603 119 649 148T726 220L786 152Q733 72 629 24T395 -25Q244 -25 160 42T75 219Q75 346 192 422T524 499Q583 499 628 489T706
463L678 394ZM1621 586Q1621 534 1588 507T1490 479H910V557H1224Q1277 557 1277 606Q1277 737 1236 800T1137 863Q1090 863 1054 833T996 740T975 577Q975 385 1060 291T1288 196Q1372 196 1438 236T1536 342Q1567 371 1585 368Q1599 367 1609 358T1619 329Q1617
233 1560 153T1403 24T1170 -25Q1002 -25 886 35T710 201T649 445V774Q649 828 621 858T544 889Q499 889 473 868T447 813V737Q447 668 399 627T263 585Q194 585 157 617T119 710Q119 772 172 834T327 937T576 978Q689 978 768 939T895 823L833 817Q896 892 984
935T1180 979Q1317 979 1415 927T1567 785T1621 586Z" />
<glyph unicode="&#xe7;" horiz-adv-x="1078" d="M1014 689Q1014 623 966 577T836 531Q758 531 718 573T677 684V717Q677 783 643 822T551 862Q502 862 462 830T398 736T374 583Q374 461 415 379T528 255T691 213Q766 213 824 238T925 318Q948 340 960 348T986
356Q1004 356 1012 340T1020 299Q1017 211 960 137T804 19T575 -26Q427 -26 311 33T127 201T60 453Q60 604 126 723T312 912T595 981Q724 981 818 942T963 836T1014 689ZM521 13H609L529 -140L470 -126Q491 -121 515 -119T576 -116Q677 -116 731 -158T785 -275Q785
-354 722 -402T541 -450Q445 -450 386 -418T321 -341Q320 -321 331 -309T360 -297Q375 -295 386 -301T410 -315Q429 -340 453 -350T506 -361Q580 -361 580 -272Q580 -233 559 -212T495 -190H467Q443 -190 437 -176T440 -141L521 13Z" />
<glyph unicode="&#xe8;" horiz-adv-x="1091" d="M1032 598Q1032 537 998 504T901 471H292V560H630Q682 560 682 609Q682 739 644 800T541 862Q492 862 455 830T395 736T373 582Q373 394 459 303T692 212Q770 212 830 238T935 320Q958 342 970 350T995 358Q1013
358 1021 341T1029 300Q1027 213 969 139T810 19T576 -26Q427 -26 311 34T127 201T59 454Q59 611 122 729T303 914T588 981Q732 981 831 932T981 796T1032 598ZM599 1316L682 1118Q691 1102 694 1086T683 1057Q671 1046 652 1046T614 1053L436 1167Q373 1201 339
1237T298 1327Q291 1374 321 1417T412 1466Q479 1476 523 1434T599 1316Z" />
<glyph unicode="&#xe9;" horiz-adv-x="1091" d="M1032 598Q1032 537 998 504T901 471H292V560H630Q682 560 682 609Q682 739 644 800T541 862Q492 862 455 830T395 736T373 582Q373 394 459 303T692 212Q770 212 830 238T935 320Q958 342 970 350T995 358Q1013
358 1021 341T1029 300Q1027 213 969 139T810 19T576 -26Q427 -26 311 34T127 201T59 454Q59 611 122 729T303 914T588 981Q732 981 831 932T981 796T1032 598ZM590 1316Q622 1391 665 1433T776 1466Q837 1460 867 1417T891 1327Q884 1274 850 1238T752 1167L575
1053Q557 1045 538 1045T506 1057Q492 1070 495 1086T507 1118L590 1316Z" />
<glyph unicode="&#xea;" horiz-adv-x="1091" d="M1032 598Q1032 537 998 504T901 471H292V560H630Q682 560 682 609Q682 739 644 800T541 862Q492 862 455 830T395 736T373 582Q373 394 459 303T692 212Q770 212 830 238T935 320Q958 342 970 350T995 358Q1013
358 1021 341T1029 300Q1027 213 969 139T810 19T576 -26Q427 -26 311 34T127 201T59 454Q59 611 122 729T303 914T588 981Q732 981 831 932T981 796T1032 598ZM646 1272H489L793 1056Q817 1040 840 1040T878 1051Q890 1062 890 1080T872 1121L676 1374Q651 1404
627 1420T568 1436Q533 1436 509 1420T458 1374L262 1121Q243 1099 243 1081T257 1051Q272 1040 295 1040T342 1056L646 1272Z" />
<glyph unicode="&#xeb;" horiz-adv-x="1091" d="M1032 598Q1032 537 998 504T901 471H292V560H630Q682 560 682 609Q682 739 644 800T541 862Q492 862 455 830T395 736T373 582Q373 394 459 303T692 212Q770 212 830 238T935 320Q958 342 970 350T995 358Q1013
358 1021 341T1029 300Q1027 213 969 139T810 19T576 -26Q427 -26 311 34T127 201T59 454Q59 611 122 729T303 914T588 981Q732 981 831 932T981 796T1032 598ZM348 1049Q271 1049 226 1091T180 1205Q180 1278 225 1320T348 1363Q425 1363 470 1321T515 1205Q515
1135 470 1092T348 1049ZM785 1049Q708 1049 662 1091T616 1205Q616 1277 662 1320T785 1363Q863 1363 908 1321T953 1205Q953 1135 908 1092T785 1049Z" />
<glyph unicode="&#xec;" horiz-adv-x="658" d="M517 921V183Q517 149 525 134T549 111L577 101Q596 93 605 80T615 49Q615 26 599 13T553 0H132Q103 0 87 13T70 49Q70 67 80 79T107 101L138 111Q154 119 162 134T170 183V713Q170 742 162 753T136 770L99 774Q81
780 72 790T62 818Q62 837 75 849T116 872L355 954Q392 966 414 971T461 977Q486 977 501 962T517 921ZM615 1316L698 1118Q707 1102 710 1086T699 1057Q687 1046 668 1046T630 1053L452 1167Q389 1201 355 1237T314 1327Q307 1374 337 1417T428 1466Q495 1476
539 1434T615 1316Z" />
<glyph unicode="&#xed;" horiz-adv-x="658" d="M517 921V183Q517 149 525 134T549 111L577 101Q596 93 605 80T615 49Q615 26 599 13T553 0H132Q103 0 87 13T70 49Q70 67 80 79T107 101L138 111Q154 119 162 134T170 183V713Q170 742 162 753T136 770L99 774Q81
780 72 790T62 818Q62 837 75 849T116 872L355 954Q392 966 414 971T461 977Q486 977 501 962T517 921ZM351 1316Q383 1391 426 1433T537 1466Q598 1460 628 1417T652 1327Q645 1274 611 1238T513 1167L336 1053Q318 1045 299 1045T267 1057Q253 1070 256 1086T268
1118L351 1316Z" />
<glyph unicode="&#xee;" horiz-adv-x="658" d="M517 921V183Q517 149 525 134T549 111L577 101Q596 93 605 80T615 49Q615 26 599 13T553 0H132Q103 0 87 13T70 49Q70 67 80 79T107 101L138 111Q154 119 162 134T170 183V713Q170 742 162 753T136 770L99 774Q81
780 72 790T62 818Q62 837 75 849T116 872L355 954Q392 966 414 971T461 977Q486 977 501 962T517 921ZM650 1272H509L782 1056Q804 1040 825 1040T859 1051Q870 1062 870 1080T853 1121L677 1374Q655 1404 633 1420T580 1436Q548 1436 526 1420T481 1374L304 1121Q287
1099 287 1081T300 1051Q313 1040 334 1040T376 1056L650 1272Z" />
<glyph unicode="&#xef;" horiz-adv-x="658" d="M517 921V183Q517 149 525 134T549 111L577 101Q596 93 605 80T615 49Q615 26 599 13T553 0H132Q103 0 87 13T70 49Q70 67 80 79T107 101L138 111Q154 119 162 134T170 183V713Q170 742 162 753T136 770L99 774Q81
780 72 790T62 818Q62 837 75 849T116 872L355 954Q392 966 414 971T461 977Q486 977 501 962T517 921ZM406 1304Q344 1304 308 1346T272 1460Q272 1533 308 1575T406 1618Q468 1618 504 1576T540 1460Q540 1390 504 1347T406 1304ZM756 1304Q694 1304 657 1346T620
1460Q620 1532 657 1575T756 1618Q818 1618 854 1576T890 1460Q890 1390 854 1347T756 1304Z" />
<glyph unicode="&#xf0;" horiz-adv-x="1223" d="M1163 584Q1163 386 1094 249T900 42T607 -29Q436 -29 314 39T127 229T62 510Q62 639 119 746T279 919T515 984Q597 984 663 957T772 876T829 743L800 731Q780 865 723 990T579 1213T388 1358Q344 1380 327 1399T310
1443Q311 1470 338 1488T423 1499Q571 1476 704 1395T941 1190T1104 911T1163 584ZM428 592Q428 469 462 368T549 206T662 145Q707 146 741 173T796 257T815 398Q815 524 779 616T689 760T577 812Q529 812 496 786T445 710T428 592ZM281 1103Q270 1127 276 1147T310
1180L927 1471Q958 1486 979 1478T1010 1447Q1035 1395 976 1368L358 1076Q332 1064 312 1073T281 1103Z" />
<glyph unicode="&#xf1;" horiz-adv-x="1322" d="M521 903V183Q521 148 528 133T552 111L581 100Q613 84 613 53Q613 0 548 0H132Q99 0 84 13T68 50Q68 67 77 79T107 101L138 111Q155 117 162 132T169 183V708Q169 736 161 748T136 765L99 770Q79 776 71 786T62
814Q62 834 73 846T115 870L322 947Q365 964 392 971T444 979Q482 979 501 958T521 903ZM488 670L436 725L470 756Q603 878 698 929T875 981Q1001 981 1072 896T1156 671L1207 184Q1211 149 1217 133T1240 111L1269 101Q1289 92 1298 80T1308 50Q1308 27 1293 14T1244
0H824Q758 0 758 53Q758 84 790 100L820 111Q837 118 846 133T851 184L806 621Q798 697 769 734T680 772Q644 772 605 755T526 703L488 670ZM812 1053Q768 1053 730 1072T660 1116T598 1161T541 1180Q510 1180 493 1157T468 1083Q456 1049 421 1049Q373 1049 373
1111Q373 1240 420 1306T547 1373Q593 1373 630 1354T700 1310T761 1266T819 1247Q851 1247 867 1271T892 1344Q904 1377 940 1377Q986 1377 986 1316Q986 1187 939 1120T812 1053Z" />
<glyph unicode="&#xf2;" horiz-adv-x="1217" d="M614 981Q776 981 898 917T1087 739T1155 474Q1155 333 1085 220T890 40T601 -26Q440 -26 318 38T128 217T60 480Q60 624 130 737T325 915T614 981ZM686 97Q739 107 770 155T805 291T784 509Q759 636 721 717T634
833T530 858Q477 848 446 800T411 664T432 446Q456 320 494 239T581 122T686 97ZM640 1316L723 1118Q732 1102 735 1086T724 1057Q712 1046 693 1046T655 1053L477 1167Q414 1201 380 1237T339 1327Q332 1374 362 1417T453 1466Q520 1476 564 1434T640 1316Z" />
<glyph unicode="&#xf3;" horiz-adv-x="1217" d="M614 981Q776 981 898 917T1087 739T1155 474Q1155 333 1085 220T890 40T601 -26Q440 -26 318 38T128 217T60 480Q60 624 130 737T325 915T614 981ZM686 97Q739 107 770 155T805 291T784 509Q759 636 721 717T634
833T530 858Q477 848 446 800T411 664T432 446Q456 320 494 239T581 122T686 97ZM631 1316Q663 1391 706 1433T817 1466Q878 1460 908 1417T932 1327Q925 1274 891 1238T793 1167L616 1053Q598 1045 579 1045T547 1057Q533 1070 536 1086T548 1118L631 1316Z" />
<glyph unicode="&#xf4;" horiz-adv-x="1217" d="M614 981Q776 981 898 917T1087 739T1155 474Q1155 333 1085 220T890 40T601 -26Q440 -26 318 38T128 217T60 480Q60 624 130 737T325 915T614 981ZM686 97Q739 107 770 155T805 291T784 509Q759 636 721 717T634
833T530 858Q477 848 446 800T411 664T432 446Q456 320 494 239T581 122T686 97ZM687 1272H530L834 1056Q858 1040 881 1040T919 1051Q931 1062 931 1080T913 1121L717 1374Q692 1404 668 1420T609 1436Q574 1436 550 1420T499 1374L303 1121Q284 1099 284 1081T298
1051Q313 1040 336 1040T383 1056L687 1272Z" />
<glyph unicode="&#xf5;" horiz-adv-x="1217" d="M614 981Q776 981 898 917T1087 739T1155 474Q1155 333 1085 220T890 40T601 -26Q440 -26 318 38T128 217T60 480Q60 624 130 737T325 915T614 981ZM686 97Q739 107 770 155T805 291T784 509Q759 636 721 717T634
833T530 858Q477 848 446 800T411 664T432 446Q456 320 494 239T581 122T686 97ZM741 1053Q697 1053 659 1072T589 1116T527 1161T470 1180Q439 1180 422 1157T397 1083Q385 1049 350 1049Q302 1049 302 1111Q302 1240 349 1306T476 1373Q522 1373 559 1354T629
1310T690 1266T748 1247Q780 1247 796 1271T821 1344Q833 1377 869 1377Q915 1377 915 1316Q915 1187 868 1120T741 1053Z" />
<glyph unicode="&#xf6;" horiz-adv-x="1217" d="M614 981Q776 981 898 917T1087 739T1155 474Q1155 333 1085 220T890 40T601 -26Q440 -26 318 38T128 217T60 480Q60 624 130 737T325 915T614 981ZM686 97Q739 107 770 155T805 291T784 509Q759 636 721 717T634
833T530 858Q477 848 446 800T411 664T432 446Q456 320 494 239T581 122T686 97ZM389 1049Q312 1049 267 1091T221 1205Q221 1278 266 1320T389 1363Q466 1363 511 1321T556 1205Q556 1135 511 1092T389 1049ZM826 1049Q749 1049 703 1091T657 1205Q657 1277 703
1320T826 1363Q904 1363 949 1321T994 1205Q994 1135 949 1092T826 1049Z" />
<glyph unicode="&#xf7;" horiz-adv-x="1131" d="M563 968Q528 968 500 984T456 1027T439 1085Q439 1118 455 1144T500 1186T563 1202Q599 1202 627 1186T671 1144T688 1085Q688 1054 672 1027T627 984T563 968ZM120 682Q120 713 139 731T185 750H962Q987 750 1006
732T1025 682Q1025 650 1006 633T962 615H184Q159 615 140 632T120 682ZM563 175Q528 175 500 191T456 234T439 292Q439 325 455 351T500 393T563 409Q599 409 627 393T671 351T688 292Q688 261 672 234T627 191T563 175Z" />
<glyph unicode="&#xf8;" horiz-adv-x="1201" d="M208 -71Q192 -64 188 -49T193 -18L367 240L389 252L773 774L775 792L933 1020Q943 1035 958 1039T990 1034Q1007 1024 1012 1011T1007 982L834 730L818 726L440 212L436 191L267 -57Q244 -89 208 -71ZM614 981Q776
981 898 917T1087 739T1155 474Q1155 333 1085 220T890 40T601 -26Q440 -26 318 38T128 217T60 480Q60 624 130 737T325 915T614 981ZM686 97Q739 107 770 155T805 291T784 509Q759 636 721 717T634 833T530 858Q477 848 446 800T411 664T432 446Q456 320 494 239T581
122T686 97Z" />
<glyph unicode="&#xf9;" horiz-adv-x="1300" d="M796 172V205L784 207V708Q784 736 776 748T751 764L714 770Q694 775 686 786T677 814Q677 834 688 846T730 869L936 947Q980 963 1007 970T1059 978Q1097 978 1116 957T1136 903V183Q1136 148 1143 133T1167 111L1197
101Q1218 93 1227 80T1237 50Q1237 27 1222 14T1172 0H948Q886 0 841 50T796 172ZM147 284V708Q147 736 139 748T114 764L76 770Q57 775 48 786T39 814Q39 834 50 846T93 869L299 947Q345 964 371 971T419 978Q459 978 479 957T499 903V334Q499 258 534 221T632
183Q671 183 714 200T797 252L835 285L887 230L852 199Q719 74 621 24T437 -26Q307 -26 227 59T147 284ZM670 1316L753 1118Q762 1102 765 1086T754 1057Q742 1046 723 1046T685 1053L507 1167Q444 1201 410 1237T369 1327Q362 1374 392 1417T483 1466Q550 1476
594 1434T670 1316Z" />
<glyph unicode="&#xfa;" horiz-adv-x="1300" d="M796 172V205L784 207V708Q784 736 776 748T751 764L714 770Q694 775 686 786T677 814Q677 834 688 846T730 869L936 947Q980 963 1007 970T1059 978Q1097 978 1116 957T1136 903V183Q1136 148 1143 133T1167 111L1197
101Q1218 93 1227 80T1237 50Q1237 27 1222 14T1172 0H948Q886 0 841 50T796 172ZM147 284V708Q147 736 139 748T114 764L76 770Q57 775 48 786T39 814Q39 834 50 846T93 869L299 947Q345 964 371 971T419 978Q459 978 479 957T499 903V334Q499 258 534 221T632
183Q671 183 714 200T797 252L835 285L887 230L852 199Q719 74 621 24T437 -26Q307 -26 227 59T147 284ZM661 1316Q693 1391 736 1433T847 1466Q908 1460 938 1417T962 1327Q955 1274 921 1238T823 1167L646 1053Q628 1045 609 1045T577 1057Q563 1070 566 1086T578
1118L661 1316Z" />
<glyph unicode="&#xfb;" horiz-adv-x="1300" d="M796 172V205L784 207V708Q784 736 776 748T751 764L714 770Q694 775 686 786T677 814Q677 834 688 846T730 869L936 947Q980 963 1007 970T1059 978Q1097 978 1116 957T1136 903V183Q1136 148 1143 133T1167 111L1197
101Q1218 93 1227 80T1237 50Q1237 27 1222 14T1172 0H948Q886 0 841 50T796 172ZM147 284V708Q147 736 139 748T114 764L76 770Q57 775 48 786T39 814Q39 834 50 846T93 869L299 947Q345 964 371 971T419 978Q459 978 479 957T499 903V334Q499 258 534 221T632
183Q671 183 714 200T797 252L835 285L887 230L852 199Q719 74 621 24T437 -26Q307 -26 227 59T147 284ZM717 1272H560L864 1056Q888 1040 911 1040T949 1051Q961 1062 961 1080T943 1121L747 1374Q722 1404 698 1420T639 1436Q604 1436 580 1420T529 1374L333
1121Q314 1099 314 1081T328 1051Q343 1040 366 1040T413 1056L717 1272Z" />
<glyph unicode="&#xfc;" horiz-adv-x="1300" d="M796 172V205L784 207V708Q784 736 776 748T751 764L714 770Q694 775 686 786T677 814Q677 834 688 846T730 869L936 947Q980 963 1007 970T1059 978Q1097 978 1116 957T1136 903V183Q1136 148 1143 133T1167 111L1197
101Q1218 93 1227 80T1237 50Q1237 27 1222 14T1172 0H948Q886 0 841 50T796 172ZM147 284V708Q147 736 139 748T114 764L76 770Q57 775 48 786T39 814Q39 834 50 846T93 869L299 947Q345 964 371 971T419 978Q459 978 479 957T499 903V334Q499 258 534 221T632
183Q671 183 714 200T797 252L835 285L887 230L852 199Q719 74 621 24T437 -26Q307 -26 227 59T147 284ZM419 1049Q342 1049 297 1091T251 1205Q251 1278 296 1320T419 1363Q496 1363 541 1321T586 1205Q586 1135 541 1092T419 1049ZM856 1049Q779 1049 733 1091T687
1205Q687 1277 733 1320T856 1363Q934 1363 979 1321T1024 1205Q1024 1135 979 1092T856 1049Z" />
<glyph unicode="&#xfd;" horiz-adv-x="1175" d="M748 173L558 -151L125 774Q108 812 90 827T40 854Q20 862 12 874T3 904Q3 928 19 941T65 955H559Q587 955 603 942T620 905Q620 886 610 874T576 856L543 848Q501 837 494 812T512 724L748 173ZM541 -123L587 -12L632
73L886 708Q911 770 904 800T852 843L815 853Q792 859 781 872T770 905Q770 928 786 941T831 955H1113Q1142 955 1158 942T1175 904Q1175 889 1166 877T1134 853Q1093 837 1068 811T1019 724L687 -88Q625 -241 573 -324T459 -439T310 -471Q180 -471 104 -402T27
-229Q27 -155 64 -113T163 -70Q224 -70 256 -105T311 -200L328 -243Q339 -278 357 -296T397 -315Q419 -315 438 -302T481 -248T541 -123ZM693 1316Q725 1391 768 1433T879 1466Q940 1460 970 1417T994 1327Q987 1274 953 1238T855 1167L678 1053Q660 1045 641 1045T609
1057Q595 1070 598 1086T610 1118L693 1316Z" />
<glyph unicode="&#xfe;" horiz-adv-x="1251" d="M486 1472V-293Q486 -328 493 -343T518 -365L554 -375Q573 -384 582 -396T592 -426Q592 -449 576 -462T530 -476H101Q73 -476 57 -463T40 -426Q40 -409 50 -397T77 -375L107 -365Q123 -358 131 -343T139 -293V1264Q139
1293 131 1304T106 1320L69 1325Q52 1331 42 1341T31 1369Q31 1403 85 1422L324 1505Q361 1517 383 1522T430 1527Q455 1527 470 1512T486 1472ZM430 681L384 735Q462 851 559 915T779 979Q900 979 993 920T1139 755T1193 507Q1193 346 1129 227T954 41T705 -25Q589
-25 506 23T366 165L440 244Q476 172 524 141T631 109Q691 109 736 146T808 263T835 470Q835 593 809 670T738 785T634 822Q575 822 524 788T430 681Z" />
<glyph unicode="&#xff;" horiz-adv-x="1175" d="M748 173L558 -151L125 774Q108 812 90 827T40 854Q20 862 12 874T3 904Q3 928 19 941T65 955H559Q587 955 603 942T620 905Q620 886 610 874T576 856L543 848Q501 837 494 812T512 724L748 173ZM541 -123L587 -12L632
73L886 708Q911 770 904 800T852 843L815 853Q792 859 781 872T770 905Q770 928 786 941T831 955H1113Q1142 955 1158 942T1175 904Q1175 889 1166 877T1134 853Q1093 837 1068 811T1019 724L687 -88Q625 -241 573 -324T459 -439T310 -471Q180 -471 104 -402T27
-229Q27 -155 64 -113T163 -70Q224 -70 256 -105T311 -200L328 -243Q339 -278 357 -296T397 -315Q419 -315 438 -302T481 -248T541 -123ZM451 1049Q374 1049 329 1091T283 1205Q283 1278 328 1320T451 1363Q528 1363 573 1321T618 1205Q618 1135 573 1092T451 1049ZM888
1049Q811 1049 765 1091T719 1205Q719 1277 765 1320T888 1363Q966 1363 1011 1321T1056 1205Q1056 1135 1011 1092T888 1049Z" />
<glyph unicode="&#x2013;" horiz-adv-x="1105" d="M56 540Q56 574 71 594T118 614H986Q1019 614 1033 594T1048 540Q1048 505 1034 485T986 464H118Q87 464 72 484T56 540Z" />
<glyph unicode="&#x2014;" horiz-adv-x="1733" d="M56 540Q56 574 71 594T118 614H1614Q1647 614 1661 594T1676 540Q1676 504 1662 484T1614 464H118Q87 464 72 484T56 540Z" />
<glyph unicode="&#x2018;" horiz-adv-x="525" d="M273 1197Q369 1197 418 1153T468 1034Q468 951 408 899T262 847Q163 847 100 913T36 1107Q36 1223 77 1313T192 1462T359 1545Q398 1554 419 1547T446 1517Q451 1498 439 1480T388 1448Q322 1424 279 1388T214
1313T192 1238Q192 1220 202 1209T242 1197H273Z" />
<glyph unicode="&#x2019;" horiz-adv-x="523" d="M228 1191Q132 1191 83 1235T33 1354Q33 1437 93 1489T239 1541Q338 1541 401 1476T465 1281Q465 1165 424 1075T309 926T142 843Q103 834 82 842T55 871Q50 890 63 908T113 940Q179 964 222 1000T287 1075T309
1150Q309 1168 298 1179T259 1191H228Z" />
<glyph unicode="&#x201a;" horiz-adv-x="538" d="M259 2Q163 2 114 46T64 165Q64 248 124 300T270 352Q369 352 432 287T496 92Q496 -24 455 -114T340 -263T173 -346Q134 -355 113 -347T86 -318Q81 -299 94 -281T144 -249Q210 -225 253 -189T318 -114T340 -39Q340
-20 329 -9T290 2H259Z" />
<glyph unicode="&#x201c;" horiz-adv-x="1041" d="M273 1198Q369 1198 418 1154T468 1034Q468 952 408 900T262 848Q163 848 100 914T36 1108Q36 1223 77 1313T192 1463T359 1545Q398 1555 419 1548T446 1518Q451 1499 439 1481T388 1449Q322 1425 279 1389T214
1314T192 1239Q192 1220 202 1209T242 1198H273ZM788 1198Q884 1198 933 1154T983 1035Q983 952 923 900T778 848Q678 848 615 914T551 1108Q551 1223 593 1313T708 1463T875 1545Q913 1555 934 1548T961 1518Q967 1499 954 1481T903 1449Q838 1425 794 1389T729
1314T707 1239Q707 1220 718 1209T757 1198H788Z" />
<glyph unicode="&#x201d;" horiz-adv-x="1053" d="M767 1192Q671 1192 622 1236T572 1356Q572 1438 632 1490T778 1542Q877 1542 940 1477T1004 1282Q1004 1167 963 1077T848 927T681 845Q643 835 622 843T594 872Q589 891 602 909T653 941Q718 965 761 1001T826
1076T848 1151Q848 1170 838 1181T798 1192H767ZM252 1192Q156 1192 107 1236T57 1355Q57 1438 117 1490T262 1542Q362 1542 425 1477T489 1282Q489 1167 448 1077T333 927T165 845Q127 835 106 843T79 872Q73 891 86 909T137 941Q202 965 246 1001T311 1076T333
1151Q333 1170 322 1181T283 1192H252Z" />
<glyph unicode="&#x201e;" horiz-adv-x="1057" d="M775 -2Q678 -2 629 42T580 162Q580 244 640 296T785 348Q885 348 948 283T1012 88Q1012 -27 970 -117T856 -267T688 -349Q650 -359 629 -351T602 -322Q596 -303 609 -285T660 -253Q725 -229 769 -193T834 -118T855
-43Q855 -24 845 -13T806 -2H775ZM259 -2Q163 -2 114 42T64 162Q64 244 124 296T270 348Q369 348 432 283T496 88Q496 -27 455 -117T340 -267T173 -349Q134 -359 113 -351T86 -322Q80 -303 93 -285T144 -253Q210 -229 253 -193T318 -118T340 -43Q340 -24 329 -13T290
-2H259Z" />
<glyph unicode="&#x2022;" horiz-adv-x="896" d="M447 193Q360 193 290 237T178 354T137 511Q137 600 178 671T289 785T447 828Q536 828 606 785T717 671T758 511Q758 427 718 355T607 238T447 193Z" />
<glyph unicode="&#x2039;" horiz-adv-x="713" d="M86 487Q86 514 103 542T157 600Q212 644 266 687T371 770T464 844T541 904Q562 920 578 922T606 915Q618 906 617 889T604 851Q576 801 540 742T457 609T347 439V536Q409 442 456 368T539 234T604 124Q615 102
616 86T606 59Q594 50 578 52T541 71Q508 96 465 130T371 204T267 287T157 375Q121 404 104 432T86 487Z" />
<glyph unicode="&#x203a;" horiz-adv-x="713" d="M628 488Q628 461 611 433T557 375Q502 331 448 288T343 205T250 131T173 71Q152 55 136 53T108 60Q96 69 97 86T110 124Q138 174 174 233T257 366T367 536V439Q305 533 258 607T175 741T110 851Q99 873 98 889T108
916Q120 925 136 923T173 904Q206 879 249 845T343 771T447 688T557 600Q593 571 610 543T628 488Z" />
</font>
</defs>
</svg>
