<?xml version="1.0" standalone="no"?>
<!DOCTYPE svg PUBLIC "-//W3C//DTD SVG 1.1//EN" "http://www.w3.org/Graphics/SVG/1.1/DTD/svg11.dtd">
<svg xmlns="http://www.w3.org/2000/svg">
<defs >
<font id="Fraunces" horiz-adv-x="1265" ><font-face
    font-family="Fraunces SemiBold"
    units-per-em="2000"
    panose-1="0 0 0 0 0 0 0 0 0 0"
    ascent="1956"
    descent="-510"
    alphabetic="0" />
<glyph unicode=" " horiz-adv-x="435" />
<glyph unicode="!" horiz-adv-x="641" d="M320 1486Q410 1486 452 1444T494 1331Q494 1307 491 1280T480 1222L380 531Q372 495 359 479T320 462Q296 462 283 478T260 531L160 1223Q153 1253 150 1280T146 1331Q146 1401 188 1443T320 1486ZM320 -22Q271 -22 231
3T167 69T143 159Q143 210 166 250T230 315T320 340Q370 340 410 316T474 251T497 159Q497 111 474 70T411 3T320 -22Z" />
<glyph unicode="&quot;" horiz-adv-x="746" d="M561 868Q540 868 523 884T501 931L442 1357Q426 1456 458 1508T570 1560Q649 1560 680 1507T693 1358L626 929Q620 898 604 883T561 868ZM171 868Q150 868 133 884T111 931L52 1357Q36 1456 68 1508T180 1560Q259
1560 290 1507T303 1358L236 929Q230 898 214 883T171 868Z" />
<glyph unicode="#" horiz-adv-x="1321" d="M516 688Q506 651 493 600T465 490T434 369T403 248T375 135T350 42Q332 -17 279 -6Q251 1 242 21T240 70Q249 106 264 156T298 264T337 384T376 505T410 617T437 708Q447 746 460 798T486 909T514 1031T543 1154T569
1266T592 1356Q610 1414 663 1403Q692 1396 701 1376T703 1327Q693 1290 678 1240T646 1130T610 1009T574 889T541 778T516 688ZM702 971Q740 971 791 972T901 976T1018 981T1128 985T1216 988Q1247 988 1265 975T1284 935Q1284 909 1266 896T1216 881Q1180 881
1129 882T1020 886T903 891T792 894T702 896Q664 895 611 894T498 891T379 888T268 886T180 885Q149 884 131 897T112 937Q112 964 130 977T180 991Q218 991 270 989T381 984T499 977T612 972T702 971ZM627 454Q588 454 536 453T423 451T304 447T193 444T105 443Q74
443 56 456T37 496Q37 523 55 536T105 549Q143 549 195 547T306 542T424 536T537 531T627 529Q665 529 716 530T826 534T943 539T1053 544T1141 546Q1172 546 1190 533T1209 494Q1209 468 1191 455T1141 440Q1104 440 1053 441T944 445T828 449T717 453T627 454ZM719
42Q701 -17 648 -6Q620 1 611 21T609 70Q619 106 634 156T667 264T706 384T745 505T780 617T806 708Q817 746 829 798T856 909T884 1031T913 1153T939 1265T962 1355Q978 1415 1032 1403Q1061 1396 1070 1376T1071 1326Q1061 1290 1047 1239T1015 1129T979 1009T943
888T910 778T885 688Q875 651 862 600T834 490T803 369T772 247T744 135T719 42Z" />
<glyph unicode="$" horiz-adv-x="1207" d="M630 1392Q779 1392 883 1352T1043 1240T1099 1077Q1099 1018 1066 979T980 939Q920 939 880 973T840 1063V1137Q840 1226 782 1282T619 1338Q544 1338 488 1309T400 1228T368 1103Q368 1039 397 986T496 889T686 806Q848
753 941 690T1075 553T1115 394Q1115 277 1054 190T876 54T599 5Q443 5 331 48T159 163T99 322Q99 383 134 421T229 460Q282 460 319 425T356 328V256Q356 173 422 118T601 63Q718 63 788 120T859 278Q859 376 789 446T533 576Q378 628 286 689T154 827T114 996Q114
1107 177 1196T356 1339T630 1392ZM651 740H590Q590 916 585 1041T573 1253T561 1402T555 1509Q555 1544 574 1562T622 1580Q649 1580 668 1562T688 1508Q688 1465 683 1405T670 1258T657 1044T651 740ZM572 671H633Q633 498 638 374T651 163T664 17T670 -87Q670
-122 652 -140T604 -158Q576 -158 557 -140T537 -86Q537 -39 542 20T554 166T566 376T572 671Z" />
<glyph unicode="%" horiz-adv-x="1563" d="M672 1428Q827 1428 919 1330T1012 1064Q1012 942 969 856T847 724T666 678Q499 678 408 777T317 1054Q317 1224 412 1326T672 1428ZM798 1050Q798 1217 764 1289T666 1361Q600 1361 566 1289T532 1065Q532 891 567 818T668
745Q708 745 737 774T782 869T798 1050ZM879 783Q863 762 850 757T819 762Q803 770 802 785T810 821Q826 852 849 897T898 997T953 1107T1009 1216T1059 1312T1098 1381Q1120 1416 1152 1426T1222 1416Q1257 1396 1263 1365T1247 1299Q1233 1275 1206 1236T1145
1149T1074 1048T1000 946T932 853T879 783ZM687 618Q704 638 717 643T749 640Q766 631 766 616T756 580Q741 549 718 504T668 404T613 293T558 183T508 88T468 19Q447 -16 414 -25T345 -16Q310 4 304 34T320 101Q335 124 361 163T422 252T494 353T568 455T635 547T687
618ZM1161 720Q1316 720 1408 622T1501 356Q1501 234 1458 148T1336 16T1155 -30Q988 -30 897 69T806 346Q806 516 901 618T1161 720ZM1287 342Q1287 509 1253 581T1155 653Q1089 653 1055 581T1021 357Q1021 183 1056 110T1157 37Q1197 37 1226 66T1271 161T1287
342Z" />
<glyph unicode="&amp;" horiz-adv-x="1954" d="M1321 -43Q1491 -43 1613 24T1800 222T1866 537Q1866 746 1791 934T1566 1272Q1425 1412 1241 1485T841 1559Q616 1559 458 1493T218 1304T135 1017Q135 921 176 861T289 800Q348 800 386 835T424 926Q424 967 414
995T390 1048T366 1101T356 1168Q356 1254 406 1324T562 1436T835 1479Q1036 1479 1204 1409T1499 1210Q1642 1066 1707 890T1772 534Q1772 382 1728 284T1607 137T1437 88Q1369 88 1309 119T1184 223T1037 415Q968 516 921 608T851 787T827 963Q827 1067 865 1129T963
1191Q1009 1191 1036 1139T1063 1004Q1063 913 1036 847T957 742T836 695L847 645Q987 654 1087 697T1240 813T1293 983Q1293 1065 1254 1128T1143 1227T977 1263Q856 1263 769 1210T634 1065T587 857Q587 757 611 659T685 461T806 254Q875 151 950 86T1116 -11T1321
-43ZM1141 219L1172 173Q1360 259 1448 369T1537 602Q1537 677 1505 719T1417 762Q1363 762 1329 724T1295 631Q1295 603 1303 581T1319 534T1328 473Q1328 434 1309 393T1249 309T1141 219ZM655 621V682Q484 672 367 621T189 487T129 296Q129 140 232 55T522 -30Q617
-30 692 -12T826 41T933 122L890 181Q837 137 783 114T660 90Q558 90 495 160T432 347Q432 418 456 476T530 572T655 621Z" />
<glyph unicode="&apos;" horiz-adv-x="356" d="M171 868Q150 868 133 884T111 931L52 1357Q36 1456 68 1508T180 1560Q259 1560 290 1507T303 1358L236 929Q230 898 214 883T171 868Z" />
<glyph unicode="(" horiz-adv-x="727" d="M149 610Q149 815 212 989T382 1288T617 1468Q682 1493 700 1468Q710 1456 704 1439T671 1393Q589 1308 526 1188T426 921T390 610Q390 447 426 300T525 33T671 -172Q697 -201 703 -218T700 -248Q682 -273 617 -247Q488
-192 382 -68T213 231T149 610Z" />
<glyph unicode=")" horiz-adv-x="727" d="M578 610Q578 405 515 231T345 -68T110 -248Q45 -273 27 -248Q17 -236 23 -219T56 -173Q138 -88 201 32T301 299T337 610Q337 773 301 920T202 1187T56 1392Q30 1421 24 1438T27 1468Q45 1493 110 1467Q239 1412 345 1288T514
989T578 610Z" />
<glyph unicode="*" horiz-adv-x="1247" d="M647 1002H608Q608 1080 591 1141T550 1253T510 1346T492 1432Q492 1552 627 1552Q691 1552 726 1522T762 1432Q762 1390 745 1347T705 1253T665 1142T647 1002ZM633 1020L621 984Q546 1009 482 1011T363 1008T260 998T171
1008Q58 1045 100 1172Q120 1232 160 1255T256 1261Q296 1248 332 1219T410 1152T505 1080T633 1020ZM611 1012L642 990Q596 927 574 867T541 753T518 654T481 575Q412 478 301 556Q250 593 239 638T261 731Q287 765 327 790T415 842T514 909T611 1012ZM611 990L642
1012Q689 948 739 909T839 842T928 790T993 731Q1062 635 953 556Q902 519 855 523T773 575Q748 609 737 654T714 753T680 866T611 990ZM621 1019Q696 1043 749 1078T843 1151T921 1218T998 1261Q1112 1297 1154 1171Q1174 1111 1156 1069T1083 1008Q1042 995 995
998T892 1007T773 1011T633 983L621 1019Z" />
<glyph unicode="+" horiz-adv-x="1121" d="M122 682Q122 709 139 724T180 739H943Q966 739 982 724T999 682Q999 655 983 640T943 625H179Q157 625 140 640T122 682ZM556 264Q529 264 514 281T499 322V1085Q499 1108 514 1124T556 1141Q583 1141 598 1125T613
1085V321Q613 299 598 282T556 264Z" />
<glyph unicode="," horiz-adv-x="562" d="M268 -9Q187 -9 148 35T108 148Q108 222 158 272T284 322Q367 322 423 260T480 64Q480 -25 456 -95T389 -215T290 -297T169 -342Q135 -349 116 -342T93 -318Q90 -300 102 -285T152 -258Q222 -235 266 -203T331 -131T352
-48Q352 -29 343 -19T308 -9H268Z" />
<glyph unicode="-" horiz-adv-x="820" d="M680 653Q750 653 724 584L699 515Q688 483 672 471T626 459H139Q69 459 96 529L121 597Q133 630 149 641T193 653H680Z" />
<glyph unicode="." horiz-adv-x="541" d="M270 -22Q221 -22 181 3T117 69T93 159Q93 209 116 250T180 315T270 340Q321 340 361 316T424 250T448 159Q448 111 425 70T361 3T270 -22Z" />
<glyph unicode="/" horiz-adv-x="994" d="M552 588Q528 537 500 469T439 322T375 163T311 3T251 -144T198 -264Q181 -298 149 -307T78 -299Q38 -280 25 -249T27 -185Q51 -133 84 -67T156 74T237 226T317 378T389 519T447 636Q471 687 499 755T559 902T623 1062T688
1222T749 1369T801 1489Q817 1523 849 1532T921 1523Q961 1505 974 1474T972 1410Q949 1359 916 1292T843 1151T762 998T682 846T609 705T552 588Z" />
<glyph unicode="0" horiz-adv-x="1350" d="M681 1431Q870 1431 1002 1345T1204 1094T1274 696Q1274 472 1200 309T989 57T669 -32Q481 -32 348 55T146 306T76 703Q76 928 151 1091T362 1342T681 1431ZM958 657Q958 902 925 1053T828 1274T670 1344Q582 1344 520
1279T425 1081T392 742Q392 497 425 346T523 125T680 55Q768 55 830 120T925 318T958 657Z" />
<glyph unicode="1" horiz-adv-x="937" d="M163 1221H274Q308 1221 322 1206T337 1146V193Q337 158 320 140T272 116L141 97Q89 86 89 47Q89 25 105 13T152 0H815Q844 0 857 12T871 47Q871 86 826 96L708 116Q677 122 662 140T647 193V1376Q647 1435 591 1435Q572
1435 556 1429T522 1408Q467 1366 418 1348T294 1330H166Q134 1330 116 1315T98 1275Q98 1251 113 1236T163 1221Z" />
<glyph unicode="2" horiz-adv-x="1236" d="M240 264L189 307L437 485Q558 567 634 648T746 822T782 1027Q782 1142 759 1214T692 1321T589 1356Q496 1356 454 1299T411 1152V1041Q411 972 371 933T261 893Q195 893 156 936T116 1058Q116 1156 171 1241T339 1378T620
1431Q785 1431 892 1380T1053 1240T1106 1038Q1106 940 1058 853T900 678T609 484L240 264ZM86 127Q86 230 163 294T387 359Q458 359 523 343T651 305T779 267T910 250Q982 250 1022 279T1092 375Q1103 394 1116 402T1146 408Q1165 407 1174 391T1181 341Q1168
206 1128 124T1024 5T873 -32Q804 -32 749 -12T650 51T564 168Q528 218 504 235T451 253Q418 253 399 226T375 135Q371 74 351 38T297 -15T217 -32Q161 -32 124 11T86 127Z" />
<glyph unicode="3" horiz-adv-x="1130" d="M506 733L481 762Q496 766 515 768T555 771T598 773Q744 773 850 729T1013 602T1070 402Q1070 272 1006 174T825 22T549 -32Q395 -32 291 9T133 122T80 281Q80 356 124 401T235 447Q304 447 339 409T374 306V212Q374
139 420 93T551 48Q618 48 668 81T746 182T775 355Q775 519 710 595T511 671H444Q413 671 399 683T384 720Q384 738 392 753T426 792L881 1249L890 1164H338Q302 1164 283 1151T256 1109L230 1006Q225 985 211 973T171 960Q146 960 131 974T118 1019L150 1329Q153
1362 177 1381T242 1400H1006Q1047 1400 1064 1390T1082 1356Q1082 1340 1070 1320T1019 1261L506 733Z" />
<glyph unicode="4" horiz-adv-x="1257" d="M655 695Q655 718 662 734T683 765L863 930Q881 948 893 953T918 959Q934 959 943 950T952 919L953 181Q953 152 968 137T1011 115L1091 96Q1115 89 1128 78T1141 47Q1141 25 1126 13T1080 0H518Q457 0 457 47Q457 83
507 96L599 115Q626 121 640 136T655 180V695ZM488 938Q527 976 545 1007T563 1072Q563 1101 554 1125T531 1174T508 1226T498 1289Q498 1336 520 1373T586 1431T697 1452Q779 1452 828 1408T878 1285Q878 1250 866 1212T819 1124T714 1008L140 406L123 452H1111Q1138
452 1154 442T1170 407Q1170 358 1110 358H101Q70 358 53 373T35 414Q35 428 44 445T80 488L488 938Z" />
<glyph unicode="5" horiz-adv-x="1175" d="M106 281Q106 354 150 400T261 447Q329 447 364 408T400 305V193Q400 129 445 86T580 43Q673 43 735 127T797 387Q797 569 728 656T547 743Q502 743 461 728T383 684T310 612Q288 592 271 584T234 575Q210 575 194 588T178
628V1347Q178 1384 199 1405T264 1426Q284 1426 307 1420T373 1394Q418 1376 472 1360T589 1335T721 1326Q828 1326 894 1351T997 1421Q1022 1442 1038 1446T1067 1445Q1078 1442 1085 1429T1087 1389Q1069 1279 1016 1209T875 1106T666 1073Q585 1073 505 1087T354
1125T225 1183L287 1256V659L246 664Q297 724 354 764T478 825T631 845Q770 845 874 792T1035 645T1093 423Q1093 281 1027 179T842 23T563 -32Q416 -32 314 10T159 123T106 281Z" />
<glyph unicode="6" horiz-adv-x="1237" d="M708 1431Q842 1431 935 1390T1078 1281T1128 1134Q1128 1058 1087 1016T972 974Q900 974 861 1012T822 1122V1201Q822 1270 786 1307T675 1345Q616 1345 563 1308T470 1189T406 973T383 644Q383 419 417 290T511 107T645
53Q749 53 810 139T872 399Q872 564 804 649T624 734Q557 734 499 702T404 614T360 486L303 511Q307 603 365 679T521 802T737 848Q869 848 966 799T1116 658T1169 436Q1169 296 1105 191T923 27T646 -32Q466 -32 338 50T143 285T75 653Q75 907 153 1080T373 1342T708
1431Z" />
<glyph unicode="7" horiz-adv-x="1055" d="M834 1169L887 1139H282Q246 1139 229 1127T204 1083L175 966Q170 945 155 932T115 919Q88 920 74 935T61 979L89 1330Q91 1362 112 1381T172 1400H986Q1025 1400 1045 1383T1066 1337Q1066 1319 1055 1298T1012 1237L766
876Q700 790 659 726T594 615T561 529T552 454Q552 406 571 371T614 304T657 234T676 143Q676 71 627 20T483 -32Q386 -32 327 29T268 211Q268 291 294 371T380 548T544 774L834 1169Z" />
<glyph unicode="8" horiz-adv-x="1234" d="M592 -31Q423 -31 314 12T152 133T99 309Q99 387 144 455T284 570T523 637L532 612Q460 570 429 491T397 332Q397 194 458 118T630 42Q732 42 788 102T844 270Q844 338 816 395T718 498T526 580Q298 647 200 753T101
999Q101 1116 164 1214T351 1372T657 1431Q814 1431 925 1382T1095 1246T1155 1051Q1155 960 1107 881T961 747T709 675L681 700Q735 735 776 787T841 905T864 1049Q864 1146 835 1214T751 1318T619 1355Q550 1355 500 1323T422 1236T394 1109Q394 1023 424 955T530
834T739 739Q956 672 1055 574T1154 353Q1154 240 1088 154T895 18T592 -31Z" />
<glyph unicode="9" horiz-adv-x="1243" d="M540 -31Q404 -31 309 10T163 119T113 265Q113 343 154 384T268 426Q340 426 379 388T418 278V198Q418 131 456 93T573 55Q652 55 717 122T822 344T861 759Q861 984 827 1112T734 1293T601 1347Q497 1347 435 1263T372
1008Q372 848 440 766T620 683Q687 683 745 713T841 798T884 922L941 906Q937 814 879 738T724 615T507 569Q375 569 278 616T128 754T75 971Q75 1108 140 1211T322 1373T600 1431Q780 1431 907 1350T1101 1116T1169 751Q1169 496 1092 322T873 58T540 -31Z" />
<glyph unicode=":" horiz-adv-x="548" d="M274 -22Q225 -22 185 3T121 69T97 159Q97 209 120 250T184 315T274 340Q325 340 365 316T428 250T452 159Q452 111 429 70T365 3T274 -22ZM274 579Q225 579 185 604T121 670T97 760Q97 810 120 851T184 916T274 941Q325
941 365 917T428 851T452 760Q452 712 429 671T365 604T274 579Z" />
<glyph unicode=";" horiz-adv-x="571" d="M286 578Q237 578 197 603T133 669T109 759Q109 809 132 850T196 915T286 940Q337 940 377 916T440 850T464 759Q464 711 441 670T377 603T286 578ZM270 -9Q189 -9 150 35T110 148Q110 222 160 272T286 322Q369 322 425
260T482 64Q482 -25 458 -95T391 -215T292 -297T171 -342Q137 -349 118 -342T95 -318Q92 -300 104 -285T154 -258Q224 -235 268 -203T333 -131T354 -48Q354 -29 345 -19T310 -9H270Z" />
<glyph unicode="&lt;" horiz-adv-x="1035" d="M245 695V674L864 1029Q895 1044 908 1062T921 1096Q922 1119 909 1133T867 1148Q843 1148 820 1138T760 1110L168 775Q134 758 117 736T99 684Q99 655 116 632T168 593L764 256Q798 239 822 229T870 219Q899 219
912 233T924 270Q924 286 911 305T869 338L245 695Z" />
<glyph unicode="=" horiz-adv-x="1121" d="M129 862Q129 889 146 904T187 919H950Q973 919 989 904T1006 862Q1006 835 990 820T950 805H186Q164 805 147 820T129 862ZM129 510Q129 537 146 552T187 567H950Q973 567 989 552T1006 510Q1006 483 990 468T950 453H186Q164
453 147 468T129 510Z" />
<glyph unicode="&gt;" horiz-adv-x="1035" d="M783 673V694L164 339Q133 324 120 306T107 272Q106 249 119 235T161 220Q185 220 208 230T268 258L860 593Q894 610 911 632T929 684Q929 713 912 736T860 775L264 1112Q230 1129 206 1139T158 1149Q129 1149 116
1135T104 1098Q104 1082 117 1063T159 1030L783 673Z" />
<glyph unicode="?" horiz-adv-x="1064" d="M404 667L421 508Q427 480 441 468T482 455Q506 455 519 467T542 510L557 655Q563 689 576 705T618 729L684 747Q853 792 927 881T1001 1103Q1001 1274 884 1367T536 1461Q402 1461 296 1414T128 1289T67 1119Q67 1044
107 1003T214 961Q290 961 331 1008T373 1139V1218Q373 1289 412 1331T526 1373Q602 1373 644 1313T687 1138Q687 1015 656 940T538 823L477 797Q428 775 412 745T404 667ZM478 -22Q429 -22 389 3T325 69T301 159Q301 210 325 250T389 315T478 340Q529 340 569
316T632 251T656 159Q656 111 633 70T569 3T478 -22Z" />
<glyph unicode="@" horiz-adv-x="1837" d="M1080 498Q1047 511 1016 518T942 526Q872 526 828 487T783 379Q783 309 820 272T914 234Q965 234 1009 257T1084 323L1106 274Q1057 199 972 157T792 115Q665 115 588 174T511 334Q511 445 615 516T916 588Q977 588
1018 579T1100 553L1080 498ZM1390 226Q1440 226 1484 253T1562 331T1615 459T1634 633Q1634 845 1542 997T1292 1230T940 1312Q770 1312 633 1257T397 1100T247 860T195 555Q195 325 291 153T556 -114T946 -210Q1138 -210 1304 -145T1609 62Q1632 84 1650 88T1683
81Q1696 70 1693 51T1664 4Q1594 -80 1487 -148T1243 -255T945 -295Q761 -295 606 -237T334 -68T154 200T90 555Q90 733 151 886T325 1155T595 1334T946 1398Q1111 1398 1255 1347T1507 1198T1676 958T1737 635Q1737 480 1688 363T1548 180T1327 115Q1252 116 1196
134T1108 186T1072 269L1052 274V818Q1052 883 1021 921T930 959Q874 959 845 930T815 858V798Q815 740 774 709T673 677Q624 677 588 702T551 784Q551 854 598 911T738 1001T964 1034Q1070 1034 1148 1005T1270 918T1313 773V311Q1313 270 1332 248T1390 226Z"
/>
<glyph unicode="A" horiz-adv-x="1473" d="M348 569H939L944 465H341L348 569ZM465 46Q465 25 451 13T404 0H90Q59 0 44 12T29 46Q29 61 37 71T68 93L101 106Q131 121 147 145T183 230L503 1208Q516 1252 510 1271T469 1303Q441 1312 430 1324T419 1355Q419 1376
434 1388T481 1400H969Q1001 1400 1016 1388T1031 1355Q1031 1336 1020 1324T983 1304Q956 1296 951 1281T957 1232L1297 207Q1313 157 1331 134T1382 100Q1411 89 1421 77T1431 46Q1431 25 1416 13T1369 0H928Q897 0 882 12T867 46Q867 64 877 75T910 93L967 105Q993
113 992 131T979 188L625 1280L658 1300L315 246Q302 205 302 179T318 136T369 105L423 92Q443 84 454 74T465 46Z" />
<glyph unicode="B" horiz-adv-x="1418" d="M1371 337Q1371 188 1243 94T857 0H164Q133 0 119 12T104 46Q104 84 146 97L203 110Q228 117 240 131T253 167V1233Q253 1255 241 1269T203 1290L146 1303Q104 1316 104 1354Q104 1376 118 1388T164 1400H704Q890 1400
1021 1349T1222 1208T1291 996Q1291 895 1235 816T1067 692T793 646L849 677Q1008 677 1125 634T1306 514T1371 337ZM743 609H476V690H718Q807 690 869 723T963 822T995 980Q995 1079 956 1152T840 1267T654 1308H563V189Q563 140 593 116T683 92H789Q878 92 938
123T1030 211T1061 345Q1061 465 980 537T743 609Z" />
<glyph unicode="C" horiz-adv-x="1408" d="M1342 369Q1341 298 1303 227T1192 95T1016 -1T780 -37Q564 -37 407 56T165 313T79 691Q79 853 129 988T271 1223T486 1379T754 1435Q854 1435 917 1416T1016 1376T1073 1356Q1098 1356 1111 1373T1138 1408T1177 1425Q1195
1425 1207 1414T1227 1375L1332 1030Q1339 1007 1328 989T1293 966Q1269 961 1250 970T1220 1004Q1166 1124 1101 1194T959 1296T795 1327Q706 1327 632 1287T504 1171T421 991T391 755Q391 554 453 415T624 203T871 131Q1004 131 1102 194T1256 374Q1267 397 1281
404T1312 409Q1327 407 1334 397T1342 369Z" />
<glyph unicode="D" horiz-adv-x="1598" d="M104 46Q104 84 146 97L204 110Q228 117 240 131T253 167V1233Q253 1255 241 1269T204 1290L146 1303Q104 1316 104 1354Q104 1376 119 1388T165 1400H696Q881 1400 1033 1346T1294 1192T1463 956T1522 656Q1522 467
1434 319T1182 85T787 0H165Q134 0 119 12T104 46ZM758 100Q892 100 991 162T1146 349T1201 662Q1201 810 1164 927T1056 1128T886 1256T661 1300H563V192Q563 144 590 122T671 100H758Z" />
<glyph unicode="E" horiz-adv-x="1321" d="M447 753H764Q826 753 851 777T890 871Q896 895 908 907T940 920Q978 922 989 877L1066 580Q1072 554 1066 539T1038 516Q1018 510 1001 516T971 541Q944 587 921 611T868 645T794 654H447V753ZM104 1354Q104 1376 119
1388T165 1400H925Q961 1400 984 1410T1028 1430T1076 1440Q1106 1440 1121 1423T1149 1367L1229 1086Q1236 1061 1228 1044T1198 1020Q1173 1012 1153 1021T1120 1055Q1082 1133 1050 1181T984 1255T913 1290T823 1300H563V199Q563 149 591 125T676 100H852Q920
100 970 122T1065 208T1166 397Q1176 420 1193 428T1232 433Q1257 429 1267 411T1271 366L1185 37Q1175 -1 1158 -19T1108 -37Q1085 -37 1065 -28T1020 -9T961 0H165Q134 0 119 12T104 46Q104 84 146 97L203 110Q228 117 240 131T253 167V1233Q253 1255 241 1269T203
1290L146 1303Q104 1316 104 1354Z" />
<glyph unicode="F" horiz-adv-x="1227" d="M878 1400Q917 1400 941 1409T986 1428T1027 1437Q1058 1437 1074 1422T1101 1367L1183 1074Q1190 1051 1178 1035T1142 1016Q1122 1012 1104 1019T1073 1053Q1025 1156 983 1209T893 1281T783 1300H563V167Q563 145
575 130T613 110L701 98Q727 93 737 81T748 46Q748 25 734 13T688 0H165Q134 0 119 12T104 46Q104 84 146 97L203 110Q228 117 240 131T253 167V1233Q253 1255 241 1269T203 1290L146 1303Q104 1316 104 1354Q104 1376 119 1388T165 1400H878ZM440 717H762Q825
717 850 741T891 839Q897 861 909 871T939 882Q981 885 991 842L1066 543Q1072 517 1065 503T1038 482Q1018 476 1001 482T968 510Q942 553 920 577T869 610T795 619H440V717Z" />
<glyph unicode="G" horiz-adv-x="1531" d="M1339 27Q1339 -7 1326 -22T1283 -37Q1258 -37 1239 -21T1203 16T1170 53T1136 69Q1115 69 1087 53T1017 17T916 -20T772 -37Q610 -37 482 16T264 167T127 399T79 697Q79 856 132 991T280 1225T502 1380T781 1435Q888
1435 955 1415T1061 1376T1122 1356Q1148 1356 1161 1373T1188 1407T1228 1425Q1246 1425 1257 1414T1277 1375L1382 1029Q1389 1006 1378 988T1343 965Q1319 960 1300 969T1270 1003Q1216 1125 1147 1195T996 1296T820 1327Q693 1327 597 1257T446 1058T391 754Q391
545 452 400T620 180T862 105Q909 105 946 114T1008 140T1047 182T1061 238V479Q1061 503 1049 515T1002 535L939 548Q915 554 902 566T888 596Q888 616 903 628T950 640H1414Q1446 640 1461 628T1476 596Q1476 579 1466 568T1433 549L1394 539Q1366 530 1353 518T1339
479V27Z" />
<glyph unicode="H" horiz-adv-x="1704" d="M383 715H1248V611H383V715ZM562 167Q562 145 575 131T612 110L669 97Q711 84 711 46Q711 25 697 13T651 0H164Q133 0 119 12T104 46Q104 84 146 97L203 110Q228 117 240 131T253 167V1233Q253 1255 241 1269T203 1290L146
1303Q104 1316 104 1354Q104 1376 118 1388T164 1400H651Q682 1400 696 1388T711 1354Q711 1316 669 1303L612 1290Q588 1283 575 1269T562 1233V167ZM1451 167Q1451 145 1464 131T1501 110L1558 97Q1600 84 1600 46Q1600 25 1586 13T1540 0H1053Q1022 0 1007 12T992
46Q992 84 1034 97L1091 110Q1116 117 1128 131T1141 167V1233Q1141 1255 1129 1269T1091 1290L1034 1303Q992 1316 992 1354Q992 1376 1007 1388T1053 1400H1540Q1571 1400 1585 1388T1600 1354Q1600 1316 1558 1303L1501 1290Q1477 1283 1464 1269T1451 1233V167Z"
/>
<glyph unicode="I" horiz-adv-x="815" d="M562 167Q562 145 575 131T612 110L669 97Q711 84 711 46Q711 25 697 13T651 0H164Q133 0 119 12T104 46Q104 84 146 97L203 110Q227 117 240 131T253 167V1233Q253 1255 240 1269T203 1290L146 1303Q104 1316 104 1354Q104
1376 118 1388T164 1400H651Q682 1400 696 1388T711 1354Q711 1316 669 1303L612 1290Q588 1283 575 1269T562 1233V167Z" />
<glyph unicode="J" horiz-adv-x="1025" d="M869 242Q869 119 756 44T453 -32Q273 -32 174 38T75 227Q75 301 115 346T225 392Q283 392 320 351T357 237V166Q357 114 383 86T469 57Q530 57 570 89T610 182Q610 231 589 273T538 362T488 470T466 618V1233Q466 1256
454 1270T417 1290L347 1302Q322 1307 311 1319T300 1354Q300 1376 314 1388T360 1400H864Q896 1400 910 1388T925 1354Q925 1316 882 1303L826 1290Q802 1283 789 1269T776 1233V638Q776 566 790 515T822 422T855 339T869 242Z" />
<glyph unicode="K" horiz-adv-x="1587" d="M456 545L1074 1150Q1111 1186 1122 1214T1123 1261T1081 1292L1030 1305Q1007 1312 998 1324T988 1354Q988 1376 1003 1388T1049 1400H1440Q1472 1400 1487 1388T1502 1354Q1502 1335 1490 1325T1440 1301Q1424 1297
1408 1289T1370 1265T1312 1217T1220 1134L502 448L456 545ZM706 740L945 937L1423 176Q1445 141 1467 125T1519 102Q1551 92 1562 78T1574 46Q1574 25 1559 13T1511 0H1028Q996 0 981 12T966 47Q966 65 976 77T1004 95L1056 105Q1077 111 1078 128T1059 178L706
740ZM563 167Q563 145 574 131T607 110L658 97Q683 87 691 76T700 46Q700 25 686 13T640 0H165Q134 0 119 12T104 46Q104 84 146 97L203 110Q228 117 240 131T253 167V1233Q253 1255 241 1269T203 1290L146 1303Q104 1316 104 1354Q104 1376 119 1388T165 1400H652Q683
1400 697 1388T712 1354Q712 1316 670 1303L613 1290Q589 1283 576 1269T563 1233V167Z" />
<glyph unicode="L" horiz-adv-x="1263" d="M669 1303L612 1290Q588 1283 575 1269T562 1233V171Q562 133 584 117T651 100H817Q874 100 914 115T986 170T1051 281L1111 419Q1123 444 1140 452T1181 455Q1205 449 1215 433T1217 388L1127 36Q1116 -1 1100 -19T1051
-37Q1030 -37 1010 -28T965 -10T903 0H164Q133 0 119 12T104 46Q104 84 146 97L203 110Q227 117 240 131T253 167V1233Q253 1255 240 1269T203 1290L146 1303Q104 1316 104 1354Q104 1376 118 1388T164 1400H651Q682 1400 696 1388T711 1354Q711 1316 669 1303Z"
/>
<glyph unicode="M" horiz-adv-x="1853" d="M985 380L883 347L1259 1309Q1278 1360 1304 1380T1377 1400H1666Q1697 1400 1712 1388T1728 1354Q1728 1335 1718 1323T1685 1303L1634 1289Q1600 1280 1588 1262T1578 1204L1654 181Q1656 147 1668 133T1711 110L1761
97Q1782 90 1791 78T1801 48Q1801 28 1786 14T1740 0H1258Q1227 0 1212 12T1196 46Q1196 64 1205 76T1239 97L1290 110Q1325 120 1337 135T1348 181L1265 1232L1358 1238L931 137Q913 89 894 75T849 60Q830 60 814 65T785 88T756 141L323 1209L412 1241L325 211Q322
168 343 146T403 108L452 91Q468 84 477 75T486 48Q486 26 471 13T425 0H107Q76 0 61 12T46 46Q46 67 59 78T93 98L133 112Q167 123 187 146T211 212L294 1186Q298 1233 285 1256T237 1289L188 1302Q165 1309 154 1321T143 1353Q143 1400 206 1400H491Q534 1400
560 1383T607 1313L985 380Z" />
<glyph unicode="N" horiz-adv-x="1549" d="M541 46Q541 25 527 13T480 0H148Q117 1 102 13T86 46Q86 81 130 98L177 112Q223 129 240 150T257 218V1088Q257 1120 249 1140T212 1195L128 1301Q112 1323 106 1335T100 1359Q100 1379 113 1389T150 1400H379Q409 1400
428 1390T469 1351L1246 320L1199 204V1182Q1199 1228 1184 1249T1119 1288L1072 1302Q1028 1321 1028 1354Q1028 1376 1043 1388T1089 1400H1421Q1453 1400 1468 1388T1483 1354Q1483 1320 1439 1302L1392 1288Q1346 1272 1330 1251T1313 1182V286Q1313 254 1318
231T1339 188L1401 107Q1419 82 1423 70T1428 44Q1428 24 1414 12T1375 0H1109Q1061 0 1061 38Q1061 54 1055 68T1020 122L276 1112L371 1178V218Q371 173 386 152T450 112L497 98Q541 80 541 46Z" />
<glyph unicode="O" horiz-adv-x="1594" d="M792 1435Q957 1435 1089 1381T1317 1228T1462 992T1513 691Q1513 534 1463 401T1318 170T1092 18T798 -37Q635 -37 503 17T277 170T131 406T80 708Q80 864 130 997T275 1228T500 1381T792 1435ZM1195 513Q1195 646 1171
767T1102 991T999 1170T871 1288T726 1331Q628 1331 555 1278T441 1126T401 886Q401 752 425 630T494 406T596 227T724 108T868 66Q968 66 1041 119T1155 271T1195 513Z" />
<glyph unicode="P" horiz-adv-x="1396" d="M1338 890Q1338 760 1272 665T1084 518T797 466Q687 466 596 489T437 554L451 643Q487 618 529 602T618 577T716 568Q808 568 880 606T993 718T1034 898Q1034 1021 986 1111T849 1251T642 1301H563V167Q563 145 575 130T613
110L700 98Q725 93 736 81T747 46Q747 25 733 13T687 0H165Q134 0 119 12T104 46Q104 84 146 97L204 110Q228 117 240 131T253 167V1233Q253 1255 241 1269T204 1290L146 1303Q104 1316 104 1354Q104 1376 119 1388T165 1400H650Q868 1400 1022 1335T1257 1154T1338
890Z" />
<glyph unicode="Q" horiz-adv-x="1595" d="M791 1435Q955 1435 1088 1381T1316 1228T1461 992T1512 691Q1512 534 1462 401T1317 170T1091 18T797 -37Q635 -37 503 17T276 170T130 406T79 708Q79 864 129 997T273 1228T498 1381T791 1435ZM1195 513Q1195 646 1171
767T1102 991T999 1170T871 1288T726 1331Q628 1331 555 1278T441 1126T401 886Q401 753 425 631T494 406T596 227T724 108T868 66Q968 66 1041 119T1155 272T1195 513ZM825 346Q818 375 825 395T857 422Q883 429 898 415T922 373Q963 242 1009 155T1109 17T1227
-55T1369 -77Q1417 -77 1441 -69T1482 -50T1520 -34Q1535 -30 1543 -38T1551 -62Q1551 -72 1547 -85T1535 -116L1489 -211Q1475 -242 1450 -255T1376 -269Q1287 -269 1207 -235T1057 -128T928 63T825 346Z" />
<glyph unicode="R" horiz-adv-x="1504" d="M1359 919Q1359 823 1316 745T1194 615T1006 542Q966 535 932 527T862 513T784 507Q722 507 666 515T562 540T480 580L486 670Q514 650 552 636T636 614T732 607Q877 607 958 685T1040 915Q1040 1029 992 1117T856 1256T650
1307H562V167Q562 145 573 131T606 110L675 97Q699 88 708 77T717 46Q717 0 657 0H164Q133 0 119 12T104 46Q104 84 146 97L203 110Q227 117 240 131T253 167V1233Q253 1255 240 1269T203 1290L146 1303Q104 1316 104 1354Q104 1376 118 1388T164 1400H661Q886
1400 1041 1339T1278 1169T1359 919ZM782 548L1085 583L1344 168Q1363 139 1382 123T1435 97Q1466 88 1477 77T1488 46Q1488 25 1473 13T1426 0H1000Q941 0 941 46Q941 59 948 68T970 84L999 92Q1021 101 1024 115T1012 154L782 548Z" />
<glyph unicode="S" horiz-adv-x="1217" d="M661 -31Q579 -31 520 -12T424 27T368 46Q348 46 335 34T311 7T286 -21T254 -33Q233 -33 220 -21T201 21L132 347Q128 369 137 385T169 408Q193 416 211 407T242 372Q299 260 363 194T498 100T641 72Q743 72 802 125T861
267Q862 325 835 371T733 462T511 554Q359 603 268 667T135 818T94 1018Q94 1139 151 1231T313 1374T558 1426Q648 1426 707 1408T804 1370T867 1351Q889 1351 901 1370T927 1409T969 1429Q991 1429 1005 1415T1031 1363L1125 1035Q1133 1009 1124 989T1091 961Q1068
953 1050 962T1019 995Q957 1119 887 1190T741 1293T589 1324Q487 1324 427 1266T366 1113Q366 1056 392 1007T493 912T707 813Q862 758 953 694T1084 550T1124 365Q1124 256 1069 166T911 23T661 -31Z" />
<glyph unicode="T" horiz-adv-x="1396" d="M346 1400H1050Q1087 1400 1111 1409T1153 1428T1194 1437Q1227 1437 1244 1421T1271 1367L1338 1044Q1344 1016 1334 998T1300 975Q1277 971 1260 979T1230 1013Q1178 1130 1141 1190T1066 1273T975 1295H853V167Q853
145 866 131T903 110L960 97Q1002 84 1002 46Q1002 0 941 0H454Q424 0 409 12T394 46Q394 84 436 97L493 110Q518 117 530 131T543 167V1295H421Q369 1295 331 1273T256 1191T166 1013Q154 988 137 980T96 975Q72 980 63 998T58 1044L125 1367Q135 1405 152 1421T202
1437Q224 1437 242 1428T285 1410T346 1400Z" />
<glyph unicode="U" horiz-adv-x="1501" d="M1185 599L1149 1191Q1147 1234 1128 1258T1069 1291L1022 1301Q991 1309 979 1321T967 1354Q967 1375 982 1387T1025 1400H1386Q1414 1400 1429 1388T1444 1354Q1444 1333 1432 1321T1389 1301L1345 1292Q1295 1280
1278 1254T1264 1184L1301 600Q1305 549 1307 500T1311 398Q1314 273 1255 175T1077 21T774 -36Q584 -36 457 17T266 167T204 395Q204 419 206 455T210 538T217 643L250 1227Q252 1256 238 1270T188 1291L137 1301Q82 1313 82 1353Q82 1375 97 1387T141 1400H668Q696
1400 711 1388T726 1353Q726 1333 714 1321T671 1301L619 1291Q590 1286 577 1272T561 1229L528 644Q524 575 522 518T519 417Q517 244 603 162T844 80Q954 80 1033 118T1154 228T1194 399Q1192 468 1190 514T1185 599Z" />
<glyph unicode="V" horiz-adv-x="1438" d="M977 1354Q977 1376 992 1388T1038 1400H1356Q1388 1400 1403 1388T1418 1355Q1418 1339 1408 1329T1375 1308L1338 1295Q1306 1281 1286 1254T1245 1167L916 197Q904 162 899 140T894 95V49Q894 26 880 13T844 0H598Q575
0 562 13T549 51V97Q549 113 544 132T530 176L164 1225Q154 1256 142 1270T107 1293L68 1306Q30 1321 30 1354Q30 1376 45 1388T92 1400H570Q602 1400 617 1388T632 1354Q632 1336 621 1326T588 1308L523 1294Q497 1285 491 1266T500 1206L856 171L762 99L1129
1176Q1145 1224 1135 1251T1077 1295L1020 1308Q999 1316 988 1326T977 1354Z" />
<glyph unicode="W" horiz-adv-x="2120" d="M1025 1119L1133 1093L842 178Q834 156 830 136T825 88V50Q825 26 812 13T777 0H546Q524 0 511 13T497 50V88Q497 106 494 119T482 162L154 1230Q146 1260 133 1273T98 1294L55 1308Q35 1315 27 1327T18 1355Q18 1376
33 1388T79 1400H543Q574 1400 589 1388T604 1354Q604 1321 566 1311L503 1299Q478 1293 474 1273T481 1213L797 164L695 90L1025 1119ZM1683 1354Q1683 1376 1698 1388T1744 1400H2047Q2080 1400 2094 1388T2108 1354Q2108 1338 2100 1328T2066 1308L2029 1295Q1998
1281 1977 1254T1940 1170L1652 178Q1643 147 1639 129T1635 88V50Q1635 26 1622 13T1588 0H1347Q1325 0 1312 13T1298 50V88Q1298 104 1297 119T1286 164L972 1230Q961 1267 952 1279T925 1298L883 1311Q862 1319 854 1329T845 1354Q845 1376 860 1388T906 1400H1357Q1388
1400 1403 1388T1418 1354Q1418 1337 1408 1326T1376 1308L1316 1297Q1293 1291 1288 1274T1295 1213L1599 165L1509 97L1825 1182Q1839 1230 1829 1257T1772 1299L1720 1310Q1700 1317 1692 1327T1683 1354Z" />
<glyph unicode="X" horiz-adv-x="1465" d="M1269 195Q1293 161 1310 143T1347 116T1400 97Q1422 89 1434 77T1447 46Q1447 25 1432 13T1386 0H857Q826 0 811 12T796 45Q796 66 809 78T858 100Q893 108 907 122T919 158T897 207L201 1215Q183 1243 168 1259T135
1286T91 1303Q61 1314 51 1325T41 1354Q41 1376 56 1388T103 1400H615Q647 1400 660 1388T674 1354Q674 1335 666 1324T638 1306L592 1297Q554 1289 548 1271T565 1217L1269 195ZM825 694L715 733L1047 1179Q1083 1227 1078 1254T1028 1293L983 1304Q965 1311 954
1323T943 1354Q943 1376 957 1388T1003 1400H1329Q1390 1400 1390 1355Q1390 1337 1376 1324T1329 1297Q1286 1282 1254 1250T1169 1150L825 694ZM627 728L737 684L380 215Q343 166 349 140T397 101L438 92Q458 85 468 75T478 46Q478 25 463 13T419 0H92Q61 0 46
12T31 47Q31 63 42 75T84 99Q124 115 153 135T208 184T264 252L627 728Z" />
<glyph unicode="Y" horiz-adv-x="1381" d="M836 447L592 404L167 1229Q151 1262 138 1275T102 1296L71 1306Q48 1313 39 1325T30 1354Q30 1376 45 1388T92 1400H571Q603 1400 619 1388T635 1354Q635 1316 587 1303L539 1294Q502 1285 495 1269T504 1216L830 536L727
482L1071 1174Q1093 1219 1083 1250T1024 1295L973 1306Q956 1311 946 1323T936 1354Q936 1376 951 1388T997 1400H1300Q1331 1400 1346 1388T1361 1354Q1361 1337 1353 1326T1322 1306L1306 1300Q1286 1292 1269 1279T1235 1239T1194 1164L836 447ZM552 512H861V167Q861
145 874 131T911 110L968 97Q1010 84 1010 46Q1010 25 996 13T950 0H463Q432 0 418 12T403 46Q403 84 445 97L502 110Q527 117 539 131T552 167V512Z" />
<glyph unicode="Z" horiz-adv-x="1288" d="M1166 1277L377 39L223 100H802Q853 100 893 109T965 143T1026 212T1083 328L1113 406Q1123 430 1140 438T1181 442Q1206 438 1214 420T1218 376L1144 38Q1136 2 1119 -16T1068 -34Q1048 -34 1030 -26T988 -9T927 0H112Q82
0 68 13T53 49Q53 64 59 81T80 121L874 1365L908 1300H479Q425 1300 384 1284T311 1230T250 1122L222 1053Q209 1027 191 1019T151 1014Q127 1017 116 1034T110 1083L166 1366Q174 1405 192 1422T243 1440Q265 1440 284 1431T327 1411T385 1400H1135Q1165 1400
1180 1387T1195 1351Q1195 1337 1188 1319T1166 1277Z" />
<glyph unicode="[" horiz-adv-x="693" d="M388 1328V-104Q388 -135 404 -148T453 -162H626Q683 -162 683 -209Q683 -230 669 -242T626 -255H237Q197 -255 180 -236T162 -177V1400Q162 1441 179 1460T237 1479H626Q655 1479 669 1466T683 1432Q683 1385 626 1385H453Q420
1385 404 1372T388 1328Z" />
<glyph unicode="\" horiz-adv-x="993" d="M441 588Q465 537 493 469T554 322T618 163T682 3T742 -144T795 -264Q812 -298 844 -307T915 -299Q955 -280 968 -249T966 -185Q942 -133 909 -67T837 74T756 226T676 378T604 519T546 636Q522 687 494 755T434 902T370
1062T305 1222T244 1369T192 1489Q176 1523 144 1532T72 1523Q32 1505 19 1474T21 1410Q44 1359 77 1292T150 1151T231 998T311 846T384 705T441 588Z" />
<glyph unicode="]" horiz-adv-x="705" d="M317 -105V1327Q317 1358 301 1371T252 1385H79Q22 1385 22 1432Q22 1453 36 1465T79 1478H468Q508 1478 525 1459T543 1400V-177Q543 -218 526 -237T468 -256H79Q50 -256 36 -243T22 -209Q22 -162 79 -162H252Q285 -162
301 -149T317 -105Z" />
<glyph unicode="^" horiz-adv-x="957" d="M526 1311H435L730 796Q757 759 783 752T834 756Q853 767 856 790T843 843L595 1340Q564 1394 539 1411T480 1428Q448 1428 423 1411T366 1340L114 845Q97 815 100 792T123 757Q146 745 172 752T226 797L526 1311Z" />
<glyph unicode="_" horiz-adv-x="981" d="M-1 -250Q-1 -220 12 -203T52 -186H929Q957 -186 969 -203T981 -250Q981 -280 969 -297T929 -315H52Q25 -315 12 -298T-1 -250Z" />
<glyph unicode="`" horiz-adv-x="500" d="M317 1297L411 1102Q419 1089 421 1076T413 1051Q403 1042 387 1042T356 1049L178 1173Q125 1203 96 1235T60 1311Q55 1351 80 1386T156 1428Q212 1435 249 1399T317 1297Z" />
<glyph unicode="a" horiz-adv-x="1121" d="M685 127V148L666 152V749Q666 819 631 857T530 896Q471 896 439 871T407 809V721Q407 661 367 629T254 596Q192 596 160 625T128 706Q128 769 180 829T333 929T582 969Q766 969 855 895T945 693V173Q945 145 956 131T989
117Q1011 117 1022 127T1041 149Q1046 156 1052 160T1067 165Q1079 165 1085 156T1091 132Q1091 98 1068 62T998 1T881 -25Q792 -25 739 15T685 127ZM86 209Q86 334 197 411T509 488Q574 488 626 477T717 447L695 383Q661 399 626 408T549 417Q466 417 420 375T373
257Q373 182 412 142T515 102Q569 102 618 126T702 195L724 138Q669 60 577 18T380 -25Q249 -25 168 40T86 209Z" />
<glyph unicode="b" horiz-adv-x="1220" d="M430 1423V107L314 10Q264 -10 242 -16T200 -23Q177 -23 163 -10T148 30V1255Q148 1280 141 1291T116 1305L63 1309Q45 1314 37 1323T29 1346Q29 1362 39 1372T75 1392L261 1460Q301 1475 323 1481T364 1487Q397 1487
413 1470T430 1423ZM373 652L328 709Q408 832 511 901T739 970Q857 970 950 910T1096 744T1150 498Q1150 339 1087 222T914 40T670 -25Q551 -25 459 31T307 193L376 251Q425 169 486 129T619 89Q688 89 741 129T826 253T857 468Q857 590 827 670T745 789T625 829Q553
829 490 786T373 652Z" />
<glyph unicode="c" horiz-adv-x="1047" d="M979 695Q979 638 940 599T834 560Q769 560 736 595T702 689V721Q702 789 660 830T547 872Q484 872 434 834T355 725T326 555Q326 430 368 344T486 213T657 168Q742 168 805 203T906 301Q923 321 934 328T956 335Q972
335 979 321T985 287Q981 202 926 131T779 18T566 -25Q421 -25 310 34T135 201T71 453Q71 600 134 717T313 902T584 970Q706 970 794 933T931 833T979 695Z" />
<glyph unicode="d" horiz-adv-x="1244" d="M800 167L791 172V1255Q791 1280 784 1291T758 1305L706 1309Q688 1314 680 1323T672 1346Q672 1362 681 1372T718 1392L904 1460Q942 1474 965 1480T1009 1487Q1040 1487 1056 1470T1072 1423V160Q1072 129 1081 115T1108
94L1146 84Q1165 78 1174 68T1183 41Q1183 22 1170 11T1128 0H921Q869 0 835 33T800 121V167ZM71 447Q71 607 134 724T307 906T551 970Q670 970 762 915T914 752L845 695Q796 777 735 817T602 857Q534 857 480 817T395 693T364 478Q364 356 394 276T476 157T596
117Q669 117 732 160T848 294L893 237Q814 114 711 45T482 -25Q364 -25 271 35T125 202T71 447Z" />
<glyph unicode="e" horiz-adv-x="1066" d="M996 591Q996 538 966 510T878 481H254V557H663Q714 557 714 603Q714 735 666 803T537 872Q475 872 427 834T352 726T325 555Q325 362 415 265T657 168Q745 168 811 203T915 303Q933 323 943 330T965 337Q981 337 988
323T995 288Q991 204 935 133T784 18T566 -25Q421 -25 309 34T134 201T70 453Q70 604 130 721T304 904T574 970Q708 970 802 922T946 788T996 591Z" />
<glyph unicode="f" horiz-adv-x="790" d="M515 161Q515 132 526 116T563 97L665 85Q688 83 698 71T709 42Q709 0 656 0H148Q124 0 110 11T96 40Q96 58 106 69T139 86L181 95Q209 103 221 118T234 159V755Q234 775 224 788T187 811L136 827Q103 840 91 852T79 879Q79
896 91 906T130 917H295L235 883V915Q235 944 219 970T182 1026T145 1094T129 1185Q129 1307 218 1382T466 1457Q568 1457 638 1425T744 1340T781 1224Q781 1160 748 1127T660 1094Q601 1094 566 1130T531 1226V1286Q531 1334 505 1358T433 1383Q378 1382 350 1349T321
1253Q321 1207 338 1170T381 1102T434 1042T477 983T494 919V873L462 917H696Q720 917 733 908T746 880Q746 854 720 836T636 818H515V161Z" />
<glyph unicode="g" horiz-adv-x="1155" d="M714 92Q575 112 513 127T434 157T418 186Q418 202 431 216T474 243L453 259Q354 249 298 223T218 159T194 80Q194 32 222 -2T329 -62T557 -111Q679 -129 747 -149T842 -196T869 -257Q869 -301 841 -332T752 -380T590
-397Q414 -397 343 -345T272 -206Q272 -159 311 -122T426 -72L410 -42Q211 -66 134 -127T57 -267Q57 -331 103 -381T255 -461T543 -490Q822 -490 969 -403T1117 -178Q1117 -103 1079 -50T952 37T714 92ZM737 866L802 857Q839 930 863 955T919 980Q948 980 964 966T994
932T1025 899T1075 884Q1121 884 1148 917T1175 1006Q1175 1068 1135 1103T1032 1139Q955 1139 887 1089T771 936L737 866ZM1034 609Q1034 710 979 791T821 920T576 967Q430 967 321 918T151 782T90 578Q90 477 145 396T304 267T549 220Q695 220 804 269T974 405T1034
609ZM526 882Q612 888 667 814T738 600Q754 463 718 389T598 309Q541 306 497 337T425 433T386 591Q376 683 388 746T436 843T526 882Z" />
<glyph unicode="h" horiz-adv-x="1278" d="M471 1423V160Q471 129 480 115T507 94L543 84Q575 71 575 44Q575 0 519 0H133Q105 0 92 11T79 41Q79 56 87 66T116 84L155 94Q173 101 181 115T190 160V1255Q190 1280 183 1291T158 1305L105 1309Q87 1314 79 1323T71
1346Q71 1362 80 1372T117 1392L303 1460Q341 1474 364 1480T408 1487Q439 1487 455 1470T471 1423ZM441 679L395 726L434 761Q560 874 650 922T820 970Q944 970 1012 888T1095 668L1151 163Q1154 130 1162 115T1189 94L1224 84Q1243 77 1252 67T1261 41Q1261 22
1248 11T1206 0H816Q761 0 761 44Q761 71 792 84L830 94Q849 101 859 116T866 163L814 627Q804 714 770 758T668 802Q626 802 580 780T481 714L441 679Z" />
<glyph unicode="i" horiz-adv-x="634" d="M472 902V160Q472 129 480 115T507 94L545 84Q564 78 573 68T582 41Q582 22 569 11T527 0H133Q105 0 92 11T79 41Q79 56 88 66T116 84L155 94Q173 101 181 115T190 160V733Q190 759 183 770T158 784L105 788Q87 792 79
801T71 824Q71 841 80 851T117 871L303 939Q342 953 365 959T405 965Q439 965 455 948T472 902ZM309 1118Q229 1118 181 1159T132 1268Q132 1335 180 1375T309 1416Q390 1416 438 1376T487 1268Q487 1201 439 1160T309 1118Z" />
<glyph unicode="j" horiz-adv-x="634" d="M472 185Q472 132 487 83T523 -13T558 -108T574 -206Q574 -324 488 -395T256 -466Q150 -466 79 -435T-28 -352T-65 -241Q-65 -172 -29 -137T67 -102Q125 -102 159 -140T193 -242V-298Q193 -344 217 -367T286 -391Q336
-391 363 -364T390 -283Q390 -240 370 -199T320 -118T261 -38T211 45T190 132V733Q190 759 183 770T158 784L105 788Q87 792 79 801T71 824Q71 841 80 851T117 871L303 939Q343 953 366 959T407 965Q439 965 455 948T472 902V185ZM304 1118Q224 1118 176 1159T127
1268Q127 1335 175 1375T304 1416Q385 1416 433 1376T482 1268Q482 1201 434 1160T304 1118Z" />
<glyph unicode="k" horiz-adv-x="1232" d="M130 0Q101 0 90 11T79 41Q79 56 87 66T116 84L155 94Q173 101 181 115T190 160V1255Q190 1280 183 1291T158 1305L105 1309Q87 1314 79 1323T71 1346Q71 1362 80 1372T117 1392L303 1460Q341 1474 364 1480T408 1487Q439
1487 455 1470T471 1423V160Q471 129 480 115T507 94L543 84Q575 71 575 44Q575 0 519 0H130ZM387 434L797 768Q832 796 829 820T786 857L751 866Q732 872 725 881T718 905Q718 925 732 936T771 947H1121Q1145 947 1159 936T1174 907Q1174 888 1162 876T1112 855Q1061
844 1022 822T922 752L418 349L387 434ZM734 673L1090 159Q1114 126 1132 113T1183 88Q1204 78 1214 66T1225 39Q1225 21 1211 11T1172 0H764Q742 0 729 11T716 41Q716 54 723 63T746 78L778 87Q806 95 808 111T782 167L546 508L734 673Z" />
<glyph unicode="l" horiz-adv-x="638" d="M472 1423V160Q472 129 480 115T507 94L545 84Q564 78 573 68T582 41Q582 22 569 11T527 0H133Q105 0 92 11T79 41Q79 56 88 66T116 84L155 94Q173 101 181 115T190 160V1255Q190 1280 183 1291T158 1305L105 1309Q87
1314 79 1323T71 1346Q71 1362 81 1372T117 1392L303 1460Q343 1475 366 1481T406 1487Q439 1487 455 1470T472 1423Z" />
<glyph unicode="m" horiz-adv-x="1913" d="M471 902V160Q471 129 480 115T507 94L543 84Q575 71 575 44Q575 0 519 0H133Q105 0 92 11T79 41Q79 56 87 66T115 84L155 94Q173 101 181 115T190 160V733Q190 759 183 770T158 784L105 788Q87 792 79 801T71 824Q71
841 80 851T117 871L303 939Q341 953 364 959T408 965Q439 965 455 948T471 902ZM441 679L395 726L434 761Q561 877 654 923T830 970Q959 970 1036 888T1113 668V163Q1113 130 1122 116T1151 94L1185 84Q1216 70 1216 44Q1216 0 1161 0H782Q726 0 726 44Q726 71
757 84L795 94Q815 101 823 116T832 163V627Q832 715 791 758T677 802Q632 802 583 781T481 714L441 679ZM1082 679L1037 726L1075 761Q1199 873 1287 921T1456 970Q1579 970 1647 888T1730 668L1786 163Q1790 130 1797 115T1824 94L1859 84Q1878 77 1887 67T1896
41Q1896 22 1883 11T1842 0H1452Q1396 0 1396 44Q1396 71 1427 84L1465 94Q1485 101 1495 116T1502 163L1450 627Q1440 714 1406 758T1303 802Q1263 802 1218 780T1122 714L1082 679Z" />
<glyph unicode="n" horiz-adv-x="1277" d="M471 902V160Q471 129 480 115T507 94L543 84Q575 71 575 44Q575 0 519 0H133Q105 0 92 11T79 41Q79 56 87 66T115 84L155 94Q173 101 181 115T190 160V733Q190 759 183 770T158 784L105 788Q87 792 79 801T71 824Q71
841 80 851T117 871L303 939Q341 953 364 959T408 965Q439 965 455 948T471 902ZM441 679L395 726L434 761Q560 874 650 922T820 970Q944 970 1012 888T1095 668L1151 163Q1154 130 1162 115T1189 94L1224 84Q1243 77 1252 67T1261 41Q1261 22 1248 11T1206 0H816Q761
0 761 44Q761 71 792 84L830 94Q849 101 859 116T866 163L814 627Q804 714 770 758T668 802Q626 802 580 780T481 714L441 679Z" />
<glyph unicode="o" horiz-adv-x="1191" d="M600 970Q755 970 872 907T1054 732T1120 470Q1120 329 1053 217T866 40T590 -25Q436 -25 320 39T137 215T71 475Q71 618 138 729T325 905T600 970ZM671 80Q739 90 780 142T833 287T821 508Q798 637 754 720T650 841T520
866Q451 855 410 803T358 659T370 437Q393 309 437 226T541 105T671 80Z" />
<glyph unicode="p" horiz-adv-x="1250" d="M448 902V790L460 766V-306Q460 -337 468 -351T495 -371L548 -382Q568 -388 577 -398T586 -425Q586 -444 573 -455T530 -466H121Q93 -466 80 -455T67 -425Q67 -410 76 -400T104 -382L143 -372Q161 -366 169 -352T178
-306V734Q178 759 171 770T146 784L93 788Q75 792 67 801T59 824Q59 841 68 850T105 870L280 939Q316 954 339 959T381 965Q415 965 431 948T448 902ZM402 651L358 708Q437 832 540 901T769 970Q887 970 980 910T1126 744T1180 498Q1180 339 1117 222T944 40T700
-25Q581 -25 489 31T337 193L406 251Q455 169 516 129T649 89Q718 89 771 129T856 253T887 468Q887 590 857 670T775 789T655 829Q583 829 520 786T402 651Z" />
<glyph unicode="q" horiz-adv-x="1221" d="M721 -466Q692 -466 679 -455T666 -425Q666 -409 675 -399T703 -382L756 -371Q775 -366 783 -352T792 -306V838L908 936Q954 955 977 962T1018 969Q1044 969 1058 956T1073 916V-306Q1073 -337 1082 -351T1109 -372L1148
-382Q1167 -389 1176 -399T1185 -425Q1185 -444 1172 -455T1130 -466H721ZM894 237Q815 114 712 45T483 -25Q365 -25 272 35T126 202T72 447Q72 607 135 724T308 906T552 970Q671 970 762 915T914 753L846 695Q797 777 736 817T603 857Q535 857 481 817T396 693T365
478Q365 356 395 276T477 157T597 117Q670 117 733 161T849 294L894 237Z" />
<glyph unicode="r" horiz-adv-x="957" d="M436 530Q436 675 477 773T585 920T729 970Q824 970 876 916T928 761Q928 671 891 627T795 583Q735 583 704 615T673 704V740Q672 772 658 787T612 803Q577 803 545 774T492 686T471 535L436 530ZM455 901L471 674V161Q471
132 482 119T524 100L610 87Q633 83 644 72T656 42Q656 22 642 11T600 0H133Q105 0 92 11T79 41Q79 56 88 66T116 84L155 94Q173 100 181 114T190 160V731Q190 757 183 768T158 782L105 786Q87 790 79 799T71 822Q71 839 81 849T117 869L299 935Q348 954 371 959T407
965Q429 965 440 951T455 901Z" />
<glyph unicode="s" horiz-adv-x="976" d="M509 66Q578 66 615 100T653 187Q653 220 639 247T583 296T462 337Q308 368 224 416T107 527T74 667Q74 806 172 888T457 970Q524 970 566 959T636 937T684 925Q706 925 717 936T740 959T773 970Q788 970 800 961T820
924L886 723Q898 688 894 666T866 635Q843 626 827 634T794 666Q750 745 699 791T591 858T473 879Q388 879 345 845T302 751Q302 716 320 688T387 637T529 591Q660 563 736 519T845 412T879 265Q879 179 835 114T711 12T527 -25Q461 -25 422 -12T357 13T307 26Q285
26 271 14T243 -12T211 -25Q196 -25 186 -14T170 23L131 214Q124 254 128 273T154 301Q176 310 193 300T227 261Q289 156 361 111T509 66Z" />
<glyph unicode="t" horiz-adv-x="778" d="M126 849L80 863Q56 871 46 881T36 906Q36 926 49 936T86 947H147Q171 947 187 956T220 988L329 1141Q350 1167 369 1179T407 1191Q428 1191 440 1178T452 1140V285Q452 215 479 178T556 141Q593 141 613 155T646 189T669
222T699 238Q714 238 722 228T731 195Q730 138 694 89T592 10T444 -21Q316 -21 244 43T171 238V790Q171 816 161 828T126 849ZM341 848V947H672Q695 947 708 938T722 910Q722 884 696 866T612 848H341Z" />
<glyph unicode="u" horiz-adv-x="1257" d="M804 144V193L795 197V733Q795 758 788 769T763 784L710 788Q692 792 684 801T676 824Q676 840 685 850T722 870L908 938Q946 952 969 958T1013 965Q1044 965 1060 948T1077 901V160Q1077 129 1085 115T1112 94L1150
84Q1169 78 1178 68T1187 41Q1187 22 1174 11T1132 0H931Q877 0 841 40T804 144ZM165 278V733Q165 758 157 769T132 784L79 788Q61 792 53 801T45 824Q45 840 55 850T91 870L278 938Q317 953 340 959T380 965Q413 965 429 948T446 901V319Q446 231 488 188T602
144Q646 144 696 165T799 232L839 267L885 220L846 185Q720 69 626 22T449 -25Q321 -25 243 57T165 278Z" />
<glyph unicode="v" horiz-adv-x="1120" d="M610 -8H508Q477 -8 456 8T420 57L126 786Q110 824 100 837T74 854L42 863Q23 869 15 879T7 905Q7 925 21 936T60 947H508Q561 947 561 905Q561 889 552 879T520 864L483 857Q437 847 428 823T442 739L677 133L614 98L857
739Q880 799 871 823T816 857L778 864Q757 869 748 879T738 905Q738 925 752 936T790 947H1062Q1087 947 1101 936T1115 905Q1115 891 1107 881T1077 864L1046 857Q1027 852 1012 828T973 746L697 51Q684 16 661 4T610 -8Z" />
<glyph unicode="w" horiz-adv-x="1670" d="M568 -8H469Q439 -8 417 7T381 57L125 789Q113 826 102 838T74 854L42 863Q23 869 15 879T7 905Q7 925 21 936T60 947H488Q512 947 526 936T541 905Q541 889 532 879T500 864L463 857Q429 850 423 829T438 745L636 147L571
96L814 792L902 731L655 51Q642 17 619 5T568 -8ZM1205 -8H1110Q1081 -8 1058 7T1022 57L771 794Q760 828 750 839T722 854L689 863Q671 869 663 879T655 905Q655 947 708 947H1119Q1172 947 1172 905Q1172 889 1163 879T1135 865L1088 858Q1063 854 1058 831T1071
751L1267 145L1206 93L1410 728Q1432 797 1427 823T1383 857L1346 864Q1325 869 1315 879T1305 905Q1305 925 1319 936T1358 947H1612Q1637 947 1651 936T1665 905Q1665 891 1657 881T1627 864L1596 857Q1577 852 1563 828T1528 746L1292 51Q1280 17 1256 5T1205
-8Z" />
<glyph unicode="x" horiz-adv-x="1104" d="M443 513L523 470L319 198Q290 159 295 132T341 92L373 84Q392 78 400 68T409 43Q409 24 395 13T355 1H79Q55 1 41 12T26 43Q26 58 35 68T68 90Q98 101 120 117T167 160T227 232L443 513ZM493 787L682 530L694 516L954
172Q986 130 1004 113T1048 87Q1068 77 1076 67T1085 42Q1085 23 1071 12T1030 0H597Q571 0 556 11T541 43Q541 58 549 67T574 81L607 89Q640 96 643 112T624 159L427 431L414 446L172 781Q145 818 124 833T76 857Q53 865 45 876T37 904Q37 924 51 935T91 947H516Q541
947 555 936T570 905Q570 891 564 881T542 864L509 854Q478 845 476 830T493 787ZM656 443L576 487L776 749Q806 789 801 816T754 856L721 864Q703 870 695 880T686 905Q686 925 700 936T740 947H1015Q1041 947 1054 936T1068 904Q1068 890 1059 880T1026 858Q982
842 951 812T868 716L656 443Z" />
<glyph unicode="y" horiz-adv-x="1141" d="M694 146L544 -124L135 783Q118 823 100 837T42 863Q23 869 15 879T7 905Q7 925 21 936T60 947H508Q533 947 547 936T561 905Q561 889 552 879T520 864L483 857Q437 847 430 823T447 739L694 146ZM504 -159L568 -4L603
66L867 727Q891 786 883 814T829 852L788 861Q766 867 757 878T747 905Q747 925 761 936T799 947H1083Q1108 947 1122 936T1136 905Q1136 891 1128 881T1097 862Q1053 848 1029 825T983 745L626 -137Q570 -271 522 -345T419 -447T286 -476Q170 -476 103 -415T35
-263Q35 -198 66 -162T150 -126Q201 -126 228 -156T273 -239L286 -277Q294 -313 312 -331T353 -349Q378 -349 399 -335T445 -280T504 -159Z" />
<glyph unicode="z" horiz-adv-x="985" d="M895 824L343 36L301 87H575Q630 87 666 99T733 144T801 240L843 315Q856 337 872 343T906 347Q926 344 934 330T938 292L880 22Q873 -5 861 -16T830 -28Q807 -28 784 -14T712 0H131Q90 0 73 11T56 44Q56 60 63 78T90
123L640 907L685 859H410Q362 859 330 849T272 812T217 733L178 661Q167 641 152 634T117 631Q98 636 89 651T85 692L133 922Q138 950 150 962T184 974Q207 974 230 961T300 947H854Q895 947 912 936T929 903Q929 888 922 870T895 824Z" />
<glyph unicode="{" horiz-adv-x="803" d="M383 612Q383 584 415 584Q525 584 585 544T645 435Q645 384 615 334T545 234T476 133T446 26Q446 -62 495 -112T637 -162H700Q757 -162 757 -209Q757 -229 742 -242T692 -256H592Q462 -256 377 -221T250 -126T208 11Q208
92 245 157T330 275T414 375T451 465Q451 506 424 529T344 553Q315 553 297 542T260 520T208 508Q163 508 138 539T113 612Q113 653 138 684T208 715Q241 715 260 704T297 682T344 670Q397 670 424 694T451 758Q451 802 415 848T330 947T245 1066T208 1213Q208
1290 250 1350T377 1444T592 1479H692Q727 1479 742 1466T757 1433Q757 1386 700 1386H637Q544 1386 495 1336T446 1197Q446 1143 476 1091T545 990T614 890T645 788Q645 720 585 680T415 639Q383 639 383 612Z" />
<glyph unicode="|" horiz-adv-x="568" d="M231 618Q231 692 225 800T212 1027T198 1257T192 1447Q192 1493 215 1519T284 1545Q329 1545 352 1519T376 1447Q376 1389 372 1307T363 1130T352 942T342 763T338 618Q338 544 343 436T356 209T370 -21T376 -210Q376
-256 353 -282T284 -309Q238 -309 215 -283T192 -210Q192 -151 196 -69T205 107T217 295T227 474T231 618Z" />
<glyph unicode="}" horiz-adv-x="803" d="M420 612Q420 640 388 640Q278 640 218 680T158 789Q158 840 188 890T258 990T327 1091T357 1198Q357 1286 308 1336T166 1386H103Q46 1386 46 1433Q46 1453 61 1466T111 1480H211Q341 1480 426 1445T553 1350T595 1213Q595
1132 558 1067T473 949T389 849T352 759Q352 718 379 695T459 671Q488 671 506 682T543 704T595 716Q640 716 665 685T690 612Q690 571 665 540T595 509Q562 509 543 520T506 542T459 554Q406 554 379 530T352 466Q352 422 388 376T473 277T558 158T595 11Q595
-66 553 -126T426 -220T211 -255H111Q76 -255 61 -242T46 -209Q46 -162 103 -162H166Q259 -162 308 -112T357 27Q357 81 327 133T258 234T189 334T158 436Q158 504 218 544T388 585Q420 585 420 612Z" />
<glyph unicode="~" horiz-adv-x="1276" d="M887 527Q820 527 756 558T631 630T511 702T393 734Q331 734 288 695T233 576Q226 553 210 541T174 529Q118 529 118 593Q118 666 154 728T251 826T389 863Q468 863 535 832T663 760T777 688T883 657Q945 657 988 693T1041
807Q1049 835 1065 847T1102 860Q1158 860 1158 795Q1158 720 1123 659T1026 563T887 527Z" />
<glyph unicode="&#xa0;" horiz-adv-x="435" />
<glyph unicode="&#xa1;" horiz-adv-x="617" d="M313 -335Q223 -335 181 -293T139 -180Q139 -156 142 -129T153 -71L253 620Q261 656 274 672T313 689Q337 689 350 673T373 620L473 -72Q480 -102 483 -129T487 -180Q487 -250 445 -292T313 -335ZM313 1173Q362 1173
402 1148T466 1082T490 992Q490 941 467 901T403 836T313 811Q263 811 223 835T159 900T136 992Q136 1040 159 1081T222 1148T313 1173Z" />
<glyph unicode="&#xa2;" horiz-adv-x="1039" d="M582 488Q582 406 584 331T588 187T594 62T598 -39T600 -113Q600 -139 588 -152T553 -166Q534 -166 521 -153T508 -111Q508 -83 509 -39T514 61T519 186T524 330T526 488Q526 565 524 636T519 770T514 887T510 982T508
1051Q508 1076 521 1089T556 1103Q575 1103 587 1090T600 1049Q600 1023 599 982T594 887T589 771T584 636T582 488ZM976 680Q976 622 943 585T853 547Q794 547 762 585T730 691V737Q730 801 685 839T563 877Q493 877 438 837T351 723T319 545Q319 421 360 336T474
206T637 162Q731 162 796 204T896 313Q911 327 920 332T938 337Q952 337 959 328T966 300Q960 215 906 147T761 39T554 -1Q413 -1 304 54T133 211T71 453Q71 595 134 707T311 885T579 950Q704 950 793 914T929 815T976 680Z" />
<glyph unicode="&#xa3;" horiz-adv-x="1287" d="M453 309L381 319Q433 353 456 393T479 478Q478 527 450 576T381 676T299 782T229 897T201 1025Q201 1146 259 1238T435 1382T731 1434Q888 1434 989 1385T1140 1256T1189 1077Q1189 998 1151 952T1043 906Q974
906 931 952T887 1079V1176Q887 1269 841 1318T711 1368Q612 1368 562 1295T512 1076Q512 1014 527 951T560 824T593 698T607 576Q606 496 572 426T453 309ZM87 118Q87 185 119 240T213 328T366 361Q440 361 508 344T639 305T765 266T890 249Q980 249 1030 280T1107
382Q1114 396 1128 405T1159 413Q1174 412 1185 401T1195 368Q1187 228 1146 141T1037 14T876 -27Q816 -27 765 -9T666 54T571 173Q531 216 505 234T445 252Q415 252 400 227T379 141Q377 83 359 46T307 -10T224 -28Q157 -28 122 12T87 118ZM149 651Q149 666 160
674T187 684L420 693L481 621H188Q171 621 160 629T149 651ZM543 621L536 684H919Q937 684 946 675T955 653Q955 621 919 621H543Z" />
<glyph unicode="&#xa4;" horiz-adv-x="1166" d="M151 318Q131 301 129 277T148 232Q168 213 194 215T239 236L418 416L327 498L151 318ZM147 1099Q126 1079 128 1055T151 1013L328 833L416 917L239 1095Q220 1114 194 1116T147 1099ZM1024 1100Q1004 1120 978
1118T930 1097L752 917L841 835L1020 1015Q1040 1034 1043 1058T1024 1100ZM1024 231Q1046 250 1043 273T1020 316L843 495L753 413L930 234Q951 215 977 213T1024 231ZM584 324Q683 324 763 367T890 487T937 667Q937 770 890 846T764 964T584 1006Q486 1006 406
964T279 846T232 667Q232 565 279 488T405 367T584 324ZM585 419Q515 419 463 452T383 541T354 667Q354 737 382 792T463 881T585 914Q655 914 707 881T788 793T817 667Q817 597 789 541T708 452T585 419Z" />
<glyph unicode="&#xa5;" horiz-adv-x="1386" d="M825 470L591 425L193 1229Q177 1259 165 1272T127 1296L96 1306Q74 1313 65 1325T55 1354Q55 1376 70 1388T117 1400H579Q610 1400 626 1388T643 1354Q643 1318 594 1303L547 1294Q504 1281 500 1265T512 1216L817
557L726 505L1048 1174Q1069 1220 1059 1250T1001 1295L950 1306Q933 1311 923 1323T912 1354Q912 1376 927 1388T973 1400H1271Q1303 1400 1318 1388T1334 1354Q1334 1337 1325 1327T1294 1306L1279 1300Q1259 1292 1242 1279T1207 1239T1166 1164L825 470ZM550
535L845 537V167Q845 147 857 132T895 110L952 97Q994 81 994 46Q994 25 980 13T934 0H461Q430 0 416 12T401 46Q401 81 443 97L501 110Q528 119 539 133T550 167V535ZM174 486Q174 501 184 510T210 519H1185Q1203 519 1212 510T1222 486Q1222 453 1185 453H209Q174
453 174 486ZM881 695L908 762H1185Q1203 762 1212 753T1222 729Q1222 695 1185 695H881ZM174 729Q174 744 184 753T210 762H629L660 695H209Q174 695 174 729Z" />
<glyph unicode="&#xa6;" horiz-adv-x="684" d="M380 783Q380 743 367 726T326 709Q300 709 286 727T272 783Q272 843 266 929T253 1111T239 1295T233 1447Q233 1493 256 1519T325 1545Q371 1545 394 1519T417 1447Q417 1388 412 1301T399 1118T386 934T380 783ZM272
453Q272 493 284 510T326 527Q351 527 365 510T380 453Q380 393 385 307T398 125T411 -59T417 -211Q417 -257 394 -283T325 -310Q280 -310 257 -284T233 -211Q233 -152 239 -65T252 118T266 303T272 453Z" />
<glyph unicode="&#xa7;" horiz-adv-x="1180" d="M652 191L644 255Q738 259 789 306T841 426Q841 478 817 518T735 594T575 668Q420 719 330 778T202 911T163 1079Q163 1181 212 1259T349 1382T553 1426Q625 1426 672 1412T752 1383T807 1368Q829 1368 840 1383T865
1413T901 1428Q922 1428 935 1416T958 1372L1038 1091Q1046 1069 1036 1053T1005 1031Q965 1021 944 1060Q890 1162 830 1223T706 1310T578 1336Q497 1336 448 1288T399 1160Q399 1104 422 1062T497 987T631 921Q787 868 874 809T996 680T1031 525Q1031 433 985
359T854 240T652 191ZM482 813L502 752Q418 740 374 695T330 576Q330 518 358 476T448 400T608 329Q762 277 849 217T971 86T1007 -69Q1007 -164 960 -241T823 -363T608 -408Q542 -408 495 -394T417 -367T368 -353Q346 -353 332 -367T304 -395T268 -410Q247 -410
235 -399T216 -362L154 -95Q142 -52 183 -41Q203 -34 220 -41T250 -71Q299 -165 354 -219T469 -296T592 -319Q678 -319 727 -272T777 -148Q777 -100 757 -62T687 9T551 76Q396 127 306 185T177 317T139 484Q139 571 180 642T298 757T482 813Z" />
<glyph unicode="&#xa8;" horiz-adv-x="798" d="M199 1054Q135 1054 97 1091T58 1188Q58 1250 96 1287T199 1325Q264 1325 302 1288T340 1188Q340 1128 302 1091T199 1054ZM606 1054Q542 1054 503 1091T464 1188Q464 1250 503 1287T606 1325Q673 1325 711 1288T749
1188Q749 1128 711 1091T606 1054Z" />
<glyph unicode="&#xa9;" horiz-adv-x="1878" d="M939 -118Q1123 -118 1276 -58T1542 113T1716 374T1778 704Q1778 883 1717 1033T1543 1294T1277 1465T939 1526Q756 1526 603 1465T337 1294T163 1034T101 704Q101 525 162 375T336 114T602 -57T939 -118ZM939 -33Q722
-33 556 62T297 323T204 704Q204 919 297 1084T556 1345T939 1440Q1103 1440 1237 1386T1470 1233T1621 1000T1675 704Q1675 543 1622 409T1470 175T1238 22T939 -33ZM1381 485Q1379 437 1351 385T1268 288T1137 215T963 187Q809 187 696 252T521 432T459 696Q459
847 524 964T701 1149T954 1217Q1022 1217 1064 1202T1133 1172T1177 1156Q1197 1156 1210 1167T1235 1190T1263 1201Q1280 1201 1289 1193T1304 1161L1369 909Q1374 888 1364 874T1333 856Q1311 852 1296 861T1271 894Q1223 1027 1154 1077T1002 1127Q928 1127
874 1078T790 942T760 736Q760 610 797 521T901 386T1057 339Q1130 339 1186 367T1275 441Q1299 469 1312 486T1336 512T1357 520Q1381 516 1381 485Z" />
<glyph unicode="&#xaa;" horiz-adv-x="1052" d="M155 1202Q155 1256 201 1307T338 1392T559 1426Q711 1426 785 1362T860 1186V752Q860 729 870 716T898 703Q916 703 924 711T939 728T954 737Q967 737 974 729T981 707Q981 682 961 654T902 605T805 585Q730 585
683 619T636 715L620 737V1240Q620 1297 589 1329T502 1361Q449 1361 420 1336T391 1278V1216Q391 1167 357 1138T260 1108Q210 1108 183 1133T155 1202ZM646 935Q615 948 584 955T515 963Q443 963 402 927T360 826Q360 762 395 729T487 695Q535 695 578 717T653
777L672 726Q623 660 543 623T371 585Q258 585 187 640T115 785Q115 891 214 956T491 1021Q544 1021 588 1012T665 988L646 935Z" />
<glyph unicode="&#xab;" horiz-adv-x="1184" d="M96 481Q96 504 111 528T163 581Q217 623 267 663T363 741T448 810T519 870Q537 884 551 886T576 880Q587 872 586 858T574 825Q546 777 508 720T421 594T309 442V521Q372 438 421 369T508 243T574 138Q584 119
585 105T576 82Q565 74 551 76T519 92Q488 119 449 151T363 221T267 299T163 382Q127 410 112 434T96 481ZM594 481Q594 504 609 528T661 581Q715 623 765 663T861 741T946 810T1017 870Q1035 884 1049 886T1074 880Q1085 872 1084 858T1072 825Q1044 777 1006
720T919 594T807 442V521Q870 438 919 369T1006 243T1072 138Q1082 119 1083 105T1074 82Q1063 74 1049 76T1017 92Q986 119 947 151T861 221T765 299T661 382Q625 410 610 434T594 481Z" />
<glyph unicode="&#xac;" horiz-adv-x="1120" d="M123 789Q123 817 142 832T188 848H896Q930 848 951 831T973 780V459Q973 437 956 421T907 404Q876 404 858 421T840 460V752L860 731H187Q161 731 142 746T123 789Z" />
<glyph unicode="&#xad;" horiz-adv-x="820" d="M680 653Q750 653 724 584L699 515Q688 483 672 471T626 459H139Q69 459 96 529L121 597Q133 630 149 641T193 653H680Z" />
<glyph unicode="&#xae;" horiz-adv-x="1468" d="M732 261Q877 261 999 308T1210 441T1349 642T1398 895Q1398 1030 1349 1144T1210 1341T999 1471T732 1517Q588 1517 467 1471T257 1342T119 1144T70 895Q70 758 118 643T256 442T466 309T732 261ZM732 336Q567
336 439 408T239 607T166 895Q166 1055 239 1178T440 1372T732 1442Q897 1442 1025 1372T1228 1178T1302 895Q1302 734 1229 608T1027 409T732 336ZM1063 1007Q1063 936 1015 886T887 820Q855 815 831 808T772 800Q720 800 678 813T604 845L605 903Q641 879 675
870T743 861Q809 861 844 897T880 1004Q880 1083 839 1135T726 1187H658V653Q658 634 663 625T680 612L706 604Q719 598 723 592T727 577Q727 552 692 552H440Q404 552 404 577Q404 596 428 605L453 613Q466 618 472 626T478 653V1148Q478 1164 472 1173T455 1186L428
1194Q404 1202 404 1224Q404 1250 441 1250H727Q888 1250 975 1181T1063 1007ZM756 824L928 844L1038 646Q1048 629 1058 621T1083 607Q1099 602 1104 596T1110 580Q1110 566 1101 559T1073 551H843Q809 551 809 577Q809 590 824 598L843 603Q856 606 857 615T850
641L756 824Z" />
<glyph unicode="&#xaf;" horiz-adv-x="755" d="M58 1178Q58 1213 74 1230T120 1247H603Q633 1247 649 1231T665 1178Q665 1142 649 1126T603 1109H120Q90 1109 74 1126T58 1178Z" />
<glyph unicode="&#xb0;" horiz-adv-x="791" d="M395 1428Q485 1428 553 1389T660 1282T699 1126Q699 1041 660 975T553 871T395 833Q306 833 238 871T130 977T91 1130Q91 1213 129 1280T235 1388T395 1428ZM395 1334Q310 1334 259 1275T208 1130Q208 1042 260
985T395 927Q477 927 530 984T583 1128Q583 1217 531 1275T395 1334Z" />
<glyph unicode="&#xb1;" horiz-adv-x="1123" d="M130 840Q130 867 147 882T188 897H951Q974 897 990 882T1007 840Q1007 813 991 798T951 783H187Q165 783 148 798T130 840ZM564 422Q537 422 522 439T507 480V1243Q507 1266 522 1282T564 1299Q591 1299 606 1283T621
1243V479Q621 457 606 440T564 422ZM128 186Q128 213 145 228T186 243H949Q972 243 988 228T1005 186Q1005 159 989 144T949 129H185Q163 129 146 144T128 186Z" />
<glyph unicode="&#xb2;" horiz-adv-x="749" d="M168 846L125 870L258 954Q328 996 369 1035T429 1118T447 1220Q447 1307 424 1344T356 1382Q309 1382 289 1355T269 1285V1226Q269 1185 242 1161T171 1136Q128 1136 103 1160T77 1229Q77 1306 150 1367T375 1429Q517
1429 585 1372T654 1223Q654 1174 629 1132T548 1049T394 958L168 846ZM64 771Q64 832 116 866T277 901Q326 901 369 888T453 861T530 847Q562 847 582 860T612 907Q617 921 627 927T648 932Q687 930 682 886Q672 777 627 731T509 684Q450 684 411 708T339 785Q318
811 304 823T275 835Q258 835 250 820T242 773Q240 728 218 706T152 684Q112 684 88 707T64 771Z" />
<glyph unicode="&#xb3;" horiz-adv-x="698" d="M326 1058L312 1075Q327 1078 344 1080T383 1083Q499 1083 569 1032T639 890Q639 791 557 732T335 673Q203 673 135 723T66 844Q66 886 95 912T166 938Q209 938 232 915T256 853V801Q256 767 277 745T339 722Q384
722 411 756T439 867Q439 946 409 983T321 1020H281Q262 1020 251 1027T240 1050Q240 1061 246 1071T267 1094L509 1307L515 1255H233Q194 1255 185 1224L173 1179Q169 1165 159 1157T130 1149Q111 1149 100 1158T91 1188L109 1358Q111 1377 126 1388T168 1400H603Q624
1400 635 1391T647 1366Q647 1355 638 1345T606 1318L326 1058Z" />
<glyph unicode="&#xb4;" horiz-adv-x="486" d="M163 1297Q193 1362 230 1398T324 1428Q374 1422 399 1387T419 1311Q413 1267 384 1235T301 1173L124 1049Q109 1042 94 1042T67 1051Q56 1062 58 1075T69 1102L163 1297Z" />
<glyph unicode="&#xb5;" horiz-adv-x="1263" d="M164 288H215Q215 161 231 63T269 -111T306 -246T323 -354Q323 -409 288 -442T201 -476Q148 -476 113 -441T77 -346Q77 -301 90 -241T120 -103T151 72T164 288ZM819 268L864 221L816 178Q694 70 603 24T430 -23Q311
-23 237 53T163 266V836Q163 866 178 885T220 913L317 946Q345 955 362 959T398 964Q418 964 429 952T440 920V320Q440 232 480 189T587 145Q630 145 676 165T777 231L819 268ZM1005 -24Q910 -24 856 21T800 158L792 194V835Q792 865 807 884T849 913L946 946Q973
955 990 959T1027 964Q1046 964 1057 952T1069 920V175Q1069 147 1080 133T1112 118Q1134 118 1144 129T1160 150T1178 160Q1192 160 1200 151T1208 128Q1208 95 1185 60T1117 1T1005 -24Z" />
<glyph unicode="&#xb6;" horiz-adv-x="1327" d="M899 188V1207Q899 1239 880 1260T814 1281Q769 1281 749 1258T729 1207V188Q729 160 749 138T814 116Q861 116 880 136T899 188ZM1166 0H418Q397 0 384 11T370 41Q370 64 383 78T418 98L492 113Q522 120 537 134T552
170V630Q528 625 504 621T449 617Q263 617 156 716T48 985Q48 1111 105 1204T269 1348T522 1400H1172Q1194 1400 1211 1389T1228 1355Q1228 1336 1218 1325T1189 1306L1132 1288Q1105 1279 1091 1263T1076 1222V175Q1076 152 1089 136T1127 113L1184 98Q1204 92
1216 81T1228 48Q1228 24 1208 12T1166 0Z" />
<glyph unicode="&#xb7;" horiz-adv-x="582" d="M291 324Q242 324 202 349T138 415T114 505Q114 555 137 596T201 661T291 686Q342 686 382 662T445 596T469 505Q469 457 446 416T382 349T291 324Z" />
<glyph unicode="&#xb8;" horiz-adv-x="566" d="M251 12H327L247 -141L198 -128Q216 -124 237 -123T288 -121Q383 -121 435 -162T488 -275Q488 -351 429 -397T263 -443Q175 -443 120 -411T58 -334Q58 -317 68 -306T92 -295Q105 -294 115 -299T135 -314Q151 -343
178 -355T236 -368Q316 -368 316 -274Q316 -232 294 -209T227 -185H196Q173 -185 168 -172T171 -139L251 12Z" />
<glyph unicode="&#xb9;" horiz-adv-x="609" d="M124 1307H173Q192 1307 200 1299T209 1265V820Q209 800 200 790T174 776L109 765Q75 759 75 733Q75 703 117 703H500Q542 703 542 733Q542 758 510 764L450 776Q434 779 426 789T418 819V1397Q418 1434 378 1434Q367
1434 357 1430T333 1418Q306 1397 275 1387T189 1376H127Q105 1376 93 1367T81 1341Q81 1326 91 1317T124 1307Z" />
<glyph unicode="&#xba;" horiz-adv-x="1075" d="M542 1424Q674 1424 775 1371T932 1222T989 1001Q989 880 931 786T771 637T533 582Q401 582 300 635T143 784T86 1004Q86 1124 144 1219T304 1369T542 1424ZM603 670Q659 679 694 725T739 850T730 1034Q710 1142
671 1212T581 1314T473 1336Q419 1328 383 1282T337 1158T347 973Q368 866 406 796T496 694T603 670Z" />
<glyph unicode="&#xbb;" horiz-adv-x="1184" d="M1089 483Q1089 460 1074 436T1022 383Q968 341 918 301T822 223T737 154T666 94Q648 80 634 78T609 84Q598 92 599 106T611 139Q639 187 677 244T764 370T876 522V443Q813 526 764 595T677 721T611 826Q601 845
600 859T609 882Q620 890 634 888T666 872Q697 845 736 813T822 743T918 665T1022 582Q1058 554 1073 530T1089 483ZM591 483Q591 460 576 436T524 383Q470 341 420 301T324 223T239 154T168 94Q150 80 136 78T111 84Q100 92 101 106T113 139Q141 187 179 244T266
370T378 522V443Q315 526 266 595T179 721T113 826Q103 845 102 859T111 882Q122 890 136 888T168 872Q199 845 238 813T324 743T420 665T524 582Q560 554 575 530T591 483Z" />
<glyph unicode="&#xbc;" horiz-adv-x="1570" d="M167 1307H216Q235 1307 243 1299T252 1265V820Q252 800 243 790T217 776L152 765Q118 759 118 733Q118 703 160 703H543Q585 703 585 733Q585 758 553 764L493 776Q477 779 469 789T461 819V1397Q461 1434 421
1434Q410 1434 400 1430T376 1418Q349 1397 318 1387T232 1376H170Q148 1376 136 1367T124 1341Q124 1326 134 1317T167 1307ZM1137 320Q1137 334 1141 344T1156 361L1275 463Q1288 474 1297 477T1314 481Q1339 481 1339 455L1340 114Q1340 96 1349 87T1372 72L1414
62Q1429 58 1438 51T1447 31Q1447 0 1405 0H1065Q1023 0 1023 31Q1023 55 1057 62L1103 72Q1120 76 1128 86T1137 114V320ZM1030 446Q1058 470 1070 490T1083 528Q1083 550 1071 566T1046 602T1034 649Q1034 690 1066 717T1162 745Q1216 745 1249 719T1282 648Q1282
612 1261 575T1175 481L876 210L861 239H1420Q1439 239 1449 232T1460 211Q1460 179 1419 179H845Q824 179 813 188T802 212Q802 221 808 231T832 255L1030 446ZM860 781Q844 760 831 755T800 760Q784 768 783 783T791 819Q807 850 830 895T879 995T934 1105T990
1214T1040 1310T1079 1379Q1101 1414 1133 1424T1203 1414Q1238 1394 1244 1363T1228 1297Q1214 1273 1187 1234T1126 1147T1055 1046T981 944T913 851T860 781ZM668 616Q685 636 698 641T730 638Q747 629 747 614T737 578Q722 547 699 502T649 402T594 291T539
181T489 86T449 17Q428 -18 395 -27T326 -18Q291 2 285 32T301 99Q316 122 342 161T403 250T475 351T549 453T616 545T668 616Z" />
<glyph unicode="&#xbd;" horiz-adv-x="1599" d="M170 1307H219Q238 1307 246 1299T255 1265V820Q255 800 246 790T220 776L155 765Q121 759 121 733Q121 703 163 703H546Q588 703 588 733Q588 758 556 764L496 776Q480 779 472 789T464 819V1397Q464 1434 424
1434Q413 1434 403 1430T379 1418Q352 1397 321 1387T235 1376H173Q151 1376 139 1367T127 1341Q127 1326 137 1317T170 1307ZM860 781Q844 760 831 755T800 760Q784 768 783 783T791 819Q807 850 830 895T879 995T934 1105T990 1214T1040 1310T1079 1379Q1101
1414 1133 1424T1203 1414Q1238 1394 1244 1363T1228 1297Q1214 1273 1187 1234T1126 1147T1055 1046T981 944T913 851T860 781ZM668 616Q685 636 698 641T730 638Q747 629 747 614T737 578Q722 547 699 502T649 402T594 291T539 181T489 86T449 17Q428 -18 395
-27T326 -18Q291 2 285 32T301 99Q316 122 342 161T403 250T475 351T549 453T616 545T668 616ZM998 141L955 165L1088 249Q1158 291 1199 330T1259 413T1277 515Q1277 602 1254 639T1186 677Q1139 677 1119 650T1099 580V521Q1099 480 1072 456T1001 431Q958 431
933 455T907 524Q907 601 980 662T1205 724Q1347 724 1415 667T1484 518Q1484 469 1459 427T1378 344T1224 253L998 141ZM894 66Q894 127 946 161T1107 196Q1156 196 1199 183T1283 156T1360 142Q1392 142 1412 155T1442 202Q1447 216 1457 222T1478 227Q1517 225
1512 181Q1502 72 1457 26T1339 -21Q1280 -21 1241 3T1169 80Q1148 106 1134 118T1105 130Q1088 130 1080 115T1072 68Q1070 23 1048 1T982 -21Q942 -21 918 2T894 66Z" />
<glyph unicode="&#xbe;" horiz-adv-x="1626" d="M1192 320Q1192 334 1196 344T1211 361L1330 463Q1343 474 1352 477T1369 481Q1394 481 1394 455L1395 114Q1395 96 1404 87T1427 72L1469 62Q1484 58 1493 51T1502 31Q1502 0 1460 0H1120Q1078 0 1078 31Q1078
55 1112 62L1158 72Q1175 76 1183 86T1192 114V320ZM1085 446Q1113 470 1125 490T1138 528Q1138 550 1126 566T1101 602T1089 649Q1089 690 1121 717T1217 745Q1271 745 1304 719T1337 648Q1337 612 1316 575T1230 481L931 210L916 239H1475Q1494 239 1504 232T1515
211Q1515 179 1474 179H900Q879 179 868 188T857 212Q857 221 863 231T887 255L1085 446ZM919 781Q903 760 890 755T859 760Q843 768 842 783T850 819Q866 850 889 895T938 995T993 1105T1049 1214T1099 1310T1138 1379Q1160 1414 1192 1424T1262 1414Q1297 1394
1303 1363T1287 1297Q1273 1273 1246 1234T1185 1147T1114 1046T1040 944T972 851T919 781ZM727 616Q744 636 757 641T789 638Q806 629 806 614T796 578Q781 547 758 502T708 402T653 291T598 181T548 86T508 17Q487 -18 454 -27T385 -18Q350 2 344 32T360 99Q375
122 401 161T462 250T534 351T608 453T675 545T727 616ZM380 1058L366 1075Q381 1078 398 1080T437 1083Q553 1083 623 1032T693 890Q693 791 611 732T389 673Q257 673 189 723T120 844Q120 886 149 912T220 938Q263 938 286 915T310 853V801Q310 767 331 745T393
722Q438 722 465 756T493 867Q493 946 463 983T375 1020H335Q316 1020 305 1027T294 1050Q294 1061 300 1071T321 1094L563 1307L569 1255H287Q248 1255 239 1224L227 1179Q223 1165 213 1157T184 1149Q165 1149 154 1158T145 1188L163 1358Q165 1377 180 1388T222
1400H657Q678 1400 689 1391T701 1366Q701 1355 692 1345T660 1318L380 1058Z" />
<glyph unicode="&#xbf;" horiz-adv-x="1013" d="M660 484L643 643Q637 671 623 683T582 696Q558 696 545 684T522 641L507 496Q501 462 488 446T446 422L380 404Q211 359 137 270T63 48Q63 -123 180 -216T528 -310Q662 -310 768 -263T936 -138T997 32Q997 107
957 148T850 190Q774 190 733 143T691 12V-67Q691 -138 652 -180T538 -222Q462 -222 420 -162T377 13Q377 136 408 211T526 328L587 354Q636 376 652 406T660 484ZM586 1173Q635 1173 675 1148T739 1082T763 992Q763 941 739 901T675 836T586 811Q535 811 495 835T432
900T408 992Q408 1040 431 1081T495 1148T586 1173Z" />
<glyph unicode="&#xc0;" horiz-adv-x="1473" d="M348 569H939L944 465H341L348 569ZM465 46Q465 25 451 13T404 0H90Q59 0 44 12T29 46Q29 61 37 71T68 93L101 106Q131 121 147 145T183 230L503 1208Q516 1252 510 1271T469 1303Q441 1312 430 1324T419 1355Q419
1376 434 1388T481 1400H969Q1001 1400 1016 1388T1031 1355Q1031 1336 1020 1324T983 1304Q956 1296 951 1281T957 1232L1297 207Q1313 157 1331 134T1382 100Q1411 89 1421 77T1431 46Q1431 25 1416 13T1369 0H928Q897 0 882 12T867 46Q867 64 877 75T910 93L967
105Q993 113 992 131T979 188L625 1280L658 1300L315 246Q302 205 302 179T318 136T369 105L423 92Q443 84 454 74T465 46ZM734 1705L856 1534Q865 1522 869 1509T863 1485Q854 1475 839 1474T809 1478L618 1566Q563 1589 530 1616T487 1689Q477 1726 499 1762T567
1808Q618 1819 658 1790T734 1705Z" />
<glyph unicode="&#xc1;" horiz-adv-x="1473" d="M348 569H939L944 465H341L348 569ZM465 46Q465 25 451 13T404 0H90Q59 0 44 12T29 46Q29 61 37 71T68 93L101 106Q131 121 147 145T183 230L503 1208Q516 1252 510 1271T469 1303Q441 1312 430 1324T419 1355Q419
1376 434 1388T481 1400H969Q1001 1400 1016 1388T1031 1355Q1031 1336 1020 1324T983 1304Q956 1296 951 1281T957 1232L1297 207Q1313 157 1331 134T1382 100Q1411 89 1421 77T1431 46Q1431 25 1416 13T1369 0H928Q897 0 882 12T867 46Q867 64 877 75T910 93L967
105Q993 113 992 131T979 188L625 1280L658 1300L315 246Q302 205 302 179T318 136T369 105L423 92Q443 84 454 74T465 46ZM813 1705Q850 1760 889 1789T980 1808Q1026 1798 1047 1762T1060 1689Q1051 1644 1018 1617T928 1566L738 1478Q724 1473 709 1474T684
1485Q674 1496 678 1509T691 1534L813 1705Z" />
<glyph unicode="&#xc2;" horiz-adv-x="1473" d="M348 569H939L944 465H341L348 569ZM465 46Q465 25 451 13T404 0H90Q59 0 44 12T29 46Q29 61 37 71T68 93L101 106Q131 121 147 145T183 230L503 1208Q516 1252 510 1271T469 1303Q441 1312 430 1324T419 1355Q419
1376 434 1388T481 1400H969Q1001 1400 1016 1388T1031 1355Q1031 1336 1020 1324T983 1304Q956 1296 951 1281T957 1232L1297 207Q1313 157 1331 134T1382 100Q1411 89 1421 77T1431 46Q1431 25 1416 13T1369 0H928Q897 0 882 12T867 46Q867 64 877 75T910 93L967
105Q993 113 992 131T979 188L625 1280L658 1300L315 246Q302 205 302 179T318 136T369 105L423 92Q443 84 454 74T465 46ZM788 1649H671L943 1490Q987 1465 1012 1485Q1023 1493 1024 1508T1008 1541L819 1749Q796 1773 777 1787T730 1801Q702 1801 683 1787T639
1749L451 1541Q434 1524 435 1509T447 1485Q472 1465 515 1490L788 1649Z" />
<glyph unicode="&#xc3;" horiz-adv-x="1473" d="M348 569H939L944 465H341L348 569ZM465 46Q465 25 451 13T404 0H90Q59 0 44 12T29 46Q29 61 37 71T68 93L101 106Q131 121 147 145T183 230L503 1208Q516 1252 510 1271T469 1303Q441 1312 430 1324T419 1355Q419
1376 434 1388T481 1400H969Q1001 1400 1016 1388T1031 1355Q1031 1336 1020 1324T983 1304Q956 1296 951 1281T957 1232L1297 207Q1313 157 1331 134T1382 100Q1411 89 1421 77T1431 46Q1431 25 1416 13T1369 0H928Q897 0 882 12T867 46Q867 64 877 75T910 93L967
105Q993 113 992 131T979 188L625 1280L658 1300L315 246Q302 205 302 179T318 136T369 105L423 92Q443 84 454 74T465 46ZM864 1488Q821 1488 785 1504T719 1541T660 1578T605 1594Q546 1594 535 1511Q526 1481 495 1481Q456 1481 456 1532Q456 1640 498 1695T612
1751Q655 1751 690 1735T756 1698T815 1661T871 1645Q931 1645 941 1728Q949 1759 981 1759Q1020 1759 1020 1708Q1020 1599 978 1544T864 1488Z" />
<glyph unicode="&#xc4;" horiz-adv-x="1473" d="M348 569H939L944 465H341L348 569ZM465 46Q465 25 451 13T404 0H90Q59 0 44 12T29 46Q29 61 37 71T68 93L101 106Q131 121 147 145T183 230L503 1208Q516 1252 510 1271T469 1303Q441 1312 430 1324T419 1355Q419
1376 434 1388T481 1400H969Q1001 1400 1016 1388T1031 1355Q1031 1336 1020 1324T983 1304Q956 1296 951 1281T957 1232L1297 207Q1313 157 1331 134T1382 100Q1411 89 1421 77T1431 46Q1431 25 1416 13T1369 0H928Q897 0 882 12T867 46Q867 64 877 75T910 93L967
105Q993 113 992 131T979 188L625 1280L658 1300L315 246Q302 205 302 179T318 136T369 105L423 92Q443 84 454 74T465 46ZM524 1487Q460 1487 422 1523T383 1619Q383 1679 421 1715T524 1751Q588 1751 626 1715T664 1619Q664 1560 626 1524T524 1487ZM928 1487Q864
1487 826 1523T788 1619Q788 1679 826 1715T928 1751Q994 1751 1032 1715T1071 1619Q1071 1560 1033 1524T928 1487Z" />
<glyph unicode="&#xc5;" horiz-adv-x="1473" d="M348 569H939L944 465H341L348 569ZM465 46Q465 25 451 13T404 0H90Q59 0 44 12T29 46Q29 61 37 71T68 93L101 106Q131 121 147 145T183 230L503 1208Q516 1252 510 1271T469 1303Q441 1312 430 1324T419 1355Q419
1376 434 1388T481 1400H969Q1001 1400 1016 1388T1031 1355Q1031 1336 1020 1324T983 1304Q956 1296 951 1281T957 1232L1297 207Q1313 157 1331 134T1382 100Q1411 89 1421 77T1431 46Q1431 25 1416 13T1369 0H928Q897 0 882 12T867 46Q867 64 877 75T910 93L967
105Q993 113 992 131T979 188L625 1280L658 1300L315 246Q302 205 302 179T318 136T369 105L423 92Q443 84 454 74T465 46ZM734 1471Q645 1471 584 1519T522 1649Q522 1730 583 1777T734 1825Q825 1825 886 1777T947 1649Q947 1569 886 1520T734 1471ZM735 1757Q698
1757 674 1729T649 1649Q649 1598 673 1569T735 1539Q773 1539 796 1569T820 1649Q820 1700 797 1728T735 1757Z" />
<glyph unicode="&#xc6;" horiz-adv-x="1991" d="M1048 1400L1012 1299H918L333 246Q302 189 312 155T365 105L418 92Q438 84 449 74T461 46Q461 25 446 13T400 0H70Q39 0 24 12T9 46Q9 72 48 93L78 105Q107 118 131 149T184 230L732 1208Q754 1248 745 1269T699
1303Q672 1312 660 1324T648 1354Q648 1376 663 1388T710 1400H1048ZM445 636H998L1002 531H438L445 636ZM1131 753H1434Q1496 753 1521 777T1560 871Q1570 918 1609 920Q1648 922 1659 877L1735 580Q1748 529 1707 516Q1665 503 1641 541Q1613 587 1590 611T1538
645T1464 654H1131V753ZM938 167V1400H1594Q1630 1400 1653 1410T1697 1430T1744 1440Q1775 1440 1790 1423T1817 1367L1897 1086Q1905 1061 1897 1044T1867 1020Q1842 1012 1822 1021T1789 1055Q1751 1133 1719 1181T1653 1255T1581 1290T1492 1300H1247V199Q1247
149 1275 125T1360 100H1524Q1592 100 1642 122T1737 208T1838 397Q1848 420 1865 428T1904 433Q1928 429 1939 411T1943 366L1857 37Q1847 -1 1830 -19T1780 -37Q1757 -37 1737 -28T1692 -9T1633 0H849Q818 0 804 12T789 46Q789 84 831 97L888 110Q912 117 925
131T938 167Z" />
<glyph unicode="&#xc7;" horiz-adv-x="1408" d="M1342 369Q1341 298 1303 227T1192 95T1016 -1T780 -37Q564 -37 407 56T165 313T79 691Q79 853 129 988T271 1223T486 1379T754 1435Q854 1435 917 1416T1016 1376T1073 1356Q1098 1356 1111 1373T1138 1408T1177
1425Q1195 1425 1207 1414T1227 1375L1332 1030Q1339 1007 1328 989T1293 966Q1269 961 1250 970T1220 1004Q1166 1124 1101 1194T959 1296T795 1327Q706 1327 632 1287T504 1171T421 991T391 755Q391 554 453 415T624 203T871 131Q1004 131 1102 194T1256 374Q1267
397 1281 404T1312 409Q1327 407 1334 397T1342 369ZM727 12H803L723 -141L674 -128Q692 -124 713 -123T764 -121Q859 -121 911 -162T964 -275Q964 -351 905 -397T739 -443Q651 -443 596 -411T534 -334Q534 -317 544 -306T568 -295Q581 -294 591 -299T611 -314Q627
-343 654 -355T712 -368Q792 -368 792 -274Q792 -232 770 -209T703 -185H672Q649 -185 644 -172T647 -139L727 12Z" />
<glyph unicode="&#xc8;" horiz-adv-x="1321" d="M447 753H764Q826 753 851 777T890 871Q896 895 908 907T940 920Q978 922 989 877L1066 580Q1072 554 1066 539T1038 516Q1018 510 1001 516T971 541Q944 587 921 611T868 645T794 654H447V753ZM104 1354Q104 1376
119 1388T165 1400H925Q961 1400 984 1410T1028 1430T1076 1440Q1106 1440 1121 1423T1149 1367L1229 1086Q1236 1061 1228 1044T1198 1020Q1173 1012 1153 1021T1120 1055Q1082 1133 1050 1181T984 1255T913 1290T823 1300H563V199Q563 149 591 125T676 100H852Q920
100 970 122T1065 208T1166 397Q1176 420 1193 428T1232 433Q1257 429 1267 411T1271 366L1185 37Q1175 -1 1158 -19T1108 -37Q1085 -37 1065 -28T1020 -9T961 0H165Q134 0 119 12T104 46Q104 84 146 97L203 110Q228 117 240 131T253 167V1233Q253 1255 241 1269T203
1290L146 1303Q104 1316 104 1354ZM659 1705L781 1534Q790 1522 794 1509T788 1485Q779 1475 764 1474T734 1478L543 1566Q488 1589 455 1616T412 1689Q402 1726 424 1762T492 1808Q543 1819 583 1790T659 1705Z" />
<glyph unicode="&#xc9;" horiz-adv-x="1321" d="M447 753H764Q826 753 851 777T890 871Q896 895 908 907T940 920Q978 922 989 877L1066 580Q1072 554 1066 539T1038 516Q1018 510 1001 516T971 541Q944 587 921 611T868 645T794 654H447V753ZM104 1354Q104 1376
119 1388T165 1400H925Q961 1400 984 1410T1028 1430T1076 1440Q1106 1440 1121 1423T1149 1367L1229 1086Q1236 1061 1228 1044T1198 1020Q1173 1012 1153 1021T1120 1055Q1082 1133 1050 1181T984 1255T913 1290T823 1300H563V199Q563 149 591 125T676 100H852Q920
100 970 122T1065 208T1166 397Q1176 420 1193 428T1232 433Q1257 429 1267 411T1271 366L1185 37Q1175 -1 1158 -19T1108 -37Q1085 -37 1065 -28T1020 -9T961 0H165Q134 0 119 12T104 46Q104 84 146 97L203 110Q228 117 240 131T253 167V1233Q253 1255 241 1269T203
1290L146 1303Q104 1316 104 1354ZM738 1705Q775 1760 814 1789T905 1808Q951 1798 972 1762T985 1689Q976 1644 943 1617T853 1566L663 1478Q649 1473 634 1474T609 1485Q599 1496 603 1509T616 1534L738 1705Z" />
<glyph unicode="&#xca;" horiz-adv-x="1321" d="M447 753H764Q826 753 851 777T890 871Q896 895 908 907T940 920Q978 922 989 877L1066 580Q1072 554 1066 539T1038 516Q1018 510 1001 516T971 541Q944 587 921 611T868 645T794 654H447V753ZM104 1354Q104 1376
119 1388T165 1400H925Q961 1400 984 1410T1028 1430T1076 1440Q1106 1440 1121 1423T1149 1367L1229 1086Q1236 1061 1228 1044T1198 1020Q1173 1012 1153 1021T1120 1055Q1082 1133 1050 1181T984 1255T913 1290T823 1300H563V199Q563 149 591 125T676 100H852Q920
100 970 122T1065 208T1166 397Q1176 420 1193 428T1232 433Q1257 429 1267 411T1271 366L1185 37Q1175 -1 1158 -19T1108 -37Q1085 -37 1065 -28T1020 -9T961 0H165Q134 0 119 12T104 46Q104 84 146 97L203 110Q228 117 240 131T253 167V1233Q253 1255 241 1269T203
1290L146 1303Q104 1316 104 1354ZM727 1649H610L882 1490Q926 1465 951 1485Q962 1493 963 1508T947 1541L758 1749Q735 1773 716 1787T669 1801Q641 1801 622 1787T578 1749L390 1541Q373 1524 374 1509T386 1485Q411 1465 454 1490L727 1649Z" />
<glyph unicode="&#xcb;" horiz-adv-x="1321" d="M447 753H764Q826 753 851 777T890 871Q896 895 908 907T940 920Q978 922 989 877L1066 580Q1072 554 1066 539T1038 516Q1018 510 1001 516T971 541Q944 587 921 611T868 645T794 654H447V753ZM104 1354Q104 1376
119 1388T165 1400H925Q961 1400 984 1410T1028 1430T1076 1440Q1106 1440 1121 1423T1149 1367L1229 1086Q1236 1061 1228 1044T1198 1020Q1173 1012 1153 1021T1120 1055Q1082 1133 1050 1181T984 1255T913 1290T823 1300H563V199Q563 149 591 125T676 100H852Q920
100 970 122T1065 208T1166 397Q1176 420 1193 428T1232 433Q1257 429 1267 411T1271 366L1185 37Q1175 -1 1158 -19T1108 -37Q1085 -37 1065 -28T1020 -9T961 0H165Q134 0 119 12T104 46Q104 84 146 97L203 110Q228 117 240 131T253 167V1233Q253 1255 241 1269T203
1290L146 1303Q104 1316 104 1354ZM466 1487Q402 1487 364 1523T325 1619Q325 1679 363 1715T466 1751Q530 1751 568 1715T606 1619Q606 1560 568 1524T466 1487ZM870 1487Q806 1487 768 1523T730 1619Q730 1679 768 1715T870 1751Q936 1751 974 1715T1013 1619Q1013
1560 975 1524T870 1487Z" />
<glyph unicode="&#xcc;" horiz-adv-x="815" d="M562 167Q562 145 575 131T612 110L669 97Q711 84 711 46Q711 25 697 13T651 0H164Q133 0 119 12T104 46Q104 84 146 97L203 110Q227 117 240 131T253 167V1233Q253 1255 240 1269T203 1290L146 1303Q104 1316 104
1354Q104 1376 118 1388T164 1400H651Q682 1400 696 1388T711 1354Q711 1316 669 1303L612 1290Q588 1283 575 1269T562 1233V167ZM398 1705L520 1534Q529 1522 533 1509T527 1485Q518 1475 503 1474T473 1478L282 1566Q227 1589 194 1616T151 1689Q141 1726 163
1762T231 1808Q282 1819 322 1790T398 1705Z" />
<glyph unicode="&#xcd;" horiz-adv-x="815" d="M562 167Q562 145 575 131T612 110L669 97Q711 84 711 46Q711 25 697 13T651 0H164Q133 0 119 12T104 46Q104 84 146 97L203 110Q227 117 240 131T253 167V1233Q253 1255 240 1269T203 1290L146 1303Q104 1316 104
1354Q104 1376 118 1388T164 1400H651Q682 1400 696 1388T711 1354Q711 1316 669 1303L612 1290Q588 1283 575 1269T562 1233V167ZM477 1705Q514 1760 553 1789T644 1808Q690 1798 711 1762T724 1689Q715 1644 682 1617T592 1566L402 1478Q388 1473 373 1474T348
1485Q338 1496 342 1509T355 1534L477 1705Z" />
<glyph unicode="&#xce;" horiz-adv-x="815" d="M562 167Q562 145 575 131T612 110L669 97Q711 84 711 46Q711 25 697 13T651 0H164Q133 0 119 12T104 46Q104 84 146 97L203 110Q227 117 240 131T253 167V1233Q253 1255 240 1269T203 1290L146 1303Q104 1316 104
1354Q104 1376 118 1388T164 1400H651Q682 1400 696 1388T711 1354Q711 1316 669 1303L612 1290Q588 1283 575 1269T562 1233V167ZM466 1649H349L621 1490Q665 1465 690 1485Q701 1493 702 1508T686 1541L497 1749Q474 1773 455 1787T408 1801Q380 1801 361 1787T317
1749L129 1541Q112 1524 113 1509T125 1485Q150 1465 193 1490L466 1649Z" />
<glyph unicode="&#xcf;" horiz-adv-x="815" d="M562 167Q562 145 575 131T612 110L669 97Q711 84 711 46Q711 25 697 13T651 0H164Q133 0 119 12T104 46Q104 84 146 97L203 110Q227 117 240 131T253 167V1233Q253 1255 240 1269T203 1290L146 1303Q104 1316 104
1354Q104 1376 118 1388T164 1400H651Q682 1400 696 1388T711 1354Q711 1316 669 1303L612 1290Q588 1283 575 1269T562 1233V167ZM205 1487Q141 1487 103 1523T64 1619Q64 1679 102 1715T205 1751Q269 1751 307 1715T345 1619Q345 1560 307 1524T205 1487ZM609
1487Q545 1487 507 1523T469 1619Q469 1679 507 1715T609 1751Q675 1751 713 1715T752 1619Q752 1560 714 1524T609 1487Z" />
<glyph unicode="&#xd0;" horiz-adv-x="1597" d="M78 709Q78 726 89 736T118 746H794Q813 746 824 736T836 709Q836 691 825 681T794 671H117Q99 671 89 681T78 709ZM104 46Q104 84 146 97L203 110Q227 117 240 131T253 167V1233Q253 1255 240 1269T203 1290L146
1303Q104 1316 104 1354Q104 1376 118 1388T164 1400H695Q881 1400 1032 1346T1293 1192T1462 956T1521 656Q1521 467 1433 319T1181 85T786 0H164Q133 0 119 12T104 46ZM757 100Q891 100 990 162T1145 349T1200 662Q1200 810 1163 927T1055 1128T885 1256T660
1300H562V192Q562 144 589 122T671 100H757Z" />
<glyph unicode="&#xd1;" horiz-adv-x="1549" d="M541 46Q541 25 527 13T480 0H148Q117 1 102 13T86 46Q86 81 130 98L177 112Q223 129 240 150T257 218V1088Q257 1120 249 1140T212 1195L128 1301Q112 1323 106 1335T100 1359Q100 1379 113 1389T150 1400H379Q409
1400 428 1390T469 1351L1246 320L1199 204V1182Q1199 1228 1184 1249T1119 1288L1072 1302Q1028 1321 1028 1354Q1028 1376 1043 1388T1089 1400H1421Q1453 1400 1468 1388T1483 1354Q1483 1320 1439 1302L1392 1288Q1346 1272 1330 1251T1313 1182V286Q1313 254
1318 231T1339 188L1401 107Q1419 82 1423 70T1428 44Q1428 24 1414 12T1375 0H1109Q1061 0 1061 38Q1061 54 1055 68T1020 122L276 1112L371 1178V218Q371 173 386 152T450 112L497 98Q541 80 541 46ZM925 1488Q882 1488 846 1504T780 1541T721 1578T666 1594Q607
1594 596 1511Q587 1481 556 1481Q517 1481 517 1532Q517 1640 559 1695T673 1751Q716 1751 751 1735T817 1698T876 1661T932 1645Q992 1645 1002 1728Q1010 1759 1042 1759Q1081 1759 1081 1708Q1081 1599 1039 1544T925 1488Z" />
<glyph unicode="&#xd2;" horiz-adv-x="1594" d="M792 1435Q957 1435 1089 1381T1317 1228T1462 992T1513 691Q1513 534 1463 401T1318 170T1092 18T798 -37Q635 -37 503 17T277 170T131 406T80 708Q80 864 130 997T275 1228T500 1381T792 1435ZM1195 513Q1195
646 1171 767T1102 991T999 1170T871 1288T726 1331Q628 1331 555 1278T441 1126T401 886Q401 752 425 630T494 406T596 227T724 108T868 66Q968 66 1041 119T1155 271T1195 513ZM787 1705L909 1534Q918 1522 922 1509T916 1485Q907 1475 892 1474T862 1478L671
1566Q616 1589 583 1616T540 1689Q530 1726 552 1762T620 1808Q671 1819 711 1790T787 1705Z" />
<glyph unicode="&#xd3;" horiz-adv-x="1594" d="M792 1435Q957 1435 1089 1381T1317 1228T1462 992T1513 691Q1513 534 1463 401T1318 170T1092 18T798 -37Q635 -37 503 17T277 170T131 406T80 708Q80 864 130 997T275 1228T500 1381T792 1435ZM1195 513Q1195
646 1171 767T1102 991T999 1170T871 1288T726 1331Q628 1331 555 1278T441 1126T401 886Q401 752 425 630T494 406T596 227T724 108T868 66Q968 66 1041 119T1155 271T1195 513ZM866 1707Q903 1762 942 1791T1033 1810Q1079 1800 1100 1764T1113 1691Q1104 1646
1071 1619T981 1568L791 1480Q777 1475 762 1476T737 1487Q727 1498 731 1511T744 1536L866 1707Z" />
<glyph unicode="&#xd4;" horiz-adv-x="1594" d="M792 1435Q957 1435 1089 1381T1317 1228T1462 992T1513 691Q1513 534 1463 401T1318 170T1092 18T798 -37Q635 -37 503 17T277 170T131 406T80 708Q80 864 130 997T275 1228T500 1381T792 1435ZM1195 513Q1195
646 1171 767T1102 991T999 1170T871 1288T726 1331Q628 1331 555 1278T441 1126T401 886Q401 752 425 630T494 406T596 227T724 108T868 66Q968 66 1041 119T1155 271T1195 513ZM855 1649H738L1010 1490Q1054 1465 1079 1485Q1090 1493 1091 1508T1075 1541L886
1749Q863 1773 844 1787T797 1801Q769 1801 750 1787T706 1749L518 1541Q501 1524 502 1509T514 1485Q539 1465 582 1490L855 1649Z" />
<glyph unicode="&#xd5;" horiz-adv-x="1594" d="M792 1435Q957 1435 1089 1381T1317 1228T1462 992T1513 691Q1513 534 1463 401T1318 170T1092 18T798 -37Q635 -37 503 17T277 170T131 406T80 708Q80 864 130 997T275 1228T500 1381T792 1435ZM1195 513Q1195
646 1171 767T1102 991T999 1170T871 1288T726 1331Q628 1331 555 1278T441 1126T401 886Q401 752 425 630T494 406T596 227T724 108T868 66Q968 66 1041 119T1155 271T1195 513ZM923 1490Q880 1490 844 1506T778 1543T719 1580T664 1596Q605 1596 594 1513Q585
1483 554 1483Q515 1483 515 1534Q515 1642 557 1697T671 1753Q714 1753 749 1737T815 1700T874 1663T930 1647Q990 1647 1000 1730Q1008 1761 1040 1761Q1079 1761 1079 1710Q1079 1601 1037 1546T923 1490Z" />
<glyph unicode="&#xd6;" horiz-adv-x="1594" d="M792 1435Q957 1435 1089 1381T1317 1228T1462 992T1513 691Q1513 534 1463 401T1318 170T1092 18T798 -37Q635 -37 503 17T277 170T131 406T80 708Q80 864 130 997T275 1228T500 1381T792 1435ZM1195 513Q1195
646 1171 767T1102 991T999 1170T871 1288T726 1331Q628 1331 555 1278T441 1126T401 886Q401 752 425 630T494 406T596 227T724 108T868 66Q968 66 1041 119T1155 271T1195 513ZM595 1487Q531 1487 493 1523T454 1619Q454 1679 492 1715T595 1751Q659 1751 697
1715T735 1619Q735 1560 697 1524T595 1487ZM999 1487Q935 1487 897 1523T859 1619Q859 1679 897 1715T999 1751Q1065 1751 1103 1715T1142 1619Q1142 1560 1104 1524T999 1487Z" />
<glyph unicode="&#xd7;" horiz-adv-x="1037" d="M176 308Q132 348 178 390L774 1052Q794 1070 816 1071T862 1053Q885 1034 885 1016T863 975L268 313Q246 294 223 292T176 308ZM861 309Q840 291 815 293T771 311L177 973Q156 992 156 1013T179 1051Q220 1088
265 1048L863 385Q883 367 883 348T861 309Z" />
<glyph unicode="&#xd8;" horiz-adv-x="1594" d="M181 -51Q168 -42 167 -29T175 -3L1344 1442Q1354 1455 1368 1457T1396 1449Q1410 1439 1411 1427T1404 1402L234 -44Q223 -58 209 -59T181 -51ZM792 1435Q957 1435 1089 1381T1317 1228T1462 992T1513 691Q1513
534 1463 401T1318 170T1092 18T798 -37Q635 -37 503 17T277 170T131 406T80 708Q80 864 130 997T275 1228T500 1381T792 1435ZM1195 513Q1195 646 1171 767T1102 991T999 1170T871 1288T726 1331Q628 1331 555 1278T441 1126T401 886Q401 752 425 630T494 406T596
227T724 108T868 66Q968 66 1041 119T1155 271T1195 513Z" />
<glyph unicode="&#xd9;" horiz-adv-x="1501" d="M1185 599L1149 1191Q1147 1234 1128 1258T1069 1291L1022 1301Q991 1309 979 1321T967 1354Q967 1375 982 1387T1025 1400H1386Q1414 1400 1429 1388T1444 1354Q1444 1333 1432 1321T1389 1301L1345 1292Q1295
1280 1278 1254T1264 1184L1301 600Q1305 549 1307 500T1311 398Q1314 273 1255 175T1077 21T774 -36Q584 -36 457 17T266 167T204 395Q204 419 206 455T210 538T217 643L250 1227Q252 1256 238 1270T188 1291L137 1301Q82 1313 82 1353Q82 1375 97 1387T141 1400H668Q696
1400 711 1388T726 1353Q726 1333 714 1321T671 1301L619 1291Q590 1286 577 1272T561 1229L528 644Q524 575 522 518T519 417Q517 244 603 162T844 80Q954 80 1033 118T1154 228T1194 399Q1192 468 1190 514T1185 599ZM824 1705L946 1534Q955 1522 959 1509T953
1485Q944 1475 929 1474T899 1478L708 1566Q653 1589 620 1616T577 1689Q567 1726 589 1762T657 1808Q708 1819 748 1790T824 1705Z" />
<glyph unicode="&#xda;" horiz-adv-x="1501" d="M1185 599L1149 1191Q1147 1234 1128 1258T1069 1291L1022 1301Q991 1309 979 1321T967 1354Q967 1375 982 1387T1025 1400H1386Q1414 1400 1429 1388T1444 1354Q1444 1333 1432 1321T1389 1301L1345 1292Q1295
1280 1278 1254T1264 1184L1301 600Q1305 549 1307 500T1311 398Q1314 273 1255 175T1077 21T774 -36Q584 -36 457 17T266 167T204 395Q204 419 206 455T210 538T217 643L250 1227Q252 1256 238 1270T188 1291L137 1301Q82 1313 82 1353Q82 1375 97 1387T141 1400H668Q696
1400 711 1388T726 1353Q726 1333 714 1321T671 1301L619 1291Q590 1286 577 1272T561 1229L528 644Q524 575 522 518T519 417Q517 244 603 162T844 80Q954 80 1033 118T1154 228T1194 399Q1192 468 1190 514T1185 599ZM903 1705Q940 1760 979 1789T1070 1808Q1116
1798 1137 1762T1150 1689Q1141 1644 1108 1617T1018 1566L828 1478Q814 1473 799 1474T774 1485Q764 1496 768 1509T781 1534L903 1705Z" />
<glyph unicode="&#xdb;" horiz-adv-x="1501" d="M1185 599L1149 1191Q1147 1234 1128 1258T1069 1291L1022 1301Q991 1309 979 1321T967 1354Q967 1375 982 1387T1025 1400H1386Q1414 1400 1429 1388T1444 1354Q1444 1333 1432 1321T1389 1301L1345 1292Q1295
1280 1278 1254T1264 1184L1301 600Q1305 549 1307 500T1311 398Q1314 273 1255 175T1077 21T774 -36Q584 -36 457 17T266 167T204 395Q204 419 206 455T210 538T217 643L250 1227Q252 1256 238 1270T188 1291L137 1301Q82 1313 82 1353Q82 1375 97 1387T141 1400H668Q696
1400 711 1388T726 1353Q726 1333 714 1321T671 1301L619 1291Q590 1286 577 1272T561 1229L528 644Q524 575 522 518T519 417Q517 244 603 162T844 80Q954 80 1033 118T1154 228T1194 399Q1192 468 1190 514T1185 599ZM893 1649H776L1048 1490Q1092 1465 1117
1485Q1128 1493 1129 1508T1113 1541L924 1749Q901 1773 882 1787T835 1801Q807 1801 788 1787T744 1749L556 1541Q539 1524 540 1509T552 1485Q577 1465 620 1490L893 1649Z" />
<glyph unicode="&#xdc;" horiz-adv-x="1501" d="M1185 599L1149 1191Q1147 1234 1128 1258T1069 1291L1022 1301Q991 1309 979 1321T967 1354Q967 1375 982 1387T1025 1400H1386Q1414 1400 1429 1388T1444 1354Q1444 1333 1432 1321T1389 1301L1345 1292Q1295
1280 1278 1254T1264 1184L1301 600Q1305 549 1307 500T1311 398Q1314 273 1255 175T1077 21T774 -36Q584 -36 457 17T266 167T204 395Q204 419 206 455T210 538T217 643L250 1227Q252 1256 238 1270T188 1291L137 1301Q82 1313 82 1353Q82 1375 97 1387T141 1400H668Q696
1400 711 1388T726 1353Q726 1333 714 1321T671 1301L619 1291Q590 1286 577 1272T561 1229L528 644Q524 575 522 518T519 417Q517 244 603 162T844 80Q954 80 1033 118T1154 228T1194 399Q1192 468 1190 514T1185 599ZM631 1487Q567 1487 529 1523T490 1619Q490
1679 528 1715T631 1751Q695 1751 733 1715T771 1619Q771 1560 733 1524T631 1487ZM1035 1487Q971 1487 933 1523T895 1619Q895 1679 933 1715T1035 1751Q1101 1751 1139 1715T1178 1619Q1178 1560 1140 1524T1035 1487Z" />
<glyph unicode="&#xdd;" horiz-adv-x="1381" d="M836 447L592 404L167 1229Q151 1262 138 1275T102 1296L71 1306Q48 1313 39 1325T30 1354Q30 1376 45 1388T92 1400H571Q603 1400 619 1388T635 1354Q635 1316 587 1303L539 1294Q502 1285 495 1269T504 1216L830
536L727 482L1071 1174Q1093 1219 1083 1250T1024 1295L973 1306Q956 1311 946 1323T936 1354Q936 1376 951 1388T997 1400H1300Q1331 1400 1346 1388T1361 1354Q1361 1337 1353 1326T1322 1306L1306 1300Q1286 1292 1269 1279T1235 1239T1194 1164L836 447ZM552
512H861V167Q861 145 874 131T911 110L968 97Q1010 84 1010 46Q1010 25 996 13T950 0H463Q432 0 418 12T403 46Q403 84 445 97L502 110Q527 117 539 131T552 167V512ZM846 1705Q883 1760 922 1789T1013 1808Q1059 1798 1080 1762T1093 1689Q1084 1644 1051 1617T961
1566L771 1478Q757 1473 742 1474T717 1485Q707 1496 711 1509T724 1534L846 1705Z" />
<glyph unicode="&#xde;" horiz-adv-x="1405" d="M431 1036V1124H747Q922 1124 1053 1072T1257 924T1331 700Q1331 573 1263 483T1071 346T782 298Q703 298 642 308T529 339T429 387L442 464Q480 441 521 424T611 396T717 386Q840 386 915 462T991 698Q991 853
901 944T635 1036H431ZM556 167Q556 142 570 130T606 110L663 93Q683 83 694 72T705 43Q705 23 691 12T645 0H164Q133 0 119 12T104 46Q104 81 146 97L203 110Q226 116 239 129T253 167V1233Q253 1258 240 1271T203 1290L146 1303Q104 1319 104 1354Q104 1376 118
1388T164 1400H645Q676 1400 690 1389T705 1357Q705 1339 694 1329T663 1307L606 1290Q584 1282 570 1270T556 1233V167Z" />
<glyph unicode="&#xdf;" horiz-adv-x="1393" d="M1341 353Q1341 481 1277 578T1094 730T813 783L802 759Q940 770 1038 819T1188 946T1241 1123Q1241 1217 1192 1291T1042 1410T785 1454Q604 1454 482 1389T298 1205T237 927V871L279 926H125Q100 926 86 917T72
889Q72 870 87 858T132 836L187 820Q209 814 221 802T234 763V156Q234 131 221 116T186 96L138 85Q94 74 94 38Q94 22 108 11T148 0H437Q476 0 491 20T506 78V956Q506 1156 572 1261T767 1367Q860 1367 915 1305T971 1129Q971 1053 948 989T866 880T706 811Q673
798 662 784T650 753Q650 730 665 718T721 698Q824 687 903 639T1026 510T1071 321Q1071 210 1027 153T909 95Q852 95 813 128T745 237L720 293Q710 313 696 325T661 337Q641 337 629 323T617 285V32Q617 9 630 -6T667 -21Q684 -21 699 -11T729 13T757 37T784 47Q799
47 823 29T890 -8T998 -27Q1099 -27 1176 20T1297 153T1341 353Z" />
<glyph unicode="&#xe0;" horiz-adv-x="1121" d="M685 127V148L666 152V749Q666 819 631 857T530 896Q471 896 439 871T407 809V721Q407 661 367 629T254 596Q192 596 160 625T128 706Q128 769 180 829T333 929T582 969Q766 969 855 895T945 693V173Q945 145 956
131T989 117Q1011 117 1022 127T1041 149Q1046 156 1052 160T1067 165Q1079 165 1085 156T1091 132Q1091 98 1068 62T998 1T881 -25Q792 -25 739 15T685 127ZM86 209Q86 334 197 411T509 488Q574 488 626 477T717 447L695 383Q661 399 626 408T549 417Q466 417
420 375T373 257Q373 182 412 142T515 102Q569 102 618 126T702 195L724 138Q669 60 577 18T380 -25Q249 -25 168 40T86 209ZM564 1297L658 1102Q666 1089 668 1076T660 1051Q650 1042 634 1042T603 1049L425 1173Q372 1203 343 1235T307 1311Q302 1351 327 1386T403
1428Q459 1435 496 1399T564 1297Z" />
<glyph unicode="&#xe1;" horiz-adv-x="1121" d="M685 127V148L666 152V749Q666 819 631 857T530 896Q471 896 439 871T407 809V721Q407 661 367 629T254 596Q192 596 160 625T128 706Q128 769 180 829T333 929T582 969Q766 969 855 895T945 693V173Q945 145 956
131T989 117Q1011 117 1022 127T1041 149Q1046 156 1052 160T1067 165Q1079 165 1085 156T1091 132Q1091 98 1068 62T998 1T881 -25Q792 -25 739 15T685 127ZM86 209Q86 334 197 411T509 488Q574 488 626 477T717 447L695 383Q661 399 626 408T549 417Q466 417
420 375T373 257Q373 182 412 142T515 102Q569 102 618 126T702 195L724 138Q669 60 577 18T380 -25Q249 -25 168 40T86 209ZM608 1297Q638 1362 675 1398T769 1428Q819 1422 844 1387T864 1311Q858 1267 829 1235T746 1173L569 1049Q554 1042 539 1042T512 1051Q501
1062 503 1075T514 1102L608 1297Z" />
<glyph unicode="&#xe2;" horiz-adv-x="1121" d="M685 127V148L666 152V749Q666 819 631 857T530 896Q471 896 439 871T407 809V721Q407 661 367 629T254 596Q192 596 160 625T128 706Q128 769 180 829T333 929T582 969Q766 969 855 895T945 693V173Q945 145 956
131T989 117Q1011 117 1022 127T1041 149Q1046 156 1052 160T1067 165Q1079 165 1085 156T1091 132Q1091 98 1068 62T998 1T881 -25Q792 -25 739 15T685 127ZM86 209Q86 334 197 411T509 488Q574 488 626 477T717 447L695 383Q661 399 626 408T549 417Q466 417
420 375T373 257Q373 182 412 142T515 102Q569 102 618 126T702 195L724 138Q669 60 577 18T380 -25Q249 -25 168 40T86 209ZM621 1255H502L780 1052Q800 1039 818 1039T849 1047Q860 1056 860 1071T844 1105L652 1349Q630 1375 611 1388T562 1402Q533 1402 512
1389T469 1349L277 1105Q262 1087 262 1072T273 1047Q285 1038 304 1038T342 1052L621 1255Z" />
<glyph unicode="&#xe3;" horiz-adv-x="1121" d="M685 127V148L666 152V749Q666 819 631 857T530 896Q471 896 439 871T407 809V721Q407 661 367 629T254 596Q192 596 160 625T128 706Q128 769 180 829T333 929T582 969Q766 969 855 895T945 693V173Q945 145 956
131T989 117Q1011 117 1022 127T1041 149Q1046 156 1052 160T1067 165Q1079 165 1085 156T1091 132Q1091 98 1068 62T998 1T881 -25Q792 -25 739 15T685 127ZM86 209Q86 334 197 411T509 488Q574 488 626 477T717 447L695 383Q661 399 626 408T549 417Q466 417
420 375T373 257Q373 182 412 142T515 102Q569 102 618 126T702 195L724 138Q669 60 577 18T380 -25Q249 -25 168 40T86 209ZM690 1051Q646 1051 610 1069T542 1112T483 1156T426 1175Q394 1175 378 1151T355 1079Q346 1048 315 1048Q275 1048 275 1100Q275 1217
317 1276T434 1336Q478 1336 514 1317T581 1274T640 1231T698 1212Q730 1212 746 1236T769 1309Q777 1339 809 1339Q849 1339 849 1288Q849 1171 806 1111T690 1051Z" />
<glyph unicode="&#xe4;" horiz-adv-x="1121" d="M685 127V148L666 152V749Q666 819 631 857T530 896Q471 896 439 871T407 809V721Q407 661 367 629T254 596Q192 596 160 625T128 706Q128 769 180 829T333 929T582 969Q766 969 855 895T945 693V173Q945 145 956
131T989 117Q1011 117 1022 127T1041 149Q1046 156 1052 160T1067 165Q1079 165 1085 156T1091 132Q1091 98 1068 62T998 1T881 -25Q792 -25 739 15T685 127ZM86 209Q86 334 197 411T509 488Q574 488 626 477T717 447L695 383Q661 399 626 408T549 417Q466 417
420 375T373 257Q373 182 412 142T515 102Q569 102 618 126T702 195L724 138Q669 60 577 18T380 -25Q249 -25 168 40T86 209ZM357 1054Q293 1054 255 1091T216 1188Q216 1250 254 1287T357 1325Q422 1325 460 1288T498 1188Q498 1128 460 1091T357 1054ZM764 1054Q700
1054 661 1091T622 1188Q622 1250 661 1287T764 1325Q831 1325 869 1288T907 1188Q907 1128 869 1091T764 1054Z" />
<glyph unicode="&#xe5;" horiz-adv-x="1121" d="M685 127V148L666 152V749Q666 819 631 857T530 896Q471 896 439 871T407 809V721Q407 661 367 629T254 596Q192 596 160 625T128 706Q128 769 180 829T333 929T582 969Q766 969 855 895T945 693V173Q945 145 956
131T989 117Q1011 117 1022 127T1041 149Q1046 156 1052 160T1067 165Q1079 165 1085 156T1091 132Q1091 98 1068 62T998 1T881 -25Q792 -25 739 15T685 127ZM86 209Q86 334 197 411T509 488Q574 488 626 477T717 447L695 383Q661 399 626 408T549 417Q466 417
420 375T373 257Q373 182 412 142T515 102Q569 102 618 126T702 195L724 138Q669 60 577 18T380 -25Q249 -25 168 40T86 209ZM561 1038Q469 1038 405 1089T341 1227Q341 1314 405 1365T561 1416Q656 1416 719 1364T783 1227Q783 1142 720 1090T561 1038ZM562 1345Q522
1345 494 1314T466 1227Q466 1173 494 1141T562 1109Q604 1109 630 1141T657 1227Q657 1282 631 1313T562 1345Z" />
<glyph unicode="&#xe6;" horiz-adv-x="1668" d="M694 388Q658 404 622 413T542 422Q462 422 417 379T371 258Q371 179 411 137T516 95Q581 95 638 130T738 220L787 163Q729 78 626 28T397 -23Q254 -23 172 41T90 215Q90 337 201 413T514 489Q577 489 627 478T715
449L694 388ZM1583 582Q1583 536 1553 512T1464 487H872V555H1253Q1304 555 1304 601Q1304 734 1256 803T1133 872Q1074 872 1028 836T956 729T930 552Q930 354 1019 255T1252 156Q1344 156 1413 202T1510 320Q1535 346 1552 344Q1565 344 1573 336T1581 310Q1577
219 1523 143T1376 22T1161 -24Q1003 -24 893 35T724 201T666 446V746Q666 817 631 855T531 893Q470 893 438 866T406 799V727Q406 670 366 636T255 601Q198 601 167 629T136 710Q136 771 185 830T330 929T559 968Q678 968 754 922T868 790L817 786Q877 870 966
919T1168 969Q1294 969 1387 918T1531 780T1583 582Z" />
<glyph unicode="&#xe7;" horiz-adv-x="1047" d="M979 695Q979 638 940 599T834 560Q769 560 736 595T702 689V721Q702 789 660 830T547 872Q484 872 434 834T355 725T326 555Q326 430 368 344T486 213T657 168Q742 168 805 203T906 301Q923 321 934 328T956 335Q972
335 979 321T985 287Q981 202 926 131T779 18T566 -25Q421 -25 310 34T135 201T71 453Q71 600 134 717T313 902T584 970Q706 970 794 933T931 833T979 695ZM520 12H596L516 -141L467 -128Q485 -124 506 -123T557 -121Q652 -121 704 -162T757 -275Q757 -351 698
-397T532 -443Q444 -443 389 -411T327 -334Q327 -317 337 -306T361 -295Q374 -294 384 -299T404 -314Q420 -343 447 -355T505 -368Q585 -368 585 -274Q585 -232 563 -209T496 -185H465Q442 -185 437 -172T440 -139L520 12Z" />
<glyph unicode="&#xe8;" horiz-adv-x="1066" d="M996 591Q996 538 966 510T878 481H254V557H663Q714 557 714 603Q714 735 666 803T537 872Q475 872 427 834T352 726T325 555Q325 362 415 265T657 168Q745 168 811 203T915 303Q933 323 943 330T965 337Q981 337
988 323T995 288Q991 204 935 133T784 18T566 -25Q421 -25 309 34T134 201T70 453Q70 604 130 721T304 904T574 970Q708 970 802 922T946 788T996 591ZM560 1297L654 1102Q662 1089 664 1076T656 1051Q646 1042 630 1042T599 1049L421 1173Q368 1203 339 1235T303
1311Q298 1351 323 1386T399 1428Q455 1435 492 1399T560 1297Z" />
<glyph unicode="&#xe9;" horiz-adv-x="1066" d="M996 591Q996 538 966 510T878 481H254V557H663Q714 557 714 603Q714 735 666 803T537 872Q475 872 427 834T352 726T325 555Q325 362 415 265T657 168Q745 168 811 203T915 303Q933 323 943 330T965 337Q981 337
988 323T995 288Q991 204 935 133T784 18T566 -25Q421 -25 309 34T134 201T70 453Q70 604 130 721T304 904T574 970Q708 970 802 922T946 788T996 591ZM604 1297Q634 1362 671 1398T765 1428Q815 1422 840 1387T860 1311Q854 1267 825 1235T742 1173L565 1049Q550
1042 535 1042T508 1051Q497 1062 499 1075T510 1102L604 1297Z" />
<glyph unicode="&#xea;" horiz-adv-x="1066" d="M996 591Q996 538 966 510T878 481H254V557H663Q714 557 714 603Q714 735 666 803T537 872Q475 872 427 834T352 726T325 555Q325 362 415 265T657 168Q745 168 811 203T915 303Q933 323 943 330T965 337Q981 337
988 323T995 288Q991 204 935 133T784 18T566 -25Q421 -25 309 34T134 201T70 453Q70 604 130 721T304 904T574 970Q708 970 802 922T946 788T996 591ZM618 1255H499L777 1052Q797 1039 815 1039T846 1047Q857 1056 857 1071T841 1105L649 1349Q627 1375 608 1388T559
1402Q530 1402 509 1389T466 1349L274 1105Q259 1087 259 1072T270 1047Q282 1038 301 1038T339 1052L618 1255Z" />
<glyph unicode="&#xeb;" horiz-adv-x="1066" d="M996 591Q996 538 966 510T878 481H254V557H663Q714 557 714 603Q714 735 666 803T537 872Q475 872 427 834T352 726T325 555Q325 362 415 265T657 168Q745 168 811 203T915 303Q933 323 943 330T965 337Q981 337
988 323T995 288Q991 204 935 133T784 18T566 -25Q421 -25 309 34T134 201T70 453Q70 604 130 721T304 904T574 970Q708 970 802 922T946 788T996 591ZM354 1054Q290 1054 252 1091T213 1188Q213 1250 251 1287T354 1325Q419 1325 457 1288T495 1188Q495 1128 457
1091T354 1054ZM761 1054Q697 1054 658 1091T619 1188Q619 1250 658 1287T761 1325Q828 1325 866 1288T904 1188Q904 1128 866 1091T761 1054Z" />
<glyph unicode="&#xec;" horiz-adv-x="630" d="M468 916V160Q468 130 477 116T504 94L541 84Q558 78 567 68T577 41Q577 22 563 11T524 0H133Q109 0 95 11T81 41Q81 56 90 66T116 84L155 94Q172 102 181 115T190 160V737Q190 763 182 773T158 788L105 791Q88 796
80 804T71 827Q71 843 82 853T117 873L328 944Q361 955 380 959T420 964Q442 964 455 951T468 916ZM564 1297L658 1102Q666 1089 668 1076T660 1051Q650 1042 634 1042T603 1049L425 1173Q372 1203 343 1235T307 1311Q302 1351 327 1386T403 1428Q459 1435 496
1399T564 1297Z" />
<glyph unicode="&#xed;" horiz-adv-x="630" d="M468 916V160Q468 130 477 116T504 94L541 84Q558 78 567 68T577 41Q577 22 563 11T524 0H133Q109 0 95 11T81 41Q81 56 90 66T116 84L155 94Q172 102 181 115T190 160V737Q190 763 182 773T158 788L105 791Q88 796
80 804T71 827Q71 843 82 853T117 873L328 944Q361 955 380 959T420 964Q442 964 455 951T468 916ZM352 1297Q382 1362 419 1398T513 1428Q563 1422 588 1387T608 1311Q602 1267 573 1235T490 1173L313 1049Q298 1042 283 1042T256 1051Q245 1062 247 1075T258
1102L352 1297Z" />
<glyph unicode="&#xee;" horiz-adv-x="630" d="M468 916V160Q468 130 477 116T504 94L541 84Q558 78 567 68T577 41Q577 22 563 11T524 0H133Q109 0 95 11T81 41Q81 56 90 66T116 84L155 94Q172 102 181 115T190 160V737Q190 763 182 773T158 788L105 791Q88 796
80 804T71 827Q71 843 82 853T117 873L328 944Q361 955 380 959T420 964Q442 964 455 951T468 916ZM620 1255H513L763 1052Q781 1039 798 1039T826 1047Q835 1056 835 1071T821 1105L648 1349Q628 1375 611 1388T567 1402Q541 1402 522 1389T484 1349L311 1105Q297
1087 297 1072T307 1047Q318 1038 335 1038T369 1052L620 1255Z" />
<glyph unicode="&#xef;" horiz-adv-x="630" d="M468 916V160Q468 130 477 116T504 94L541 84Q558 78 567 68T577 41Q577 22 563 11T524 0H133Q109 0 95 11T81 41Q81 56 90 66T116 84L155 94Q172 102 181 115T190 160V737Q190 763 182 773T158 788L105 791Q88 796
80 804T71 827Q71 843 82 853T117 873L328 944Q361 955 380 959T420 964Q442 964 455 951T468 916ZM396 1309Q345 1309 314 1346T283 1443Q283 1505 314 1542T396 1580Q448 1580 478 1543T509 1443Q509 1383 479 1346T396 1309ZM722 1309Q671 1309 640 1346T608
1443Q608 1505 639 1542T722 1580Q775 1580 805 1543T836 1443Q836 1383 806 1346T722 1309Z" />
<glyph unicode="&#xf0;" horiz-adv-x="1196" d="M1126 566Q1126 375 1060 243T874 42T595 -27Q433 -27 316 39T135 225T72 498Q72 628 129 735T287 907T524 972Q606 972 675 944T793 858T862 713L838 703Q812 853 749 986T590 1219T376 1371Q341 1388 327 1404T315
1440Q317 1462 338 1475T406 1484Q553 1454 683 1370T913 1162T1069 886T1126 566ZM366 562Q366 438 403 336T503 174T640 114Q696 114 744 147T820 246T849 413Q849 540 808 634T702 781T570 834Q506 834 460 801T390 708T366 562ZM305 1100Q296 1121 301 1138T329
1165L915 1445Q941 1457 958 1451T984 1426Q1005 1382 956 1359L370 1079Q348 1069 331 1076T305 1100Z" />
<glyph unicode="&#xf1;" horiz-adv-x="1277" d="M471 902V160Q471 129 480 115T507 94L543 84Q575 71 575 44Q575 0 519 0H133Q105 0 92 11T79 41Q79 56 87 66T115 84L155 94Q173 101 181 115T190 160V733Q190 759 183 770T158 784L105 788Q87 792 79 801T71 824Q71
841 80 851T117 871L303 939Q341 953 364 959T408 965Q439 965 455 948T471 902ZM441 679L395 726L434 761Q560 874 650 922T820 970Q944 970 1012 888T1095 668L1151 163Q1154 130 1162 115T1189 94L1224 84Q1243 77 1252 67T1261 41Q1261 22 1248 11T1206 0H816Q761
0 761 44Q761 71 792 84L830 94Q849 101 859 116T866 163L814 627Q804 714 770 758T668 802Q626 802 580 780T481 714L441 679ZM785 1051Q741 1051 705 1069T637 1112T578 1156T521 1175Q489 1175 473 1151T450 1079Q441 1048 410 1048Q370 1048 370 1100Q370 1217
412 1276T529 1336Q573 1336 609 1317T676 1274T735 1231T793 1212Q825 1212 841 1236T864 1309Q872 1339 904 1339Q944 1339 944 1288Q944 1171 901 1111T785 1051Z" />
<glyph unicode="&#xf2;" horiz-adv-x="1191" d="M600 970Q755 970 872 907T1054 732T1120 470Q1120 329 1053 217T866 40T590 -25Q436 -25 320 39T137 215T71 475Q71 618 138 729T325 905T600 970ZM671 80Q739 90 780 142T833 287T821 508Q798 637 754 720T650
841T520 866Q451 855 410 803T358 659T370 437Q393 309 437 226T541 105T671 80ZM598 1297L692 1102Q700 1089 702 1076T694 1051Q684 1042 668 1042T637 1049L459 1173Q406 1203 377 1235T341 1311Q336 1351 361 1386T437 1428Q493 1435 530 1399T598 1297Z" />
<glyph unicode="&#xf3;" horiz-adv-x="1191" d="M600 970Q755 970 872 907T1054 732T1120 470Q1120 329 1053 217T866 40T590 -25Q436 -25 320 39T137 215T71 475Q71 618 138 729T325 905T600 970ZM671 80Q739 90 780 142T833 287T821 508Q798 637 754 720T650
841T520 866Q451 855 410 803T358 659T370 437Q393 309 437 226T541 105T671 80ZM642 1297Q672 1362 709 1398T803 1428Q853 1422 878 1387T898 1311Q892 1267 863 1235T780 1173L603 1049Q588 1042 573 1042T546 1051Q535 1062 537 1075T548 1102L642 1297Z" />
<glyph unicode="&#xf4;" horiz-adv-x="1191" d="M600 970Q755 970 872 907T1054 732T1120 470Q1120 329 1053 217T866 40T590 -25Q436 -25 320 39T137 215T71 475Q71 618 138 729T325 905T600 970ZM671 80Q739 90 780 142T833 287T821 508Q798 637 754 720T650
841T520 866Q451 855 410 803T358 659T370 437Q393 309 437 226T541 105T671 80ZM656 1255H537L815 1052Q835 1039 853 1039T884 1047Q895 1056 895 1071T879 1105L687 1349Q665 1375 646 1388T597 1402Q568 1402 547 1389T504 1349L312 1105Q297 1087 297 1072T308
1047Q320 1038 339 1038T377 1052L656 1255Z" />
<glyph unicode="&#xf5;" horiz-adv-x="1191" d="M600 970Q755 970 872 907T1054 732T1120 470Q1120 329 1053 217T866 40T590 -25Q436 -25 320 39T137 215T71 475Q71 618 138 729T325 905T600 970ZM671 80Q739 90 780 142T833 287T821 508Q798 637 754 720T650
841T520 866Q451 855 410 803T358 659T370 437Q393 309 437 226T541 105T671 80ZM724 1051Q680 1051 644 1069T576 1112T517 1156T460 1175Q428 1175 412 1151T389 1079Q380 1048 349 1048Q309 1048 309 1100Q309 1217 351 1276T468 1336Q512 1336 548 1317T615
1274T674 1231T732 1212Q764 1212 780 1236T803 1309Q811 1339 843 1339Q883 1339 883 1288Q883 1171 840 1111T724 1051Z" />
<glyph unicode="&#xf6;" horiz-adv-x="1191" d="M600 970Q755 970 872 907T1054 732T1120 470Q1120 329 1053 217T866 40T590 -25Q436 -25 320 39T137 215T71 475Q71 618 138 729T325 905T600 970ZM671 80Q739 90 780 142T833 287T821 508Q798 637 754 720T650
841T520 866Q451 855 410 803T358 659T370 437Q393 309 437 226T541 105T671 80ZM391 1054Q327 1054 289 1091T250 1188Q250 1250 288 1287T391 1325Q456 1325 494 1288T532 1188Q532 1128 494 1091T391 1054ZM798 1054Q734 1054 695 1091T656 1188Q656 1250 695
1287T798 1325Q865 1325 903 1288T941 1188Q941 1128 903 1091T798 1054Z" />
<glyph unicode="&#xf7;" horiz-adv-x="1121" d="M550 971Q521 971 497 984T458 1021T444 1071Q444 1099 458 1121T496 1157T550 1171Q581 1171 605 1158T643 1122T657 1071Q657 1044 643 1021T605 985T550 971ZM129 682Q129 709 146 724T187 739H950Q973 739 989
724T1006 682Q1006 655 990 640T950 625H186Q164 625 147 640T129 682ZM550 203Q521 203 497 216T458 253T444 303Q444 331 458 353T496 389T550 403Q581 403 605 390T643 354T657 303Q657 276 643 253T605 217T550 203Z" />
<glyph unicode="&#xf8;" horiz-adv-x="1180" d="M179 -59Q166 -52 163 -38T169 -11L331 215L351 227L794 776L797 792L947 996Q957 1009 970 1012T998 1007Q1012 999 1016 987T1011 961L849 738L834 733L396 190L390 172L231 -47Q210 -75 179 -59ZM600 970Q755
970 872 907T1054 732T1120 470Q1120 329 1053 217T866 40T590 -25Q436 -25 320 39T137 215T71 475Q71 618 138 729T325 905T600 970ZM671 80Q739 90 780 142T833 287T821 508Q798 637 754 720T650 841T520 866Q451 855 410 803T358 659T370 437Q393 309 437 226T541
105T671 80Z" />
<glyph unicode="&#xf9;" horiz-adv-x="1257" d="M804 144V193L795 197V733Q795 758 788 769T763 784L710 788Q692 792 684 801T676 824Q676 840 685 850T722 870L908 938Q946 952 969 958T1013 965Q1044 965 1060 948T1077 901V160Q1077 129 1085 115T1112 94L1150
84Q1169 78 1178 68T1187 41Q1187 22 1174 11T1132 0H931Q877 0 841 40T804 144ZM165 278V733Q165 758 157 769T132 784L79 788Q61 792 53 801T45 824Q45 840 55 850T91 870L278 938Q317 953 340 959T380 965Q413 965 429 948T446 901V319Q446 231 488 188T602
144Q646 144 696 165T799 232L839 267L885 220L846 185Q720 69 626 22T449 -25Q321 -25 243 57T165 278ZM614 1297L708 1102Q716 1089 718 1076T710 1051Q700 1042 684 1042T653 1049L475 1173Q422 1203 393 1235T357 1311Q352 1351 377 1386T453 1428Q509 1435
546 1399T614 1297Z" />
<glyph unicode="&#xfa;" horiz-adv-x="1257" d="M804 144V193L795 197V733Q795 758 788 769T763 784L710 788Q692 792 684 801T676 824Q676 840 685 850T722 870L908 938Q946 952 969 958T1013 965Q1044 965 1060 948T1077 901V160Q1077 129 1085 115T1112 94L1150
84Q1169 78 1178 68T1187 41Q1187 22 1174 11T1132 0H931Q877 0 841 40T804 144ZM165 278V733Q165 758 157 769T132 784L79 788Q61 792 53 801T45 824Q45 840 55 850T91 870L278 938Q317 953 340 959T380 965Q413 965 429 948T446 901V319Q446 231 488 188T602
144Q646 144 696 165T799 232L839 267L885 220L846 185Q720 69 626 22T449 -25Q321 -25 243 57T165 278ZM658 1297Q688 1362 725 1398T819 1428Q869 1422 894 1387T914 1311Q908 1267 879 1235T796 1173L619 1049Q604 1042 589 1042T562 1051Q551 1062 553 1075T564
1102L658 1297Z" />
<glyph unicode="&#xfb;" horiz-adv-x="1257" d="M804 144V193L795 197V733Q795 758 788 769T763 784L710 788Q692 792 684 801T676 824Q676 840 685 850T722 870L908 938Q946 952 969 958T1013 965Q1044 965 1060 948T1077 901V160Q1077 129 1085 115T1112 94L1150
84Q1169 78 1178 68T1187 41Q1187 22 1174 11T1132 0H931Q877 0 841 40T804 144ZM165 278V733Q165 758 157 769T132 784L79 788Q61 792 53 801T45 824Q45 840 55 850T91 870L278 938Q317 953 340 959T380 965Q413 965 429 948T446 901V319Q446 231 488 188T602
144Q646 144 696 165T799 232L839 267L885 220L846 185Q720 69 626 22T449 -25Q321 -25 243 57T165 278ZM672 1255H553L831 1052Q851 1039 869 1039T900 1047Q911 1056 911 1071T895 1105L703 1349Q681 1375 662 1388T613 1402Q584 1402 563 1389T520 1349L328
1105Q313 1087 313 1072T324 1047Q336 1038 355 1038T393 1052L672 1255Z" />
<glyph unicode="&#xfc;" horiz-adv-x="1257" d="M804 144V193L795 197V733Q795 758 788 769T763 784L710 788Q692 792 684 801T676 824Q676 840 685 850T722 870L908 938Q946 952 969 958T1013 965Q1044 965 1060 948T1077 901V160Q1077 129 1085 115T1112 94L1150
84Q1169 78 1178 68T1187 41Q1187 22 1174 11T1132 0H931Q877 0 841 40T804 144ZM165 278V733Q165 758 157 769T132 784L79 788Q61 792 53 801T45 824Q45 840 55 850T91 870L278 938Q317 953 340 959T380 965Q413 965 429 948T446 901V319Q446 231 488 188T602
144Q646 144 696 165T799 232L839 267L885 220L846 185Q720 69 626 22T449 -25Q321 -25 243 57T165 278ZM408 1054Q344 1054 306 1091T267 1188Q267 1250 305 1287T408 1325Q473 1325 511 1288T549 1188Q549 1128 511 1091T408 1054ZM815 1054Q751 1054 712 1091T673
1188Q673 1250 712 1287T815 1325Q882 1325 920 1288T958 1188Q958 1128 920 1091T815 1054Z" />
<glyph unicode="&#xfd;" horiz-adv-x="1141" d="M694 146L544 -124L135 783Q118 823 100 837T42 863Q23 869 15 879T7 905Q7 925 21 936T60 947H508Q533 947 547 936T561 905Q561 889 552 879T520 864L483 857Q437 847 430 823T447 739L694 146ZM504 -159L568
-4L603 66L867 727Q891 786 883 814T829 852L788 861Q766 867 757 878T747 905Q747 925 761 936T799 947H1083Q1108 947 1122 936T1136 905Q1136 891 1128 881T1097 862Q1053 848 1029 825T983 745L626 -137Q570 -271 522 -345T419 -447T286 -476Q170 -476 103
-415T35 -263Q35 -198 66 -162T150 -126Q201 -126 228 -156T273 -239L286 -277Q294 -313 312 -331T353 -349Q378 -349 399 -335T445 -280T504 -159ZM685 1297Q715 1362 752 1398T846 1428Q896 1422 921 1387T941 1311Q935 1267 906 1235T823 1173L646 1049Q631
1042 616 1042T589 1051Q578 1062 580 1075T591 1102L685 1297Z" />
<glyph unicode="&#xfe;" horiz-adv-x="1223" d="M437 1460V-313Q437 -344 446 -358T473 -379L525 -389Q543 -396 552 -406T562 -432Q562 -451 548 -462T508 -474H103Q78 -474 64 -463T50 -432Q50 -417 59 -407T86 -390L124 -379Q142 -373 151 -359T160 -314V1282Q160
1308 152 1318T128 1332L75 1336Q58 1340 49 1348T40 1372Q40 1401 87 1417L298 1489Q330 1499 349 1503T389 1508Q412 1508 424 1496T437 1460ZM388 682L351 733Q427 845 525 907T742 969Q862 969 954 910T1100 745T1153 498Q1153 339 1091 222T921 41T679 -24Q563
-24 476 28T335 178L393 246Q434 166 493 128T623 89Q693 89 747 129T834 253T866 468Q866 595 835 677T751 799T629 839Q560 839 499 800T388 682Z" />
<glyph unicode="&#xff;" horiz-adv-x="1141" d="M694 146L544 -124L135 783Q118 823 100 837T42 863Q23 869 15 879T7 905Q7 925 21 936T60 947H508Q533 947 547 936T561 905Q561 889 552 879T520 864L483 857Q437 847 430 823T447 739L694 146ZM504 -159L568
-4L603 66L867 727Q891 786 883 814T829 852L788 861Q766 867 757 878T747 905Q747 925 761 936T799 947H1083Q1108 947 1122 936T1136 905Q1136 891 1128 881T1097 862Q1053 848 1029 825T983 745L626 -137Q570 -271 522 -345T419 -447T286 -476Q170 -476 103
-415T35 -263Q35 -198 66 -162T150 -126Q201 -126 228 -156T273 -239L286 -277Q294 -313 312 -331T353 -349Q378 -349 399 -335T445 -280T504 -159ZM434 1054Q370 1054 332 1091T293 1188Q293 1250 331 1287T434 1325Q499 1325 537 1288T575 1188Q575 1128 537
1091T434 1054ZM841 1054Q777 1054 738 1091T699 1188Q699 1250 738 1287T841 1325Q908 1325 946 1288T984 1188Q984 1128 946 1091T841 1054Z" />
<glyph unicode="&#x2013;" horiz-adv-x="1067" d="M62 533Q62 561 75 578T114 595H953Q981 595 993 578T1006 533Q1006 504 994 487T953 469H114Q88 469 75 486T62 533Z" />
<glyph unicode="&#x2014;" horiz-adv-x="1685" d="M62 533Q62 561 75 578T114 595H1570Q1598 595 1610 578T1623 533Q1623 503 1611 486T1570 469H114Q88 469 75 486T62 533Z" />
<glyph unicode="&#x2018;" horiz-adv-x="474" d="M246 1208Q328 1208 370 1169T413 1066Q413 995 362 950T237 905Q151 905 96 963T41 1141Q41 1249 81 1330T188 1463T329 1532Q360 1539 377 1533T399 1508Q403 1491 392 1476T347 1448Q290 1427 251 1394T191
1322T171 1250Q171 1231 181 1220T220 1208H246Z" />
<glyph unicode="&#x2019;" horiz-adv-x="471" d="M178 1222Q96 1222 54 1261T11 1364Q11 1435 63 1479T187 1524Q273 1524 328 1466T383 1289Q383 1180 343 1099T237 967T95 898Q64 891 47 898T25 922Q21 939 32 953T77 981Q135 1003 174 1036T234 1108T254 1179Q254
1199 243 1210T204 1222H178Z" />
<glyph unicode="&#x201a;" horiz-adv-x="497" d="M240 2Q158 2 116 41T73 144Q73 215 125 259T249 304Q335 304 390 246T445 69Q445 -40 405 -121T299 -253T157 -322Q126 -329 109 -322T87 -298Q83 -281 94 -267T139 -239Q197 -217 236 -184T296 -112T316 -41Q316
-21 305 -10T266 2H240Z" />
<glyph unicode="&#x201c;" horiz-adv-x="933" d="M246 1209Q328 1209 370 1170T413 1066Q413 996 362 951T237 906Q151 906 96 964T41 1141Q41 1250 81 1331T188 1464T329 1532Q360 1539 377 1533T399 1508Q403 1492 392 1477T347 1449Q290 1427 251 1394T191
1323T171 1251Q171 1231 181 1220T220 1209H246ZM705 1209Q788 1209 830 1170T872 1066Q872 996 821 951T696 906Q611 906 556 964T501 1141Q501 1250 541 1331T647 1464T789 1532Q820 1539 837 1533T858 1508Q863 1492 852 1477T807 1449Q749 1428 710 1394T650
1323T630 1251Q630 1231 640 1220T680 1209H705Z" />
<glyph unicode="&#x201d;" horiz-adv-x="958" d="M685 1224Q603 1224 561 1263T518 1366Q518 1437 569 1481T694 1526Q780 1526 835 1468T890 1291Q890 1183 850 1102T744 969T602 900Q571 893 554 900T532 924Q528 941 539 956T584 983Q641 1005 681 1038T740
1110T760 1182Q760 1201 750 1212T711 1224H685ZM226 1224Q143 1224 101 1263T59 1366Q59 1437 110 1481T235 1526Q320 1526 375 1468T430 1291Q430 1183 390 1102T284 969T142 900Q111 893 94 900T73 924Q69 941 80 956T124 983Q182 1005 221 1038T281 1110T301
1182Q301 1201 291 1212T251 1224H226Z" />
<glyph unicode="&#x201e;" horiz-adv-x="959" d="M699 -1Q617 -1 575 38T532 141Q532 212 584 256T709 301Q794 301 849 243T904 66Q904 -43 864 -124T758 -256T616 -325Q585 -332 568 -325T546 -301Q542 -284 553 -270T598 -242Q656 -220 695 -187T755 -115T775
-44Q775 -24 765 -13T725 -1H699ZM240 -1Q158 -1 116 38T73 141Q73 212 125 256T249 301Q335 301 390 243T445 66Q445 -43 405 -124T299 -256T157 -325Q126 -332 109 -325T87 -301Q83 -284 94 -270T139 -242Q197 -220 236 -187T296 -115T316 -44Q316 -24 305 -13T266
-1H240Z" />
<glyph unicode="&#x2022;" horiz-adv-x="812" d="M405 232Q332 232 271 269T175 369T140 504Q140 579 175 640T271 738T405 775Q482 775 542 739T637 641T672 504Q672 432 637 370T542 270T405 232Z" />
<glyph unicode="&#x2039;" horiz-adv-x="686" d="M91 481Q91 504 106 528T158 581Q212 623 262 663T358 741T443 810T514 870Q532 884 546 886T571 880Q582 872 581 858T569 825Q541 777 503 720T416 594T304 442V521Q367 438 416 369T503 243T569 138Q579 119
580 105T571 82Q560 74 546 76T514 92Q483 119 444 151T358 221T262 299T158 382Q122 410 107 434T91 481Z" />
<glyph unicode="&#x203a;" horiz-adv-x="686" d="M596 482Q596 459 581 435T529 382Q475 340 425 300T329 222T244 153T173 93Q155 79 141 77T116 83Q105 91 106 105T118 138Q146 186 184 243T271 369T383 521V442Q320 525 271 594T184 720T118 825Q108 844 107
858T116 881Q127 889 141 887T173 871Q204 844 243 812T329 742T425 664T529 581Q565 553 580 529T596 482Z" />
</font>
</defs>
</svg>
