<?xml version="1.0" standalone="no"?>
<!DOCTYPE svg PUBLIC "-//W3C//DTD SVG 1.1//EN" "http://www.w3.org/Graphics/SVG/1.1/DTD/svg11.dtd">
<svg xmlns="http://www.w3.org/2000/svg">
<defs >
<font id="Fraunces" horiz-adv-x="1238" ><font-face
    font-family="Fraunces"
    units-per-em="2000"
    panose-1="0 0 0 0 0 0 0 0 0 0"
    ascent="1956"
    descent="-510"
    alphabetic="0" />
<glyph unicode=" " horiz-adv-x="405" />
<glyph unicode="!" horiz-adv-x="628" d="M589 1504Q656 1504 678 1473T689 1392Q686 1376 677 1350T657 1298L372 500Q359 474 344 462T309 450Q288 450 281 461T276 500L414 1300Q417 1322 420 1344T428 1382Q442 1439 482 1471T589 1504ZM182 -14Q122 -14 90
19T63 102Q67 140 91 172T156 223T248 243Q310 243 339 209T362 125Q358 88 335 57T272 6T182 -14Z" />
<glyph unicode="&quot;" horiz-adv-x="691" d="M273 912Q256 912 247 924T240 962L307 1388Q317 1469 354 1511T450 1553Q511 1553 524 1511T504 1389L335 961Q324 936 309 924T273 912ZM630 912Q613 912 604 924T597 962L664 1388Q674 1469 711 1511T807 1553Q868
1553 881 1511T861 1389L692 961Q681 936 666 924T630 912Z" />
<glyph unicode="#" horiz-adv-x="1288" d="M571 689Q551 656 523 604T461 487T393 356T326 226T267 114T224 36Q192 -13 151 -4Q110 6 141 56Q159 85 187 134T250 246T322 376T395 507T461 624T510 710Q531 744 558 796T617 911T681 1041T744 1170T799 1281T841
1360Q875 1412 916 1400Q955 1390 923 1337Q905 1307 878 1258T817 1146T750 1018T682 889T620 774T571 689ZM810 880Q774 879 721 879T608 877T488 875T378 874T295 873Q238 872 251 914Q263 954 319 955Q351 955 400 954T508 950T626 945T739 941T829 940Q865
940 916 941T1025 943T1140 946T1246 949T1325 950Q1383 950 1373 911Q1358 870 1298 868Q1267 868 1220 869T1116 872T1003 876T895 879T810 880ZM922 689Q902 656 874 604T812 487T744 356T677 226T618 114T575 36Q543 -14 501 -4Q461 6 491 56Q509 85 537 134T600
246T672 376T745 507T810 624T862 710Q882 744 909 796T968 911T1032 1041T1094 1169T1150 1281T1193 1360Q1227 1412 1267 1400Q1306 1390 1273 1337Q1255 1307 1228 1257T1167 1146T1100 1018T1032 889T970 774T922 689ZM619 472Q583 472 531 471T418 469T297
468T187 467T104 466Q48 465 61 507Q73 548 130 548Q161 548 210 547T318 542T437 537T549 534T639 533Q675 533 726 533T835 535T951 538T1056 541T1134 544Q1193 544 1183 504Q1168 463 1107 462Q1077 462 1029 463T925 466T812 469T705 471T619 472Z" />
<glyph unicode="$" horiz-adv-x="1153" d="M469 6Q333 6 240 42T103 140T68 282Q74 348 110 386T194 424Q235 424 254 397T263 320L252 245Q242 188 263 146T339 80T480 56Q609 56 698 111T807 263Q820 328 802 386T726 498T567 605Q441 671 374 739T289 884T288
1046Q301 1116 344 1178T456 1289T618 1364T822 1392Q956 1392 1042 1355T1166 1255T1196 1118Q1192 1061 1159 1026T1081 990Q1038 991 1015 1016T1001 1087L1013 1158Q1027 1246 978 1295T813 1344Q727 1344 655 1317T534 1240T473 1124Q459 1057 476 1000T550
888T714 774Q836 706 905 635T997 490T1004 338Q991 260 944 199T824 95T660 29T469 6ZM682 726H628Q681 917 712 1046T759 1259T785 1396T805 1487Q814 1518 835 1534T882 1550Q906 1550 917 1534T919 1485Q910 1450 892 1399T845 1263T776 1048T682 726ZM603
676H657Q605 490 576 363T531 152T506 17T487 -71Q476 -104 456 -121T409 -138Q384 -138 373 -121T373 -70Q383 -32 401 20T446 155T513 364T603 676Z" />
<glyph unicode="%" horiz-adv-x="1458" d="M903 1425Q1041 1425 1101 1328T1114 1057Q1083 940 1018 859T870 737T695 695Q541 695 483 793T475 1076Q503 1181 564 1259T712 1381T903 1425ZM943 1051Q989 1227 967 1298T875 1369Q801 1369 743 1299T645 1082Q597
898 620 825T717 752Q757 752 797 778T875 869T943 1051ZM886 774Q868 756 856 752T831 755Q821 762 821 773T836 803Q869 843 910 897T998 1011T1089 1130T1175 1240T1245 1330T1289 1384Q1317 1415 1341 1422T1392 1414Q1416 1399 1415 1376T1389 1323Q1376 1307
1344 1272T1267 1187T1171 1083T1067 970T969 863T886 774ZM680 627Q698 645 710 649T736 646Q747 639 747 628T731 596Q701 557 660 504T573 392T481 273T394 161T322 70T275 13Q248 -17 221 -24T170 -17Q146 -3 148 21T176 75Q191 93 224 130T303 216T400 322T503
434T601 540T680 627ZM1182 705Q1320 705 1380 608T1393 337Q1362 220 1297 139T1149 17T974 -25Q820 -25 762 73T754 356Q782 461 843 539T991 661T1182 705ZM1222 331Q1268 507 1246 578T1154 649Q1080 649 1022 579T924 362Q876 178 899 105T996 32Q1036 32
1076 58T1154 149T1222 331Z" />
<glyph unicode="&amp;" horiz-adv-x="1342" d="M183 210L1155 969Q1213 1018 1247 1059T1296 1139T1310 1222Q1310 1261 1293 1289T1259 1344T1242 1401Q1241 1439 1269 1467T1345 1497Q1399 1497 1435 1454T1473 1336Q1473 1267 1447 1205T1361 1077T1200 934L243
187Q174 133 134 82T77 -20T60 -121Q60 -166 78 -195T115 -247T134 -303Q134 -340 105 -367T31 -396Q-22 -396 -57 -355T-94 -227Q-94 -116 -28 -8T183 210ZM1024 339Q1025 376 1017 403T1001 456T994 513Q995 541 1009 566T1051 608T1114 624Q1167 624 1197 591T1227
494Q1225 392 1183 299T1062 134T873 20T626 -22Q458 -22 344 47T181 240T163 532Q186 657 244 760T389 939T581 1056T806 1098Q905 1098 977 1065T1089 976T1126 851Q1125 816 1111 794T1067 769Q1020 767 972 747T861 683Q876 710 887 748T901 837Q904 933 869
984T758 1035Q677 1035 604 977T476 811T400 550Q376 386 407 275T513 108T695 52Q763 52 822 75T926 138T997 229T1024 339Z" />
<glyph unicode="&apos;" horiz-adv-x="334" d="M273 912Q256 912 247 924T240 962L307 1388Q317 1469 354 1511T450 1553Q511 1553 524 1511T504 1389L335 961Q324 936 309 924T273 912Z" />
<glyph unicode="(" horiz-adv-x="727" d="M234 661Q274 809 342 940T499 1180T689 1369T896 1496Q927 1508 946 1506T967 1491Q969 1480 958 1467T921 1435Q805 1352 707 1234T535 971T415 661Q368 482 366 320T399 30T501 -178Q516 -196 520 -209T515 -234Q492
-261 440 -239Q365 -196 308 -111T219 93T189 356T234 661Z" />
<glyph unicode=")" horiz-adv-x="721" d="M583 594Q543 446 475 315T318 75T128 -114T-79 -241Q-110 -253 -129 -251T-150 -236Q-152 -225 -141 -212T-104 -180Q12 -97 110 21T282 284T402 594Q449 773 451 935T418 1225T316 1433Q301 1451 297 1464T302 1489Q325
1516 377 1494Q452 1451 509 1366T598 1162T628 899T583 594Z" />
<glyph unicode="*" horiz-adv-x="1241" d="M763 1025H725Q745 1109 748 1176T750 1296T746 1393T755 1475Q768 1523 801 1547T886 1571Q934 1571 954 1547T962 1475Q952 1437 927 1393T872 1296T813 1176T763 1025ZM742 1040Q822 1067 887 1099T1006 1164T1107
1222T1193 1260Q1243 1274 1269 1258T1299 1193Q1302 1148 1278 1116T1205 1068Q1164 1056 1117 1055T1013 1053T891 1043T745 1007L742 1040ZM754 1042L733 1009Q666 1035 603 1043T484 1052T382 1054T301 1068Q260 1083 253 1115T275 1194Q302 1239 339 1256T417
1260Q452 1248 484 1223T553 1165T639 1101T754 1042ZM730 1035L755 1015Q694 947 652 885T577 771T518 675T458 601Q380 524 312 582Q281 611 283 646T324 720Q356 751 400 778T497 840T610 920T730 1035ZM725 1014L761 1034Q791 966 827 920T900 840T966 779T1010
720Q1027 682 1011 647T945 582Q899 555 864 559T810 601Q795 632 791 675T782 770T766 884T725 1014Z" />
<glyph unicode="+" horiz-adv-x="1100" d="M499 271Q475 271 465 284T461 316L658 1054Q664 1071 681 1083T723 1095Q748 1095 758 1082T761 1052L565 313Q559 295 541 283T499 271ZM188 684Q194 705 213 716T253 728H1002Q1022 728 1033 717T1038 684Q1031 662
1011 650T968 638H228Q205 638 193 650T188 684Z" />
<glyph unicode="," horiz-adv-x="480" d="M134 4Q91 8 68 37T49 111Q53 147 76 179T137 230T221 250Q289 250 319 203T337 72Q321 -37 270 -119T151 -256T16 -335Q-16 -345 -33 -342T-55 -325Q-58 -310 -48 -298T-10 -277Q55 -251 102 -211T179 -125T216 -40Q221
-15 212 -9T177 -1L134 4Z" />
<glyph unicode="-" horiz-adv-x="773" d="M662 590Q707 590 686 552L653 481Q644 463 633 457T601 450H125Q102 450 96 460T100 489L132 558Q142 577 153 583T183 590H662Z" />
<glyph unicode="." horiz-adv-x="465" d="M153 -16Q93 -16 61 17T34 99Q39 138 63 170T127 221T219 241Q281 241 310 207T333 122Q330 85 306 54T243 3T153 -16Z" />
<glyph unicode="/" horiz-adv-x="901" d="M529 614Q495 550 447 458T345 262T237 54T135 -144T52 -304Q33 -334 10 -346T-40 -349Q-64 -340 -67 -319T-53 -267Q-17 -199 34 -108T145 87T262 292T371 485T456 641Q491 706 538 798T639 996T746 1206T848 1404T932
1564Q951 1595 974 1607T1023 1611Q1044 1603 1046 1580T1031 1527Q996 1460 946 1368T839 1173T724 966T616 771T529 614Z" />
<glyph unicode="0" horiz-adv-x="1296" d="M917 1423Q1043 1423 1129 1372T1261 1226T1308 998T1266 700Q1220 525 1143 390T966 163T753 25T519 -22Q389 -22 300 28T165 175T118 405T160 707Q219 928 331 1088T593 1336T917 1423ZM1029 684Q1089 916 1091 1062T1042
1278T886 1348Q787 1348 695 1274T526 1062T399 730Q352 550 340 421T346 211T415 91T543 52Q634 52 725 121T895 330T1029 684Z" />
<glyph unicode="1" horiz-adv-x="867" d="M362 1247L504 1245Q536 1245 545 1231T542 1175L275 157Q266 128 245 112T195 91L42 76Q21 72 8 62T-7 36Q-9 19 2 10T37 0H646Q670 0 685 10T703 40Q704 53 696 61T669 73L538 89Q504 93 496 110T497 155L823 1384Q831
1410 821 1422T786 1434Q771 1434 756 1427T723 1405Q697 1380 672 1365T618 1343T545 1335L392 1334Q363 1334 345 1322T321 1290Q315 1270 325 1259T362 1247Z" />
<glyph unicode="2" horiz-adv-x="1176" d="M183 230L165 275L417 428Q588 530 701 623T881 815T978 1029Q1007 1137 999 1211T949 1323T835 1361Q759 1361 701 1331T605 1251T550 1141L527 1053Q511 993 471 960T379 926Q327 926 306 961T303 1061Q328 1153 404
1236T602 1372T879 1425Q1025 1425 1109 1373T1218 1228T1211 1019Q1192 947 1148 879T1025 741T827 591T539 419L183 230ZM15 101Q40 193 127 256T345 320Q409 320 467 299T580 249T687 200T792 178Q860 178 907 211T997 322Q1009 340 1022 347T1050 353Q1069
351 1074 338T1067 296Q1022 180 968 110T851 9T711 -23Q647 -23 600 -5T520 55T458 166Q427 211 403 231T346 251Q312 251 287 220T241 123Q223 69 199 37T146 -8T81 -22Q38 -22 19 10T15 101Z" />
<glyph unicode="3" horiz-adv-x="1067" d="M536 738V764Q547 767 563 769T598 772T631 773Q776 775 866 729T986 596T983 386Q949 263 863 171T654 27T383 -25Q244 -25 160 16T44 125T33 276Q48 342 90 378T181 415Q236 415 255 382T260 296L237 217Q215 132 260
86T411 40Q486 40 554 76T674 182T755 355Q800 526 746 608T537 691H473Q450 691 439 701T434 731Q440 748 454 762T493 793L1077 1284L1063 1222H511Q477 1222 457 1210T420 1170L365 1069Q355 1052 340 1042T306 1031Q286 1032 277 1044T280 1081L382 1340Q394
1369 418 1384T479 1400H1210Q1234 1400 1245 1388T1250 1358Q1245 1341 1226 1325T1174 1285L536 738Z" />
<glyph unicode="4" horiz-adv-x="1131" d="M711 744Q717 765 729 779T755 804L903 930Q921 942 932 946T954 951Q967 951 972 944T972 919L774 155Q765 127 776 112T816 91L899 76Q918 70 927 61T931 37Q926 20 911 10T869 0H362Q336 0 326 9T321 37Q327 52 342
62T379 76L478 91Q509 95 529 111T559 157L711 744ZM653 991Q692 1022 718 1050T753 1110Q760 1135 757 1157T747 1201T739 1246T743 1298Q759 1356 809 1393T933 1431Q994 1431 1023 1397T1037 1301Q1028 1261 1005 1223T939 1141T828 1043L95 397L91 429H1015Q1037
429 1047 421T1053 394Q1047 374 1032 364T990 354H52Q25 354 15 367T10 399Q14 412 26 426T66 459L653 991Z" />
<glyph unicode="5" horiz-adv-x="1108" d="M66 280Q77 321 99 351T152 399T216 416Q269 416 288 384T292 296L270 219Q249 137 292 89T447 40Q520 40 588 77T710 193T798 394Q847 576 795 667T620 759Q572 759 523 740T423 686T323 599Q298 585 282 577T246 568Q228
568 220 579T219 613L419 1362Q429 1391 451 1408T510 1426Q525 1426 539 1423T569 1411Q619 1381 669 1357T777 1320T901 1306Q1004 1306 1081 1333T1210 1417Q1228 1430 1242 1434T1267 1434Q1276 1429 1277 1419T1265 1384Q1203 1252 1087 1187T817 1121Q696
1121 597 1155T432 1245L494 1300L316 640L287 649Q351 712 418 754T557 819T708 841Q839 841 921 788T1031 639T1022 416Q985 281 896 182T683 29T412 -25Q278 -25 195 17T79 128T66 280Z" />
<glyph unicode="6" horiz-adv-x="1184" d="M941 1425Q1061 1425 1136 1386T1242 1282T1254 1145Q1238 1080 1198 1045T1103 1009Q1045 1009 1025 1040T1020 1130L1038 1192Q1058 1268 1025 1310T900 1352Q812 1352 718 1285T536 1068T380 665Q332 491 323 373T336
183T407 79T523 47Q603 47 671 88T792 208T874 404Q906 524 893 603T828 721T694 761Q636 761 577 739T466 676T374 580T314 461L271 481Q294 560 346 627T470 744T625 821T795 849Q921 849 1001 796T1107 645T1095 410Q1058 278 972 181T763 30T496 -24Q331 -24
234 60T117 302T157 680Q226 931 346 1096T619 1343T941 1425Z" />
<glyph unicode="7" horiz-adv-x="1039" d="M1081 1232L1098 1210H484Q450 1210 432 1199T398 1161L337 1051Q327 1034 312 1024T277 1013Q255 1014 248 1026T252 1063L361 1341Q374 1369 396 1384T452 1400H1211Q1249 1400 1262 1386T1268 1349Q1263 1333 1250
1314T1202 1269L842 808Q747 718 681 646T575 512T519 390Q507 348 510 312T522 243T536 177T531 109Q515 53 467 15T348 -23Q272 -23 243 31T244 192Q264 260 304 328T405 469T543 621T715 792L1081 1232Z" />
<glyph unicode="8" horiz-adv-x="1128" d="M421 -25Q273 -25 186 18T69 140T68 320Q90 395 154 463T318 582T541 651L546 624Q472 594 417 545T325 439T272 322Q246 230 262 167T331 71T466 39Q582 39 666 102T779 269Q799 339 785 395T715 498T550 588Q418 645
344 708T250 851T258 1035Q281 1115 334 1185T468 1310T648 1394T865 1425Q1009 1425 1097 1375T1216 1238T1213 1036Q1193 965 1146 903T1033 790T884 705T710 651L692 678Q807 737 893 829T1010 1033Q1055 1187 1002 1272T820 1358Q740 1358 670 1324T550 1232T478
1098Q456 1016 469 949T542 826T717 721Q908 640 974 542T1005 318Q976 217 896 140T694 19T421 -25Z" />
<glyph unicode="9" horiz-adv-x="1184" d="M398 -24Q278 -24 198 15T85 118T70 256Q86 321 126 356T221 391Q278 391 298 360T303 272L286 209Q266 133 306 91T439 48Q527 48 618 116T794 335T949 738Q1014 966 1012 1101T955 1294T811 1353Q732 1353 662 1313T538
1192T454 995Q423 875 437 795T502 676T634 636Q711 636 788 675T926 782T1014 936L1056 916Q1033 837 981 770T858 653T703 576T532 548Q407 548 327 601T220 750T228 977Q266 1112 355 1212T570 1369T837 1425Q1002 1425 1098 1342T1215 1100T1170 717Q1099 471
982 306T716 59T398 -24Z" />
<glyph unicode=":" horiz-adv-x="563" d="M160 -16Q100 -16 68 17T41 99Q46 138 70 170T134 221T226 241Q288 241 317 207T340 122Q337 85 313 54T250 3T160 -16ZM312 603Q252 603 220 636T193 718Q198 757 222 789T286 840T378 860Q440 860 469 826T492 741Q489
704 465 673T402 622T312 603Z" />
<glyph unicode=";" horiz-adv-x="586" d="M137 4Q94 8 71 37T52 111Q56 147 79 179T140 230T224 250Q292 250 322 203T340 72Q324 -37 273 -119T154 -256T19 -335Q-13 -345 -30 -342T-52 -325Q-55 -310 -45 -298T-7 -277Q58 -251 105 -211T182 -125T219 -40Q224
-15 215 -9T180 -1L137 4ZM334 602Q274 602 242 635T215 717Q220 756 244 788T308 839T400 859Q462 859 491 825T514 740Q511 703 487 672T424 621T334 602Z" />
<glyph unicode="&lt;" horiz-adv-x="1025" d="M292 685L286 670L1022 1033Q1051 1045 1067 1058T1088 1086Q1094 1105 1086 1119T1056 1133Q1037 1133 1016 1126T963 1106L259 761Q225 747 204 729T176 686Q161 637 212 610L743 264Q766 251 784 243T821 235Q865
235 874 267Q878 280 871 293T842 318L292 685Z" />
<glyph unicode="=" horiz-adv-x="1112" d="M249 865Q255 886 274 897T315 909H1063Q1084 909 1094 898T1099 865Q1093 843 1072 832T1030 820H290Q266 820 255 831T249 865ZM154 505Q160 526 179 537T220 549H968Q989 549 999 538T1004 505Q998 483 977 472T935
460H195Q171 460 160 471T154 505Z" />
<glyph unicode="&gt;" horiz-adv-x="1025" d="M854 683L860 698L124 335Q95 323 79 310T58 282Q52 263 60 249T90 235Q109 235 130 242T183 262L887 607Q921 621 942 639T970 682Q985 731 934 758L403 1104Q380 1117 362 1125T325 1133Q281 1133 272 1101Q268
1088 275 1075T304 1050L854 683Z" />
<glyph unicode="?" horiz-adv-x="966" d="M392 661L357 491Q354 463 363 449T396 434Q417 434 433 447T467 492L514 648Q524 676 539 693T586 720L646 740Q825 798 926 899T1063 1137Q1091 1243 1062 1322T950 1444T735 1488Q612 1488 505 1444T325 1329T231 1177Q216
1123 237 1089T308 1054Q363 1054 403 1085T461 1176L479 1245Q501 1325 559 1369T705 1413Q763 1413 800 1385T849 1299T836 1153Q804 1030 740 945T551 801L480 770Q439 751 419 725T392 661ZM271 -19Q211 -19 179 14T152 96Q157 135 181 167T245 218T337 238Q399
238 428 204T451 119Q448 82 424 51T361 0T271 -19Z" />
<glyph unicode="@" horiz-adv-x="1761" d="M671 423Q661 326 686 286T756 246Q799 246 847 280T944 374T1036 515T1111 688T1158 879Q1163 921 1147 943T1096 965Q1038 965 981 935T871 852T776 730T706 583T671 423ZM1156 139Q1086 139 1050 175T1020 273Q1023
300 1030 338T1054 439T1099 598L1110 566Q1051 429 980 334T829 189T660 139Q567 139 515 205T476 418Q484 538 539 650T686 852T893 993T1139 1045Q1224 1045 1278 1034T1359 1003T1384 958Q1382 938 1371 926T1347 902T1328 871L1206 393Q1185 311 1199 276T1256
241Q1302 241 1352 264T1450 334T1538 452T1602 619Q1660 841 1614 1002T1441 1251T1132 1338Q970 1338 824 1284T559 1130T354 897T227 600Q165 364 214 186T401 -91T748 -190Q880 -190 1007 -157T1252 -60T1473 95Q1494 109 1515 114T1548 106Q1558 94 1550 76T1518
40Q1423 -54 1297 -122T1025 -228T724 -265Q551 -265 418 -205T203 -32T99 241T131 600Q175 772 271 919T503 1176T805 1347T1159 1408Q1313 1408 1434 1355T1632 1201T1729 953T1700 621Q1662 472 1578 364T1384 198T1156 139Z" />
<glyph unicode="A" horiz-adv-x="1281" d="M251 244Q213 180 221 140T269 87L323 77Q341 72 348 62T356 41Q356 22 342 11T301 0H-2Q-30 0 -44 10T-58 38Q-58 55 -46 67T-2 92Q34 103 72 143T148 252L671 1101Q784 1266 894 1343T1115 1420Q1154 1420 1170 1409T1187
1380Q1187 1366 1179 1357T1153 1340Q1114 1330 1093 1300T1069 1211Q1069 1175 1068 1110T1065 960T1061 782T1058 596T1055 421T1053 276T1053 183Q1053 153 1061 133T1088 100T1142 75Q1172 64 1172 39Q1172 22 1159 11T1118 0H712Q690 0 680 10T669 35Q669
50 679 60T709 77L778 92Q809 100 824 122T840 183Q841 219 842 284T846 434T850 612T855 801T859 983T862 1140T863 1252L909 1236Q893 1226 869 1205T813 1148T741 1056L251 244ZM330 460L355 530H918L911 460H330Z" />
<glyph unicode="B" horiz-adv-x="1322" d="M687 1228Q668 1155 643 1063T591 870T536 667T485 471T442 300T413 171Q405 139 420 117T477 83T589 72Q755 72 857 146T979 356Q999 482 931 550T722 619H450L474 683H699Q802 683 884 728T1019 855T1087 1049Q1107
1184 1040 1255T844 1327Q769 1327 735 1304T687 1228ZM411 1400H863Q1102 1400 1211 1304T1299 1037Q1285 924 1216 838T1035 702T782 653L775 667Q931 667 1029 628T1170 517T1200 347Q1179 188 1026 94T590 0H49Q20 0 9 10T-2 35Q-2 49 13 59T55 76L111 88Q143
95 160 111T186 155Q208 224 232 307T282 482T332 666T379 844T419 1007T449 1140T468 1231Q476 1269 471 1286T441 1312L379 1323Q360 1329 350 1336T340 1356Q340 1376 357 1388T411 1400Z" />
<glyph unicode="C" horiz-adv-x="1289" d="M1182 406Q1197 400 1199 380T1183 326Q1129 216 1044 138T849 17T608 -25Q445 -25 327 53T158 280T140 645Q165 805 236 946T414 1195T654 1364T938 1426Q998 1426 1040 1414T1112 1385T1159 1356T1190 1343Q1203 1343
1216 1355T1242 1383T1269 1412T1298 1425Q1318 1425 1329 1413T1343 1379L1359 1044Q1360 1023 1347 1012T1314 1000Q1280 1000 1265 1039L1241 1120Q1206 1238 1137 1290T956 1343Q850 1343 757 1290T588 1144T462 928T388 665Q356 467 387 340T498 152T686 91Q770
91 845 120T986 211T1108 371Q1128 394 1146 403T1182 406Z" />
<glyph unicode="D" horiz-adv-x="1495" d="M16 35Q16 51 27 61T63 77L122 88Q140 91 154 101T180 131T205 187Q216 231 234 300T275 454T323 631T374 816T420 991T458 1138T481 1242Q489 1274 481 1289T445 1311L390 1324Q367 1330 358 1338T348 1360Q348 1379
362 1389T406 1400H898Q1038 1400 1153 1352T1347 1212T1458 994T1464 707Q1435 539 1358 408T1164 186T901 48T587 0H61Q35 0 26 10T16 35ZM601 81Q718 81 820 122T1005 244T1145 442T1228 711Q1254 863 1237 977T1169 1168T1047 1284T894 1323H798Q764 1323 742
1303T706 1240Q697 1201 679 1135T638 985T589 807T537 620T489 442T450 289T428 180Q420 130 435 106T492 81H601Z" />
<glyph unicode="E" horiz-adv-x="1254" d="M467 741H827Q873 741 900 768T933 875Q937 890 947 897T970 904Q990 904 1000 894T1013 867L1062 574Q1067 546 1055 534T1025 520Q1008 519 997 527T978 551Q954 622 923 647T832 672H446L467 741ZM762 0H59Q33 0 23
10T13 36Q13 51 24 62T54 78L122 91Q151 97 167 112T195 161Q202 193 219 256T258 404T307 585T360 778T411 965T453 1124T480 1236Q488 1269 482 1287T455 1311L392 1324Q377 1328 367 1336T357 1359Q357 1378 371 1389T411 1400H1088Q1137 1400 1168 1418T1228
1436Q1271 1436 1280 1387L1319 1119Q1324 1094 1315 1080T1286 1064Q1264 1062 1249 1073T1220 1115Q1192 1203 1163 1250T1098 1314T1016 1332H724Q710 1277 688 1195T639 1014T584 810T528 603T477 412T438 256T416 156Q409 128 414 108T440 79T498 69H736Q807
69 861 93T961 175T1048 327Q1068 365 1097 365Q1134 365 1133 319Q1131 249 1111 186T1056 75T977 0T883 -27Q852 -27 826 -14T762 0Z" />
<glyph unicode="F" horiz-adv-x="1199" d="M352 1360Q354 1380 370 1390T413 1400H1071Q1122 1400 1153 1418T1214 1436Q1255 1436 1264 1391L1304 1117Q1309 1092 1300 1078T1271 1062Q1246 1060 1231 1074T1201 1119L1181 1175Q1164 1230 1140 1264T1081 1315T994
1332H724Q706 1267 683 1184T635 1006T583 813T533 620T486 438T446 281T417 162Q408 131 414 113T457 89L526 79Q554 76 566 67T579 43Q579 24 562 12T508 0H61Q34 0 24 10T13 37Q14 53 28 64T72 81L122 91Q151 98 167 114T193 164Q210 223 231 297T275 457T322
631T368 807T411 976T448 1125T477 1243Q484 1275 477 1290T446 1311L395 1323Q373 1330 362 1338T352 1360ZM461 707H814Q860 707 888 735T923 840Q927 857 936 865T960 874Q979 874 989 863T1003 833L1053 535Q1058 508 1046 496T1015 483Q999 482 988 491T967
519Q951 563 933 589T888 626T819 638H439L461 707Z" />
<glyph unicode="G" horiz-adv-x="1402" d="M935 1428Q1011 1428 1061 1415T1144 1385T1195 1355T1226 1342Q1241 1342 1255 1354T1283 1382T1310 1410T1338 1422Q1360 1422 1373 1409T1391 1366L1411 1051Q1413 1027 1401 1017T1371 1005Q1354 1004 1340 1013T1319
1040L1291 1117Q1261 1201 1217 1251T1116 1323T986 1346Q875 1346 777 1294T599 1148T462 925T377 643Q342 440 371 312T479 122T667 60Q747 60 812 83T921 151T983 259L1039 480Q1048 512 1041 530T1003 552L921 563Q902 567 894 577T886 601Q886 621 900 631T942
642H1350Q1378 642 1388 633T1397 606Q1396 591 1384 580T1349 563L1302 550Q1277 544 1265 531T1245 496L1116 34Q1105 0 1090 -13T1050 -27Q1037 -27 1025 -19T1002 3T980 29T958 51T936 60Q921 60 898 47T836 17T739 -14T597 -27Q429 -27 312 52T147 281T134
640Q161 803 235 945T417 1196T657 1366T935 1428Z" />
<glyph unicode="H" horiz-adv-x="1572" d="M417 158Q411 127 418 110T452 87L509 75Q529 70 537 62T546 38Q546 21 531 11T489 0H62Q33 0 23 9T13 35Q12 51 24 61T56 77L117 88Q148 94 166 111T195 162Q205 200 223 267T264 420T313 601T364 792T413 975T452 1132T477
1244Q484 1273 477 1289T443 1311L385 1324Q364 1330 355 1339T345 1362Q345 1380 362 1390T413 1400H835Q863 1400 873 1392T883 1368Q883 1351 871 1341T835 1324L770 1308Q741 1302 726 1289T701 1245Q689 1201 669 1128T623 963T572 773T520 576T473 395T437
249T417 158ZM463 698H1254L1229 622H439L463 698ZM1241 158Q1234 127 1241 110T1276 87L1331 75Q1352 70 1361 62T1370 38Q1370 21 1354 11T1311 0H885Q856 0 846 9T836 35Q835 51 847 61T880 77L941 88Q971 94 989 111T1018 162Q1028 200 1046 267T1087 420T1136
601T1187 792T1235 975T1275 1132T1300 1244Q1306 1273 1300 1289T1266 1311L1208 1324Q1186 1330 1178 1339T1169 1362Q1169 1380 1186 1390T1236 1400H1659Q1686 1400 1696 1392T1706 1368Q1706 1351 1694 1341T1659 1324L1593 1308Q1564 1302 1549 1289T1524
1245Q1512 1201 1492 1128T1447 963T1396 773T1343 576T1296 395T1260 249T1241 158Z" />
<glyph unicode="I" horiz-adv-x="752" d="M420 158Q412 127 420 110T454 87L511 75Q531 70 540 62T549 38Q549 21 533 11T491 0H64Q36 0 26 9T15 35Q15 51 27 61T59 77L120 88Q150 94 168 111T197 162Q207 200 225 267T266 420T316 601T367 792T415 975T454 1131T479
1244Q486 1273 479 1289T445 1311L386 1324Q365 1330 356 1339T347 1362Q347 1380 364 1390T415 1400H837Q865 1400 875 1392T885 1368Q885 1351 873 1341T837 1324L772 1308Q743 1302 728 1289T703 1245Q691 1201 671 1128T626 963T574 773T522 576T476 395T440
249T420 158Z" />
<glyph unicode="J" horiz-adv-x="730" d="M687 1215Q680 1195 662 1128T618 961T562 745T500 507T440 277T389 84T354 -44Q329 -153 280 -223T162 -328T8 -363Q-69 -363 -107 -331T-145 -254Q-145 -216 -119 -190T-46 -164Q-21 -164 3 -173T51 -195T96 -217T140
-227Q177 -227 202 -199T228 -97Q228 -78 221 -59T205 -17T188 31T179 85T187 147Q192 165 207 226T247 377T299 573T355 784T408 983T449 1141T471 1228Q481 1272 474 1288T435 1311L371 1324Q351 1330 342 1338T333 1360Q333 1378 348 1389T395 1400H823Q850
1400 860 1392T870 1367Q870 1351 859 1341T827 1324L767 1308Q746 1303 732 1295T708 1268T687 1215Z" />
<glyph unicode="K" horiz-adv-x="1419" d="M410 154Q404 127 412 111T446 90L501 78Q520 72 530 63T540 38Q540 20 524 10T483 0H62Q33 0 23 9T13 35Q12 51 24 61T57 77L118 88Q148 94 166 111T195 162Q205 200 223 267T265 421T314 602T365 794T413 978T453 1135T478
1247Q485 1276 477 1291T443 1312L385 1324Q364 1330 355 1339T346 1362Q346 1380 364 1390T413 1400H833Q858 1400 868 1392T878 1368Q878 1350 866 1341T828 1324L765 1309Q738 1304 722 1290T696 1247Q684 1203 664 1130T618 964T566 772T513 575T466 392T429
245T410 154ZM703 740L869 881L1122 229Q1140 175 1159 149T1210 123Q1229 123 1243 132T1270 160Q1291 180 1313 173Q1326 170 1331 156T1327 120Q1308 76 1276 44T1201 -5T1109 -23Q1042 -23 1003 12T935 129L703 740ZM437 416L416 491L1172 1267Q1228 1324 1274
1358T1364 1408T1456 1424Q1516 1424 1548 1392T1578 1313Q1574 1262 1539 1236T1453 1210Q1413 1210 1384 1222T1319 1235Q1284 1235 1244 1213T1156 1142L437 416Z" />
<glyph unicode="L" horiz-adv-x="1117" d="M658 0H64Q36 0 25 10T15 36Q16 52 29 62T63 78L121 90Q152 96 169 115T199 174Q211 217 229 287T272 445T321 627T371 816T418 996T456 1148T479 1255Q484 1277 476 1290T450 1309L383 1325Q365 1330 355 1338T344 1362Q344
1379 359 1389T401 1400H834Q860 1400 871 1391T882 1365Q882 1349 869 1339T837 1323L765 1308Q740 1303 725 1288T700 1238Q687 1191 667 1119T623 959T574 776T523 588T477 412T440 265T417 164Q407 113 426 92T489 71H657Q725 71 776 97T869 184T954 345Q966
370 979 381T1009 393Q1029 393 1037 381T1046 347Q1044 270 1022 202T964 83T884 3T791 -26Q770 -26 752 -20T712 -7T658 0Z" />
<glyph unicode="M" horiz-adv-x="1694" d="M875 365L798 318L1420 1326Q1447 1369 1478 1384T1540 1400H1745Q1773 1400 1782 1391T1791 1365Q1790 1347 1777 1337T1746 1321L1686 1308Q1663 1303 1648 1287T1627 1240Q1619 1192 1605 1120T1575 961T1540 780T1505
594T1472 419T1446 270T1428 165Q1423 135 1431 117T1463 91L1529 75Q1546 70 1554 62T1561 40Q1560 20 1546 10T1505 0H1085Q1058 0 1048 10T1038 38Q1040 55 1052 64T1080 78L1145 91Q1172 98 1190 115T1215 168Q1225 228 1239 304T1271 469T1307 650T1344 839T1377
1024T1406 1194L1435 1201L838 217Q812 180 793 166T747 152Q725 152 710 170T688 218Q675 291 663 371T638 535T612 704T586 874T559 1040T532 1197L573 1205L281 217Q266 161 276 132T322 92L380 77Q414 64 411 41Q409 22 393 11T348 0H37Q8 0 -3 11T-14 38Q-12
56 0 66T35 82L83 93Q110 100 130 116T167 166T200 260L481 1221Q493 1258 486 1279T453 1307L383 1324Q366 1330 358 1339T352 1362Q353 1380 368 1390T407 1400H620Q659 1400 683 1378T718 1304Q730 1236 742 1161T766 1008T791 850T817 688T845 525T875 365Z"
/>
<glyph unicode="N" horiz-adv-x="1414" d="M308 241L550 1137L474 1125Q514 1029 560 924T653 714T742 512T820 332T877 191Q894 156 901 130T907 70Q906 37 922 19T970 0H1139Q1172 0 1185 22T1184 76L1139 200Q1127 231 1127 251T1135 299L1302 999Q1317 1055
1339 1094T1393 1161T1470 1210Q1526 1239 1553 1271T1581 1346Q1581 1387 1555 1410T1486 1433Q1411 1433 1350 1371T1253 1176L1018 218L1100 249Q1071 319 1033 401T951 576T862 765T772 959T689 1149T621 1323Q600 1362 580 1381T519 1400H387Q361 1400 349
1388T338 1357T354 1320L418 1192Q437 1167 440 1133T433 1061L215 247Q198 180 164 140T84 89L41 79Q-1 67 -1 37Q-1 20 11 10T49 0H400Q422 0 435 9T448 37Q448 50 439 60T414 76L375 84Q322 100 308 139T308 241Z" />
<glyph unicode="O" horiz-adv-x="1532" d="M1019 1425Q1152 1422 1254 1365T1420 1209T1501 975T1480 679Q1438 506 1354 372T1154 148T902 13T617 -25Q484 -21 382 36T217 196T143 439T176 751Q217 901 299 1026T495 1243T742 1382T1019 1425ZM650 52Q733 48
817 81T978 189T1121 388T1233 688Q1256 778 1266 852T1276 988Q1275 1103 1237 1181T1136 1302T994 1348Q909 1353 824 1316T661 1202T521 1009T422 740Q397 640 386 560T373 415Q371 236 448 147T650 52Z" />
<glyph unicode="P" horiz-adv-x="1309" d="M1346 913Q1328 809 1277 727T1148 588T972 501T760 471Q651 471 581 489T441 543L476 612Q529 579 591 562T721 544Q830 544 914 586T1053 714T1127 929Q1148 1061 1117 1148T1014 1280T835 1325Q775 1325 741 1301T690
1222Q687 1208 673 1152T636 1009T588 821T536 616T485 420T444 261T420 167Q409 129 417 111T447 88L525 76Q545 72 554 63T563 41Q563 23 549 12T508 0H59Q32 0 22 9T12 35Q12 52 25 62T60 78L111 87Q146 93 163 108T192 159Q201 186 220 252T264 410T315 605T368
812T417 1005T456 1160T477 1250Q482 1276 474 1291T444 1310L382 1324Q364 1330 355 1338T346 1360Q346 1379 361 1389T405 1400H875Q999 1400 1095 1365T1254 1263T1341 1108T1346 913Z" />
<glyph unicode="Q" horiz-adv-x="1533" d="M694 364Q698 379 707 389T732 398Q748 395 751 384T750 353Q715 210 716 111T747 -52T833 -148T962 -191Q1040 -202 1086 -193T1156 -172T1190 -163Q1198 -166 1201 -177T1196 -200L1131 -298Q1119 -315 1099 -327T1044
-343T954 -344Q830 -334 751 -253T653 -18T694 364ZM1019 1425Q1152 1422 1254 1365T1420 1209T1501 975T1480 679Q1438 506 1354 372T1154 148T902 13T617 -25Q484 -21 382 36T217 196T143 439T176 751Q217 901 299 1026T495 1243T742 1382T1019 1425ZM650 52Q733
48 817 81T978 189T1121 388T1233 688Q1256 778 1266 852T1276 988Q1275 1103 1237 1181T1136 1302T994 1348Q909 1353 824 1316T661 1202T521 1009T422 740Q397 640 386 560T373 415Q373 295 407 216T504 97T650 52Z" />
<glyph unicode="R" horiz-adv-x="1370" d="M429 605L487 662Q529 637 586 621T714 604Q830 604 915 648T1054 772T1128 959Q1151 1082 1121 1164T1020 1288T851 1330Q772 1330 739 1306T691 1234Q682 1196 665 1129T624 975T575 793T524 602T476 420T437 267T412
161Q404 128 414 112T443 90L503 78Q521 71 531 62T541 39Q541 21 527 11T485 0H58Q32 0 23 10T13 35Q13 52 25 62T60 78L113 87Q144 93 163 109T194 159Q203 195 221 261T262 414T312 598T364 792T413 977T452 1132T475 1237Q482 1272 477 1288T443 1312L383 1324Q364
1330 356 1339T347 1360Q347 1378 361 1389T402 1400H882Q1043 1400 1156 1343T1320 1182T1341 933Q1317 815 1237 726T1028 587T736 534Q637 533 562 553T429 605ZM734 551L936 584L1041 253Q1056 202 1071 174T1102 134T1138 123Q1159 123 1175 133T1208 163Q1215
171 1226 174T1247 174Q1261 169 1265 155T1260 122Q1232 57 1170 17T1027 -23Q984 -23 951 -6T891 52T844 167L734 551Z" />
<glyph unicode="S" horiz-adv-x="1145" d="M545 -22Q457 -22 400 -6T308 32T254 71T222 88Q211 88 197 73T168 37T136 2T105 -14Q81 -14 70 -1T61 39L103 385Q105 413 118 427T151 442Q171 442 183 429T205 389L219 302Q232 183 310 121T502 58Q577 58 634 85T727
162T772 277Q788 367 744 443T565 605Q417 702 354 798T306 1025Q318 1129 380 1220T555 1367T825 1424Q959 1424 1051 1381T1190 1270T1235 1125Q1233 1079 1210 1049T1146 1019Q1111 1019 1090 1038T1055 1099L1038 1167Q1015 1260 956 1305T810 1350Q724 1350
660 1317T557 1229T510 1106Q497 1008 547 929T727 759Q840 683 901 616T982 481T994 333Q984 226 924 146T767 22T545 -22Z" />
<glyph unicode="T" horiz-adv-x="1172" d="M536 1424Q591 1424 659 1414T799 1389T938 1359T1059 1333T1145 1323Q1182 1323 1202 1335T1231 1371Q1237 1388 1237 1407T1239 1444Q1246 1480 1268 1502T1334 1525Q1371 1525 1395 1499T1419 1420Q1418 1336 1359
1285T1201 1233Q1157 1233 1092 1245T953 1274T803 1309T661 1338T549 1350Q464 1350 428 1323T390 1248Q388 1224 394 1206T408 1169T415 1128Q414 1094 389 1070T323 1045Q274 1046 245 1083T220 1185Q222 1254 258 1308T364 1393T536 1424ZM636 147Q628 120
637 107T667 89L742 74Q778 63 774 38Q772 19 756 10T712 0H281Q256 0 245 10T233 35Q234 52 247 62T281 78L352 92Q376 97 392 113T419 163Q432 205 453 280T500 450T556 650T614 862T669 1066T717 1240T752 1365L958 1326Q944 1277 923 1200T875 1026T819 823T762
614T710 418T666 256T636 147Z" />
<glyph unicode="U" horiz-adv-x="1409" d="M1062 418L1277 1159Q1294 1223 1284 1258T1230 1308L1191 1318Q1164 1328 1153 1337T1142 1362Q1142 1378 1156 1389T1199 1400H1547Q1570 1400 1581 1391T1593 1367Q1593 1348 1582 1338T1541 1318L1491 1307Q1447
1293 1419 1260T1371 1154L1155 411Q1112 262 1037 165T853 21T598 -26Q467 -26 381 18T254 137T212 307Q213 346 221 400T244 514T272 625L441 1230Q451 1259 444 1281T412 1311L358 1323Q335 1332 326 1341T317 1365Q317 1380 331 1390T371 1400H803Q850 1400
850 1369Q849 1354 837 1342T797 1322L734 1308Q707 1301 692 1283T665 1228L495 625Q467 516 454 441T439 312Q439 192 505 131T688 69Q818 69 913 151T1062 418Z" />
<glyph unicode="V" horiz-adv-x="1248" d="M1048 1362Q1048 1379 1061 1389T1092 1400H1454Q1479 1400 1491 1391T1504 1367Q1504 1349 1495 1337T1462 1318L1428 1309Q1395 1298 1368 1275T1314 1215T1256 1128L667 211Q653 189 642 169T622 124L605 57Q598 32
582 16T537 0H380Q352 0 341 19T339 67L360 137Q370 162 369 186T367 235Q368 257 368 311T367 440T365 604T362 784T359 961T356 1115T353 1228Q352 1264 342 1284T308 1311L264 1322Q247 1327 239 1337T231 1361Q231 1378 246 1389T283 1400H704Q723 1400 733
1391T744 1366Q744 1349 734 1338T705 1322L628 1308Q597 1302 584 1277T571 1205Q571 1160 571 1086T573 918T575 723T577 517T580 320T581 148L511 124L1155 1138Q1184 1184 1188 1218T1179 1275T1137 1308L1087 1321Q1048 1336 1048 1362Z" />
<glyph unicode="W" horiz-adv-x="1904" d="M1114 1130L1150 1044L640 206Q622 179 611 159T591 111L575 55Q566 28 548 14T495 0H380Q346 0 332 16T329 62L348 129Q356 150 358 170T360 216Q360 246 360 315T359 479T357 680T355 891T353 1085T350 1235Q350 1267
341 1286T306 1312L275 1322Q252 1328 242 1338T231 1362Q231 1380 244 1390T283 1400H690Q717 1400 727 1391T738 1366Q738 1350 726 1339T690 1322L628 1308Q595 1302 581 1282T565 1220Q565 1176 565 1103T564 936T564 741T564 535T564 337T566 168L506 160L1114
1130ZM1723 1361Q1723 1378 1737 1389T1777 1400H2117Q2144 1400 2154 1391T2165 1366Q2165 1339 2117 1321L2085 1310Q2060 1301 2036 1279T1987 1223T1934 1143L1391 204Q1377 184 1367 163T1349 114L1334 56Q1327 28 1309 14T1264 0H1136Q1107 0 1094 18T1092
68L1110 129Q1117 150 1119 169T1121 209Q1120 246 1118 322T1113 496T1105 703T1097 914T1089 1099T1081 1229Q1077 1269 1068 1288T1032 1314L994 1325Q980 1330 971 1339T962 1360Q962 1379 976 1389T1018 1400H1409Q1432 1400 1443 1392T1455 1365Q1455 1349
1443 1339T1413 1322L1343 1307Q1308 1299 1297 1277T1286 1207Q1287 1171 1290 1094T1296 917T1303 707T1311 493T1318 304T1324 169L1265 167L1842 1159Q1873 1212 1868 1253T1813 1311L1758 1325Q1723 1337 1723 1361Z" />
<glyph unicode="X" horiz-adv-x="1300" d="M632 725L682 662L344 220Q297 158 298 125T337 83L373 75Q390 71 398 63T406 41Q406 23 391 12T352 0H15Q-8 0 -19 9T-31 35Q-31 51 -21 60T14 79Q43 84 70 95T125 123T180 167T237 231L632 725ZM643 1238Q652 1208
674 1146T726 998T791 817T861 622T930 435T990 276T1033 166Q1043 138 1057 121T1092 93T1143 77Q1185 64 1185 39Q1185 22 1170 11T1128 0H735Q706 0 695 9T684 34Q685 48 695 59T729 77L773 85Q802 94 808 115T802 174Q793 200 771 261T718 408T651 590T579
787T510 975T450 1134T407 1240Q391 1281 372 1297T312 1323Q288 1331 278 1340T268 1364Q269 1380 284 1390T325 1400H723Q750 1400 762 1391T774 1366Q774 1351 762 1340T727 1322L673 1312Q649 1306 641 1287T643 1238ZM786 698L726 750L1079 1229Q1139 1303
1187 1347T1281 1411T1374 1431Q1424 1431 1449 1406T1474 1343Q1474 1297 1443 1268T1357 1237Q1329 1236 1307 1237T1258 1233Q1227 1228 1199 1213T1140 1167T1073 1088L786 698Z" />
<glyph unicode="Y" horiz-adv-x="1170" d="M631 502L1008 1182Q1064 1278 1112 1332T1206 1409T1301 1432Q1355 1432 1381 1407T1408 1347Q1408 1299 1372 1267T1259 1218Q1217 1208 1179 1190T1103 1135T1028 1039L728 506Q710 477 701 457T685 415L622 159Q613
129 620 111T654 87L710 76Q732 69 740 61T748 40Q748 21 732 11T687 0H261Q235 0 225 9T214 35Q214 65 260 78L318 88Q351 94 370 113T400 167L468 424Q477 451 476 478T468 534Q464 559 455 613T435 741T411 892T388 1042T367 1167T353 1244Q345 1279 322 1297T255
1322Q233 1327 222 1336T209 1360Q209 1378 224 1389T265 1400H432Q488 1400 516 1378T554 1307Q560 1281 570 1221T592 1080T619 911T646 741T670 595T688 499L631 502Z" />
<glyph unicode="Z" horiz-adv-x="1212" d="M716 0H73Q14 0 14 45Q14 64 26 83T58 123Q89 154 144 217T270 365T422 548T586 749T750 948T899 1129T1020 1273T1100 1362L1124 1332H703Q628 1332 559 1283T408 1124Q387 1097 366 1090T326 1091Q306 1098 306 1116T324
1164L440 1376Q459 1408 474 1420T510 1432Q531 1432 547 1424T585 1408T640 1399H1286Q1317 1399 1330 1390T1344 1360Q1344 1344 1330 1325T1293 1284Q1269 1256 1221 1198T1108 1060T966 886T808 693T647 498T495 315T366 162T272 56L249 70H672Q741 70 799
91T910 169T1011 336Q1024 360 1035 370T1064 381Q1083 381 1092 369T1101 334Q1099 260 1079 195T1023 81T943 3T851 -26Q828 -26 809 -20T769 -7T716 0Z" />
<glyph unicode="[" horiz-adv-x="745" d="M670 1389L267 -131Q260 -154 268 -164T303 -174H502Q548 -174 537 -212Q532 -229 517 -239T479 -249H119Q87 -249 78 -235T78 -190L515 1448Q525 1479 543 1493T593 1508H953Q976 1508 984 1498T988 1470Q976 1431 930
1431H730Q705 1431 691 1422T670 1389Z" />
<glyph unicode="\" horiz-adv-x="860" d="M464 659Q474 587 486 484T513 265T542 31T568 -191T591 -370Q598 -405 616 -424T661 -445Q687 -445 698 -426T702 -372Q692 -296 676 -192T641 29T603 263T568 483T542 659Q532 733 520 836T495 1057T468 1292T442 1514T419
1694Q412 1729 395 1749T350 1770Q327 1769 317 1748T313 1693Q322 1618 337 1514T369 1293T404 1058T438 838T464 659Z" />
<glyph unicode="]" horiz-adv-x="745" d="M155 -132L558 1388Q565 1411 557 1421T522 1431H323Q277 1431 288 1469Q293 1486 308 1496T346 1506H706Q738 1506 747 1492T747 1447L310 -191Q300 -222 282 -236T232 -251H-128Q-151 -251 -159 -241T-163 -213Q-151
-174 -105 -174H95Q120 -174 134 -165T155 -132Z" />
<glyph unicode="^" horiz-adv-x="921" d="M741 1335H662L813 819Q825 794 839 784T872 773Q901 773 913 798T914 860L794 1360Q782 1400 767 1412T725 1425Q709 1425 693 1420T660 1401T617 1360L237 861Q204 827 201 801T225 774Q244 774 267 784T317 820L741 1335Z" />
<glyph unicode="_" horiz-adv-x="912" d="M-80 -259Q-75 -234 -62 -221T-26 -207H799Q821 -207 827 -221T828 -259Q823 -283 809 -296T774 -310H-51Q-73 -310 -79 -297T-80 -259Z" />
<glyph unicode="`" horiz-adv-x="457" d="M178 1278L235 1087Q239 1076 238 1065T225 1046Q214 1038 202 1038T180 1045L37 1178Q2 1205 -16 1232T-30 1296Q-25 1328 3 1356T72 1389Q119 1395 141 1364T178 1278Z" />
<glyph unicode="a" horiz-adv-x="1097" d="M843 259Q823 177 830 147T860 116Q878 116 896 126T941 163Q957 178 968 182T989 181Q1000 175 1000 160T988 122Q952 57 886 18T749 -21Q691 -21 663 8T634 92Q634 115 638 143T652 212T680 315T726 467L745 434Q690
289 613 187T445 32T259 -21Q154 -21 96 49T53 274Q63 374 104 470T213 651T369 799T561 899T778 935Q863 935 919 923T1002 890T1028 842Q1026 821 1014 809T988 785T969 751L843 259ZM264 282Q254 179 280 137T357 94Q402 94 453 130T556 229T653 376T731 556T781
754Q789 806 774 829T723 852Q660 852 598 821T480 733T377 603T302 448T264 282Z" />
<glyph unicode="b" horiz-adv-x="1099" d="M530 1062L373 521L335 520Q381 644 457 737T628 882T821 934Q932 934 994 864T1056 664Q1055 526 1005 403T873 184T690 34T487 -21Q377 -21 306 37T241 209L285 188L175 39Q152 13 133 3T97 -7Q68 -7 58 19T66 111L303
950Q350 1111 435 1219T650 1382T952 1437Q1059 1437 1112 1404T1165 1321Q1165 1278 1136 1250T1054 1221Q1019 1221 987 1238T925 1278T863 1318T798 1336Q708 1336 639 1268T530 1062ZM721 830Q669 829 614 790T508 687T416 542T351 379T326 220Q325 140 364
103T459 65Q509 65 562 99T666 191T756 327T820 490T844 663Q845 724 829 761T785 814T721 830Z" />
<glyph unicode="c" horiz-adv-x="910" d="M604 857Q537 857 472 806T359 667T294 462Q269 284 319 195T474 105Q524 106 573 127T664 190T728 293Q744 316 755 327T781 337Q797 337 805 322T806 278Q798 230 768 178T685 80T558 7T389 -21Q204 -21 122 101T75
431Q93 536 141 628T264 789T432 897T634 936Q721 936 778 905T864 825T891 717Q889 652 852 618T771 583Q730 583 709 603T687 655Q688 681 696 707T704 763Q704 804 678 830T604 857Z" />
<glyph unicode="d" horiz-adv-x="1120" d="M952 798L831 771Q816 814 788 835T707 856Q643 856 581 822T462 729T361 594T291 434T261 265Q256 175 285 136T365 97Q408 97 461 132T568 232T669 379T744 559L920 1145Q965 1296 1053 1366T1263 1437Q1345 1437 1383
1406T1422 1331Q1422 1286 1396 1257T1318 1228Q1289 1228 1268 1239T1229 1264T1190 1290T1143 1301Q1098 1301 1066 1265T1029 1180Q1028 1157 1033 1135T1045 1089T1057 1040T1062 984T1051 916L856 261Q832 179 838 148T872 116Q889 116 907 126T953 163Q969
178 980 182T1001 181Q1013 175 1013 160T1000 122Q977 79 939 47T856 -3T763 -21Q705 -21 676 8T646 92Q646 122 654 162T680 267T728 431L757 416Q692 271 611 174T442 28T270 -21Q195 -21 143 12T68 112T54 287Q65 417 123 533T276 740T487 883T731 935Q797
935 843 918T917 869T952 798Z" />
<glyph unicode="e" horiz-adv-x="970" d="M180 413Q180 413 217 427T314 463T444 512T580 564T696 608L673 576Q681 601 685 632T689 705Q689 773 661 816T584 859Q537 859 487 824T393 725T319 578T282 397Q271 250 327 176T486 102Q548 102 605 125T709 194T782
304Q796 326 807 333T832 341Q848 341 857 328T859 283Q845 206 787 136T630 23T397 -21Q282 -21 207 22T97 146T70 339Q78 460 125 567T250 757T425 888T629 936Q707 936 760 905T842 822T874 706Q876 691 883 681T903 671Q917 672 924 666T931 647Q931 632 918
619T867 592Q827 578 762 555T621 504T468 449T329 398T227 361T188 347L180 413Z" />
<glyph unicode="f" horiz-adv-x="638" d="M380 779L415 876L661 875Q688 875 702 868T716 840Q716 823 703 809T669 787T618 779H380ZM117 838Q117 855 130 866T172 877H294L341 1073Q381 1245 474 1336T723 1427Q812 1427 854 1393T896 1313Q896 1266 869 1237T795
1207Q765 1207 739 1220T690 1251T642 1281T590 1294Q541 1294 509 1261T465 1174Q458 1142 463 1104T479 1024T493 942T487 863L237 -61Q229 -90 225 -113T221 -157Q221 -182 233 -198T257 -228T269 -264Q269 -292 241 -317T167 -357T71 -373Q11 -373 -7 -329T0
-195L246 674Q263 731 248 757T166 791Q136 802 127 813T117 838Z" />
<glyph unicode="g" horiz-adv-x="1038" d="M806 3Q770 -168 679 -281T452 -449T145 -505Q27 -505 -31 -468T-89 -373Q-89 -333 -62 -305T13 -277Q50 -277 82 -296T144 -342T206 -387T273 -406Q339 -406 399 -377T505 -283T577 -110L705 422L737 401Q685 268 612
173T450 29T265 -21Q196 -21 147 9T73 102T56 263Q64 366 103 464T209 647T364 798T558 899T781 936Q864 936 919 925T1000 893T1024 849Q1022 826 1011 815T987 793T969 758L806 3ZM269 283Q263 213 275 173T312 115T368 98Q419 98 473 138T577 245T670 397T740
573T773 750Q779 804 765 828T715 852Q656 852 595 821T478 735T377 607T304 452T269 283Z" />
<glyph unicode="h" horiz-adv-x="1145" d="M351 357Q390 466 441 547T549 683T659 764T754 792Q809 792 819 752T795 612L658 219Q632 143 633 89T665 7T759 -21Q840 -21 907 18T1010 124Q1022 146 1022 161T1011 183Q1001 187 991 183T963 164Q936 138 918 128T882
117Q856 117 848 148T869 259L1003 641Q1035 732 1038 798T1007 899T888 935Q814 935 719 894T528 756T356 495L376 489L528 1031Q557 1135 598 1202T692 1303T806 1336Q840 1336 871 1319T933 1279T995 1239T1063 1221Q1117 1221 1147 1249T1178 1321Q1178 1371
1124 1404T959 1437Q789 1437 661 1383T445 1220T311 949L82 135Q68 87 68 52T87 -2T144 -21Q222 -21 268 4T315 69Q315 95 309 113T302 158Q302 176 307 204T324 271T351 357Z" />
<glyph unicode="i" horiz-adv-x="630" d="M346 260Q318 181 325 150T360 118Q377 118 395 128T441 165Q457 180 468 184T489 183Q501 177 501 162T488 124Q452 58 385 19T237 -20Q175 -20 144 8T111 90T138 221L299 654Q328 733 321 765T285 797Q270 797 251 787T204
749Q188 735 177 731T156 731Q145 737 145 752T157 790Q193 856 259 895T406 935Q464 935 495 907T530 824T504 688L346 260ZM480 1125Q416 1125 382 1160T354 1245Q358 1284 383 1317T448 1371T541 1391Q608 1391 639 1356T664 1270Q660 1230 635 1197T570 1145T480
1125Z" />
<glyph unicode="j" horiz-adv-x="608" d="M519 687L248 -207Q203 -355 119 -425T-94 -495Q-163 -495 -199 -467T-235 -394Q-235 -354 -209 -327T-136 -299Q-102 -299 -76 -312T-24 -340T32 -355Q65 -355 97 -333T144 -242Q150 -216 148 -190T138 -134T126 -71T122
1T137 85L313 654Q338 735 330 766T294 797Q276 797 257 787T211 749Q195 735 184 731T163 731Q151 737 151 752T164 790Q188 834 226 866T311 917T412 935Q500 935 528 874T519 687ZM471 1125Q407 1125 373 1160T345 1245Q349 1284 374 1317T439 1371T532 1391Q599
1391 630 1356T655 1270Q652 1230 627 1197T562 1145T471 1125Z" />
<glyph unicode="k" horiz-adv-x="1101" d="M397 543Q403 578 415 623T443 728T481 863T529 1031Q558 1136 600 1203T694 1303T808 1336Q842 1336 873 1319T934 1279T997 1239T1065 1221Q1119 1221 1149 1249T1179 1321Q1179 1371 1125 1404T961 1437Q791 1437
663 1383T447 1220T313 950L83 137Q70 89 70 54T89 0T145 -19Q198 -19 236 -8T296 24T317 71Q317 98 311 116T304 160Q304 176 307 198T322 265T355 394Q380 490 429 572T540 714T665 805T785 832Q836 828 858 798T872 718Q861 649 802 589T622 479T302 391L301
325Q556 372 723 435T976 576T1073 743Q1085 831 1034 881T882 935Q798 939 719 910T570 826T448 695T362 530L397 543ZM528 401L613 135Q638 55 673 18T773 -21Q827 -22 871 -2T947 56T991 147Q996 168 992 178T975 192Q966 194 957 190T932 167Q919 149 902 135T862
122Q837 125 817 147T778 225L702 446L528 401Z" />
<glyph unicode="l" horiz-adv-x="626" d="M735 1437Q816 1437 854 1405T893 1328Q893 1286 868 1259T793 1232Q764 1232 742 1242T702 1266T663 1290T614 1301Q584 1301 559 1285T519 1241T500 1179Q499 1156 504 1134T516 1088T529 1039T534 983T522 915L324
279Q296 184 304 152T348 120Q378 120 411 137T473 189Q486 202 495 205T513 206Q525 202 528 188T520 150Q502 103 456 64T349 2T218 -21Q153 -21 121 6T87 90T112 233L394 1145Q441 1296 527 1366T735 1437Z" />
<glyph unicode="m" horiz-adv-x="1696" d="M661 172L815 612Q849 710 839 751T782 792Q728 792 655 744T510 600T386 357Q364 295 352 257T334 197T329 160Q329 134 337 116T346 73Q346 30 300 5T177 -21Q114 -21 101 26T124 172L296 655Q324 734 317 765T282
797Q266 797 247 787T201 749Q185 735 174 731T153 731Q142 737 142 752T154 790Q190 856 258 895T408 935Q463 935 494 911T526 838Q526 809 515 772T482 682T431 557T363 382L359 424Q436 616 536 727T736 887T915 935Q988 935 1024 905T1057 813Q1056 786 1046
752T1016 670T969 553T905 382L895 424Q953 567 1023 665T1169 823T1317 908T1448 935Q1525 935 1558 899T1590 798T1555 641L1421 259Q1393 181 1401 149T1436 117Q1453 117 1471 127T1517 164Q1534 179 1545 183T1565 183Q1577 177 1577 162T1564 124Q1529 58
1462 19T1313 -21Q1251 -21 1220 7T1188 89T1212 219L1349 612Q1384 710 1372 751T1315 792Q1262 792 1190 744T1046 599T923 357Q901 295 889 257T871 197T866 160Q866 134 874 116T883 72Q883 30 837 5T714 -21Q672 -21 653 -1T635 63T661 172Z" />
<glyph unicode="n" horiz-adv-x="1180" d="M153 731Q142 737 142 752T154 790Q191 856 258 895T408 935Q463 935 494 911T526 838Q526 809 515 772T482 682T431 557T363 382L359 424Q417 568 489 666T638 823T788 909T922 935Q1006 935 1041 900T1073 798T1037
641L903 259Q875 180 882 149T916 117Q933 117 951 127T997 164Q1014 179 1024 183T1045 183Q1057 177 1057 162T1045 124Q1009 58 942 19T793 -21Q732 -21 701 7T668 89T693 219L830 612Q866 712 855 752T789 792Q748 792 695 765T585 684T477 548T386 357Q364
295 352 257T334 197T329 160Q329 134 337 116T346 73Q346 30 300 5T177 -21Q114 -21 101 26T124 172L296 654Q324 733 317 765T282 797Q266 797 247 787T201 749Q185 735 174 731T153 731Z" />
<glyph unicode="o" horiz-adv-x="1054" d="M634 936Q757 933 844 876T968 715T980 466Q960 357 909 266T782 110T613 10T417 -21Q296 -17 211 39T89 200T77 449Q98 559 148 649T273 805T439 905T634 936ZM421 62Q464 58 506 73T586 122T657 205T715 322T757 469Q783
594 774 677T728 803T630 853Q587 857 547 842T469 793T399 710T341 594T300 446Q274 321 282 238T327 112T421 62Z" />
<glyph unicode="p" horiz-adv-x="1095" d="M578 1008L214 -290Q203 -332 209 -352T251 -379L316 -390Q340 -394 349 -403T359 -427Q360 -444 346 -454T307 -466L-95 -477Q-115 -478 -126 -469T-137 -444Q-137 -429 -128 -419T-97 -398Q-63 -389 -44 -378T-14 -351T5
-310L384 1001Q391 1025 402 1043T429 1076T462 1100T496 1114T530 1119Q569 1119 581 1092T578 1008ZM191 667Q176 653 159 650T129 657Q116 670 122 690T148 729Q216 798 296 845T468 916T661 936Q789 931 875 875T998 716T1016 464Q996 313 922 203T738 33T503
-21Q398 -17 331 26T238 146L300 175Q325 126 364 99T459 68Q537 64 607 109T730 249T805 488Q823 604 805 683T739 806T624 855Q520 865 412 821T191 667Z" />
<glyph unicode="q" horiz-adv-x="1072" d="M707 399L734 380Q683 255 605 166T438 28T259 -21Q157 -21 99 42T49 234Q54 341 93 443T201 634T360 791T560 897T790 936Q874 936 930 923T1013 889T1038 839Q1036 815 1025 800T999 768T977 721L700 -304Q689 -347
695 -368T725 -397L779 -411Q795 -417 803 -424T811 -444Q811 -461 798 -470T759 -481L345 -492Q319 -493 303 -484T287 -458Q287 -443 300 -432T349 -414Q395 -407 423 -396T467 -365T493 -315L707 399ZM263 244Q260 167 286 134T357 100Q409 100 466 139T577
246T677 397T752 572T787 747Q793 804 777 828T725 853Q659 853 594 819T471 726T367 588T294 422T263 244Z" />
<glyph unicode="r" horiz-adv-x="935" d="M145 731Q133 737 133 752T146 790Q170 834 208 866T295 917T396 935Q447 935 475 910T504 837Q504 795 487 740T446 625T403 511T381 416L365 418Q397 536 446 631T554 794T676 898T801 935Q876 935 914 893T951 781Q949
728 930 691T882 633T817 613Q779 613 761 631T743 672Q743 694 749 713T756 755Q756 780 745 795T707 810Q664 810 608 758T494 603T387 348Q364 279 354 238T343 163Q343 139 352 126T372 100T382 64Q382 41 361 21T298 -10T196 -21Q150 -21 128 -1T107 62T130
169L290 654Q317 733 309 765T274 797Q258 797 239 787T193 749Q177 735 166 731T145 731Z" />
<glyph unicode="s" horiz-adv-x="867" d="M377 54Q443 54 484 88T526 177Q526 207 513 235T466 298T364 383Q292 437 250 478T191 561T174 654Q174 731 220 794T353 897T560 936Q655 936 719 910T817 842T851 748Q851 709 833 687T784 665Q755 665 733 684T689
750Q663 807 625 836T534 866Q459 866 415 827T370 727Q370 696 383 666T430 600T531 510Q608 451 650 408T708 325T724 237Q724 162 678 104T548 13T349 -21Q247 -21 177 8T71 85T34 184Q35 221 52 243T99 265Q131 265 155 245T201 178Q236 110 280 82T377 54Z"
/>
<glyph unicode="t" horiz-adv-x="745" d="M262 808L184 824Q167 829 159 839T151 863Q151 881 165 891T206 902H294Q318 902 336 911T369 938L477 1084Q490 1101 504 1107T534 1113Q552 1113 561 1104T571 1076Q571 1065 568 1047T557 1005L339 289Q307 187 323
153T394 119Q440 119 480 139T565 208Q577 221 585 226T603 231Q615 231 621 223T626 201Q623 168 594 130T517 57T405 1T269 -21Q192 -21 153 10T110 103T133 254L277 713Q293 763 289 782T262 808ZM431 813L459 899H729Q765 899 765 868Q765 842 743 828T682
813H431Z" />
<glyph unicode="u" horiz-adv-x="1175" d="M1033 183Q1044 177 1044 162T1032 124Q995 58 928 19T778 -21Q723 -21 691 3T659 76Q659 105 671 142T704 232T755 358T823 532L827 490Q769 346 697 248T547 91T397 5T263 -21Q180 -21 145 15T113 116T149 273L283
655Q311 734 304 765T269 797Q253 797 234 787T188 750Q172 735 161 731T140 732Q129 737 129 752T141 790Q177 856 244 895T392 935Q455 935 486 907T519 826T493 695L356 302Q320 202 331 162T397 122Q438 122 491 149T601 230T709 366T800 557Q822 619 834 657T851
717T856 754Q856 781 848 798T840 842Q840 884 885 909T1009 935Q1072 935 1084 889T1062 743L890 260Q862 181 869 149T903 117Q920 117 938 127T984 165Q1001 180 1012 184T1033 183Z" />
<glyph unicode="v" horiz-adv-x="1125" d="M1080 761Q1080 631 1046 514T949 300T805 130T625 19T425 -21Q330 -21 276 27T225 170Q226 249 257 317T336 446T435 560T529 664T593 762L591 718Q542 718 495 729T402 754T315 779T236 791Q197 792 175 774T151 727Q150
698 187 675Q210 662 220 649T229 615Q229 585 209 568T162 551Q119 551 92 587T66 692Q68 761 99 816T185 904T314 936Q353 936 396 926T479 906T549 895Q581 895 597 905T625 926T656 936Q675 935 682 921T685 876Q674 822 650 761T596 633T538 495T492 356T474
220Q474 151 500 120T571 88Q626 88 687 132T801 249T889 412T923 595Q923 644 915 673T885 727Q863 752 853 773T843 822Q843 854 858 879T898 920T956 935Q1013 935 1046 893T1080 761Z" />
<glyph unicode="w" horiz-adv-x="1644" d="M1081 937Q1118 935 1129 883T1114 723Q1066 518 995 376T835 146T646 19T436 -21Q329 -21 274 27T220 170Q222 249 254 317T335 446T435 560T530 664T594 763L586 719Q538 719 490 730T397 755T311 780T232 792Q192
793 170 774T147 727Q146 699 183 676Q206 662 215 649T225 616Q224 586 204 569T158 552Q115 552 88 588T62 692Q64 762 95 817T181 904T310 936Q349 936 391 926T474 906T544 895Q577 895 593 906T623 927T658 937Q682 936 693 919T700 868Q690 818 663 763T604
646T541 519T490 381T470 234Q470 162 499 130T585 97Q641 97 702 128T828 229T954 413T1072 694Q1028 513 1015 394T1012 206T1050 109T1118 81Q1162 81 1209 109T1300 189T1379 316T1434 481Q1444 532 1443 574T1430 650T1396 712Q1374 738 1363 765T1351 823Q1352
851 1367 876T1408 918T1469 934Q1544 934 1575 851T1584 618Q1564 479 1513 363T1390 160T1234 27T1060 -21Q976 -21 923 23T849 158T843 384T906 703Q941 833 986 886T1081 937Z" />
<glyph unicode="x" horiz-adv-x="1165" d="M509 473L564 455Q532 322 489 231T394 84T288 4T175 -21Q93 -21 52 25T12 150Q13 225 44 270T122 316Q157 316 178 293T199 230Q199 208 195 185T190 138Q190 115 203 102T243 89Q277 89 321 120T414 235T509 473ZM679
711L682 254Q682 180 708 145T777 109Q816 109 846 127T913 190Q934 214 945 223T971 229Q987 227 992 214T987 175Q967 124 926 79T829 7T707 -21Q639 -21 594 7T526 90T500 226L495 676Q495 749 471 781T406 813Q371 813 338 795T266 725Q251 705 241 698T219
692Q203 695 198 709T203 752Q223 800 264 842T364 910T491 936Q554 936 595 909T657 832T679 711ZM664 405L615 422Q650 564 694 662T791 820T899 908T1011 935Q1087 935 1127 890T1167 773Q1167 688 1133 642T1051 595Q1019 595 1000 615T981 669Q982 690 991
718T1000 775Q1000 794 986 805T945 817Q915 817 881 797T810 729T737 603T664 405Z" />
<glyph unicode="y" horiz-adv-x="1019" d="M659 547Q740 754 821 847T995 940Q1040 940 1064 915T1089 847Q1089 797 1058 763T969 708Q929 698 895 679T828 625T761 531T690 380L504 -71Q444 -228 368 -321T196 -455T-15 -496Q-116 -496 -169 -457T-222 -357Q-222
-315 -195 -286T-125 -256Q-96 -256 -75 -270T-36 -306T-1 -348T39 -384T93 -399Q138 -399 177 -376T246 -313T293 -218T311 -101Q312 -60 311 1T306 135T298 288T289 443T278 587T266 704Q263 753 250 776T214 799Q198 799 182 789T147 752Q136 737 127 733T107
731Q97 733 93 746T96 782Q112 828 145 863T222 917T318 937Q379 937 416 896T460 768Q463 728 466 656T471 494T475 306T477 117T478 -49L448 -24L659 547Z" />
<glyph unicode="z" horiz-adv-x="990" d="M310 193Q335 219 371 252T463 337T599 463Q666 530 715 576T800 651T860 696T905 720Q960 740 986 773T1012 857Q1012 892 994 914T941 936Q911 936 891 920T857 882T830 836T804 798T773 782Q747 782 722 797T667 836T602
882T520 920T413 936Q331 936 272 899T180 805T148 682Q148 624 175 594T244 563Q272 563 289 578T306 620Q306 635 299 647T272 671Q251 685 244 696T236 718Q236 744 261 759T334 774Q372 774 427 762T544 734T659 707T746 695L750 733Q737 718 702 684T610 595T473
465Q413 405 367 362T284 290T219 242T165 213Q114 191 82 165T36 110T21 54Q21 18 41 -1T96 -20Q127 -20 149 -3T189 40T220 91T248 134T280 152Q300 152 323 135T374 92T436 40T515 -3T618 -21Q695 -21 758 15T858 115T897 263Q897 288 891 298T873 309Q863 309
856 302T839 276Q821 218 782 195T673 172Q622 172 562 186T441 215T328 229L310 193Z" />
<glyph unicode="{" horiz-adv-x="799" d="M410 635Q404 612 433 612Q501 612 541 594T595 541T599 462Q586 407 544 354T449 248T353 140T293 23Q277 -37 289 -81T342 -150T448 -174H522Q545 -174 553 -184T556 -213Q551 -229 537 -239T499 -250H396Q278 -250
207 -215T112 -117T110 25Q132 103 183 169T292 291T395 396T451 489Q461 531 444 555T381 580Q354 580 334 574T293 561T246 554Q206 554 191 579T184 636Q193 668 222 693T293 718Q319 718 336 712T370 699T414 692Q461 692 490 716T531 781Q542 826 523 874T475
978T431 1097T437 1240Q458 1319 513 1379T657 1474T862 1508H965Q988 1508 997 1498T1000 1470Q994 1451 980 1441T943 1431H869Q771 1431 706 1381T616 1242Q601 1182 615 1127T653 1020T692 916T692 809Q673 740 610 699T446 658Q431 658 422 652T410 635Z"
/>
<glyph unicode="|" horiz-adv-x="640" d="M319 635Q339 709 366 819T423 1053T481 1291T531 1489Q540 1519 561 1536T612 1553Q642 1553 652 1536T655 1488Q639 1430 615 1346T562 1165T504 969T450 784T408 635Q391 573 369 486T323 301T276 106T231 -77T194
-220Q185 -250 164 -267T114 -283Q84 -283 73 -266T71 -219Q93 -136 127 -21T197 217T266 450T319 635Z" />
<glyph unicode="}" horiz-adv-x="798" d="M466 614Q472 637 443 637Q375 637 335 655T281 708T277 787Q290 842 332 895T427 1001T523 1109T583 1226Q599 1286 587 1330T534 1399T428 1423H354Q331 1423 323 1433T320 1462Q325 1478 339 1488T377 1499H480Q598
1499 669 1464T764 1366T766 1224Q744 1146 693 1080T584 958T481 853T425 760Q415 718 432 694T495 669Q522 669 542 675T583 688T630 695Q670 695 685 670T692 613Q683 581 654 556T583 531Q557 531 540 537T506 550T462 557Q415 557 386 533T345 468Q334 423
353 375T401 271T445 152T439 9Q418 -70 363 -130T219 -225T14 -259H-89Q-112 -259 -121 -249T-124 -221Q-118 -202 -104 -192T-67 -182H7Q105 -182 170 -132T260 7Q275 67 261 122T223 229T184 333T184 440Q203 509 266 550T430 591Q445 591 454 597T466 614Z"
/>
<glyph unicode="~" horiz-adv-x="1243" d="M903 541Q837 541 781 573T675 647T574 721T468 753Q396 753 340 704T250 570Q239 552 223 542T187 532Q140 532 158 584Q180 658 231 720T350 819T496 856Q571 856 629 825T736 752T832 679T933 647Q993 647 1045 685T1124
807Q1137 831 1154 841T1190 852Q1213 852 1221 838T1222 796Q1203 724 1155 666T1041 575T903 541Z" />
<glyph unicode="&#xa0;" horiz-adv-x="405" />
<glyph unicode="&#xa1;" horiz-adv-x="645" d="M117 -344Q50 -344 28 -313T17 -232Q20 -216 29 -190T49 -138L334 660Q347 686 362 698T397 710Q418 710 425 699T430 660L292 -140Q289 -162 286 -184T278 -222Q264 -279 224 -311T117 -344ZM524 1174Q584 1174
616 1141T643 1058Q639 1020 615 988T550 937T458 917Q396 917 367 951T344 1035Q348 1072 371 1103T434 1154T524 1174Z" />
<glyph unicode="&#xa2;" horiz-adv-x="986" d="M978 698Q972 650 939 623T865 595Q828 595 807 617T794 688L801 731Q812 779 799 814T751 870T660 890Q578 890 503 843T371 708T287 504Q244 313 309 215T509 116Q608 116 685 165T809 293Q821 304 830 313T854
322Q869 322 877 308T876 272Q844 193 780 130T626 31T429 -5Q296 -5 209 51T90 210T86 457Q107 561 160 650T293 805T470 909T676 946Q786 946 857 911T960 820T978 698ZM570 486Q549 411 530 336T495 192T466 62T442 -43T423 -116Q417 -137 403 -149T369 -161Q352
-161 344 -149T343 -113Q349 -91 359 -56T384 24T413 124T446 238T482 360T518 486Q534 545 549 604T578 720T603 829T625 925T643 1004T657 1059Q663 1080 678 1091T712 1103Q729 1103 736 1092T738 1056Q732 1035 722 1002T699 924T670 829T638 720T604 604T570
486Z" />
<glyph unicode="&#xa3;" horiz-adv-x="1232" d="M345 274L292 290Q366 331 406 379T459 482Q469 530 458 580T427 684T387 794T359 913T363 1043Q384 1155 461 1242T661 1380T938 1431Q1072 1431 1153 1389T1267 1278T1286 1125Q1280 1077 1259 1041T1207 985T1139
965Q1090 965 1068 999T1060 1094L1076 1191Q1095 1281 1053 1328T917 1375Q804 1375 723 1301T602 1084Q585 1016 585 947T590 807T596 669T579 534Q557 459 501 390T345 274ZM-4 80Q7 145 53 199T170 287T329 320Q398 320 457 299T572 249T682 200T796 178Q876
178 926 214T1022 329Q1034 347 1047 354T1075 360Q1090 358 1096 348T1095 318Q1067 234 1030 170T946 63T843 -2T724 -24Q658 -24 612 -5T529 57T461 169Q422 213 394 231T331 250Q293 250 268 220T223 124Q202 70 179 37T129 -10T68 -25Q27 -25 8 3T-4 80ZM194
650Q197 663 211 671T241 680L469 686L499 626H221Q206 626 198 632T194 650ZM543 625L547 680H954Q970 680 977 672T980 653Q972 625 936 625H543Z" />
<glyph unicode="&#xa4;" horiz-adv-x="1141" d="M540 356Q637 356 724 396T876 510T967 682Q994 780 969 853T879 966T718 1007Q623 1007 537 967T386 854T296 685Q269 587 293 513T381 398T540 356ZM566 430Q460 430 414 502T396 683Q415 756 459 812T565 901T697
934Q803 934 849 863T868 683Q849 611 805 554T699 463T566 430ZM942 248Q965 263 968 283T958 319L824 506L729 442L863 256Q877 240 898 237T942 248ZM317 1112Q294 1097 292 1077T301 1041L435 855L529 919L395 1104Q383 1120 361 1124T317 1112ZM97 253Q109
238 133 239T180 257L400 443L341 508L121 322Q100 305 92 287T97 253ZM1163 1109Q1150 1125 1126 1124T1079 1106L859 920L918 854L1137 1040Q1159 1057 1167 1075T1163 1109Z" />
<glyph unicode="&#xa5;" horiz-adv-x="1199" d="M643 502L1022 1170Q1082 1269 1131 1325T1225 1404T1319 1428Q1374 1428 1400 1404T1426 1345Q1426 1300 1392 1268T1282 1217Q1234 1206 1195 1187T1121 1132T1049 1039L740 506Q721 477 712 457T697 415L634
159Q625 129 632 111T666 87L722 76Q744 69 752 61T760 40Q760 21 744 11T699 0H273Q248 0 237 9T226 35Q226 65 272 78L330 88Q363 94 382 113T412 167L480 424Q489 451 488 478T480 534Q476 559 467 613T447 741T423 892T400 1042T379 1167T365 1244Q357 1279
334 1297T268 1322Q245 1327 234 1336T221 1360Q221 1378 236 1389T277 1400H444Q500 1400 528 1378T566 1307Q573 1281 582 1221T604 1080T631 911T658 741T682 595T700 499L643 502ZM113 472Q117 485 129 492T156 500H1066Q1084 500 1091 493T1095 473Q1091 458
1079 451T1048 444H136Q105 444 113 472ZM179 743Q182 755 194 763T221 772H575L588 714H201Q170 714 179 743ZM822 714L863 772H1133Q1150 772 1157 764T1161 743Q1156 729 1144 722T1116 714H822Z" />
<glyph unicode="&#xa6;" horiz-adv-x="660" d="M453 764Q444 731 429 717T391 703Q370 703 363 718T363 764Q385 849 406 941T445 1124T481 1299T517 1447Q529 1491 555 1515T617 1539Q654 1539 665 1515T664 1447Q647 1382 621 1299T564 1125T505 941T453 764ZM286
487Q295 519 310 533T349 548Q369 548 377 533T376 487Q353 403 333 311T295 127T258 -47T223 -195Q211 -239 185 -264T122 -289Q86 -289 75 -264T75 -195Q93 -130 119 -48T175 126T235 310T286 487Z" />
<glyph unicode="&#xa7;" horiz-adv-x="1129" d="M388 -390Q332 -390 292 -378T223 -351T177 -325T150 -313Q138 -313 127 -324T104 -349T82 -375T61 -387Q43 -387 36 -378T29 -351L42 -84Q43 -68 53 -56T81 -40Q99 -37 110 -43T129 -68Q145 -160 183 -215T277
-294T399 -318Q489 -318 554 -272T640 -146Q661 -67 620 1T448 128Q324 177 260 237T180 368T185 521Q205 597 257 658T387 760T559 814L574 762Q497 750 440 700T365 578Q345 493 386 424T559 296Q687 243 751 182T831 52T826 -94Q805 -178 744 -245T592 -351T388
-390ZM819 1354Q722 1354 652 1298T558 1148Q537 1066 582 998T737 878Q856 827 922 764T1010 628T1010 477Q991 400 933 338T787 237T596 193L605 248Q692 254 752 304T832 423Q855 501 812 573T630 709Q463 778 400 880T372 1114Q394 1202 457 1272T617 1384T836
1425Q951 1425 1030 1386T1149 1283T1187 1150Q1186 1107 1164 1080T1105 1052Q1071 1052 1050 1070T1018 1126L1005 1183Q993 1240 969 1278T908 1335T819 1354Z" />
<glyph unicode="&#xa8;" horiz-adv-x="720" d="M12 1058Q-40 1058 -63 1089T-73 1171Q-60 1223 -20 1254T73 1286Q126 1286 149 1255T158 1171Q145 1122 105 1090T12 1058ZM390 1058Q338 1058 315 1089T304 1172Q318 1222 358 1254T450 1286Q504 1286 527 1255T536
1171Q523 1122 484 1090T390 1058Z" />
<glyph unicode="&#xa9;" horiz-adv-x="1759" d="M733 -85Q904 -85 1063 -31T1355 124T1585 365T1729 678Q1781 864 1764 1020T1671 1290T1470 1468T1178 1531Q1004 1531 843 1476T547 1321T316 1082T173 777Q122 593 139 436T232 162T435 -20T733 -85ZM755 -15Q603
-15 490 44T311 210T231 462T264 778Q303 926 389 1051T594 1267T856 1409T1156 1460Q1302 1460 1412 1402T1590 1239T1672 990T1640 679Q1599 527 1513 401T1307 181T1046 36T755 -15ZM1308 477Q1292 426 1249 376T1141 284T998 217T829 192Q699 192 613 260T497
450T508 734Q535 842 593 935T734 1100T913 1211T1111 1251Q1185 1251 1226 1234T1290 1198T1325 1180Q1338 1180 1352 1194T1381 1223T1408 1238Q1424 1238 1429 1231T1435 1204L1436 946Q1436 930 1423 918T1390 903Q1373 901 1361 909T1344 934Q1328 1031 1297
1085T1222 1161T1120 1183Q1055 1183 995 1151T881 1060T788 922T725 750Q688 601 705 502T781 353T930 303Q1006 303 1077 340T1206 451Q1232 469 1248 482T1274 501T1296 505Q1316 500 1308 477Z" />
<glyph unicode="&#xaa;" horiz-adv-x="1040" d="M892 842Q878 783 883 759T915 735Q933 735 949 745T987 780Q1000 788 1009 791T1025 791Q1034 786 1036 775T1028 744Q1002 687 944 652T809 616Q764 616 739 640T714 711Q714 731 717 755T729 816T753 903T792
1026L805 997Q748 875 681 790T539 661T381 616Q295 616 246 675T207 865Q213 973 264 1073T401 1252T596 1379T827 1426Q907 1426 959 1416T1036 1388T1060 1348Q1059 1330 1048 1319T1025 1298T1007 1271L892 842ZM393 870Q386 785 408 750T471 715Q512 715 558
745T650 828T736 953T804 1106T844 1276Q850 1313 835 1333T785 1353Q719 1353 653 1312T530 1202T437 1046T393 870Z" />
<glyph unicode="&#xab;" horiz-adv-x="1082" d="M121 510Q127 528 145 542T207 582Q301 638 372 682T497 763T597 834Q614 845 630 848T655 843Q664 834 660 821T641 792Q612 760 575 725T493 648T395 561T281 464L289 518Q336 448 370 386T428 272T470 175Q476
161 474 149T461 129Q448 122 437 125T414 141Q386 181 352 226T271 322T161 430Q132 457 124 474T121 510ZM535 510Q541 528 559 542T621 582Q715 638 786 682T911 763T1011 834Q1028 845 1044 848T1069 843Q1078 834 1074 821T1055 792Q1026 760 989 725T907
648T809 561T695 464L703 518Q750 448 784 386T842 272T884 175Q890 161 888 149T875 129Q862 122 851 125T828 141Q800 181 766 226T685 322T575 430Q546 457 538 474T535 510Z" />
<glyph unicode="&#xac;" horiz-adv-x="1111" d="M219 795Q226 817 247 829T291 842H990Q1019 842 1032 828T1037 787L953 471Q947 452 929 439T884 425Q857 425 846 440T841 474L920 771L935 748H260Q237 748 225 760T219 795Z" />
<glyph unicode="&#xad;" horiz-adv-x="772" d="M906 590Q951 590 930 552L897 481Q888 463 877 457T845 450H369Q346 450 340 460T344 489L376 558Q386 577 397 583T427 590H906Z" />
<glyph unicode="&#xae;" horiz-adv-x="1415" d="M646 273Q786 273 916 318T1156 444T1343 636T1456 877Q1493 1013 1476 1128T1395 1328T1225 1459T982 1506Q844 1506 715 1463T479 1341T294 1155T181 919Q144 780 159 663T237 458T403 322T646 273ZM665 335Q505
335 401 411T260 621T267 919Q308 1073 412 1191T659 1376T962 1444Q1121 1444 1227 1370T1374 1169T1371 877Q1329 722 1224 600T974 406T665 335ZM1155 1009Q1136 937 1070 886T919 821Q893 817 871 812T821 807Q772 807 732 819T664 849L684 897Q714 876 749
868T818 859Q892 859 943 899T1011 1008Q1033 1096 998 1151T885 1206Q841 1206 819 1192T789 1147Q782 1120 770 1070T742 960T712 839T683 726T661 643Q657 623 660 613T676 598L704 591Q715 587 718 582T718 568Q712 548 682 548H445Q413 548 419 568Q422 578
430 583T451 592L481 601Q495 604 505 613T520 642Q529 675 543 727T572 841T604 964T632 1077T652 1159Q656 1177 653 1187T639 1199L611 1207Q590 1214 595 1233Q603 1255 633 1255H899Q1048 1255 1115 1187T1155 1009ZM811 832L934 853L973 677Q980 642 992
629T1021 616Q1033 616 1043 621T1061 636Q1071 645 1082 643Q1091 642 1093 633T1090 611Q1073 574 1037 553T952 532Q911 532 885 556T847 639L811 832Z" />
<glyph unicode="&#xaf;" horiz-adv-x="697" d="M-96 1164Q-89 1192 -72 1205T-30 1219H429Q453 1219 462 1206T465 1165Q457 1136 440 1123T399 1110H-61Q-85 1110 -94 1123T-96 1164Z" />
<glyph unicode="&#xb0;" horiz-adv-x="783" d="M621 1425Q707 1425 762 1388T838 1284T834 1130Q811 1049 755 987T623 890T463 855Q337 855 276 936T250 1144Q272 1223 326 1286T457 1387T621 1425ZM599 1353Q511 1353 441 1293T348 1144Q323 1049 362 989T486
928Q569 928 640 984T736 1131Q762 1227 724 1290T599 1353Z" />
<glyph unicode="&#xb1;" horiz-adv-x="1113" d="M537 429Q513 429 503 442T499 474L696 1212Q702 1229 719 1241T761 1253Q786 1253 796 1240T799 1210L603 471Q597 453 579 441T537 429ZM226 842Q232 863 251 874T291 886H1040Q1060 886 1071 875T1076 842Q1069
820 1049 808T1006 796H266Q243 796 231 808T226 842ZM93 198Q99 219 118 230T159 242H907Q928 242 938 231T943 198Q937 176 916 165T874 153H134Q110 153 99 164T93 198Z" />
<glyph unicode="&#xb2;" horiz-adv-x="719" d="M276 846L245 869L414 956Q530 1015 588 1074T668 1220Q690 1302 672 1342T603 1382Q547 1382 514 1354T468 1279L455 1229Q445 1192 419 1172T357 1152Q323 1152 309 1173T304 1232Q325 1305 409 1364T627 1423Q755
1423 803 1365T827 1219Q808 1146 738 1085T516 952L276 846ZM168 776Q183 830 237 863T380 897Q413 897 442 886T499 862T553 838T607 827Q641 827 664 843T710 899Q717 910 727 914T748 917Q778 915 764 882Q726 784 676 742T560 700Q506 700 475 721T417 796Q401
819 391 830T363 841Q346 841 333 825T310 775Q300 737 276 719T218 700Q186 700 173 720T168 776Z" />
<glyph unicode="&#xb3;" horiz-adv-x="675" d="M473 1069L468 1085Q480 1088 498 1089T531 1090Q645 1090 695 1036T721 891Q697 800 606 746T391 692Q269 692 219 740T187 855Q197 893 225 916T289 939Q323 939 335 920T339 867L327 819Q318 781 337 758T409
735Q460 735 502 771T565 884Q585 961 560 999T466 1038H429Q414 1038 406 1045T402 1065Q405 1076 414 1084T438 1102L737 1328L730 1287H451Q416 1287 398 1257L375 1209Q367 1197 356 1190T329 1183Q314 1183 307 1191T307 1214L363 1365Q369 1381 385 1391T424
1401H831Q847 1401 855 1393T859 1374Q856 1364 845 1355T812 1333L473 1069Z" />
<glyph unicode="&#xb4;" horiz-adv-x="449" d="M80 1278Q124 1333 163 1364T246 1389Q284 1385 296 1357T296 1296Q282 1260 250 1233T167 1178L-44 1045Q-57 1039 -69 1039T-87 1046Q-95 1054 -90 1065T-75 1087L80 1278Z" />
<glyph unicode="&#xb5;" horiz-adv-x="1158" d="M128 241L165 230Q131 107 116 15T95 -148T85 -274T66 -377Q55 -419 22 -444T-48 -470Q-90 -470 -107 -439T-110 -356Q-97 -314 -71 -259T-11 -133T59 31T128 241ZM267 642Q280 683 285 709T291 761Q291 782 281
803T271 850Q271 891 319 916T447 941Q508 941 520 898T500 770L347 307Q313 205 324 165T391 124Q432 124 485 151T594 233T700 371T786 565Q806 627 817 664T832 723T837 761Q837 782 828 803T819 850Q819 891 867 916T995 941Q1057 941 1070 898T1048 770L874
275Q842 185 846 153T884 120Q901 120 922 132T974 175Q989 184 1000 188T1022 187Q1034 181 1035 166T1022 132Q977 62 904 21T759 -20Q700 -20 671 4T642 76Q642 108 654 151T688 248T735 365T785 501L814 496Q750 351 677 252T526 93T376 7T237 -20Q161 -20
129 17T103 121T143 278L267 642Z" />
<glyph unicode="&#xb6;" horiz-adv-x="1236" d="M214 1006Q246 1126 325 1214T521 1351T781 1400H1356Q1375 1400 1386 1392T1391 1365Q1387 1350 1375 1341T1342 1326L1273 1309Q1240 1301 1219 1285T1191 1243L908 159Q900 131 909 115T946 92L1004 77Q1024
72 1032 63T1036 38Q1030 18 1011 9T972 0H273Q254 0 245 9T241 33Q247 50 261 60T300 76L370 91Q403 99 425 114T455 153L590 672Q570 669 546 664T492 658Q319 658 245 751T214 1006ZM768 158L1050 1241Q1059 1272 1047 1291T986 1311Q939 1311 913 1290T877
1241L595 158Q587 133 601 112T663 91Q711 91 735 110T768 158Z" />
<glyph unicode="&#xb7;" horiz-adv-x="537" d="M244 377Q184 377 152 410T125 492Q130 531 154 563T218 614T310 634Q372 634 401 600T424 515Q421 478 397 447T334 396T244 377Z" />
<glyph unicode="&#xb8;" horiz-adv-x="526" d="M424 11H489L372 -142L335 -130Q351 -127 369 -126T411 -125Q500 -125 540 -166T563 -275Q544 -348 477 -392T314 -437Q233 -437 189 -405T153 -327Q156 -312 167 -303T192 -293Q204 -292 211 -297T222 -312Q227
-346 253 -360T314 -375Q399 -375 424 -275Q435 -232 418 -206T354 -180H321Q299 -180 298 -167T310 -138L424 11Z" />
<glyph unicode="&#xb9;" horiz-adv-x="578" d="M355 1318L415 1317Q434 1317 439 1310T438 1279L318 816Q313 798 302 788T273 775L198 765Q167 761 161 739Q153 714 188 714H541Q575 714 584 739Q589 760 564 765L501 775Q485 778 480 788T480 816L634 1398Q644
1429 608 1429Q598 1429 588 1426T566 1416Q540 1395 513 1386T445 1376H374Q357 1376 344 1368T327 1347Q323 1333 329 1326T355 1318Z" />
<glyph unicode="&#xba;" horiz-adv-x="1001" d="M751 1425Q857 1421 926 1371T1021 1234T1028 1029Q1004 899 928 804T743 659T510 614Q409 618 339 665T241 798T234 1005Q257 1127 329 1224T509 1377T751 1425ZM541 682Q597 679 656 715T763 831T838 1040Q859
1147 849 1216T807 1319T725 1356Q662 1361 601 1319T493 1193T422 991Q401 882 411 815T455 716T541 682Z" />
<glyph unicode="&#xbb;" horiz-adv-x="1091" d="M996 467Q990 449 972 435T910 395Q816 339 745 295T620 214T520 143Q503 132 487 129T462 134Q453 143 457 156T476 185Q505 217 542 252T624 329T722 416T836 513L828 459Q781 529 747 591T689 705T647 802Q641
816 643 828T656 848Q669 855 680 852T703 836Q731 796 765 751T846 655T956 547Q985 520 993 503T996 467ZM582 467Q576 449 558 435T496 395Q402 339 331 295T206 214T106 143Q89 132 73 129T48 134Q39 143 43 156T62 185Q91 217 128 252T210 329T308 416T422
513L414 459Q367 529 333 591T275 705T233 802Q227 816 229 828T242 848Q255 855 266 852T289 836Q317 796 351 751T432 655T542 547Q571 520 579 503T582 467Z" />
<glyph unicode="&#xbc;" horiz-adv-x="1487" d="M403 1318L463 1317Q482 1317 487 1310T486 1279L366 816Q361 798 350 788T321 775L246 765Q215 761 209 739Q201 714 236 714H589Q623 714 632 739Q637 760 612 765L549 775Q533 778 528 788T528 816L682 1398Q692
1429 656 1429Q646 1429 636 1426T614 1416Q588 1395 561 1386T493 1376H422Q405 1376 392 1368T375 1347Q371 1333 377 1326T403 1318ZM1099 334Q1103 346 1109 354T1125 369L1235 450Q1247 459 1254 461T1269 464Q1289 464 1283 444L1195 98Q1189 82 1195 73T1216
60L1257 51Q1282 43 1278 25Q1269 0 1235 0H934Q898 0 906 25Q913 46 943 51L992 60Q1009 63 1021 72T1038 98L1099 334ZM1044 450Q1071 471 1088 489T1110 528Q1115 549 1109 566T1098 601T1098 643Q1107 677 1139 699T1223 722Q1264 722 1286 696T1296 626Q1286
590 1259 555T1164 469L795 195L789 222H1317Q1331 222 1338 216T1342 198Q1333 171 1300 171H761Q744 171 737 178T733 199Q735 206 743 214T769 234L1044 450ZM910 770Q892 752 880 748T855 751Q845 758 845 769T860 799Q893 839 934 893T1022 1007T1113 1126T1199
1236T1269 1326T1313 1380Q1341 1411 1365 1418T1416 1410Q1440 1395 1439 1372T1413 1319Q1400 1303 1368 1268T1291 1183T1195 1079T1091 966T993 859T910 770ZM704 623Q722 641 734 645T760 642Q771 635 771 624T755 592Q725 553 684 500T597 388T505 269T418
157T346 66T299 9Q272 -21 245 -28T194 -21Q170 -7 172 17T200 71Q215 89 248 126T327 212T424 318T527 430T625 536T704 623Z" />
<glyph unicode="&#xbd;" horiz-adv-x="1516" d="M406 1318L466 1317Q485 1317 490 1310T489 1279L369 816Q364 798 353 788T324 775L249 765Q218 761 212 739Q204 714 239 714H592Q626 714 635 739Q640 760 615 765L552 775Q536 778 531 788T531 816L685 1398Q695
1429 659 1429Q649 1429 639 1426T617 1416Q591 1395 564 1386T496 1376H425Q408 1376 395 1368T378 1347Q374 1333 380 1326T406 1318ZM912 770Q894 752 882 748T857 751Q847 758 847 769T862 799Q895 839 936 893T1024 1007T1115 1126T1201 1236T1271 1326T1315
1380Q1343 1411 1367 1418T1418 1410Q1442 1395 1441 1372T1415 1319Q1402 1303 1370 1268T1293 1183T1197 1079T1093 966T995 859T912 770ZM706 623Q724 641 736 645T762 642Q773 635 773 624T757 592Q727 553 686 500T599 388T507 269T420 157T348 66T301 9Q274
-21 247 -28T196 -21Q172 -7 174 17T202 71Q217 89 250 126T329 212T426 318T529 430T627 536T706 623ZM886 124L855 147L1024 234Q1140 293 1198 352T1278 498Q1300 580 1282 620T1213 660Q1157 660 1124 632T1078 557L1065 507Q1055 470 1029 450T967 430Q933
430 919 451T914 510Q935 583 1019 642T1237 701Q1365 701 1413 643T1437 497Q1418 424 1348 363T1126 230L886 124ZM778 54Q793 108 847 141T990 175Q1023 175 1052 164T1109 140T1163 116T1217 105Q1251 105 1274 121T1320 177Q1327 188 1337 192T1358 195Q1388
193 1374 160Q1336 62 1286 20T1170 -22Q1116 -22 1085 -1T1027 74Q1011 97 1001 108T973 119Q956 119 943 103T920 53Q910 15 886 -3T828 -22Q796 -22 783 -2T778 54Z" />
<glyph unicode="&#xbe;" horiz-adv-x="1541" d="M1145 334Q1149 346 1155 354T1171 369L1281 450Q1293 459 1300 461T1315 464Q1335 464 1329 444L1241 98Q1235 82 1241 73T1262 60L1303 51Q1328 43 1324 25Q1315 0 1281 0H980Q944 0 952 25Q959 46 989 51L1038
60Q1055 63 1067 72T1084 98L1145 334ZM1090 450Q1117 471 1134 489T1156 528Q1161 549 1155 566T1144 601T1144 643Q1153 677 1185 699T1269 722Q1310 722 1332 696T1342 626Q1332 590 1305 555T1210 469L841 195L835 222H1363Q1377 222 1384 216T1388 198Q1379
171 1346 171H807Q790 171 783 178T779 199Q781 206 789 214T815 234L1090 450ZM960 770Q942 752 930 748T905 751Q895 758 895 769T910 799Q943 839 984 893T1072 1007T1163 1126T1249 1236T1319 1326T1363 1380Q1391 1411 1415 1418T1466 1410Q1490 1395 1489
1372T1463 1319Q1450 1303 1418 1268T1341 1183T1245 1079T1141 966T1043 859T960 770ZM754 623Q772 641 784 645T810 642Q821 635 821 624T805 592Q775 553 734 500T647 388T555 269T468 157T396 66T349 9Q322 -21 295 -28T244 -21Q220 -7 222 17T250 71Q265 89
298 126T377 212T474 318T577 430T675 536T754 623ZM524 1069L519 1085Q531 1088 549 1089T582 1090Q696 1090 746 1036T772 891Q748 800 657 746T442 692Q320 692 270 740T238 855Q248 893 276 916T340 939Q374 939 386 920T390 867L378 819Q369 781 388 758T460
735Q511 735 553 771T616 884Q636 961 611 999T517 1038H480Q465 1038 457 1045T453 1065Q456 1076 465 1084T489 1102L788 1328L781 1287H502Q467 1287 449 1257L426 1209Q418 1197 407 1190T380 1183Q365 1183 358 1191T358 1214L414 1365Q420 1381 436 1391T475
1401H882Q898 1401 906 1393T910 1374Q907 1364 896 1355T863 1333L524 1069Z" />
<glyph unicode="&#xbf;" horiz-adv-x="986" d="M654 493L689 663Q692 691 683 705T650 720Q629 720 613 707T579 662L532 506Q522 478 507 461T460 434L400 414Q221 356 120 255T-17 17Q-45 -89 -16 -168T96 -290T311 -334Q434 -334 541 -290T721 -175T815 -23Q830
31 809 65T738 100Q683 100 643 69T585 -22L567 -91Q545 -171 487 -215T341 -259Q283 -259 246 -231T197 -145T210 1Q242 124 306 209T495 353L566 384Q607 403 627 429T654 493ZM775 1173Q835 1173 867 1140T894 1058Q889 1019 865 987T801 936T709 916Q647 916
618 950T595 1035Q598 1072 622 1103T685 1154T775 1173Z" />
<glyph unicode="&#xc0;" horiz-adv-x="1281" d="M251 244Q213 180 221 140T269 87L323 77Q341 72 348 62T356 41Q356 22 342 11T301 0H-2Q-30 0 -44 10T-58 38Q-58 55 -46 67T-2 92Q34 103 72 143T148 252L671 1101Q784 1266 894 1343T1115 1420Q1154 1420 1170
1409T1187 1380Q1187 1366 1179 1357T1153 1340Q1114 1330 1093 1300T1069 1211Q1069 1175 1068 1110T1065 960T1061 782T1058 596T1055 421T1053 276T1053 183Q1053 153 1061 133T1088 100T1142 75Q1172 64 1172 39Q1172 22 1159 11T1118 0H712Q690 0 680 10T669
35Q669 50 679 60T709 77L778 92Q809 100 824 122T840 183Q841 219 842 284T846 434T850 612T855 801T859 983T862 1140T863 1252L909 1236Q893 1226 869 1205T813 1148T741 1056L251 244ZM330 460L355 530H918L911 460H330ZM994 1703L1085 1538Q1089 1528 1089
1518T1080 1498Q1070 1490 1058 1490T1035 1493L869 1591Q828 1612 806 1635T784 1694Q785 1724 810 1753T873 1790Q919 1800 945 1775T994 1703Z" />
<glyph unicode="&#xc1;" horiz-adv-x="1281" d="M254 244Q216 180 224 140T272 87L326 77Q344 72 351 62T359 41Q359 22 345 11T304 0H1Q-27 0 -41 10T-55 38Q-55 55 -43 67T1 92Q37 103 75 143T151 252L674 1101Q787 1266 897 1343T1118 1420Q1157 1420 1173
1409T1190 1380Q1190 1366 1182 1357T1156 1340Q1117 1330 1096 1300T1072 1211Q1072 1175 1071 1110T1068 960T1064 782T1061 596T1058 421T1056 276T1056 183Q1056 153 1064 133T1091 100T1145 75Q1175 64 1175 39Q1175 22 1162 11T1121 0H715Q693 0 683 10T672
35Q672 50 682 60T712 77L781 92Q812 100 827 122T843 183Q844 219 845 284T849 434T853 612T858 801T862 983T865 1140T866 1252L912 1236Q896 1226 872 1205T816 1148T744 1056L254 244ZM333 460L358 530H921L914 460H333ZM1176 1703Q1224 1749 1264 1774T1344
1790Q1378 1782 1387 1753T1379 1694Q1362 1658 1327 1635T1241 1591L1023 1493Q1011 1489 999 1489T981 1498Q977 1507 983 1517T1000 1538L1176 1703Z" />
<glyph unicode="&#xc2;" horiz-adv-x="1281" d="M251 244Q213 180 221 140T269 87L323 77Q341 72 348 62T356 41Q356 22 342 11T301 0H-2Q-30 0 -44 10T-58 38Q-58 55 -46 67T-2 92Q34 103 72 143T148 252L671 1101Q784 1266 894 1343T1115 1420Q1154 1420 1170
1409T1187 1380Q1187 1366 1179 1357T1153 1340Q1114 1330 1093 1300T1069 1211Q1069 1175 1068 1110T1065 960T1061 782T1058 596T1055 421T1053 276T1053 183Q1053 153 1061 133T1088 100T1142 75Q1172 64 1172 39Q1172 22 1159 11T1118 0H712Q690 0 680 10T669
35Q669 50 679 60T709 77L778 92Q809 100 824 122T840 183Q841 219 842 284T846 434T850 612T855 801T859 983T862 1140T863 1252L909 1236Q893 1226 869 1205T813 1148T741 1056L251 244ZM330 460L355 530H918L911 460H330ZM1071 1659H992L1198 1505Q1226 1484
1251 1500Q1261 1506 1265 1518T1260 1545L1128 1748Q1115 1768 1103 1779T1067 1790Q1045 1790 1027 1779T983 1748L745 1545Q728 1531 725 1519T728 1500Q736 1492 750 1493T783 1505L1071 1659Z" />
<glyph unicode="&#xc3;" horiz-adv-x="1281" d="M251 244Q213 180 221 140T269 87L323 77Q341 72 348 62T356 41Q356 22 342 11T301 0H-2Q-30 0 -44 10T-58 38Q-58 55 -46 67T-2 92Q34 103 72 143T148 252L671 1101Q784 1266 894 1343T1115 1420Q1154 1420 1170
1409T1187 1380Q1187 1366 1179 1357T1153 1340Q1114 1330 1093 1300T1069 1211Q1069 1175 1068 1110T1065 960T1061 782T1058 596T1055 421T1053 276T1053 183Q1053 153 1061 133T1088 100T1142 75Q1172 64 1172 39Q1172 22 1159 11T1118 0H712Q690 0 680 10T669
35Q669 50 679 60T709 77L778 92Q809 100 824 122T840 183Q841 219 842 284T846 434T850 612T855 801T859 983T862 1140T863 1252L909 1236Q893 1226 869 1205T813 1148T741 1056L251 244ZM330 460L355 530H918L911 460H330ZM1113 1510Q1072 1510 1042 1526T988
1564T941 1601T891 1618Q831 1618 800 1532Q786 1504 759 1504Q726 1504 739 1546Q764 1644 815 1693T933 1743Q975 1743 1005 1727T1058 1689T1105 1652T1156 1636Q1217 1636 1246 1721Q1260 1749 1288 1749Q1321 1749 1308 1707Q1282 1609 1231 1560T1113 1510Z"
/>
<glyph unicode="&#xc4;" horiz-adv-x="1281" d="M251 244Q213 180 221 140T269 87L323 77Q341 72 348 62T356 41Q356 22 342 11T301 0H-2Q-30 0 -44 10T-58 38Q-58 55 -46 67T-2 92Q34 103 72 143T148 252L671 1101Q784 1266 894 1343T1115 1420Q1154 1420 1170
1409T1187 1380Q1187 1366 1179 1357T1153 1340Q1114 1330 1093 1300T1069 1211Q1069 1175 1068 1110T1065 960T1061 782T1058 596T1055 421T1053 276T1053 183Q1053 153 1061 133T1088 100T1142 75Q1172 64 1172 39Q1172 22 1159 11T1118 0H712Q690 0 680 10T669
35Q669 50 679 60T709 77L778 92Q809 100 824 122T840 183Q841 219 842 284T846 434T850 612T855 801T859 983T862 1140T863 1252L909 1236Q893 1226 869 1205T813 1148T741 1056L251 244ZM330 460L355 530H918L911 460H330ZM805 1511Q752 1511 729 1541T719 1622Q732
1672 772 1702T865 1733Q918 1733 941 1703T950 1622Q937 1573 897 1542T805 1511ZM1182 1511Q1130 1511 1107 1541T1096 1622Q1110 1671 1150 1702T1242 1733Q1296 1733 1319 1703T1328 1622Q1315 1573 1275 1542T1182 1511Z" />
<glyph unicode="&#xc5;" horiz-adv-x="1281" d="M251 244Q213 180 221 140T269 87L323 77Q341 72 348 62T356 41Q356 22 342 11T301 0H-2Q-30 0 -44 10T-58 38Q-58 55 -46 67T-2 92Q34 103 72 143T148 252L671 1101Q784 1266 894 1343T1115 1420Q1154 1420 1170
1409T1187 1380Q1187 1366 1179 1357T1153 1340Q1114 1330 1093 1300T1069 1211Q1069 1175 1068 1110T1065 960T1061 782T1058 596T1055 421T1053 276T1053 183Q1053 153 1061 133T1088 100T1142 75Q1172 64 1172 39Q1172 22 1159 11T1118 0H712Q690 0 680 10T669
35Q669 50 679 60T709 77L778 92Q809 100 824 122T840 183Q841 219 842 284T846 434T850 612T855 801T859 983T862 1140T863 1252L909 1236Q893 1226 869 1205T813 1148T741 1056L251 244ZM330 460L355 530H918L911 460H330ZM991 1488Q909 1488 865 1535T840 1659Q861
1734 930 1781T1082 1828Q1165 1828 1208 1781T1232 1659Q1212 1584 1143 1536T991 1488ZM1066 1769Q1026 1769 991 1739T942 1659Q929 1610 948 1579T1008 1548Q1049 1548 1084 1579T1131 1659Q1144 1709 1125 1739T1066 1769Z" />
<glyph unicode="&#xc6;" horiz-adv-x="1928" d="M1294 1400L1247 1321L1152 1323L247 207Q205 155 205 126T242 84L303 72Q319 68 327 59T330 36Q324 20 309 10T268 0H-62Q-86 0 -95 10T-100 36Q-96 49 -84 57T-52 73L-14 85Q17 95 47 121T116 196L977 1247Q1005
1281 1000 1298T962 1324Q939 1331 930 1340T925 1364Q931 1381 946 1390T986 1400H1294ZM511 614H1045L1027 534H472L511 614ZM1143 741H1502Q1548 741 1575 768T1607 875Q1612 890 1621 897T1645 904Q1666 904 1676 894T1688 867L1736 574Q1742 546 1731 534T1700
520Q1684 519 1673 527T1654 551Q1630 622 1598 647T1508 672H1121L1143 741ZM1438 0H733Q707 0 697 10T687 36Q687 51 698 62T729 78L795 91Q823 97 841 111T868 159Q877 189 896 257T940 418T996 620T1056 840T1115 1058T1167 1252T1204 1400H1763Q1812 1400
1844 1418T1904 1436Q1926 1436 1938 1425T1955 1387L1995 1119Q2000 1094 1990 1080T1961 1064Q1939 1062 1924 1073T1895 1115Q1868 1203 1839 1250T1774 1314T1691 1332H1400Q1385 1277 1364 1195T1316 1014T1261 810T1206 602T1156 411T1115 256T1090 156Q1084
128 1090 108T1116 79T1173 69H1412Q1482 69 1536 93T1636 175T1722 327Q1745 365 1772 365Q1790 365 1799 353T1809 319Q1807 249 1787 186T1732 75T1652 0T1558 -27Q1527 -27 1501 -14T1438 0Z" />
<glyph unicode="&#xc7;" horiz-adv-x="1289" d="M1182 406Q1197 400 1199 380T1183 326Q1129 216 1044 138T849 17T608 -25Q445 -25 327 53T158 280T140 645Q165 805 236 946T414 1195T654 1364T938 1426Q998 1426 1040 1414T1112 1385T1159 1356T1190 1343Q1203
1343 1216 1355T1242 1383T1269 1412T1298 1425Q1318 1425 1329 1413T1343 1379L1359 1044Q1360 1023 1347 1012T1314 1000Q1280 1000 1265 1039L1241 1120Q1206 1238 1137 1290T956 1343Q850 1343 757 1290T588 1144T462 928T388 665Q356 467 387 340T498 152T686
91Q770 91 845 120T986 211T1108 371Q1128 394 1146 403T1182 406ZM628 11H693L576 -142L539 -130Q555 -127 573 -126T615 -125Q704 -125 744 -166T767 -275Q748 -348 681 -392T518 -437Q437 -437 393 -405T357 -327Q360 -312 371 -303T396 -293Q408 -292 415 -297T426
-312Q431 -346 457 -360T518 -375Q603 -375 628 -275Q639 -232 622 -206T558 -180H525Q503 -180 502 -167T514 -138L628 11Z" />
<glyph unicode="&#xc8;" horiz-adv-x="1254" d="M467 741H827Q873 741 900 768T933 875Q937 890 947 897T970 904Q990 904 1000 894T1013 867L1062 574Q1067 546 1055 534T1025 520Q1008 519 997 527T978 551Q954 622 923 647T832 672H446L467 741ZM762 0H59Q33
0 23 10T13 36Q13 51 24 62T54 78L122 91Q151 97 167 112T195 161Q202 193 219 256T258 404T307 585T360 778T411 965T453 1124T480 1236Q488 1269 482 1287T455 1311L392 1324Q377 1328 367 1336T357 1359Q357 1378 371 1389T411 1400H1088Q1137 1400 1168 1418T1228
1436Q1271 1436 1280 1387L1319 1119Q1324 1094 1315 1080T1286 1064Q1264 1062 1249 1073T1220 1115Q1192 1203 1163 1250T1098 1314T1016 1332H724Q710 1277 688 1195T639 1014T584 810T528 603T477 412T438 256T416 156Q409 128 414 108T440 79T498 69H736Q807
69 861 93T961 175T1048 327Q1068 365 1097 365Q1134 365 1133 319Q1131 249 1111 186T1056 75T977 0T883 -27Q852 -27 826 -14T762 0ZM853 1703L944 1538Q948 1528 948 1518T939 1498Q929 1490 917 1490T894 1493L728 1591Q687 1612 665 1635T643 1694Q644 1724
669 1753T732 1790Q778 1800 804 1775T853 1703Z" />
<glyph unicode="&#xc9;" horiz-adv-x="1254" d="M467 741H827Q873 741 900 768T933 875Q937 890 947 897T970 904Q990 904 1000 894T1013 867L1062 574Q1067 546 1055 534T1025 520Q1008 519 997 527T978 551Q954 622 923 647T832 672H446L467 741ZM762 0H59Q33
0 23 10T13 36Q13 51 24 62T54 78L122 91Q151 97 167 112T195 161Q202 193 219 256T258 404T307 585T360 778T411 965T453 1124T480 1236Q488 1269 482 1287T455 1311L392 1324Q377 1328 367 1336T357 1359Q357 1378 371 1389T411 1400H1088Q1137 1400 1168 1418T1228
1436Q1271 1436 1280 1387L1319 1119Q1324 1094 1315 1080T1286 1064Q1264 1062 1249 1073T1220 1115Q1192 1203 1163 1250T1098 1314T1016 1332H724Q710 1277 688 1195T639 1014T584 810T528 603T477 412T438 256T416 156Q409 128 414 108T440 79T498 69H736Q807
69 861 93T961 175T1048 327Q1068 365 1097 365Q1134 365 1133 319Q1131 249 1111 186T1056 75T977 0T883 -27Q852 -27 826 -14T762 0ZM1032 1703Q1080 1749 1120 1774T1200 1790Q1234 1782 1243 1753T1235 1694Q1218 1658 1183 1635T1097 1591L879 1493Q867 1489
855 1489T837 1498Q833 1507 839 1517T856 1538L1032 1703Z" />
<glyph unicode="&#xca;" horiz-adv-x="1254" d="M467 741H827Q873 741 900 768T933 875Q937 890 947 897T970 904Q990 904 1000 894T1013 867L1062 574Q1067 546 1055 534T1025 520Q1008 519 997 527T978 551Q954 622 923 647T832 672H446L467 741ZM762 0H59Q33
0 23 10T13 36Q13 51 24 62T54 78L122 91Q151 97 167 112T195 161Q202 193 219 256T258 404T307 585T360 778T411 965T453 1124T480 1236Q488 1269 482 1287T455 1311L392 1324Q377 1328 367 1336T357 1359Q357 1378 371 1389T411 1400H1088Q1137 1400 1168 1418T1228
1436Q1271 1436 1280 1387L1319 1119Q1324 1094 1315 1080T1286 1064Q1264 1062 1249 1073T1220 1115Q1192 1203 1163 1250T1098 1314T1016 1332H724Q710 1277 688 1195T639 1014T584 810T528 603T477 412T438 256T416 156Q409 128 414 108T440 79T498 69H736Q807
69 861 93T961 175T1048 327Q1068 365 1097 365Q1134 365 1133 319Q1131 249 1111 186T1056 75T977 0T883 -27Q852 -27 826 -14T762 0ZM930 1659H851L1057 1505Q1085 1484 1110 1500Q1120 1506 1124 1518T1119 1545L987 1748Q974 1768 962 1779T926 1790Q904 1790
886 1779T842 1748L604 1545Q587 1531 584 1519T587 1500Q595 1492 609 1493T642 1505L930 1659Z" />
<glyph unicode="&#xcb;" horiz-adv-x="1254" d="M467 741H827Q873 741 900 768T933 875Q937 890 947 897T970 904Q990 904 1000 894T1013 867L1062 574Q1067 546 1055 534T1025 520Q1008 519 997 527T978 551Q954 622 923 647T832 672H446L467 741ZM762 0H59Q33
0 23 10T13 36Q13 51 24 62T54 78L122 91Q151 97 167 112T195 161Q202 193 219 256T258 404T307 585T360 778T411 965T453 1124T480 1236Q488 1269 482 1287T455 1311L392 1324Q377 1328 367 1336T357 1359Q357 1378 371 1389T411 1400H1088Q1137 1400 1168 1418T1228
1436Q1271 1436 1280 1387L1319 1119Q1324 1094 1315 1080T1286 1064Q1264 1062 1249 1073T1220 1115Q1192 1203 1163 1250T1098 1314T1016 1332H724Q710 1277 688 1195T639 1014T584 810T528 603T477 412T438 256T416 156Q409 128 414 108T440 79T498 69H736Q807
69 861 93T961 175T1048 327Q1068 365 1097 365Q1134 365 1133 319Q1131 249 1111 186T1056 75T977 0T883 -27Q852 -27 826 -14T762 0ZM664 1511Q611 1511 588 1541T578 1622Q591 1672 631 1702T724 1733Q777 1733 800 1703T809 1622Q796 1573 756 1542T664 1511ZM1041
1511Q989 1511 966 1541T955 1622Q969 1671 1009 1702T1101 1733Q1155 1733 1178 1703T1187 1622Q1174 1573 1134 1542T1041 1511Z" />
<glyph unicode="&#xcc;" horiz-adv-x="752" d="M420 158Q412 127 420 110T454 87L511 75Q531 70 540 62T549 38Q549 21 533 11T491 0H64Q36 0 26 9T15 35Q15 51 27 61T59 77L120 88Q150 94 168 111T197 162Q207 200 225 267T266 420T316 601T367 792T415 975T454
1131T479 1244Q486 1273 479 1289T445 1311L386 1324Q365 1330 356 1339T347 1362Q347 1380 364 1390T415 1400H837Q865 1400 875 1392T885 1368Q885 1351 873 1341T837 1324L772 1308Q743 1302 728 1289T703 1245Q691 1201 671 1128T626 963T574 773T522 576T476
395T440 249T420 158ZM639 1703L730 1538Q734 1528 734 1518T725 1498Q715 1490 703 1490T680 1493L514 1591Q473 1612 451 1635T429 1694Q430 1724 455 1753T518 1790Q564 1800 590 1775T639 1703Z" />
<glyph unicode="&#xcd;" horiz-adv-x="752" d="M420 158Q412 127 420 110T454 87L511 75Q531 70 540 62T549 38Q549 21 533 11T491 0H64Q36 0 26 9T15 35Q15 51 27 61T59 77L120 88Q150 94 168 111T197 162Q207 200 225 267T266 420T316 601T367 792T415 975T454
1131T479 1244Q486 1273 479 1289T445 1311L386 1324Q365 1330 356 1339T347 1362Q347 1380 364 1390T415 1400H837Q865 1400 875 1392T885 1368Q885 1351 873 1341T837 1324L772 1308Q743 1302 728 1289T703 1245Q691 1201 671 1128T626 963T574 773T522 576T476
395T440 249T420 158ZM818 1703Q866 1749 906 1774T986 1790Q1020 1782 1029 1753T1021 1694Q1004 1658 969 1635T883 1591L665 1493Q653 1489 641 1489T623 1498Q619 1507 625 1517T642 1538L818 1703Z" />
<glyph unicode="&#xce;" horiz-adv-x="752" d="M420 158Q412 127 420 110T454 87L511 75Q531 70 540 62T549 38Q549 21 533 11T491 0H64Q36 0 26 9T15 35Q15 51 27 61T59 77L120 88Q150 94 168 111T197 162Q207 200 225 267T266 420T316 601T367 792T415 975T454
1131T479 1244Q486 1273 479 1289T445 1311L386 1324Q365 1330 356 1339T347 1362Q347 1380 364 1390T415 1400H837Q865 1400 875 1392T885 1368Q885 1351 873 1341T837 1324L772 1308Q743 1302 728 1289T703 1245Q691 1201 671 1128T626 963T574 773T522 576T476
395T440 249T420 158ZM716 1659H637L843 1505Q871 1484 896 1500Q906 1506 910 1518T905 1545L773 1748Q760 1768 748 1779T712 1790Q690 1790 672 1779T628 1748L390 1545Q373 1531 370 1519T373 1500Q381 1492 395 1493T428 1505L716 1659Z" />
<glyph unicode="&#xcf;" horiz-adv-x="752" d="M420 158Q412 127 420 110T454 87L511 75Q531 70 540 62T549 38Q549 21 533 11T491 0H64Q36 0 26 9T15 35Q15 51 27 61T59 77L120 88Q150 94 168 111T197 162Q207 200 225 267T266 420T316 601T367 792T415 975T454
1131T479 1244Q486 1273 479 1289T445 1311L386 1324Q365 1330 356 1339T347 1362Q347 1380 364 1390T415 1400H837Q865 1400 875 1392T885 1368Q885 1351 873 1341T837 1324L772 1308Q743 1302 728 1289T703 1245Q691 1201 671 1128T626 963T574 773T522 576T476
395T440 249T420 158ZM450 1511Q397 1511 374 1541T364 1622Q377 1672 417 1702T510 1733Q563 1733 586 1703T595 1622Q582 1573 542 1542T450 1511ZM827 1511Q775 1511 752 1541T741 1622Q755 1671 795 1702T887 1733Q941 1733 964 1703T973 1622Q960 1573 920
1542T827 1511Z" />
<glyph unicode="&#xd0;" horiz-adv-x="1495" d="M109 707Q114 720 126 728T153 737H806Q823 737 829 729T830 707Q826 692 814 684T785 675H133Q117 675 111 683T109 707ZM18 35Q18 51 30 61T66 77L125 88Q142 91 156 101T183 131T208 187Q218 231 236 300T278
454T326 631T377 816T423 991T460 1138T484 1242Q491 1274 483 1289T447 1311L393 1324Q370 1330 361 1338T351 1360Q351 1379 365 1389T409 1400H901Q1041 1400 1156 1352T1350 1212T1461 994T1466 707Q1438 539 1360 408T1166 186T904 48T590 0H64Q38 0 28 10T18
35ZM603 81Q720 81 822 122T1008 244T1148 442T1231 711Q1257 863 1239 977T1171 1168T1050 1284T897 1323H801Q767 1323 745 1303T708 1240Q699 1201 682 1135T641 985T591 807T540 620T492 442T453 289T431 180Q422 130 437 106T494 81H603Z" />
<glyph unicode="&#xd1;" horiz-adv-x="1412" d="M308 241L550 1137L474 1125Q514 1029 560 924T653 714T742 512T820 332T877 191Q894 156 901 130T907 70Q906 37 922 19T970 0H1139Q1172 0 1185 22T1184 76L1139 200Q1127 231 1127 251T1135 299L1302 999Q1317
1055 1339 1094T1393 1161T1470 1210Q1526 1239 1553 1271T1581 1346Q1581 1387 1555 1410T1486 1433Q1411 1433 1350 1371T1253 1176L1018 218L1100 249Q1071 319 1033 401T951 576T862 765T772 959T689 1149T621 1323Q600 1362 580 1381T519 1400H387Q361 1400
349 1388T338 1357T354 1320L418 1192Q437 1167 440 1133T433 1061L215 247Q198 180 164 140T84 89L41 79Q-1 67 -1 37Q-1 20 11 10T49 0H400Q422 0 435 9T448 37Q448 50 439 60T414 76L375 84Q322 100 308 139T308 241ZM1093 1510Q1052 1510 1022 1526T968 1564T921
1601T871 1618Q811 1618 780 1532Q766 1504 739 1504Q706 1504 719 1546Q744 1644 795 1693T913 1743Q955 1743 985 1727T1038 1689T1085 1652T1136 1636Q1197 1636 1226 1721Q1240 1749 1268 1749Q1301 1749 1288 1707Q1262 1609 1211 1560T1093 1510Z" />
<glyph unicode="&#xd2;" horiz-adv-x="1532" d="M1019 1425Q1152 1422 1254 1365T1420 1209T1501 975T1480 679Q1438 506 1354 372T1154 148T902 13T617 -25Q484 -21 382 36T217 196T143 439T176 751Q217 901 299 1026T495 1243T742 1382T1019 1425ZM650 52Q733
48 817 81T978 189T1121 388T1233 688Q1256 778 1266 852T1276 988Q1275 1103 1237 1181T1136 1302T994 1348Q909 1353 824 1316T661 1202T521 1009T422 740Q397 640 386 560T373 415Q371 236 448 147T650 52ZM1018 1703L1109 1538Q1113 1528 1113 1518T1104 1498Q1094
1490 1082 1490T1059 1493L893 1591Q852 1612 830 1635T808 1694Q809 1724 834 1753T897 1790Q943 1800 969 1775T1018 1703Z" />
<glyph unicode="&#xd3;" horiz-adv-x="1532" d="M1019 1425Q1152 1422 1254 1365T1420 1209T1501 975T1480 679Q1438 506 1354 372T1154 148T902 13T617 -25Q484 -21 382 36T217 196T143 439T176 751Q217 901 299 1026T495 1243T742 1382T1019 1425ZM650 52Q733
48 817 81T978 189T1121 388T1233 688Q1256 778 1266 852T1276 988Q1275 1103 1237 1181T1136 1302T994 1348Q909 1353 824 1316T661 1202T521 1009T422 740Q397 640 386 560T373 415Q371 236 448 147T650 52ZM1197 1707Q1245 1753 1285 1778T1365 1794Q1399 1786
1408 1757T1400 1698Q1383 1662 1348 1639T1262 1595L1044 1497Q1032 1493 1020 1493T1002 1502Q998 1511 1004 1521T1021 1542L1197 1707Z" />
<glyph unicode="&#xd4;" horiz-adv-x="1532" d="M1019 1425Q1152 1422 1254 1365T1420 1209T1501 975T1480 679Q1438 506 1354 372T1154 148T902 13T617 -25Q484 -21 382 36T217 196T143 439T176 751Q217 901 299 1026T495 1243T742 1382T1019 1425ZM650 52Q733
48 817 81T978 189T1121 388T1233 688Q1256 778 1266 852T1276 988Q1275 1103 1237 1181T1136 1302T994 1348Q909 1353 824 1316T661 1202T521 1009T422 740Q397 640 386 560T373 415Q371 236 448 147T650 52ZM1095 1659H1016L1222 1505Q1250 1484 1275 1500Q1285
1506 1289 1518T1284 1545L1152 1748Q1139 1768 1127 1779T1091 1790Q1069 1790 1051 1779T1007 1748L769 1545Q752 1531 749 1519T752 1500Q760 1492 774 1493T807 1505L1095 1659Z" />
<glyph unicode="&#xd5;" horiz-adv-x="1532" d="M1019 1425Q1152 1422 1254 1365T1420 1209T1501 975T1480 679Q1438 506 1354 372T1154 148T902 13T617 -25Q484 -21 382 36T217 196T143 439T176 751Q217 901 299 1026T495 1243T742 1382T1019 1425ZM650 52Q733
48 817 81T978 189T1121 388T1233 688Q1256 778 1266 852T1276 988Q1275 1103 1237 1181T1136 1302T994 1348Q909 1353 824 1316T661 1202T521 1009T422 740Q397 640 386 560T373 415Q371 236 448 147T650 52ZM1137 1514Q1096 1514 1066 1530T1012 1568T965 1605T915
1622Q855 1622 824 1536Q810 1508 783 1508Q750 1508 763 1550Q788 1648 839 1697T957 1747Q999 1747 1029 1731T1082 1693T1129 1656T1180 1640Q1241 1640 1270 1725Q1284 1753 1312 1753Q1345 1753 1332 1711Q1306 1613 1255 1564T1137 1514Z" />
<glyph unicode="&#xd6;" horiz-adv-x="1532" d="M1019 1425Q1152 1422 1254 1365T1420 1209T1501 975T1480 679Q1438 506 1354 372T1154 148T902 13T617 -25Q484 -21 382 36T217 196T143 439T176 751Q217 901 299 1026T495 1243T742 1382T1019 1425ZM650 52Q733
48 817 81T978 189T1121 388T1233 688Q1256 778 1266 852T1276 988Q1275 1103 1237 1181T1136 1302T994 1348Q909 1353 824 1316T661 1202T521 1009T422 740Q397 640 386 560T373 415Q371 236 448 147T650 52ZM829 1511Q776 1511 753 1541T743 1622Q756 1672 796
1702T889 1733Q942 1733 965 1703T974 1622Q961 1573 921 1542T829 1511ZM1206 1511Q1154 1511 1131 1541T1120 1622Q1134 1671 1174 1702T1266 1733Q1320 1733 1343 1703T1352 1622Q1339 1573 1299 1542T1206 1511Z" />
<glyph unicode="&#xd7;" horiz-adv-x="1005" d="M142 313Q129 329 135 346T166 382L923 1045Q944 1060 964 1061T998 1048Q1013 1033 1009 1017T979 983L225 319Q201 302 179 300T142 313ZM802 315Q780 301 759 304T726 323L318 983Q306 998 311 1015T338 1045Q380
1072 409 1038L817 377Q829 362 826 345T802 315Z" />
<glyph unicode="&#xd8;" horiz-adv-x="1532" d="M124 -82Q113 -76 113 -66T123 -44L1441 1478Q1451 1490 1464 1492T1488 1489Q1500 1482 1500 1473T1490 1451L171 -72Q161 -83 148 -85T124 -82ZM1022 1425Q1155 1422 1257 1365T1422 1209T1503 975T1482 679Q1441
506 1357 372T1157 148T904 13T620 -25Q486 -21 384 36T220 196T145 439T179 751Q220 901 302 1026T498 1243T745 1382T1022 1425ZM652 52Q736 48 820 81T981 189T1124 388T1236 688Q1259 778 1269 852T1279 988Q1277 1103 1240 1181T1139 1302T997 1348Q912 1353
827 1316T664 1202T524 1009T425 740Q400 640 389 560T376 415Q374 236 451 147T652 52Z" />
<glyph unicode="&#xd9;" horiz-adv-x="1409" d="M1062 418L1277 1159Q1294 1223 1284 1258T1230 1308L1191 1318Q1164 1328 1153 1337T1142 1362Q1142 1378 1156 1389T1199 1400H1547Q1570 1400 1581 1391T1593 1367Q1593 1348 1582 1338T1541 1318L1491 1307Q1447
1293 1419 1260T1371 1154L1155 411Q1112 262 1037 165T853 21T598 -26Q467 -26 381 18T254 137T212 307Q213 346 221 400T244 514T272 625L441 1230Q451 1259 444 1281T412 1311L358 1323Q335 1332 326 1341T317 1365Q317 1380 331 1390T371 1400H803Q850 1400
850 1369Q849 1354 837 1342T797 1322L734 1308Q707 1301 692 1283T665 1228L495 625Q467 516 454 441T439 312Q439 192 505 131T688 69Q818 69 913 151T1062 418ZM992 1703L1083 1538Q1087 1528 1087 1518T1078 1498Q1068 1490 1056 1490T1033 1493L867 1591Q826
1612 804 1635T782 1694Q783 1724 808 1753T871 1790Q917 1800 943 1775T992 1703Z" />
<glyph unicode="&#xda;" horiz-adv-x="1409" d="M1062 418L1277 1159Q1294 1223 1284 1258T1230 1308L1191 1318Q1164 1328 1153 1337T1142 1362Q1142 1378 1156 1389T1199 1400H1547Q1570 1400 1581 1391T1593 1367Q1593 1348 1582 1338T1541 1318L1491 1307Q1447
1293 1419 1260T1371 1154L1155 411Q1112 262 1037 165T853 21T598 -26Q467 -26 381 18T254 137T212 307Q213 346 221 400T244 514T272 625L441 1230Q451 1259 444 1281T412 1311L358 1323Q335 1332 326 1341T317 1365Q317 1380 331 1390T371 1400H803Q850 1400
850 1369Q849 1354 837 1342T797 1322L734 1308Q707 1301 692 1283T665 1228L495 625Q467 516 454 441T439 312Q439 192 505 131T688 69Q818 69 913 151T1062 418ZM1172 1703Q1220 1749 1260 1774T1340 1790Q1374 1782 1383 1753T1375 1694Q1358 1658 1323 1635T1237
1591L1019 1493Q1007 1489 995 1489T977 1498Q973 1507 979 1517T996 1538L1172 1703Z" />
<glyph unicode="&#xdb;" horiz-adv-x="1409" d="M1062 418L1277 1159Q1294 1223 1284 1258T1230 1308L1191 1318Q1164 1328 1153 1337T1142 1362Q1142 1378 1156 1389T1199 1400H1547Q1570 1400 1581 1391T1593 1367Q1593 1348 1582 1338T1541 1318L1491 1307Q1447
1293 1419 1260T1371 1154L1155 411Q1112 262 1037 165T853 21T598 -26Q467 -26 381 18T254 137T212 307Q213 346 221 400T244 514T272 625L441 1230Q451 1259 444 1281T412 1311L358 1323Q335 1332 326 1341T317 1365Q317 1380 331 1390T371 1400H803Q850 1400
850 1369Q849 1354 837 1342T797 1322L734 1308Q707 1301 692 1283T665 1228L495 625Q467 516 454 441T439 312Q439 192 505 131T688 69Q818 69 913 151T1062 418ZM1070 1659H991L1197 1505Q1225 1484 1250 1500Q1260 1506 1264 1518T1259 1545L1127 1748Q1114
1768 1102 1779T1066 1790Q1044 1790 1026 1779T982 1748L744 1545Q727 1531 724 1519T727 1500Q735 1492 749 1493T782 1505L1070 1659Z" />
<glyph unicode="&#xdc;" horiz-adv-x="1409" d="M1062 418L1277 1159Q1294 1223 1284 1258T1230 1308L1191 1318Q1164 1328 1153 1337T1142 1362Q1142 1378 1156 1389T1199 1400H1547Q1570 1400 1581 1391T1593 1367Q1593 1348 1582 1338T1541 1318L1491 1307Q1447
1293 1419 1260T1371 1154L1155 411Q1112 262 1037 165T853 21T598 -26Q467 -26 381 18T254 137T212 307Q213 346 221 400T244 514T272 625L441 1230Q451 1259 444 1281T412 1311L358 1323Q335 1332 326 1341T317 1365Q317 1380 331 1390T371 1400H803Q850 1400
850 1369Q849 1354 837 1342T797 1322L734 1308Q707 1301 692 1283T665 1228L495 625Q467 516 454 441T439 312Q439 192 505 131T688 69Q818 69 913 151T1062 418ZM804 1511Q751 1511 728 1541T718 1622Q731 1672 771 1702T864 1733Q917 1733 940 1703T949 1622Q936
1573 896 1542T804 1511ZM1181 1511Q1129 1511 1106 1541T1095 1622Q1109 1671 1149 1702T1241 1733Q1295 1733 1318 1703T1327 1622Q1314 1573 1274 1542T1181 1511Z" />
<glyph unicode="&#xdd;" horiz-adv-x="1170" d="M631 502L1008 1182Q1064 1278 1112 1332T1206 1409T1301 1432Q1355 1432 1381 1407T1408 1347Q1408 1299 1372 1267T1259 1218Q1217 1208 1179 1190T1103 1135T1028 1039L728 506Q710 477 701 457T685 415L622
159Q613 129 620 111T654 87L710 76Q732 69 740 61T748 40Q748 21 732 11T687 0H261Q235 0 225 9T214 35Q214 65 260 78L318 88Q351 94 370 113T400 167L468 424Q477 451 476 478T468 534Q464 559 455 613T435 741T411 892T388 1042T367 1167T353 1244Q345 1279
322 1297T255 1322Q233 1327 222 1336T209 1360Q209 1378 224 1389T265 1400H432Q488 1400 516 1378T554 1307Q560 1281 570 1221T592 1080T619 911T646 741T670 595T688 499L631 502ZM1015 1703Q1063 1749 1103 1774T1183 1790Q1217 1782 1226 1753T1218 1694Q1201
1658 1166 1635T1080 1591L862 1493Q850 1489 838 1489T820 1498Q816 1507 822 1517T839 1538L1015 1703Z" />
<glyph unicode="&#xde;" horiz-adv-x="1320" d="M415 157Q408 126 416 109T451 87L505 75Q525 70 534 62T542 38Q542 21 527 11T485 0H58Q30 0 20 10T10 35Q10 51 21 61T54 77L113 88Q145 94 162 110T191 159Q203 204 225 287T276 475T335 695T394 916T444 1110T475
1246Q481 1274 474 1289T440 1311L384 1324Q363 1330 354 1338T345 1362Q345 1380 362 1390T412 1400H835Q862 1400 872 1392T882 1367Q882 1350 870 1340T833 1323L771 1308Q741 1302 726 1289T701 1248Q687 1196 662 1105T607 902T545 673T486 451T440 268T415
157ZM1308 667Q1277 550 1189 467T973 338T691 294Q627 294 570 303T465 330T376 378L411 440Q445 414 488 398T577 374T665 366Q758 365 838 399T975 501T1061 672Q1091 787 1068 875T968 1012T761 1061H567L590 1132H838Q1022 1132 1139 1073T1301 909T1308 667Z"
/>
<glyph unicode="&#xdf;" d="M2 -209L263 730Q273 761 265 780T232 807L176 829Q154 840 141 850T132 876Q137 892 153 900T192 909H351L304 865L339 1003Q379 1146 459 1250T663 1412T952 1469Q1077 1469 1153 1422T1255 1296T1254 1115Q1227 1017 1156 940T978
817T744 764L751 785Q906 786 1006 720T1143 543T1146 302Q1119 201 1054 128T893 15T675 -25Q570 -25 507 4T424 93T426 242Q438 292 452 308T480 325Q499 325 507 315T518 289L524 219Q526 143 566 101T677 58Q737 58 788 86T877 171T939 319Q969 433 944 521T845
659T657 712Q629 712 616 722T607 752Q612 767 623 777T665 800Q839 835 926 918T1048 1135Q1067 1210 1055 1269T1003 1363T902 1398Q817 1398 745 1354T617 1222T525 1003L235 -74Q227 -104 223 -127T219 -171Q219 -196 231 -211T255 -242T267 -278Q267 -306
239 -331T165 -371T69 -386Q8 -386 -8 -343T2 -209Z" />
<glyph unicode="&#xe0;" horiz-adv-x="1097" d="M843 259Q823 177 830 147T860 116Q878 116 896 126T941 163Q957 178 968 182T989 181Q1000 175 1000 160T988 122Q952 57 886 18T749 -21Q691 -21 663 8T634 92Q634 115 638 143T652 212T680 315T726 467L745 434Q690
289 613 187T445 32T259 -21Q154 -21 96 49T53 274Q63 374 104 470T213 651T369 799T561 899T778 935Q863 935 919 923T1002 890T1028 842Q1026 821 1014 809T988 785T969 751L843 259ZM264 282Q254 179 280 137T357 94Q402 94 453 130T556 229T653 376T731 556T781
754Q789 806 774 829T723 852Q660 852 598 821T480 733T377 603T302 448T264 282ZM691 1278L748 1087Q752 1076 751 1065T738 1046Q727 1038 715 1038T693 1045L550 1178Q515 1205 497 1232T483 1296Q488 1328 516 1356T585 1389Q632 1395 654 1364T691 1278Z"
/>
<glyph unicode="&#xe1;" horiz-adv-x="1097" d="M843 259Q823 177 830 147T860 116Q878 116 896 126T941 163Q957 178 968 182T989 181Q1000 175 1000 160T988 122Q952 57 886 18T749 -21Q691 -21 663 8T634 92Q634 115 638 143T652 212T680 315T726 467L745 434Q690
289 613 187T445 32T259 -21Q154 -21 96 49T53 274Q63 374 104 470T213 651T369 799T561 899T778 935Q863 935 919 923T1002 890T1028 842Q1026 821 1014 809T988 785T969 751L843 259ZM264 282Q254 179 280 137T357 94Q402 94 453 130T556 229T653 376T731 556T781
754Q789 806 774 829T723 852Q660 852 598 821T480 733T377 603T302 448T264 282ZM851 1278Q895 1333 934 1364T1017 1389Q1055 1385 1067 1357T1067 1296Q1053 1260 1021 1233T938 1178L727 1045Q714 1039 702 1039T684 1046Q676 1054 681 1065T696 1087L851 1278Z"
/>
<glyph unicode="&#xe2;" horiz-adv-x="1097" d="M843 259Q823 177 830 147T860 116Q878 116 896 126T941 163Q957 178 968 182T989 181Q1000 175 1000 160T988 122Q952 57 886 18T749 -21Q691 -21 663 8T634 92Q634 115 638 143T652 212T680 315T726 467L745 434Q690
289 613 187T445 32T259 -21Q154 -21 96 49T53 274Q63 374 104 470T213 651T369 799T561 899T778 935Q863 935 919 923T1002 890T1028 842Q1026 821 1014 809T988 785T969 751L843 259ZM264 282Q254 179 280 137T357 94Q402 94 453 130T556 229T653 376T731 556T781
754Q789 806 774 829T723 852Q660 852 598 821T480 733T377 603T302 448T264 282ZM777 1239H695L898 1048Q911 1038 925 1037T951 1043Q961 1050 965 1062T961 1089L832 1324Q820 1345 807 1356T771 1367Q747 1367 728 1356T685 1324L437 1089Q420 1074 417 1062T419
1043Q428 1036 442 1037T475 1048L777 1239Z" />
<glyph unicode="&#xe3;" horiz-adv-x="1097" d="M843 259Q823 177 830 147T860 116Q878 116 896 126T941 163Q957 178 968 182T989 181Q1000 175 1000 160T988 122Q952 57 886 18T749 -21Q691 -21 663 8T634 92Q634 115 638 143T652 212T680 315T726 467L745 434Q690
289 613 187T445 32T259 -21Q154 -21 96 49T53 274Q63 374 104 470T213 651T369 799T561 899T778 935Q863 935 919 923T1002 890T1028 842Q1026 821 1014 809T988 785T969 751L843 259ZM264 282Q254 179 280 137T357 94Q402 94 453 130T556 229T653 376T731 556T781
754Q789 806 774 829T723 852Q660 852 598 821T480 733T377 603T302 448T264 282ZM805 1051Q764 1051 734 1069T680 1111T633 1153T581 1172Q550 1172 527 1149T488 1077Q475 1048 447 1048Q414 1048 426 1091Q454 1195 506 1247T626 1300Q668 1300 698 1282T751
1241T798 1199T850 1180Q883 1180 905 1204T943 1276Q956 1304 985 1304Q1016 1304 1004 1262Q977 1157 925 1104T805 1051Z" />
<glyph unicode="&#xe4;" horiz-adv-x="1097" d="M843 259Q823 177 830 147T860 116Q878 116 896 126T941 163Q957 178 968 182T989 181Q1000 175 1000 160T988 122Q952 57 886 18T749 -21Q691 -21 663 8T634 92Q634 115 638 143T652 212T680 315T726 467L745 434Q690
289 613 187T445 32T259 -21Q154 -21 96 49T53 274Q63 374 104 470T213 651T369 799T561 899T778 935Q863 935 919 923T1002 890T1028 842Q1026 821 1014 809T988 785T969 751L843 259ZM264 282Q254 179 280 137T357 94Q402 94 453 130T556 229T653 376T731 556T781
754Q789 806 774 829T723 852Q660 852 598 821T480 733T377 603T302 448T264 282ZM498 1058Q446 1058 423 1089T413 1171Q426 1223 466 1254T559 1286Q612 1286 635 1255T644 1171Q631 1122 591 1090T498 1058ZM876 1058Q824 1058 801 1089T790 1172Q804 1222 844
1254T936 1286Q990 1286 1013 1255T1022 1171Q1009 1122 970 1090T876 1058Z" />
<glyph unicode="&#xe5;" horiz-adv-x="1097" d="M843 259Q823 177 830 147T860 116Q878 116 896 126T941 163Q957 178 968 182T989 181Q1000 175 1000 160T988 122Q952 57 886 18T749 -21Q691 -21 663 8T634 92Q634 115 638 143T652 212T680 315T726 467L745 434Q690
289 613 187T445 32T259 -21Q154 -21 96 49T53 274Q63 374 104 470T213 651T369 799T561 899T778 935Q863 935 919 923T1002 890T1028 842Q1026 821 1014 809T988 785T969 751L843 259ZM264 282Q254 179 280 137T357 94Q402 94 453 130T556 229T653 376T731 556T781
754Q789 806 774 829T723 852Q660 852 598 821T480 733T377 603T302 448T264 282ZM691 1036Q607 1036 562 1085T538 1216Q559 1295 630 1344T786 1394Q871 1394 916 1344T940 1216Q920 1137 849 1087T691 1036ZM769 1333Q727 1333 689 1301T637 1216Q625 1163 646
1131T710 1099Q753 1099 790 1131T840 1216Q854 1268 834 1300T769 1333Z" />
<glyph unicode="&#xe6;" horiz-adv-x="1523" d="M624 318Q629 439 675 550T797 748T972 885T1178 936Q1259 936 1311 903T1391 814T1423 686Q1424 672 1431 663T1451 652Q1465 653 1473 646T1482 621Q1482 605 1470 593T1429 573Q1381 559 1313 540T1169 501T1019
460T885 424T788 399T752 389L742 451Q742 451 778 461T873 486T999 520T1132 557T1244 591L1220 558Q1229 586 1233 618T1237 693Q1237 771 1211 816T1136 861Q1090 861 1039 823T943 719T869 569T835 392Q830 244 880 174T1033 104Q1126 104 1205 157T1332 305Q1347
327 1357 335T1380 343Q1395 342 1405 329T1407 285Q1382 197 1320 128T1164 19T948 -21Q836 -21 762 20T653 138T624 318ZM219 709Q237 772 291 823T430 906T625 938Q725 938 785 892T864 762T855 567L664 523L698 645Q719 719 709 770T669 847T602 874Q541 874
493 837T428 738L415 691Q401 645 365 620T275 594Q236 596 219 625T219 709ZM49 190Q68 265 144 324T356 429T684 508L692 451Q558 426 472 395T340 323T279 228Q262 165 291 125T374 85Q430 85 482 107T583 173T679 280L689 227Q630 148 557 92T404 6T248 -24Q175
-24 125 3T55 79T49 190Z" />
<glyph unicode="&#xe7;" horiz-adv-x="911" d="M604 857Q537 857 472 806T359 667T294 462Q269 284 319 195T474 105Q524 106 573 127T664 190T728 293Q744 316 755 327T781 337Q797 337 805 322T806 278Q798 230 768 178T685 80T558 7T389 -21Q204 -21 122 101T75
431Q93 536 141 628T264 789T432 897T634 936Q721 936 778 905T864 825T891 717Q889 652 852 618T771 583Q730 583 709 603T687 655Q688 681 696 707T704 763Q704 804 678 830T604 857ZM412 11H477L360 -142L323 -130Q339 -127 357 -126T399 -125Q488 -125 528
-166T551 -275Q532 -348 465 -392T302 -437Q221 -437 177 -405T141 -327Q144 -312 155 -303T180 -293Q192 -292 199 -297T210 -312Q215 -346 241 -360T302 -375Q387 -375 412 -275Q423 -232 406 -206T342 -180H309Q287 -180 286 -167T298 -138L412 11Z" />
<glyph unicode="&#xe8;" horiz-adv-x="970" d="M180 413Q180 413 217 427T314 463T444 512T580 564T696 608L673 576Q681 601 685 632T689 705Q689 773 661 816T584 859Q537 859 487 824T393 725T319 578T282 397Q271 250 327 176T486 102Q548 102 605 125T709
194T782 304Q796 326 807 333T832 341Q848 341 857 328T859 283Q845 206 787 136T630 23T397 -21Q282 -21 207 22T97 146T70 339Q78 460 125 567T250 757T425 888T629 936Q707 936 760 905T842 822T874 706Q876 691 883 681T903 671Q917 672 924 666T931 647Q931
632 918 619T867 592Q827 578 762 555T621 504T468 449T329 398T227 361T188 347L180 413ZM572 1278L629 1087Q633 1076 632 1065T619 1046Q608 1038 596 1038T574 1045L431 1178Q396 1205 378 1232T364 1296Q369 1328 397 1356T466 1389Q513 1395 535 1364T572
1278Z" />
<glyph unicode="&#xe9;" horiz-adv-x="970" d="M180 413Q180 413 217 427T314 463T444 512T580 564T696 608L673 576Q681 601 685 632T689 705Q689 773 661 816T584 859Q537 859 487 824T393 725T319 578T282 397Q271 250 327 176T486 102Q548 102 605 125T709
194T782 304Q796 326 807 333T832 341Q848 341 857 328T859 283Q845 206 787 136T630 23T397 -21Q282 -21 207 22T97 146T70 339Q78 460 125 567T250 757T425 888T629 936Q707 936 760 905T842 822T874 706Q876 691 883 681T903 671Q917 672 924 666T931 647Q931
632 918 619T867 592Q827 578 762 555T621 504T468 449T329 398T227 361T188 347L180 413ZM732 1278Q776 1333 815 1364T898 1389Q936 1385 948 1357T948 1296Q934 1260 902 1233T819 1178L608 1045Q595 1039 583 1039T565 1046Q557 1054 562 1065T577 1087L732
1278Z" />
<glyph unicode="&#xea;" horiz-adv-x="970" d="M180 413Q180 413 217 427T314 463T444 512T580 564T696 608L673 576Q681 601 685 632T689 705Q689 773 661 816T584 859Q537 859 487 824T393 725T319 578T282 397Q271 250 327 176T486 102Q548 102 605 125T709
194T782 304Q796 326 807 333T832 341Q848 341 857 328T859 283Q845 206 787 136T630 23T397 -21Q282 -21 207 22T97 146T70 339Q78 460 125 567T250 757T425 888T629 936Q707 936 760 905T842 822T874 706Q876 691 883 681T903 671Q917 672 924 666T931 647Q931
632 918 619T867 592Q827 578 762 555T621 504T468 449T329 398T227 361T188 347L180 413ZM663 1239H581L784 1048Q797 1038 811 1037T837 1043Q847 1050 851 1062T847 1089L718 1324Q706 1345 693 1356T657 1367Q633 1367 614 1356T571 1324L323 1089Q306 1074
303 1062T305 1043Q314 1036 328 1037T361 1048L663 1239Z" />
<glyph unicode="&#xeb;" horiz-adv-x="970" d="M180 413Q180 413 217 427T314 463T444 512T580 564T696 608L673 576Q681 601 685 632T689 705Q689 773 661 816T584 859Q537 859 487 824T393 725T319 578T282 397Q271 250 327 176T486 102Q548 102 605 125T709
194T782 304Q796 326 807 333T832 341Q848 341 857 328T859 283Q845 206 787 136T630 23T397 -21Q282 -21 207 22T97 146T70 339Q78 460 125 567T250 757T425 888T629 936Q707 936 760 905T842 822T874 706Q876 691 883 681T903 671Q917 672 924 666T931 647Q931
632 918 619T867 592Q827 578 762 555T621 504T468 449T329 398T227 361T188 347L180 413ZM379 1058Q327 1058 304 1089T294 1171Q307 1223 347 1254T440 1286Q493 1286 516 1255T525 1171Q512 1122 472 1090T379 1058ZM757 1058Q705 1058 682 1089T671 1172Q685
1222 725 1254T817 1286Q871 1286 894 1255T903 1171Q890 1122 851 1090T757 1058Z" />
<glyph unicode="&#xec;" horiz-adv-x="626" d="M360 119Q327 119 321 150T346 265L501 693Q536 779 532 833T494 914T404 941Q332 941 262 899T148 789Q134 772 134 757T147 734Q157 729 168 733T195 746Q225 776 247 789T286 802Q320 802 324 769T294 646L136
214Q105 137 108 85T144 7T239 -19Q319 -19 386 21T490 127Q502 147 502 162T491 184Q481 190 470 186T446 173Q417 143 398 131T360 119ZM418 1278L475 1087Q479 1076 478 1065T465 1046Q454 1038 442 1038T420 1045L277 1178Q242 1205 224 1232T210 1296Q215
1328 243 1356T312 1389Q359 1395 381 1364T418 1278Z" />
<glyph unicode="&#xed;" horiz-adv-x="626" d="M360 119Q327 119 321 150T346 265L501 693Q536 779 532 833T494 914T404 941Q332 941 262 899T148 789Q134 772 134 757T147 734Q157 729 168 733T195 746Q225 776 247 789T286 802Q320 802 324 769T294 646L136
214Q105 137 108 85T144 7T239 -19Q319 -19 386 21T490 127Q502 147 502 162T491 184Q481 190 470 186T446 173Q417 143 398 131T360 119ZM577 1278Q621 1333 660 1364T743 1389Q781 1385 793 1357T793 1296Q779 1260 747 1233T664 1178L453 1045Q440 1039 428
1039T410 1046Q402 1054 407 1065T422 1087L577 1278Z" />
<glyph unicode="&#xee;" horiz-adv-x="626" d="M360 119Q327 119 321 150T346 265L501 693Q536 779 532 833T494 914T404 941Q332 941 262 899T148 789Q134 772 134 757T147 734Q157 729 168 733T195 746Q225 776 247 789T286 802Q320 802 324 769T294 646L136
214Q105 137 108 85T144 7T239 -19Q319 -19 386 21T490 127Q502 147 502 162T491 184Q481 190 470 186T446 173Q417 143 398 131T360 119ZM527 1239H457L630 1048Q641 1038 653 1037T675 1043Q683 1050 686 1062T683 1089L574 1324Q563 1345 552 1356T522 1367Q501
1367 485 1356T449 1324L238 1089Q223 1074 221 1062T223 1043Q230 1036 242 1037T270 1048L527 1239Z" />
<glyph unicode="&#xef;" horiz-adv-x="626" d="M360 119Q327 119 321 150T346 265L501 693Q536 779 532 833T494 914T404 941Q332 941 262 899T148 789Q134 772 134 757T147 734Q157 729 168 733T195 746Q225 776 247 789T286 802Q320 802 324 769T294 646L136
214Q105 137 108 85T144 7T239 -19Q319 -19 386 21T490 127Q502 147 502 162T491 184Q481 190 470 186T446 173Q417 143 398 131T360 119ZM316 1058Q275 1058 257 1089T248 1171Q259 1223 291 1254T365 1286Q407 1286 425 1255T433 1171Q423 1122 391 1090T316
1058ZM619 1058Q577 1058 558 1089T550 1172Q561 1222 593 1254T667 1286Q710 1286 728 1255T735 1171Q725 1122 694 1090T619 1058Z" />
<glyph unicode="&#xf0;" horiz-adv-x="1055" d="M977 467Q933 306 848 196T647 31T399 -23Q270 -21 187 49T78 244T98 531Q123 621 172 697T290 831T440 920T608 951Q725 948 785 877T841 665L821 660Q830 807 816 934T765 1164T674 1336T548 1441Q528 1450 523
1460T524 1483Q529 1497 545 1503T588 1506Q713 1473 807 1375T957 1134T1019 819T977 467ZM430 59Q467 58 505 77T581 133T652 226T713 350T758 501Q785 613 775 693T726 817T626 863Q582 865 541 844T461 782T391 688T334 568T294 430Q266 317 276 235T326 107T430
59ZM1106 1378L483 1114Q465 1108 455 1112T442 1127Q436 1156 472 1169L1094 1433Q1114 1440 1124 1436T1137 1420Q1141 1407 1133 1396T1106 1378Z" />
<glyph unicode="&#xf1;" horiz-adv-x="1180" d="M153 731Q142 737 142 752T154 790Q191 856 258 895T408 935Q463 935 494 911T526 838Q526 809 515 772T482 682T431 557T363 382L359 424Q417 568 489 666T638 823T788 909T922 935Q1006 935 1041 900T1073 798T1037
641L903 259Q875 180 882 149T916 117Q933 117 951 127T997 164Q1014 179 1024 183T1045 183Q1057 177 1057 162T1045 124Q1009 58 942 19T793 -21Q732 -21 701 7T668 89T693 219L830 612Q866 712 855 752T789 792Q748 792 695 765T585 684T477 548T386 357Q364
295 352 257T334 197T329 160Q329 134 337 116T346 73Q346 30 300 5T177 -21Q114 -21 101 26T124 172L296 654Q324 733 317 765T282 797Q266 797 247 787T201 749Q185 735 174 731T153 731ZM823 1051Q782 1051 752 1069T698 1111T651 1153T599 1172Q568 1172 545
1149T506 1077Q493 1048 465 1048Q432 1048 444 1091Q472 1195 524 1247T644 1300Q686 1300 716 1282T769 1241T816 1199T868 1180Q901 1180 923 1204T961 1276Q974 1304 1003 1304Q1034 1304 1022 1262Q995 1157 943 1104T823 1051Z" />
<glyph unicode="&#xf2;" horiz-adv-x="1054" d="M634 936Q757 933 844 876T968 715T980 466Q960 357 909 266T782 110T613 10T417 -21Q296 -17 211 39T89 200T77 449Q98 559 148 649T273 805T439 905T634 936ZM421 62Q464 58 506 73T586 122T657 205T715 322T757
469Q783 594 774 677T728 803T630 853Q587 857 547 842T469 793T399 710T341 594T300 446Q274 321 282 238T327 112T421 62ZM645 1278L702 1087Q706 1076 705 1065T692 1046Q681 1038 669 1038T647 1045L504 1178Q469 1205 451 1232T437 1296Q442 1328 470 1356T539
1389Q586 1395 608 1364T645 1278Z" />
<glyph unicode="&#xf3;" horiz-adv-x="1054" d="M634 936Q757 933 844 876T968 715T980 466Q960 357 909 266T782 110T613 10T417 -21Q296 -17 211 39T89 200T77 449Q98 559 148 649T273 805T439 905T634 936ZM421 62Q464 58 506 73T586 122T657 205T715 322T757
469Q783 594 774 677T728 803T630 853Q587 857 547 842T469 793T399 710T341 594T300 446Q274 321 282 238T327 112T421 62ZM804 1278Q848 1333 887 1364T970 1389Q1008 1385 1020 1357T1020 1296Q1006 1260 974 1233T891 1178L680 1045Q667 1039 655 1039T637
1046Q629 1054 634 1065T649 1087L804 1278Z" />
<glyph unicode="&#xf4;" horiz-adv-x="1054" d="M634 936Q757 933 844 876T968 715T980 466Q960 357 909 266T782 110T613 10T417 -21Q296 -17 211 39T89 200T77 449Q98 559 148 649T273 805T439 905T634 936ZM421 62Q464 58 506 73T586 122T657 205T715 322T757
469Q783 594 774 677T728 803T630 853Q587 857 547 842T469 793T399 710T341 594T300 446Q274 321 282 238T327 112T421 62ZM729 1239H647L850 1048Q863 1038 877 1037T903 1043Q913 1050 917 1062T913 1089L784 1324Q772 1345 759 1356T723 1367Q699 1367 680
1356T637 1324L389 1089Q372 1074 369 1062T371 1043Q380 1036 394 1037T427 1048L729 1239Z" />
<glyph unicode="&#xf5;" horiz-adv-x="1054" d="M634 936Q757 933 844 876T968 715T980 466Q960 357 909 266T782 110T613 10T417 -21Q296 -17 211 39T89 200T77 449Q98 559 148 649T273 805T439 905T634 936ZM421 62Q464 58 506 73T586 122T657 205T715 322T757
469Q783 594 774 677T728 803T630 853Q587 857 547 842T469 793T399 710T341 594T300 446Q274 321 282 238T327 112T421 62ZM758 1051Q717 1051 687 1069T633 1111T586 1153T534 1172Q503 1172 480 1149T441 1077Q428 1048 400 1048Q367 1048 379 1091Q407 1195
459 1247T579 1300Q621 1300 651 1282T704 1241T751 1199T803 1180Q836 1180 858 1204T896 1276Q909 1304 938 1304Q969 1304 957 1262Q930 1157 878 1104T758 1051Z" />
<glyph unicode="&#xf6;" horiz-adv-x="1054" d="M634 936Q757 933 844 876T968 715T980 466Q960 357 909 266T782 110T613 10T417 -21Q296 -17 211 39T89 200T77 449Q98 559 148 649T273 805T439 905T634 936ZM421 62Q464 58 506 73T586 122T657 205T715 322T757
469Q783 594 774 677T728 803T630 853Q587 857 547 842T469 793T399 710T341 594T300 446Q274 321 282 238T327 112T421 62ZM452 1058Q400 1058 377 1089T367 1171Q380 1223 420 1254T513 1286Q566 1286 589 1255T598 1171Q585 1122 545 1090T452 1058ZM830 1058Q778
1058 755 1089T744 1172Q758 1222 798 1254T890 1286Q944 1286 967 1255T976 1171Q963 1122 924 1090T830 1058Z" />
<glyph unicode="&#xf7;" horiz-adv-x="1100" d="M662 981Q626 981 607 999T590 1045Q593 1066 607 1084T646 1112T702 1123Q739 1123 756 1105T770 1058Q768 1037 754 1020T716 992T662 981ZM444 682Q450 703 469 714T510 726H1258Q1279 726 1289 715T1294 682Q1288
660 1267 649T1225 637H485Q461 637 450 648T444 682ZM474 227Q438 227 419 245T402 291Q405 312 419 330T458 358T514 369Q551 369 568 351T582 304Q580 283 566 266T528 238T474 227Z" />
<glyph unicode="&#xf8;" horiz-adv-x="1054" d="M42 -81Q32 -75 32 -64T42 -40L237 180L256 194L778 788L793 812L956 997Q968 1010 981 1013T1005 1012Q1016 1006 1016 995T1005 972L820 762L802 750L286 160L272 138L89 -68Q78 -81 66 -84T42 -81ZM634 936Q757
933 844 876T968 715T980 466Q960 357 909 266T782 110T613 10T417 -21Q296 -17 211 39T89 200T77 449Q98 559 148 649T273 805T439 905T634 936ZM421 62Q464 58 506 73T586 122T657 205T715 322T757 469Q783 594 774 677T728 803T630 853Q587 857 547 842T469
793T399 710T341 594T300 446Q274 321 282 238T327 112T421 62Z" />
<glyph unicode="&#xf9;" horiz-adv-x="1175" d="M1033 183Q1044 177 1044 162T1032 124Q995 58 928 19T778 -21Q723 -21 691 3T659 76Q659 105 671 142T704 232T755 358T823 532L827 490Q769 346 697 248T547 91T397 5T263 -21Q180 -21 145 15T113 116T149 273L283
655Q311 734 304 765T269 797Q253 797 234 787T188 750Q172 735 161 731T140 732Q129 737 129 752T141 790Q177 856 244 895T392 935Q455 935 486 907T519 826T493 695L356 302Q320 202 331 162T397 122Q438 122 491 149T601 230T709 366T800 557Q822 619 834 657T851
717T856 754Q856 781 848 798T840 842Q840 884 885 909T1009 935Q1072 935 1084 889T1062 743L890 260Q862 181 869 149T903 117Q920 117 938 127T984 165Q1001 180 1012 184T1033 183ZM689 1278L746 1087Q750 1076 749 1065T736 1046Q725 1038 713 1038T691 1045L548
1178Q513 1205 495 1232T481 1296Q486 1328 514 1356T583 1389Q630 1395 652 1364T689 1278Z" />
<glyph unicode="&#xfa;" horiz-adv-x="1175" d="M1033 183Q1044 177 1044 162T1032 124Q995 58 928 19T778 -21Q723 -21 691 3T659 76Q659 105 671 142T704 232T755 358T823 532L827 490Q769 346 697 248T547 91T397 5T263 -21Q180 -21 145 15T113 116T149 273L283
655Q311 734 304 765T269 797Q253 797 234 787T188 750Q172 735 161 731T140 732Q129 737 129 752T141 790Q177 856 244 895T392 935Q455 935 486 907T519 826T493 695L356 302Q320 202 331 162T397 122Q438 122 491 149T601 230T709 366T800 557Q822 619 834 657T851
717T856 754Q856 781 848 798T840 842Q840 884 885 909T1009 935Q1072 935 1084 889T1062 743L890 260Q862 181 869 149T903 117Q920 117 938 127T984 165Q1001 180 1012 184T1033 183ZM848 1278Q892 1333 931 1364T1014 1389Q1052 1385 1064 1357T1064 1296Q1050
1260 1018 1233T935 1178L724 1045Q711 1039 699 1039T681 1046Q673 1054 678 1065T693 1087L848 1278Z" />
<glyph unicode="&#xfb;" horiz-adv-x="1175" d="M1033 183Q1044 177 1044 162T1032 124Q995 58 928 19T778 -21Q723 -21 691 3T659 76Q659 105 671 142T704 232T755 358T823 532L827 490Q769 346 697 248T547 91T397 5T263 -21Q180 -21 145 15T113 116T149 273L283
655Q311 734 304 765T269 797Q253 797 234 787T188 750Q172 735 161 731T140 732Q129 737 129 752T141 790Q177 856 244 895T392 935Q455 935 486 907T519 826T493 695L356 302Q320 202 331 162T397 122Q438 122 491 149T601 230T709 366T800 557Q822 619 834 657T851
717T856 754Q856 781 848 798T840 842Q840 884 885 909T1009 935Q1072 935 1084 889T1062 743L890 260Q862 181 869 149T903 117Q920 117 938 127T984 165Q1001 180 1012 184T1033 183ZM774 1239H692L895 1048Q908 1038 922 1037T948 1043Q958 1050 962 1062T958
1089L829 1324Q817 1345 804 1356T768 1367Q744 1367 725 1356T682 1324L434 1089Q417 1074 414 1062T416 1043Q425 1036 439 1037T472 1048L774 1239Z" />
<glyph unicode="&#xfc;" horiz-adv-x="1175" d="M1033 183Q1044 177 1044 162T1032 124Q995 58 928 19T778 -21Q723 -21 691 3T659 76Q659 105 671 142T704 232T755 358T823 532L827 490Q769 346 697 248T547 91T397 5T263 -21Q180 -21 145 15T113 116T149 273L283
655Q311 734 304 765T269 797Q253 797 234 787T188 750Q172 735 161 731T140 732Q129 737 129 752T141 790Q177 856 244 895T392 935Q455 935 486 907T519 826T493 695L356 302Q320 202 331 162T397 122Q438 122 491 149T601 230T709 366T800 557Q822 619 834 657T851
717T856 754Q856 781 848 798T840 842Q840 884 885 909T1009 935Q1072 935 1084 889T1062 743L890 260Q862 181 869 149T903 117Q920 117 938 127T984 165Q1001 180 1012 184T1033 183ZM495 1058Q443 1058 420 1089T410 1171Q423 1223 463 1254T556 1286Q609 1286
632 1255T641 1171Q628 1122 588 1090T495 1058ZM873 1058Q821 1058 798 1089T787 1172Q801 1222 841 1254T933 1286Q987 1286 1010 1255T1019 1171Q1006 1122 967 1090T873 1058Z" />
<glyph unicode="&#xfd;" horiz-adv-x="1019" d="M659 547Q740 754 821 847T995 940Q1040 940 1064 915T1089 847Q1089 797 1058 763T969 708Q929 698 895 679T828 625T761 531T690 380L504 -71Q444 -228 368 -321T196 -455T-15 -496Q-116 -496 -169 -457T-222
-357Q-222 -315 -195 -286T-125 -256Q-96 -256 -75 -270T-36 -306T-1 -348T39 -384T93 -399Q138 -399 177 -376T246 -313T293 -218T311 -101Q312 -60 311 1T306 135T298 288T289 443T278 587T266 704Q263 753 250 776T214 799Q198 799 182 789T147 752Q136 737
127 733T107 731Q97 733 93 746T96 782Q112 828 145 863T222 917T318 937Q379 937 416 896T460 768Q463 728 466 656T471 494T475 306T477 117T478 -49L448 -24L659 547ZM800 1278Q844 1333 883 1364T966 1389Q1004 1385 1016 1357T1016 1296Q1002 1260 970 1233T887
1178L676 1045Q663 1039 651 1039T633 1046Q625 1054 630 1065T645 1087L800 1278Z" />
<glyph unicode="&#xfe;" horiz-adv-x="1079" d="M531 1482Q615 1482 642 1430T635 1256L189 -306Q180 -339 182 -364T226 -395L293 -407Q316 -411 325 -420T334 -442Q334 -460 320 -471T280 -483L-115 -491Q-132 -492 -145 -484T-158 -457Q-158 -444 -149 -433T-116
-411Q-83 -403 -65 -393T-35 -366T-17 -325L420 1189Q440 1252 443 1285T438 1330T406 1342Q387 1342 368 1332T319 1294Q305 1286 293 1282T270 1283Q260 1289 259 1304T271 1338Q298 1379 339 1411T431 1463T531 1482ZM182 679Q164 665 147 664T117 671Q102 682
108 701T135 737Q205 810 285 858T456 928T650 946Q775 941 860 884T981 722T998 468Q978 316 903 205T720 35T486 -20Q383 -16 318 28T227 150L290 176Q313 126 353 99T449 69Q526 65 596 110T719 249T793 488Q812 610 794 693T730 821T619 872Q511 882 402 836T182
679Z" />
<glyph unicode="&#xff;" horiz-adv-x="1019" d="M659 547Q740 754 821 847T995 940Q1040 940 1064 915T1089 847Q1089 797 1058 763T969 708Q929 698 895 679T828 625T761 531T690 380L504 -71Q444 -228 368 -321T196 -455T-15 -496Q-116 -496 -169 -457T-222
-357Q-222 -315 -195 -286T-125 -256Q-96 -256 -75 -270T-36 -306T-1 -348T39 -384T93 -399Q138 -399 177 -376T246 -313T293 -218T311 -101Q312 -60 311 1T306 135T298 288T289 443T278 587T266 704Q263 753 250 776T214 799Q198 799 182 789T147 752Q136 737
127 733T107 731Q97 733 93 746T96 782Q112 828 145 863T222 917T318 937Q379 937 416 896T460 768Q463 728 466 656T471 494T475 306T477 117T478 -49L448 -24L659 547ZM447 1058Q395 1058 372 1089T362 1171Q375 1223 415 1254T508 1286Q561 1286 584 1255T593
1171Q580 1122 540 1090T447 1058ZM825 1058Q773 1058 750 1089T739 1172Q753 1222 793 1254T885 1286Q939 1286 962 1255T971 1171Q958 1122 919 1090T825 1058Z" />
<glyph unicode="&#x2013;" horiz-adv-x="1025" d="M60 526Q66 550 79 563T114 577H947Q968 577 975 564T975 526Q970 502 957 488T921 474H89Q67 474 61 488T60 526Z" />
<glyph unicode="&#x2014;" horiz-adv-x="1624" d="M60 526Q66 550 79 563T114 577H1545Q1567 577 1573 564T1574 526Q1569 502 1556 488T1519 474H89Q67 474 61 488T60 526Z" />
<glyph unicode="&#x2018;" horiz-adv-x="415" d="M407 1193Q471 1193 496 1162T508 1078Q497 1040 471 1011T408 965T332 948Q263 948 234 999T231 1151Q254 1237 301 1307T414 1427T556 1496Q584 1503 597 1499T611 1480Q613 1467 601 1455T564 1434Q508 1415
465 1381T393 1308T355 1230Q350 1212 355 1203T380 1193H407Z" />
<glyph unicode="&#x2019;" horiz-adv-x="404" d="M409 1263Q345 1263 320 1294T308 1378Q319 1416 345 1445T408 1491T484 1508Q553 1508 583 1457T585 1305Q563 1219 515 1149T402 1029T261 959Q232 952 219 956T205 975Q204 988 215 1001T252 1022Q308 1042
351 1075T423 1148T461 1225Q467 1243 462 1253T436 1263H409Z" />
<glyph unicode="&#x201a;" horiz-adv-x="456" d="M140 1Q76 1 51 33T39 117Q49 156 75 185T138 230T214 247Q283 247 313 195T315 43Q292 -43 245 -113T132 -232T-9 -302Q-38 -309 -51 -304T-65 -285Q-66 -272 -55 -260T-18 -239Q38 -219 81 -186T153 -113T191
-36Q197 -18 192 -9T166 1H140Z" />
<glyph unicode="&#x201c;" horiz-adv-x="808" d="M796 1193Q860 1193 885 1162T897 1078Q886 1040 860 1011T797 965T721 948Q652 948 623 999T620 1151Q643 1237 690 1307T803 1427T945 1496Q973 1503 986 1499T1000 1480Q1001 1467 990 1455T953 1434Q897 1415
854 1381T782 1308T744 1230Q738 1212 744 1203T769 1193H796ZM403 1193Q467 1193 492 1162T504 1078Q494 1040 468 1011T405 965T328 948Q260 948 230 999T228 1151Q250 1237 297 1307T410 1427T552 1496Q580 1503 593 1499T608 1480Q609 1467 598 1455T561 1434Q505
1415 461 1381T389 1308T351 1230Q346 1212 352 1203T377 1193H403Z" />
<glyph unicode="&#x201d;" horiz-adv-x="796" d="M397 1262Q333 1262 308 1294T296 1377Q307 1416 333 1445T396 1491T472 1508Q541 1508 571 1456T573 1304Q551 1218 504 1148T391 1029T249 959Q220 952 207 956T193 975Q192 988 203 1000T240 1021Q296 1041
339 1074T411 1148T449 1225Q455 1243 450 1252T424 1262H397ZM790 1262Q726 1262 701 1294T689 1377Q699 1416 725 1445T788 1491T865 1508Q933 1508 963 1456T966 1304Q943 1218 896 1148T783 1029T641 959Q613 952 600 956T586 975Q584 988 595 1000T633 1021Q689
1041 732 1074T804 1148T842 1225Q848 1243 842 1252T817 1262H790Z" />
<glyph unicode="&#x201e;" horiz-adv-x="839" d="M139 -1Q75 -1 50 31T38 115Q48 153 74 182T137 228T213 245Q282 245 312 193T314 41Q292 -45 244 -115T131 -234T-11 -304Q-38 -311 -51 -307T-66 -288Q-67 -275 -56 -263T-19 -242Q37 -222 80 -189T152 -116T190
-38Q196 -21 191 -11T165 -1H139ZM522 -1Q458 -1 433 31T421 115Q432 154 458 183T521 228T597 245Q666 245 696 194T698 41Q675 -45 628 -115T515 -234T373 -304Q345 -311 332 -306T318 -287Q316 -274 327 -262T365 -241Q421 -221 464 -188T536 -115T574 -38Q579
-20 574 -11T549 -1H522Z" />
<glyph unicode="&#x2022;" horiz-adv-x="704" d="M310 306Q220 306 172 355T131 479Q139 537 175 585T271 662T409 692Q502 692 545 641T580 513Q575 458 539 411T444 335T310 306Z" />
<glyph unicode="&#x2039;" horiz-adv-x="669" d="M121 509Q127 527 145 541T207 581Q301 637 372 681T497 762T597 833Q614 844 630 847T655 842Q664 833 660 820T641 791Q612 759 575 724T493 647T395 560T281 463L289 517Q336 447 370 385T428 271T470 174Q476
160 474 148T461 128Q448 121 437 124T414 140Q386 180 352 225T271 321T161 429Q132 456 124 473T121 509Z" />
<glyph unicode="&#x203a;" horiz-adv-x="677" d="M589 468Q583 450 565 436T503 396Q409 340 338 296T213 215T113 144Q96 133 80 130T55 135Q46 144 50 157T69 186Q98 218 135 253T217 330T315 417T429 514L421 460Q374 530 340 592T282 706T240 803Q234 817
236 829T249 849Q262 856 273 853T296 837Q324 797 358 752T439 656T549 548Q578 521 586 504T589 468Z" />
</font>
</defs>
</svg>
