<?xml version="1.0" standalone="no"?>
<!DOCTYPE svg PUBLIC "-//W3C//DTD SVG 1.1//EN" "http://www.w3.org/Graphics/SVG/1.1/DTD/svg11.dtd">
<svg xmlns="http://www.w3.org/2000/svg">
<defs >
<font id="Fraunces" horiz-adv-x="1265" ><font-face
    font-family="Fraunces Medium"
    units-per-em="2000"
    panose-1="0 0 0 0 0 0 0 0 0 0"
    ascent="1956"
    descent="-510"
    alphabetic="0" />
<glyph unicode=" " horiz-adv-x="442" />
<glyph unicode="!" horiz-adv-x="629" d="M314 1482Q394 1482 431 1444T468 1342Q468 1319 465 1294T456 1241L367 512Q360 480 349 465T314 449Q292 449 280 464T261 512L172 1241Q166 1269 163 1294T160 1342Q160 1405 197 1443T314 1482ZM314 -20Q269 -20 233
3T174 64T152 146Q152 192 174 229T232 289T314 311Q360 311 397 289T455 230T476 146Q476 102 455 64T397 3T314 -20Z" />
<glyph unicode="&quot;" horiz-adv-x="708" d="M536 890Q517 890 502 904T482 946L429 1373Q415 1462 444 1509T543 1556Q613 1556 640 1509T653 1373L593 945Q587 917 573 904T536 890ZM162 890Q143 890 128 904T108 946L55 1373Q41 1462 70 1509T169 1556Q239
1556 266 1509T279 1373L219 945Q213 917 199 904T162 890Z" />
<glyph unicode="#" horiz-adv-x="1309" d="M511 688Q502 652 488 601T460 491T429 370T398 248T369 135T344 41Q328 -16 278 -5Q252 1 243 20T241 68Q251 104 266 154T300 263T339 383T377 504T411 616T438 707Q448 745 460 796T487 907T516 1028T545 1151T573
1264T596 1356Q612 1412 662 1402Q689 1396 697 1376T699 1329Q689 1291 674 1241T641 1131T605 1010T569 889T536 778T511 688ZM697 966Q733 966 784 967T892 971T1008 976T1117 980T1205 982Q1235 982 1252 970T1270 933Q1270 909 1253 896T1205 883Q1170 883
1120 884T1012 888T896 892T786 895T696 897Q659 896 607 895T496 893T378 889T268 887T181 886Q152 885 135 898T116 935Q116 960 134 972T181 985Q219 985 271 983T381 978T498 973T608 968T697 966ZM619 457Q582 457 530 456T418 453T301 450T191 447T104 446Q75
446 57 458T39 495Q39 520 57 532T104 545Q142 545 193 544T304 539T421 533T531 529T620 527Q656 527 707 528T815 532T931 536T1040 540T1128 543Q1157 543 1175 531T1193 494Q1193 469 1175 457T1128 443Q1092 443 1042 444T934 448T818 452T708 456T619 457ZM705
41Q689 -16 639 -5Q613 1 604 20T602 68Q612 104 627 154T661 263T700 383T738 504T773 616T799 707Q809 745 822 796T849 907T877 1029T906 1151T934 1263T957 1356Q973 1412 1023 1402Q1050 1396 1058 1376T1059 1328Q1049 1291 1035 1241T1002 1131T966 1010T930
889T897 778T872 688Q863 652 849 601T821 491T790 370T759 248T730 135T705 41Z" />
<glyph unicode="$" horiz-adv-x="1194" d="M621 1392Q765 1392 866 1352T1022 1241T1077 1081Q1077 1027 1047 991T969 955Q915 955 880 986T844 1067V1135Q844 1225 782 1283T611 1341Q532 1341 472 1311T379 1225T345 1094Q345 1029 375 975T475 876T669 791Q828
740 920 678T1052 543T1093 385Q1093 272 1034 187T862 54T595 6Q446 6 336 49T167 163T107 321Q107 378 139 413T225 449Q273 449 306 417T339 331V262Q339 175 408 117T596 59Q719 59 793 119T867 286Q867 386 796 458T535 589Q381 640 291 701T161 837T121 1003Q121
1111 182 1199T356 1340T621 1392ZM641 733H583Q583 919 578 1047T567 1262T555 1406T550 1506Q550 1539 568 1556T613 1573Q640 1573 658 1556T677 1505Q677 1465 672 1409T659 1266T647 1050T641 733ZM568 672H626Q626 491 631 364T644 152T656 10T662 -86Q662
-119 644 -136T598 -153Q572 -153 554 -136T535 -85Q535 -43 540 13T551 154T563 365T568 672Z" />
<glyph unicode="%" horiz-adv-x="1520" d="M660 1427Q811 1427 900 1330T989 1066Q989 946 947 861T830 731T655 686Q495 686 408 784T320 1057Q320 1225 410 1326T660 1427ZM798 1053Q798 1219 761 1292T655 1365Q584 1365 548 1293T511 1067Q511 896 548 822T657
748Q701 748 732 777T781 874T798 1053ZM855 785Q841 765 829 761T799 765Q783 773 783 787T791 821Q807 852 830 897T881 996T936 1106T992 1215T1044 1312T1084 1384Q1105 1417 1135 1426T1199 1417Q1231 1399 1236 1370T1221 1308Q1206 1284 1179 1244T1118
1155T1047 1053T974 950T907 857T855 785ZM668 615Q684 634 697 639T726 636Q742 627 742 613T732 578Q717 548 694 503T644 403T588 293T532 183T481 86T440 14Q420 -17 390 -26T326 -18Q294 0 288 29T303 90Q318 115 345 155T406 244T477 346T551 450T617 544T668
615ZM1127 713Q1278 713 1367 616T1456 352Q1456 232 1414 147T1297 17T1122 -28Q962 -28 875 70T787 343Q787 511 877 612T1127 713ZM1265 339Q1265 505 1228 578T1122 651Q1051 651 1015 579T978 353Q978 182 1015 108T1124 34Q1168 34 1199 63T1248 160T1265
339Z" />
<glyph unicode="&amp;" horiz-adv-x="1937" d="M1322 -41Q1484 -41 1601 25T1781 219T1845 530Q1845 740 1771 929T1547 1268Q1406 1409 1224 1483T828 1557Q612 1557 460 1492T228 1307T147 1025Q147 933 185 875T290 817Q344 817 379 849T414 931Q414 969 404
996T379 1046T355 1096T344 1163Q344 1250 395 1322T552 1439T823 1483Q1024 1483 1190 1413T1485 1211Q1630 1065 1694 887T1759 526Q1759 373 1714 274T1592 126T1419 77Q1350 77 1289 109T1162 212T1015 402Q946 502 899 594T828 776T804 954Q804 1063 845 1128T954
1193Q1003 1193 1033 1141T1063 1004Q1063 911 1034 845T949 740T815 690L825 643Q965 654 1064 698T1215 815T1268 985Q1268 1065 1230 1127T1124 1224T966 1259Q850 1259 766 1208T636 1067T590 863Q590 764 615 667T689 469T811 262Q882 157 957 90T1121 -9T1322
-41ZM1118 211L1149 169Q1330 259 1416 368T1503 598Q1503 668 1473 708T1391 748Q1342 748 1311 713T1280 629Q1280 601 1288 580T1304 535T1313 477Q1313 437 1294 395T1231 307T1118 211ZM659 622V678Q490 666 376 615T204 480T146 290Q146 138 247 54T530 -31Q623
-31 697 -12T831 41T943 122L903 176Q845 128 785 103T650 77Q544 77 478 148T411 337Q411 409 437 468T519 568T659 622Z" />
<glyph unicode="&apos;" horiz-adv-x="335" d="M162 890Q143 890 128 904T108 946L55 1373Q41 1462 70 1509T169 1556Q239 1556 266 1509T279 1373L219 945Q213 917 199 904T162 890Z" />
<glyph unicode="(" horiz-adv-x="709" d="M149 611Q149 813 211 987T377 1286T607 1469Q667 1492 683 1469Q692 1457 686 1442T656 1399Q570 1315 504 1194T401 925T364 611Q364 445 401 297T504 27T656 -178Q680 -205 686 -220T683 -248Q667 -271 607 -247Q481
-190 377 -65T211 234T149 611Z" />
<glyph unicode=")" horiz-adv-x="709" d="M559 610Q559 408 497 234T331 -65T101 -248Q41 -271 25 -248Q16 -236 22 -221T52 -178Q138 -94 204 27T307 296T344 610Q344 776 307 924T204 1194T52 1399Q28 1426 22 1441T25 1469Q41 1492 101 1468Q227 1411 331 1286T497
987T559 610Z" />
<glyph unicode="*" horiz-adv-x="1247" d="M647 1004H608Q608 1084 593 1146T557 1259T522 1352T506 1435Q506 1548 627 1548Q685 1548 716 1520T748 1435Q748 1395 733 1353T698 1260T662 1147T647 1004ZM633 1022L621 987Q545 1011 481 1016T362 1018T261 1013T177
1024Q70 1059 107 1172Q125 1226 162 1246T252 1251Q290 1238 326 1211T404 1149T502 1081T633 1022ZM611 1015L642 993Q596 929 571 869T533 757T507 661T470 586Q404 494 305 564Q259 597 250 638T273 725Q297 757 335 783T419 838T514 909T611 1015ZM611 993L642
1015Q689 950 739 909T835 838T920 783T981 725Q1047 634 949 564Q903 531 860 535T785 586Q761 617 748 660T721 756T683 868T611 993ZM621 1021Q697 1046 752 1080T849 1148T928 1210T1003 1251Q1110 1284 1148 1172Q1165 1118 1148 1080T1078 1024Q1040 1012
994 1013T894 1017T774 1016T633 986L621 1021Z" />
<glyph unicode="+" horiz-adv-x="1116" d="M126 682Q126 706 142 720T181 734H937Q958 734 974 720T990 682Q990 657 974 643T937 629H180Q159 629 143 643T126 682ZM554 271Q530 271 516 287T502 326V1082Q502 1103 516 1119T554 1135Q579 1135 593 1119T607
1082V325Q607 304 593 288T554 271Z" />
<glyph unicode="," horiz-adv-x="534" d="M256 -5Q182 -5 146 36T109 139Q109 208 155 253T271 299Q347 299 398 241T450 55Q450 -31 427 -97T362 -211T269 -287T161 -328Q131 -334 115 -328T95 -306Q92 -289 103 -276T150 -251Q213 -229 254 -197T316 -127T336
-46Q336 -26 327 -16T291 -5H256Z" />
<glyph unicode="-" horiz-adv-x="826" d="M681 645Q744 645 721 584L697 520Q687 491 672 481T631 471H145Q81 471 105 532L128 596Q139 625 153 635T194 645H681Z" />
<glyph unicode="." horiz-adv-x="513" d="M256 -20Q211 -20 174 3T116 64T94 146Q94 192 115 229T174 289T256 311Q302 311 339 289T397 230T419 146Q419 102 398 64T339 3T256 -20Z" />
<glyph unicode="/" horiz-adv-x="988" d="M543 591Q520 541 491 473T430 326T365 166T300 4T238 -144T184 -266Q169 -298 140 -307T74 -300Q38 -283 26 -255T29 -194Q54 -142 87 -75T159 69T240 223T320 376T392 518T449 634Q473 685 502 753T563 900T628 1061T693
1222T755 1371T809 1493Q825 1524 854 1533T919 1526Q955 1510 967 1481T964 1421Q940 1369 907 1301T833 1157T752 1003T672 849T600 708T543 591Z" />
<glyph unicode="0" horiz-adv-x="1324" d="M668 1429Q851 1429 979 1342T1176 1092T1244 696Q1244 472 1172 309T967 58T656 -30Q473 -30 344 57T148 308T80 703Q80 928 152 1090T357 1341T668 1429ZM966 660Q966 904 931 1056T826 1279T658 1350Q564 1350 497
1283T393 1080T357 740Q357 495 393 343T498 121T666 50Q760 50 827 116T930 319T966 660Z" />
<glyph unicode="1" horiz-adv-x="917" d="M161 1234H285Q318 1234 332 1219T346 1162V179Q346 146 330 128T281 105L142 87Q94 77 94 42Q94 23 108 12T151 0H797Q824 0 836 11T849 42Q849 77 806 86L681 105Q648 111 634 128T619 179V1382Q619 1436 568 1436Q551
1436 537 1430T506 1409Q458 1366 413 1349T301 1331H163Q134 1331 118 1318T101 1283Q101 1260 115 1247T161 1234Z" />
<glyph unicode="2" horiz-adv-x="1212" d="M236 245L187 286L452 485Q575 574 652 658T764 832T799 1031Q799 1144 773 1216T699 1324T586 1359Q482 1359 434 1299T385 1148V1045Q385 982 350 946T252 910Q193 910 158 949T122 1060Q122 1157 177 1241T341 1377T612
1429Q771 1429 875 1379T1030 1240T1082 1041Q1082 944 1037 859T886 683T603 481L236 245ZM92 115Q92 213 166 276T379 339Q447 339 511 321T638 279T763 237T891 219Q963 219 1003 249T1072 348Q1082 366 1094 373T1121 378Q1138 377 1147 363T1153 318Q1139
191 1101 115T1003 5T860 -30Q794 -30 741 -11T644 49T556 158Q515 208 488 226T430 244Q395 244 376 216T351 120Q347 65 329 33T282 -15T210 -30Q161 -30 127 9T92 115Z" />
<glyph unicode="3" horiz-adv-x="1104" d="M486 735L463 763Q478 766 495 768T532 771T573 772Q720 772 825 728T986 601T1043 399Q1043 270 981 174T805 24T536 -30Q388 -30 287 11T133 122T81 279Q81 349 120 390T221 432Q281 432 312 398T343 304V213Q343 137
394 90T540 43Q612 43 666 77T752 181T783 356Q783 523 713 601T497 680H431Q403 680 390 691T376 724Q376 740 384 754T416 792L874 1267L882 1190H325Q290 1190 272 1178T246 1137L219 1028Q215 1009 202 998T166 986Q143 987 129 1000T118 1041L150 1334Q152
1365 174 1382T236 1400H986Q1022 1400 1038 1391T1054 1361Q1054 1346 1043 1328T996 1273L486 735Z" />
<glyph unicode="4" horiz-adv-x="1223" d="M655 717Q655 738 661 753T682 783L836 928Q853 944 864 949T886 954Q900 954 908 946T917 918L918 169Q918 140 933 125T977 104L1060 86Q1083 80 1095 70T1107 42Q1107 23 1094 12T1052 0H513Q457 0 457 42Q457 74
504 86L597 104Q625 110 640 124T655 168V717ZM509 971Q546 1008 562 1035T578 1097Q578 1124 569 1147T548 1192T526 1239T517 1297Q517 1340 537 1374T596 1427T694 1446Q768 1446 813 1405T858 1291Q858 1257 847 1220T802 1137T704 1025L131 404L116 446H1082Q1107
446 1121 437T1136 404Q1136 360 1081 360H98Q69 360 53 374T36 410Q36 424 45 440T78 479L509 971Z" />
<glyph unicode="5" horiz-adv-x="1152" d="M113 281Q113 348 152 390T252 433Q312 433 343 398T375 303V198Q375 129 425 84T574 39Q675 39 743 126T811 393Q811 575 740 664T553 753Q504 753 460 736T377 687T302 608Q283 590 267 582T232 573Q209 573 195 585T180
622V1354Q180 1388 199 1407T259 1427Q279 1427 301 1421T365 1393Q409 1373 461 1356T574 1329T705 1319Q810 1319 876 1346T980 1423Q1002 1442 1016 1446T1043 1446Q1054 1443 1060 1431T1062 1394Q1043 1292 991 1226T856 1128T659 1096Q578 1096 501 1111T353
1152T226 1213L279 1274V652L242 654Q291 716 348 758T473 822T624 844Q759 844 859 791T1015 644T1071 423Q1071 282 1007 181T828 25T558 -30Q416 -30 317 12T165 124T113 281Z" />
<glyph unicode="6" horiz-adv-x="1210" d="M694 1429Q822 1429 912 1388T1050 1281T1098 1136Q1098 1065 1061 1027T959 988Q895 988 860 1022T825 1122V1197Q825 1269 786 1310T665 1351Q602 1351 545 1314T443 1194T374 978T349 649Q350 422 387 291T489 103T636
47Q746 47 812 136T878 402Q878 570 806 657T615 745Q543 745 480 710T377 613T332 473L279 496Q282 593 340 672T496 798T712 846Q843 846 939 797T1087 656T1140 434Q1140 296 1078 192T902 29T635 -30Q460 -30 336 51T146 285T79 653Q79 909 155 1081T369 1341T694
1429Z" />
<glyph unicode="7" horiz-adv-x="1033" d="M835 1199L883 1169H266Q231 1169 215 1157T191 1115L161 995Q156 976 143 965T107 953Q82 953 70 967T59 1007L87 1335Q89 1365 108 1382T165 1400H968Q1002 1400 1020 1385T1039 1344Q1039 1328 1029 1309T991 1251L732
858Q670 773 629 708T565 593T532 501T522 422Q522 376 539 342T580 277T620 211T637 127Q637 61 594 16T467 -30Q380 -30 327 28T274 203Q274 285 299 368T383 549T540 775L835 1199Z" />
<glyph unicode="8" horiz-adv-x="1198" d="M579 -29Q418 -29 312 14T154 133T102 308Q102 386 146 454T280 573T508 643L520 618Q437 575 400 493T363 329Q363 190 429 114T614 38Q723 38 784 101T845 274Q845 342 817 399T718 502T523 586Q296 655 199 760T102
1005Q102 1122 163 1218T344 1371T635 1429Q789 1429 897 1380T1062 1245T1120 1052Q1120 958 1073 878T930 742T691 666L664 691Q723 727 768 780T838 901T864 1049Q864 1147 833 1216T743 1322T603 1359Q529 1359 474 1326T389 1235T359 1101Q359 1016 389 948T494
827T705 730Q921 663 1019 565T1117 346Q1117 235 1053 151T868 19T579 -29Z" />
<glyph unicode="9" horiz-adv-x="1218" d="M530 -29Q399 -29 307 12T165 119T116 264Q116 335 153 373T255 412Q319 412 354 377T389 277V203Q389 131 430 90T559 49Q643 49 713 117T827 340T870 755Q870 981 833 1111T731 1297T586 1352Q474 1352 407 1266T340
1006Q340 842 412 757T603 672Q677 672 739 706T842 801T887 936L940 921Q937 825 879 746T723 619T506 571Q376 571 280 618T132 756T79 973Q79 1109 142 1212T319 1372T586 1429Q761 1429 884 1349T1074 1117T1140 752Q1140 495 1065 321T852 59T530 -29Z" />
<glyph unicode=":" horiz-adv-x="522" d="M261 -20Q216 -20 179 3T121 64T99 146Q99 192 120 229T179 289T261 311Q307 311 344 289T402 230T424 146Q424 102 403 64T344 3T261 -20ZM261 589Q216 589 179 612T121 673T99 755Q99 801 120 838T179 898T261 920Q307
920 344 898T402 839T424 755Q424 711 403 673T344 612T261 589Z" />
<glyph unicode=";" horiz-adv-x="544" d="M272 588Q227 588 190 611T132 672T110 754Q110 800 131 837T190 897T272 919Q318 919 355 897T413 838T435 754Q435 710 414 672T355 611T272 588ZM258 -5Q184 -5 148 36T111 139Q111 208 157 253T273 299Q349 299 400
241T452 55Q452 -31 429 -97T364 -211T271 -287T163 -328Q133 -334 117 -328T97 -306Q94 -289 105 -276T152 -251Q215 -229 256 -197T318 -127T338 -46Q338 -26 329 -16T293 -5H258Z" />
<glyph unicode="&lt;" horiz-adv-x="1030" d="M233 693V675L864 1034Q892 1048 904 1064T917 1095Q917 1115 905 1127T867 1140Q846 1140 825 1132T772 1107L168 767Q136 752 120 731T103 684Q103 657 119 637T168 600L775 259Q806 244 828 235T871 226Q896 226
908 238T919 271Q919 286 907 303T868 333L233 693Z" />
<glyph unicode="=" horiz-adv-x="1116" d="M133 860Q133 884 149 898T188 912H944Q965 912 981 898T997 860Q997 835 981 821T944 807H187Q166 807 150 821T133 860ZM133 512Q133 536 149 550T188 564H944Q965 564 981 550T997 512Q997 487 981 473T944 459H187Q166
459 150 473T133 512Z" />
<glyph unicode="&gt;" horiz-adv-x="1030" d="M790 675V693L159 334Q131 320 119 304T106 273Q106 253 118 241T156 228Q177 228 198 236T251 261L855 601Q887 616 903 637T920 684Q920 711 904 731T855 768L248 1109Q217 1124 195 1133T152 1142Q127 1142 115
1130T104 1097Q104 1082 116 1065T155 1035L790 675Z" />
<glyph unicode="?" horiz-adv-x="1027" d="M398 666L413 489Q418 464 431 452T467 440Q489 440 501 451T521 490L534 655Q539 690 551 706T592 731L656 750Q820 798 891 887T962 1106Q962 1273 849 1365T521 1457Q393 1457 292 1411T132 1289T73 1123Q73 1055
109 1017T205 978Q272 978 309 1020T347 1138V1214Q347 1287 389 1332T513 1377Q593 1377 640 1316T687 1134Q687 1014 654 939T526 819L468 793Q421 772 406 743T398 666ZM464 -20Q420 -20 383 3T324 63T302 146Q302 192 324 229T383 289T464 311Q511 311 547
289T605 230T627 146Q627 101 606 64T548 3T464 -20Z" />
<glyph unicode="@" horiz-adv-x="1803" d="M1076 500Q1041 513 1005 521T924 530Q845 530 797 489T749 376Q749 305 788 266T889 227Q945 227 995 253T1080 329L1102 284Q1050 207 965 164T785 121Q660 121 585 179T509 337Q509 446 610 516T901 587Q963 587 1007
578T1094 551L1076 500ZM1360 220Q1411 220 1456 247T1535 327T1588 457T1607 634Q1607 845 1517 996T1272 1229T924 1311Q755 1311 619 1256T385 1099T237 859T185 554Q185 326 280 155T544 -111T932 -206Q1125 -206 1291 -139T1591 68Q1612 88 1628 92T1658 86Q1670
76 1667 58T1642 16Q1572 -71 1465 -138T1222 -245T930 -284Q750 -284 597 -226T330 -59T153 205T90 554Q90 732 149 884T319 1149T584 1326T930 1389Q1091 1389 1231 1339T1477 1192T1642 954T1701 635Q1701 481 1654 366T1519 185T1307 121Q1236 121 1183 139T1100
191T1066 274L1050 278V808Q1050 880 1015 921T914 962Q851 962 819 929T786 852V794Q786 742 749 714T660 685Q615 685 583 708T550 783Q550 852 596 908T730 997T944 1030Q1047 1030 1122 1001T1237 915T1278 774V308Q1278 265 1299 243T1360 220Z" />
<glyph unicode="A" horiz-adv-x="1448" d="M347 563H940L946 468H339L347 563ZM453 41Q453 23 440 12T397 0H86Q57 0 44 11T30 41Q30 54 38 63T68 83L103 96Q133 110 148 132T182 213L518 1228Q531 1268 525 1285T482 1313Q455 1322 444 1333T433 1360Q433 1379
447 1389T489 1400H940Q969 1400 982 1390T995 1360Q995 1343 985 1332T948 1314Q920 1307 915 1294T920 1249L1276 187Q1290 142 1308 120T1361 89Q1389 79 1399 69T1409 41Q1409 23 1395 12T1352 0H933Q905 0 891 11T877 41Q877 57 887 67T918 83L982 94Q1008
101 1008 118T995 174L627 1294L658 1311L301 226Q289 187 289 163T304 123T353 95L412 82Q433 75 443 66T453 41Z" />
<glyph unicode="B" horiz-adv-x="1387" d="M1336 338Q1336 188 1208 94T826 0H162Q134 0 121 11T108 41Q108 75 148 87L209 99Q234 105 246 119T259 155V1246Q259 1267 247 1281T209 1301L148 1313Q108 1325 108 1359Q108 1378 121 1389T162 1400H680Q863 1400
992 1350T1188 1209T1256 998Q1256 898 1201 819T1036 693T763 647L821 676Q978 676 1094 633T1273 513T1336 338ZM723 615H454V689H704Q797 689 862 723T961 825T995 985Q995 1085 954 1159T834 1275T638 1317H531V176Q531 129 560 106T649 83H769Q866 83 931
115T1029 207T1062 344Q1062 467 976 541T723 615Z" />
<glyph unicode="C" horiz-adv-x="1399" d="M1331 361Q1331 292 1293 222T1184 94T1010 -1T779 -37Q564 -37 409 56T169 314T84 691Q84 852 134 987T274 1223T487 1378T753 1434Q855 1434 918 1414T1018 1372T1075 1351Q1100 1351 1111 1369T1135 1404T1172 1422Q1188
1422 1199 1412T1217 1377L1323 1035Q1330 1013 1320 997T1287 976Q1266 973 1249 981T1223 1011Q1168 1131 1102 1202T957 1305T785 1337Q692 1337 614 1296T478 1177T389 992T357 750Q357 546 422 404T600 188T857 114Q997 114 1098 179T1254 363Q1265 384 1277
391T1304 396Q1318 394 1324 385T1331 361Z" />
<glyph unicode="D" horiz-adv-x="1580" d="M108 41Q108 75 148 87L210 99Q234 105 247 119T260 154V1246Q260 1267 247 1281T210 1301L148 1313Q108 1325 108 1359Q108 1379 121 1389T163 1400H671Q858 1400 1010 1346T1272 1192T1441 958T1500 659Q1500 468 1412
320T1159 86T762 0H163Q135 0 122 11T108 41ZM740 90Q886 90 993 155T1158 347T1217 665Q1217 813 1177 932T1062 1135T881 1265T641 1310H531V178Q531 132 557 111T638 90H740Z" />
<glyph unicode="E" horiz-adv-x="1306" d="M429 746H761Q823 746 848 770T884 863Q889 885 900 896T928 909Q963 912 973 870L1049 578Q1055 554 1049 540T1023 520Q1005 515 990 520T963 543Q937 590 915 614T864 647T793 656H429V746ZM108 1359Q108 1378 121
1389T163 1400H923Q957 1400 979 1410T1020 1431T1064 1441Q1091 1441 1105 1426T1129 1377L1207 1096Q1214 1073 1207 1058T1180 1036Q1157 1030 1139 1038T1109 1070Q1073 1147 1042 1194T979 1267T910 1300T823 1309H531V184Q531 137 558 114T643 91H852Q918
91 965 112T1057 197T1154 385Q1164 406 1179 413T1213 418Q1235 415 1245 399T1248 358L1165 29Q1155 -5 1140 -21T1096 -37Q1074 -37 1055 -28T1014 -9T959 0H163Q135 0 122 11T108 41Q108 75 148 87L210 99Q234 105 247 119T260 154V1246Q260 1267 247 1281T210
1301L148 1313Q108 1325 108 1359Z" />
<glyph unicode="F" horiz-adv-x="1209" d="M873 1400Q909 1400 932 1410T973 1429T1012 1439Q1040 1439 1054 1425T1078 1377L1157 1087Q1164 1065 1153 1051T1121 1033Q1102 1030 1086 1037T1059 1067Q1012 1170 972 1221T886 1291T779 1309H531V154Q531 133
543 118T581 99L676 87Q699 83 709 72T720 41Q720 23 707 12T665 0H163Q135 0 122 11T108 41Q108 75 148 87L210 99Q234 105 247 119T260 154V1246Q260 1267 247 1281T210 1301L148 1313Q108 1325 108 1359Q108 1378 121 1389T163 1400H873ZM419 712H753Q816 712
841 736T880 832Q885 853 895 862T922 873Q960 876 970 836L1043 542Q1049 519 1043 506T1018 487Q1000 482 985 488T955 513Q930 557 909 581T860 614T789 623H419V712Z" />
<glyph unicode="G" horiz-adv-x="1523" d="M1324 24Q1324 -8 1312 -22T1273 -37Q1249 -37 1232 -21T1201 15T1173 51T1142 67Q1121 67 1093 52T1023 16T921 -20T777 -36Q615 -36 487 17T269 168T132 400T84 697Q84 856 136 990T282 1224T502 1379T778 1434Q887
1434 955 1414T1063 1372T1123 1351Q1148 1351 1160 1369T1184 1404T1221 1422Q1237 1422 1248 1412T1266 1377L1371 1034Q1378 1012 1368 996T1336 976Q1315 972 1298 980T1271 1010Q1215 1132 1146 1203T992 1306T810 1337Q678 1337 576 1265T416 1060T357 749Q357
538 422 391T600 166T853 89Q906 89 947 98T1018 126T1063 170T1079 230V475Q1079 499 1067 511T1018 531L950 544Q927 549 915 560T902 587Q902 606 916 616T958 626H1409Q1438 626 1452 616T1466 588Q1466 572 1457 563T1425 546L1382 535Q1351 526 1338 514T1324
475V24Z" />
<glyph unicode="H" horiz-adv-x="1680" d="M373 710H1243V616H373V710ZM530 154Q530 133 543 119T580 99L641 87Q681 75 681 41Q681 22 668 11T627 0H162Q134 0 121 11T108 41Q108 75 147 87L209 99Q233 105 246 119T259 154V1246Q259 1267 246 1281T209 1301L147
1313Q108 1325 108 1359Q108 1378 121 1389T162 1400H627Q655 1400 668 1389T681 1359Q681 1325 641 1313L580 1301Q556 1295 543 1281T530 1246V154ZM1421 154Q1421 133 1434 119T1471 99L1532 87Q1572 75 1572 41Q1572 22 1559 11T1518 0H1053Q1025 0 1012 11T999
41Q999 75 1038 87L1100 99Q1124 105 1137 119T1150 154V1246Q1150 1267 1137 1281T1100 1301L1038 1313Q999 1325 999 1359Q999 1378 1012 1389T1053 1400H1518Q1546 1400 1559 1389T1572 1359Q1572 1325 1532 1313L1471 1301Q1447 1295 1434 1281T1421 1246V154Z"
/>
<glyph unicode="I" horiz-adv-x="788" d="M530 154Q530 133 543 119T579 99L641 87Q681 75 681 41Q681 22 668 11T627 0H162Q134 0 121 11T107 41Q107 75 147 87L209 99Q233 105 246 119T259 154V1246Q259 1267 246 1281T209 1301L147 1313Q107 1325 107 1359Q107
1378 120 1389T162 1400H627Q655 1400 668 1389T681 1359Q681 1325 641 1313L579 1301Q556 1295 543 1281T530 1246V154Z" />
<glyph unicode="J" horiz-adv-x="982" d="M823 232Q823 114 716 42T432 -31Q264 -31 173 36T81 214Q81 280 117 321T216 363Q268 363 300 327T333 226V159Q333 108 359 79T447 50Q511 50 554 83T597 180Q597 229 576 270T527 356T478 460T457 602V1245Q457 1268
445 1282T407 1301L335 1313Q312 1317 302 1328T291 1359Q291 1378 304 1389T345 1400H825Q853 1400 866 1389T879 1359Q879 1325 839 1313L777 1301Q754 1295 741 1281T728 1246V620Q728 550 742 500T775 409T808 327T823 232Z" />
<glyph unicode="K" horiz-adv-x="1552" d="M430 538L1076 1176Q1109 1208 1119 1233T1118 1275T1078 1303L1021 1315Q999 1322 990 1332T981 1359Q981 1378 995 1389T1036 1400H1415Q1444 1400 1457 1389T1471 1359Q1471 1342 1460 1333T1412 1312Q1395 1307 1379
1300T1342 1278T1289 1234T1206 1159L472 450L430 538ZM693 751L903 923L1385 164Q1407 130 1430 114T1486 92Q1520 82 1531 70T1542 41Q1542 22 1528 11T1485 0H1022Q993 0 980 11T966 42Q966 58 975 69T1003 85L1062 96Q1084 101 1085 117T1067 164L693 751ZM531
154Q531 133 542 120T576 99L632 87Q655 78 663 68T672 41Q672 23 659 12T618 0H163Q135 0 122 11T108 41Q108 75 148 87L210 99Q234 105 247 119T260 154V1246Q260 1267 247 1281T210 1301L148 1313Q108 1325 108 1359Q108 1378 121 1389T163 1400H628Q656 1400
669 1389T682 1359Q682 1325 642 1313L580 1301Q557 1295 544 1281T531 1246V154Z" />
<glyph unicode="L" horiz-adv-x="1246" d="M641 1313L579 1301Q556 1295 543 1281T530 1246V161Q530 123 552 107T622 91H810Q868 91 908 106T979 159T1042 269L1101 405Q1111 427 1126 435T1163 439Q1185 434 1193 419T1195 378L1108 28Q1098 -6 1083 -22T1040
-38Q1020 -38 1001 -29T959 -10T902 0H162Q134 0 121 11T107 41Q107 75 147 87L209 99Q233 105 246 119T259 154V1246Q259 1267 246 1281T209 1301L147 1313Q107 1325 107 1359Q107 1378 120 1389T162 1400H627Q655 1400 668 1389T681 1359Q681 1325 641 1313Z"
/>
<glyph unicode="M" horiz-adv-x="1825" d="M965 354L874 319L1269 1319Q1286 1364 1310 1382T1375 1400H1638Q1667 1400 1681 1389T1695 1359Q1695 1343 1686 1332T1654 1314L1599 1300Q1564 1291 1552 1273T1543 1213L1621 169Q1623 136 1636 122T1680 100L1733
86Q1754 80 1763 70T1772 43Q1772 24 1758 12T1716 0H1254Q1226 0 1212 11T1198 41Q1198 57 1207 68T1239 86L1293 100Q1329 109 1342 124T1353 169L1268 1234L1352 1240L919 135Q903 93 886 81T847 68Q830 68 817 73T791 93T767 139L328 1212L409 1247L319 197Q316
155 336 135T396 99L450 82Q466 75 475 67T484 43Q484 23 470 12T428 0H105Q77 0 63 11T49 41Q49 60 61 70T94 87L138 102Q173 113 192 134T216 198L303 1202Q306 1246 292 1268T243 1300L191 1312Q169 1318 159 1329T148 1358Q148 1400 205 1400H465Q504 1400
528 1385T569 1323L965 354Z" />
<glyph unicode="N" horiz-adv-x="1551" d="M540 41Q540 23 527 12T485 0H147Q119 0 105 11T91 41Q91 72 132 87L185 102Q231 118 247 137T264 201V1100Q264 1131 256 1151T218 1207L132 1313Q117 1333 112 1343T106 1365Q106 1382 118 1391T151 1400H352Q379 1400
397 1391T436 1354L1245 295L1201 193V1199Q1201 1242 1186 1262T1122 1298L1069 1313Q1028 1330 1028 1359Q1028 1378 1042 1389T1083 1400H1421Q1449 1400 1463 1389T1477 1359Q1477 1329 1436 1313L1383 1298Q1337 1283 1321 1264T1304 1199V266Q1304 236 1310
215T1330 175L1391 95Q1408 73 1412 62T1417 38Q1417 21 1405 11T1369 0H1134Q1091 0 1091 35Q1091 51 1085 64T1051 115L284 1123L367 1184V201Q367 158 382 139T446 102L499 87Q540 71 540 41Z" />
<glyph unicode="O" horiz-adv-x="1591" d="M791 1434Q953 1434 1084 1380T1310 1226T1454 991T1505 691Q1505 533 1455 400T1311 169T1086 17T795 -37Q636 -37 505 17T280 171T136 407T85 707Q85 865 135 997T278 1228T502 1380T791 1434ZM1227 537Q1227 669 1202
789T1130 1009T1022 1183T887 1297T732 1338Q622 1338 540 1281T412 1118T366 861Q366 728 391 608T462 387T569 213T704 99T859 58Q970 58 1052 115T1181 279T1227 537Z" />
<glyph unicode="P" horiz-adv-x="1362" d="M1304 894Q1304 765 1239 671T1054 524T773 471Q665 471 575 494T418 558L431 638Q467 614 511 598T604 573T705 564Q801 564 876 603T993 718T1036 901Q1036 1025 985 1117T842 1259T623 1310H531V154Q531 133 543 118T580
99L675 87Q698 83 708 72T718 41Q718 22 705 11T664 0H163Q135 0 122 11T108 41Q108 75 148 87L210 99Q234 105 247 119T260 154V1246Q260 1267 247 1281T210 1301L148 1313Q108 1325 108 1359Q108 1378 121 1389T163 1400H630Q843 1400 993 1335T1224 1156T1304
894Z" />
<glyph unicode="Q" horiz-adv-x="1592" d="M790 1434Q952 1434 1083 1380T1308 1226T1454 991T1505 691Q1505 533 1455 400T1310 169T1086 17T794 -37Q635 -37 504 17T280 171T135 407T84 707Q84 865 134 997T278 1228T501 1380T790 1434ZM1227 537Q1227 669 1202
789T1130 1009T1022 1183T887 1297T732 1338Q622 1338 540 1281T412 1118T366 861Q366 728 391 608T462 388T569 213T704 98T859 57Q970 57 1052 114T1181 279T1227 537ZM828 348Q821 375 828 393T858 417Q881 423 895 410T916 372Q958 238 1005 149T1106 8T1226
-67T1369 -90Q1414 -90 1437 -83T1477 -65T1512 -48Q1526 -44 1534 -51T1542 -73Q1542 -82 1538 -94T1526 -123L1482 -211Q1468 -241 1445 -253T1378 -265Q1289 -265 1209 -232T1059 -125T930 65T828 348Z" />
<glyph unicode="R" horiz-adv-x="1465" d="M1321 921Q1321 825 1278 747T1156 616T969 543Q932 536 900 529T835 517T762 512Q699 512 642 520T536 545T453 585L460 667Q489 646 529 632T618 610T717 602Q869 602 954 683T1040 919Q1040 1034 990 1123T847 1264T630
1316H530V155Q530 133 541 119T575 99L653 87Q676 79 684 69T693 41Q693 0 639 0H162Q134 0 121 11T107 41Q107 75 147 87L209 99Q233 105 246 119T259 155V1246Q259 1267 246 1281T209 1301L147 1313Q107 1325 107 1359Q107 1378 120 1389T162 1400H639Q858 1400
1010 1339T1241 1169T1321 921ZM771 549L1038 580L1306 158Q1325 129 1345 113T1402 87Q1435 79 1446 69T1457 41Q1457 23 1443 12T1400 0H992Q938 0 938 41Q938 53 945 61T967 75L1001 83Q1023 91 1026 105T1014 144L771 549Z" />
<glyph unicode="S" horiz-adv-x="1198" d="M655 -31Q570 -31 509 -11T410 30T354 51Q336 51 325 39T303 9T282 -20T252 -33Q233 -33 221 -22T204 16L133 338Q129 358 137 372T166 394Q188 401 204 393T232 361Q287 251 352 185T491 90T639 61Q746 61 807 118T869
269Q869 328 842 377T738 473T513 569Q363 619 272 683T140 832T99 1027Q99 1146 155 1236T313 1376T550 1426Q642 1426 701 1407T798 1367T859 1347Q881 1347 891 1367T912 1407T950 1428Q970 1428 982 1416T1005 1370L1101 1043Q1108 1020 1100 1001T1071 976Q1049
969 1033 977T1005 1007Q945 1129 875 1201T729 1303T575 1334Q466 1334 402 1272T338 1109Q338 1049 365 998T468 897T684 796Q839 740 930 676T1060 533T1099 353Q1099 247 1047 160T896 21T655 -31Z" />
<glyph unicode="T" horiz-adv-x="1373" d="M331 1400H1041Q1077 1400 1098 1410T1137 1429T1175 1439Q1204 1439 1219 1425T1244 1376L1312 1057Q1317 1031 1308 1015T1277 994Q1257 990 1241 998T1214 1029Q1165 1146 1129 1205T1055 1285T962 1306H822V154Q822
133 835 119T872 99L933 87Q973 75 973 41Q973 0 919 0H454Q426 0 413 11T400 41Q400 75 439 87L501 99Q525 105 538 119T551 154V1306H411Q356 1306 319 1285T245 1205T158 1029Q148 1006 132 998T95 994Q74 998 65 1014T61 1057L129 1376Q137 1410 153 1424T198
1439Q219 1439 236 1430T274 1410T331 1400Z" />
<glyph unicode="U" horiz-adv-x="1494" d="M1181 594L1145 1209Q1143 1249 1125 1271T1066 1302L1014 1312Q985 1319 975 1330T964 1359Q964 1378 977 1389T1016 1400H1375Q1401 1400 1414 1389T1428 1359Q1428 1341 1417 1330T1377 1312L1329 1303Q1281 1292
1264 1267T1250 1203L1286 594Q1290 543 1292 495T1296 394Q1300 270 1242 173T1067 21T771 -35Q583 -35 458 17T269 165T209 391Q209 416 211 454T216 541T222 643L255 1239Q257 1267 242 1281T191 1302L138 1312Q87 1323 87 1358Q87 1378 100 1389T140 1400H640Q666
1400 679 1389T693 1358Q693 1341 682 1330T642 1313L588 1302Q557 1297 544 1283T528 1240L494 645Q490 574 489 516T486 411Q482 238 574 154T829 70Q943 70 1024 109T1149 220T1189 394Q1188 463 1186 509T1181 594Z" />
<glyph unicode="V" horiz-adv-x="1419" d="M968 1359Q968 1378 981 1389T1023 1400H1341Q1371 1400 1384 1390T1398 1360Q1398 1346 1389 1337T1356 1318L1317 1304Q1287 1292 1268 1267T1229 1184L885 183Q875 151 870 131T865 90V46Q865 24 853 12T819 0H603Q582
0 570 12T557 47V91Q557 107 553 125T540 167L163 1240Q153 1269 141 1282T108 1303L67 1316Q30 1330 30 1359Q30 1378 44 1389T86 1400H540Q569 1400 582 1389T596 1359Q596 1343 586 1334T554 1317L481 1304Q456 1296 450 1279T458 1221L830 150L744 88L1123
1192Q1139 1239 1129 1264T1074 1305L1008 1318Q989 1325 979 1334T968 1359Z" />
<glyph unicode="W" horiz-adv-x="2091" d="M1016 1127L1113 1099L814 168Q806 147 802 128T798 84V47Q798 24 786 12T754 0H552Q531 0 519 12T506 47V84Q506 101 503 114T491 156L155 1244Q147 1272 135 1284T101 1304L56 1317Q36 1324 28 1335T20 1360Q20 1379
33 1389T75 1400H516Q544 1400 557 1389T571 1359Q571 1329 534 1320L464 1308Q439 1303 435 1285T442 1228L771 150L679 82L1016 1127ZM1662 1359Q1662 1378 1675 1389T1717 1400H2022Q2051 1400 2064 1389T2077 1359Q2077 1345 2069 1336T2037 1318L1998 1304Q1968
1292 1948 1267T1913 1187L1612 168Q1604 139 1600 122T1596 84V47Q1596 24 1584 12T1552 0H1341Q1320 0 1308 12T1295 47V84Q1295 100 1294 115T1284 158L962 1244Q952 1279 943 1290T915 1307L871 1320Q851 1327 843 1336T834 1359Q834 1378 848 1389T890 1400H1319Q1347
1400 1360 1389T1374 1359Q1374 1344 1365 1334T1334 1318L1267 1307Q1243 1301 1238 1286T1245 1227L1561 151L1482 90L1809 1197Q1822 1244 1813 1269T1757 1308L1698 1320Q1678 1326 1670 1335T1662 1359Z" />
<glyph unicode="X" horiz-adv-x="1455" d="M1255 185Q1279 151 1297 133T1336 105T1391 87Q1412 79 1424 69T1436 41Q1436 22 1423 11T1381 0H876Q849 0 835 11T821 40Q821 58 834 69T884 90Q922 98 938 111T952 145T930 193L210 1223Q190 1253 174 1270T140 1297T93
1313Q63 1323 54 1333T44 1359Q44 1378 58 1389T100 1400H591Q620 1400 632 1389T645 1359Q645 1342 637 1332T610 1316L560 1307Q518 1299 511 1281T527 1228L1255 185ZM808 697L710 735L1050 1190Q1085 1239 1080 1265T1027 1303L976 1314Q959 1320 949 1331T938
1359Q938 1378 951 1389T992 1400H1324Q1380 1400 1380 1359Q1380 1343 1367 1331T1321 1308Q1277 1294 1245 1263T1161 1165L808 697ZM634 727L731 684L368 205Q331 155 337 130T389 92L436 83Q455 76 464 67T474 41Q474 23 461 12T420 0H87Q60 0 46 11T32 42Q32
56 42 67T84 89Q123 103 151 122T206 169T261 236L634 727Z" />
<glyph unicode="Y" horiz-adv-x="1372" d="M814 451L603 410L170 1243Q154 1274 141 1286T105 1306L73 1315Q51 1323 42 1334T33 1359Q33 1378 47 1389T89 1400H546Q575 1400 590 1390T606 1359Q606 1325 558 1313L504 1304Q467 1296 459 1280T466 1230L808 534L716
484L1073 1189Q1095 1233 1085 1262T1026 1305L968 1316Q951 1321 942 1331T932 1359Q932 1378 946 1389T988 1400H1293Q1322 1400 1335 1389T1349 1359Q1349 1344 1341 1334T1310 1316L1295 1310Q1274 1303 1258 1290T1224 1252T1184 1181L814 451ZM565 510H837V154Q837
133 850 119T886 99L948 87Q988 75 988 41Q988 22 975 11T934 0H469Q441 0 428 11T414 41Q414 75 454 87L516 99Q540 105 552 119T565 154V510Z" />
<glyph unicode="Z" horiz-adv-x="1280" d="M1151 1285L347 37L212 91H804Q856 91 895 99T966 132T1025 200T1080 315L1111 395Q1120 417 1135 424T1171 428Q1194 424 1202 408T1205 368L1131 30Q1124 -2 1109 -18T1064 -35Q1044 -35 1027 -27T989 -9T934 0H118Q90
0 77 12T63 45Q63 59 69 75T88 112L897 1366L928 1309H472Q420 1309 380 1294T309 1241T250 1137L222 1064Q210 1040 193 1032T157 1027Q136 1030 126 1046T120 1091L178 1375Q186 1411 202 1427T247 1443Q268 1443 285 1433T324 1411T378 1400H1122Q1150 1400
1164 1388T1178 1354Q1178 1341 1172 1324T1151 1285Z" />
<glyph unicode="[" horiz-adv-x="673" d="M366 1341V-118Q366 -145 380 -157T425 -170H610Q661 -170 661 -214Q661 -232 649 -243T610 -255H236Q198 -255 182 -237T165 -182V1406Q165 1443 181 1461T236 1479H610Q636 1479 648 1468T661 1437Q661 1393 610 1393H425Q395
1393 381 1381T366 1341Z" />
<glyph unicode="\" horiz-adv-x="988" d="M445 591Q468 541 497 473T558 326T623 166T688 4T750 -144T804 -266Q819 -298 848 -307T914 -300Q950 -283 962 -255T959 -194Q934 -142 901 -75T829 69T748 223T668 376T596 518T539 634Q515 685 486 753T425 900T360
1061T295 1222T233 1371T179 1493Q163 1524 134 1533T69 1526Q33 1510 21 1481T24 1421Q48 1369 81 1301T155 1157T236 1003T316 849T388 708T445 591Z" />
<glyph unicode="]" horiz-adv-x="683" d="M317 -117V1342Q317 1369 303 1381T258 1394H73Q22 1394 22 1438Q22 1456 34 1467T73 1479H447Q485 1479 501 1461T518 1406V-182Q518 -219 502 -237T447 -255H73Q47 -255 35 -244T22 -213Q22 -169 73 -169H258Q288 -169
302 -157T317 -117Z" />
<glyph unicode="^" horiz-adv-x="959" d="M524 1323H439L738 797Q762 764 785 758T830 761Q848 771 851 792T839 840L586 1345Q557 1395 534 1410T481 1426Q452 1426 429 1411T377 1345L120 842Q105 814 107 793T129 762Q150 752 173 758T221 798L524 1323Z" />
<glyph unicode="_" horiz-adv-x="966" d="M-1 -243Q-1 -215 10 -200T47 -184H920Q945 -184 956 -199T967 -243Q967 -270 956 -286T920 -302H47Q22 -302 11 -286T-1 -243Z" />
<glyph unicode="`" horiz-adv-x="479" d="M294 1287L394 1095Q402 1082 404 1070T396 1049Q387 1040 373 1040T345 1047L168 1175Q120 1204 93 1234T60 1304Q55 1339 77 1371T146 1408Q197 1415 231 1381T294 1287Z" />
<glyph unicode="a" horiz-adv-x="1102" d="M691 125V145L675 150V734Q675 813 636 855T524 898Q456 898 421 870T386 801V717Q386 663 351 634T251 605Q195 605 166 632T137 706Q137 769 187 828T333 925T569 964Q746 964 832 890T919 692V161Q919 131 931 117T964
102Q988 102 998 113T1017 135Q1023 141 1028 145T1042 150Q1053 150 1058 142T1064 120Q1064 89 1043 56T979 -1T873 -24Q789 -24 740 15T691 125ZM94 209Q94 330 202 406T505 483Q572 483 626 471T722 440L703 381Q665 397 626 407T539 418Q449 418 398 373T346
249Q346 172 389 131T499 89Q559 89 614 116T709 194L731 142Q673 63 581 20T384 -24Q255 -24 175 39T94 209Z" />
<glyph unicode="b" horiz-adv-x="1201" d="M402 1423V116L300 8Q258 -10 239 -16T202 -23Q181 -23 169 -11T156 25V1268Q156 1292 149 1302T123 1316L63 1319Q45 1323 38 1331T30 1352Q30 1366 39 1375T73 1394L249 1457Q285 1470 306 1475T343 1481Q372 1481
387 1466T402 1423ZM349 657L310 712Q389 832 491 898T716 965Q834 965 926 905T1072 738T1126 494Q1126 335 1063 219T893 40T654 -24Q535 -24 443 33T291 197L350 251Q400 165 467 122T610 78Q684 78 742 120T835 248T869 467Q869 592 836 674T747 798T617 839Q541
839 473 794T349 657Z" />
<glyph unicode="c" horiz-adv-x="1031" d="M962 697Q962 645 927 610T832 575Q775 575 745 607T714 691V722Q714 792 669 834T545 877Q475 877 420 836T334 720T302 542Q302 414 345 326T465 192T639 146Q729 146 796 185T896 292Q911 311 920 317T941 324Q956
324 962 311T968 281Q962 197 909 128T766 17T561 -24Q419 -24 310 35T139 201T77 452Q77 597 139 713T313 897T578 965Q697 965 783 928T915 830T962 697Z" />
<glyph unicode="d" horiz-adv-x="1227" d="M808 165L800 171V1268Q800 1292 793 1302T768 1316L708 1319Q690 1323 683 1331T675 1352Q675 1366 684 1375T717 1394L894 1457Q928 1470 949 1475T989 1481Q1018 1481 1032 1466T1046 1423V149Q1046 120 1055 106T1084
86L1125 76Q1144 70 1153 61T1162 37Q1162 20 1150 10T1111 0H918Q869 0 839 29T808 110V165ZM76 447Q76 606 139 722T309 901T549 965Q668 965 760 908T911 744L852 690Q802 776 736 819T592 863Q518 863 460 821T367 693T333 474Q333 350 366 268T455 144T585
102Q662 102 729 147T853 284L892 230Q814 110 712 43T487 -24Q368 -24 276 36T130 203T76 447Z" />
<glyph unicode="e" horiz-adv-x="1054" d="M979 588Q979 538 950 512T867 485H235V556H680Q730 556 730 600Q730 733 677 805T535 877Q466 877 413 837T331 721T301 542Q301 345 394 246T639 146Q733 146 802 186T906 295Q921 313 930 319T951 326Q965 326 972
313T978 282Q973 199 919 129T772 18T561 -24Q418 -24 309 35T138 201T76 452Q76 601 135 716T305 898T568 965Q696 965 788 917T929 784T979 588Z" />
<glyph unicode="f" horiz-adv-x="761" d="M486 149Q486 122 497 107T534 88L636 77Q658 75 668 64T678 38Q678 0 629 0H149Q127 0 115 10T102 36Q102 52 112 62T143 77L189 87Q216 94 228 108T240 148V765Q240 786 231 799T193 821L140 837Q108 849 97 860T85
885Q85 900 96 909T131 918H296L241 884V917Q241 947 226 975T190 1033T154 1102T138 1192Q138 1310 223 1383T457 1456Q552 1456 618 1426T719 1344T754 1233Q754 1175 724 1144T644 1113Q591 1113 560 1146T528 1234V1288Q528 1338 502 1363T427 1389Q369 1388
339 1353T308 1251Q308 1206 324 1170T364 1104T413 1045T453 986T469 922V878L439 918H674Q696 918 708 910T720 885Q720 861 697 846T621 830H486V149Z" />
<glyph unicode="g" horiz-adv-x="1135" d="M698 78Q558 99 496 116T417 148T400 180Q400 198 414 213T462 244L438 259Q348 248 297 222T224 161T203 87Q203 42 230 9T335 -50T562 -100Q684 -119 751 -141T845 -191T872 -255Q872 -302 842 -336T747 -388T579 -406Q399
-406 325 -352T251 -211Q251 -158 298 -115T439 -59L421 -30Q219 -54 140 -118T61 -262Q61 -328 107 -379T258 -460T539 -490Q806 -490 947 -405T1089 -188Q1089 -116 1052 -64T930 22T698 78ZM733 861L792 851Q830 922 854 946T909 970Q936 970 951 957T979 925T1009
893T1055 879Q1097 879 1121 909T1146 989Q1146 1047 1109 1080T1010 1113Q939 1113 876 1067T766 926L733 861ZM1007 604Q1007 706 953 787T799 915T563 962Q424 962 319 914T154 778T95 575Q95 474 149 393T304 264T539 217Q679 217 784 265T948 401T1007 604ZM519
884Q613 889 673 812T747 592Q760 454 717 379T583 298Q520 295 472 329T393 430T354 591Q346 683 362 747T418 846T519 884Z" />
<glyph unicode="h" horiz-adv-x="1255" d="M447 1423V149Q447 120 456 106T484 86L525 76Q556 64 556 39Q556 0 505 0H134Q108 0 96 10T84 37Q84 51 92 60T120 76L163 86Q182 92 191 105T201 148V1268Q201 1292 193 1302T168 1316L108 1319Q90 1323 83 1331T75
1352Q75 1366 84 1375T118 1394L294 1457Q328 1470 349 1475T389 1481Q418 1481 432 1466T447 1423ZM417 684L375 727L416 763Q538 872 625 918T793 965Q915 965 982 884T1064 667L1122 152Q1126 121 1134 107T1163 86L1202 76Q1220 70 1228 61T1237 37Q1237 20
1226 10T1188 0H813Q762 0 762 39Q762 64 793 76L835 86Q856 92 866 107T874 152L819 630Q808 723 771 770T662 817Q617 817 567 793T459 719L417 684Z" />
<glyph unicode="i" horiz-adv-x="618" d="M447 901V149Q447 120 456 106T484 86L526 76Q544 70 553 61T562 37Q562 20 550 10T512 0H134Q108 0 96 10T84 37Q84 51 92 60T120 76L163 86Q182 92 191 105T201 148V746Q201 770 193 780T168 794L108 797Q90 800 83
808T75 829Q75 844 84 853T118 871L294 935Q330 948 351 953T388 959Q417 959 432 943T447 901ZM302 1128Q229 1128 185 1166T141 1267Q141 1329 185 1366T302 1404Q375 1404 419 1366T464 1267Q464 1205 420 1167T302 1128Z" />
<glyph unicode="j" horiz-adv-x="618" d="M447 164Q447 111 462 63T496 -31T530 -124T545 -218Q545 -330 464 -398T245 -466Q146 -466 79 -436T-22 -357T-57 -250Q-57 -187 -25 -155T61 -122Q113 -122 143 -157T174 -250V-301Q174 -348 199 -373T272 -398Q325
-398 353 -369T381 -285Q381 -243 363 -204T318 -127T264 -49T219 32T201 116V746Q201 770 193 780T168 794L108 797Q90 800 83 808T75 829Q75 844 84 853T118 871L294 935Q330 948 351 953T389 959Q418 959 432 943T447 901V164ZM295 1128Q223 1128 179 1166T134
1267Q134 1329 178 1366T295 1404Q368 1404 412 1366T457 1267Q457 1205 413 1167T295 1128Z" />
<glyph unicode="k" horiz-adv-x="1210" d="M129 0Q104 0 94 10T84 37Q84 51 92 60T120 76L163 86Q182 92 191 105T201 148V1268Q201 1292 193 1302T168 1316L108 1319Q90 1323 83 1331T75 1352Q75 1366 84 1375T118 1394L294 1457Q328 1470 349 1475T389 1481Q418
1481 432 1466T447 1423V149Q447 120 456 106T484 86L525 76Q556 64 556 39Q556 0 505 0H129ZM371 434L790 776Q825 804 822 827T779 861L741 869Q722 875 715 883T708 906Q708 924 721 933T757 943H1096Q1119 943 1132 934T1145 907Q1145 890 1134 879T1088 860Q1038
850 1001 830T904 762L397 355L371 434ZM702 659L1056 152Q1082 117 1101 104T1156 80Q1177 71 1187 60T1197 35Q1197 19 1184 10T1149 0H757Q736 0 724 10T712 37Q712 49 719 57T742 71L778 80Q808 87 810 103T784 161L535 516L702 659Z" />
<glyph unicode="l" horiz-adv-x="623" d="M447 1423V149Q447 120 456 106T484 86L526 76Q545 70 553 61T562 37Q562 20 550 10T512 0H134Q108 0 96 10T84 37Q84 51 93 60T120 76L163 86Q182 92 191 105T201 148V1268Q201 1292 194 1302T168 1316L108 1319Q90 1323
83 1331T75 1352Q75 1366 84 1375T118 1394L294 1457Q330 1470 351 1475T388 1481Q417 1481 432 1466T447 1423Z" />
<glyph unicode="m" horiz-adv-x="1888" d="M447 901V149Q447 120 456 106T484 86L525 76Q556 64 556 39Q556 0 505 0H134Q108 0 96 10T84 37Q84 51 92 60T119 76L163 86Q182 92 191 105T201 148V746Q201 770 193 780T168 794L108 797Q90 800 83 808T75 829Q75
844 84 853T118 871L294 935Q328 947 349 953T389 959Q418 959 432 943T447 901ZM417 684L375 727L416 763Q539 875 630 920T803 965Q931 965 1008 885T1085 666V152Q1085 121 1095 107T1125 86L1163 75Q1193 64 1193 39Q1193 0 1143 0H777Q727 0 727 39Q727 64
757 76L800 86Q820 92 829 107T839 152V630Q839 724 794 770T672 817Q624 817 571 794T459 719L417 684ZM1055 684L1013 727L1054 763Q1174 872 1260 918T1426 965Q1548 965 1615 884T1697 666L1755 152Q1759 121 1767 107T1796 86L1835 76Q1853 70 1861 61T1870
37Q1870 20 1858 10T1821 0H1446Q1395 0 1395 39Q1395 64 1426 76L1468 86Q1488 92 1499 107T1507 152L1451 630Q1440 723 1403 770T1294 817Q1251 817 1202 793T1096 720L1055 684Z" />
<glyph unicode="n" horiz-adv-x="1255" d="M447 901V149Q447 120 456 106T484 86L525 76Q556 64 556 39Q556 0 505 0H134Q108 0 96 10T84 37Q84 51 92 60T119 76L163 86Q182 92 191 105T201 148V746Q201 770 193 780T168 794L108 797Q90 800 83 808T75 829Q75
844 84 853T118 871L294 935Q328 947 349 953T389 959Q418 959 432 943T447 901ZM417 684L375 727L416 763Q538 872 625 918T793 965Q915 965 982 884T1064 667L1122 152Q1126 121 1134 107T1163 86L1202 76Q1220 70 1228 61T1237 37Q1237 20 1226 10T1188 0H813Q762
0 762 39Q762 64 793 76L835 86Q856 92 866 107T874 152L819 630Q808 723 771 770T662 817Q617 817 567 793T459 719L417 684Z" />
<glyph unicode="o" horiz-adv-x="1179" d="M593 965Q744 965 858 902T1037 727T1102 469Q1102 328 1036 217T854 41T585 -24Q434 -24 320 39T142 215T77 472Q77 615 142 726T324 901T593 965ZM664 71Q740 82 786 136T847 284T839 508Q817 637 770 722T658 844T514
870Q439 858 392 804T331 657T339 433Q361 304 408 219T520 97T664 71Z" />
<glyph unicode="p" horiz-adv-x="1232" d="M422 901V784L432 763V-317Q432 -346 441 -360T469 -379L530 -390Q549 -395 557 -405T566 -429Q566 -446 554 -456T516 -466H119Q94 -466 82 -456T70 -429Q70 -415 78 -406T105 -390L148 -380Q167 -374 176 -361T186
-318V746Q186 770 178 780T153 794L93 797Q75 801 68 809T60 830Q60 844 69 852T103 871L269 935Q303 948 324 953T362 959Q393 959 407 944T422 901ZM379 657L340 711Q418 831 520 898T746 965Q864 965 956 905T1102 738T1156 494Q1156 335 1093 219T923 40T684
-24Q565 -24 472 33T321 197L380 251Q431 165 497 122T640 78Q714 78 772 120T865 248T899 467Q899 592 866 674T777 798T647 839Q571 839 503 794T379 657Z" />
<glyph unicode="q" horiz-adv-x="1202" d="M717 -466Q691 -466 679 -456T666 -429Q666 -415 675 -405T703 -390L764 -379Q782 -375 791 -361T801 -317V825L904 934Q942 950 962 957T998 964Q1021 964 1034 952T1047 916V-318Q1047 -347 1056 -360T1085 -380L1128
-390Q1147 -396 1155 -405T1164 -429Q1164 -446 1152 -456T1114 -466H717ZM893 230Q816 110 713 43T487 -24Q369 -24 277 36T131 203T77 447Q77 605 140 721T310 901T550 965Q669 965 761 908T912 744L853 691Q803 776 737 819T593 863Q519 863 461 821T368 693T334
475Q334 350 367 268T457 144T586 102Q663 102 730 147T854 284L893 230Z" />
<glyph unicode="r" horiz-adv-x="930" d="M411 526Q411 669 453 767T562 915T705 965Q798 965 849 913T900 766Q900 687 867 648T780 608Q727 608 699 637T670 718V753Q669 786 655 802T606 818Q566 818 530 787T470 691T447 528L411 526ZM433 901L447 670V149Q447
122 458 109T498 91L586 78Q608 75 619 65T630 38Q630 20 617 10T579 0H134Q108 0 96 10T84 37Q84 51 92 60T120 76L163 86Q182 92 191 105T201 148V744Q201 768 193 778T168 792L108 795Q90 799 83 807T75 828Q75 842 84 851T118 870L291 932Q335 948 356 953T389
959Q409 959 419 946T433 901Z" />
<glyph unicode="s" horiz-adv-x="954" d="M503 58Q575 58 615 95T656 189Q656 224 640 253T579 306T451 350Q305 382 224 429T110 537T78 672Q78 805 172 885T445 965Q510 965 551 954T620 932T668 920Q689 920 700 931T721 954T752 965Q766 965 776 956T795 923L864
717Q875 686 871 666T846 638Q825 630 810 637T781 666Q737 747 685 794T576 862T458 882Q368 882 323 845T278 745Q278 708 297 678T367 622T514 573Q640 544 714 501T820 398T853 256Q853 173 811 110T693 11T516 -24Q453 -24 415 -12T351 13T301 26Q280 26 267
14T242 -11T213 -24Q199 -24 190 -15T176 18L135 213Q128 251 132 269T155 295Q175 303 190 293T221 256Q280 150 353 104T503 58Z" />
<glyph unicode="t" horiz-adv-x="752" d="M134 853L84 867Q59 874 50 884T40 907Q40 925 52 934T85 943H148Q173 943 189 951T220 983L315 1133Q333 1157 350 1168T384 1180Q403 1180 413 1168T424 1134V266Q424 196 452 160T531 123Q567 123 587 136T620 167T643
198T670 213Q684 213 691 204T699 175Q699 124 665 80T572 9T436 -19Q317 -19 248 42T179 226V795Q179 820 169 832T134 853ZM322 854V943H645Q667 943 679 935T691 909Q691 886 668 870T592 854H322Z" />
<glyph unicode="u" horiz-adv-x="1235" d="M808 130V187L801 192V746Q801 770 794 780T769 793L708 797Q691 800 683 808T675 829Q675 844 684 853T718 871L894 934Q929 947 950 952T990 958Q1018 958 1032 943T1047 900V149Q1047 120 1056 106T1085 86L1126 76Q1145
70 1153 61T1162 37Q1162 20 1150 10T1112 0H923Q873 0 841 35T808 130ZM174 275V746Q174 770 166 780T141 793L81 797Q63 800 56 808T48 829Q48 844 57 853T91 871L267 934Q303 947 324 952T360 958Q390 958 405 943T420 900V312Q420 218 465 171T586 124Q633
124 687 147T800 222L841 258L884 215L842 178Q720 66 629 21T455 -24Q329 -24 252 57T174 275Z" />
<glyph unicode="v" horiz-adv-x="1110" d="M597 -10H510Q482 -10 462 4T430 49L132 790Q116 829 105 842T79 859L44 867Q25 873 17 882T9 905Q9 923 22 933T58 943H483Q532 943 532 906Q532 891 523 882T492 868L453 861Q406 851 397 828T410 746L654 117L600
88L852 746Q874 805 865 828T809 861L769 868Q748 873 739 882T730 906Q730 924 743 933T779 943H1054Q1076 943 1089 933T1102 905Q1102 892 1095 883T1065 868L1031 861Q1012 857 997 835T960 757L675 44Q663 12 643 1T597 -10Z" />
<glyph unicode="w" horiz-adv-x="1645" d="M553 -10H468Q441 -10 421 3T388 50L131 793Q119 830 107 842T78 859L44 867Q25 873 17 882T9 905Q9 923 22 933T58 943H466Q488 943 501 934T514 906Q514 891 506 882T475 868L436 861Q399 854 393 834T406 751L611
129L555 86L801 800L881 742L632 44Q620 13 599 2T553 -10ZM1180 -10H1097Q1072 -10 1051 4T1018 50L764 800Q753 833 742 844T714 859L678 867Q659 873 652 882T644 906Q644 943 693 943H1083Q1131 943 1131 905Q1131 891 1123 882T1095 869L1048 862Q1021 858
1016 836T1029 759L1233 127L1180 82L1391 737Q1412 804 1406 829T1359 861L1320 868Q1299 873 1290 882T1281 906Q1281 924 1294 933T1329 943H1589Q1611 943 1624 933T1637 905Q1637 892 1630 883T1600 868L1566 861Q1547 857 1533 835T1500 756L1258 45Q1247
13 1226 2T1180 -10Z" />
<glyph unicode="x" horiz-adv-x="1081" d="M445 509L518 468L305 184Q277 146 282 121T331 84L366 76Q385 70 393 61T401 39Q401 22 388 12T351 1H76Q53 1 40 11T27 39Q27 53 36 62T68 81Q96 92 117 106T162 146T218 213L445 509ZM456 791L652 526L663 514L929
162Q961 120 980 104T1025 78Q1045 70 1053 61T1061 38Q1061 21 1048 11T1011 0H601Q577 0 564 10T550 38Q550 52 557 61T582 74L619 81Q655 88 659 104T640 152L432 435L421 448L175 785Q146 824 126 839T76 862Q54 870 46 879T38 904Q38 923 51 933T88 943H491Q514
943 527 934T541 905Q541 892 535 883T512 868L476 859Q441 850 439 835T456 791ZM631 446L558 487L766 759Q795 798 790 823T740 860L705 868Q686 874 678 883T670 905Q670 924 683 933T720 943H995Q1018 943 1031 933T1044 905Q1044 891 1035 882T1003 863Q960
848 932 821T853 731L631 446Z" />
<glyph unicode="y" horiz-adv-x="1124" d="M666 133L537 -111L140 787Q122 828 104 842T44 867Q25 873 17 882T9 905Q9 923 22 933T58 943H483Q506 943 519 934T532 906Q532 891 523 882T493 868L453 861Q406 851 398 828T414 746L666 133ZM486 -177L558 1L589
63L858 736Q881 795 873 821T817 857L775 866Q754 871 745 881T735 906Q735 924 748 933T783 943H1068Q1091 943 1104 933T1117 905Q1117 893 1109 884T1079 866Q1033 853 1010 832T965 756L595 -161Q543 -287 498 -356T400 -451T274 -478Q165 -478 102 -421T39
-280Q39 -220 67 -187T144 -153Q190 -153 215 -181T254 -258L265 -294Q272 -330 290 -347T332 -365Q357 -365 379 -351T428 -296T486 -177Z" />
<glyph unicode="z" horiz-adv-x="967" d="M875 832L311 34L271 79H579Q631 79 664 90T725 131T786 220L831 299Q843 319 857 325T887 330Q906 327 913 314T917 279L858 20Q852 -6 841 -17T812 -28Q791 -28 769 -14T703 0H126Q89 0 74 10T59 40Q59 54 66 70T90
111L651 904L690 864H390Q345 864 315 854T261 818T210 744L173 674Q163 655 150 649T118 645Q101 649 93 663T88 700L135 920Q141 947 152 958T183 970Q204 970 225 957T290 943H839Q876 943 891 933T906 904Q906 890 899 873T875 832Z" />
<glyph unicode="{" horiz-adv-x="790" d="M371 612Q371 586 401 586Q510 586 568 546T626 438Q626 386 595 336T523 234T451 131T419 21Q419 -69 470 -120T618 -171H687Q739 -171 739 -214Q739 -232 725 -244T680 -256H581Q455 -256 373 -222T250 -127T209 8Q209
88 246 153T332 272T418 373T455 464Q455 506 427 530T343 555Q315 555 297 545T261 524T211 514Q167 514 143 543T119 612Q119 650 143 679T211 709Q242 709 260 699T297 679T343 668Q398 668 426 692T455 759Q455 803 418 850T332 951T246 1070T209 1215Q209
1292 249 1351T372 1445T581 1479H680Q711 1479 725 1467T739 1437Q739 1394 687 1394H618Q522 1394 471 1343T419 1202Q419 1146 450 1093T523 989T595 888T626 785Q626 718 568 678T401 637Q371 637 371 612Z" />
<glyph unicode="|" horiz-adv-x="548" d="M225 620Q225 694 220 802T208 1032T196 1265T190 1457Q190 1500 211 1524T274 1548Q315 1548 336 1524T357 1457Q357 1399 354 1316T345 1137T335 947T327 766T323 620Q323 546 328 437T340 208T352 -25T357 -218Q357
-260 336 -284T274 -309Q232 -309 211 -285T190 -218Q190 -159 193 -76T202 103T212 293T221 474T225 620Z" />
<glyph unicode="}" horiz-adv-x="790" d="M419 612Q419 638 389 638Q280 638 222 678T164 786Q164 838 195 888T267 990T339 1093T371 1203Q371 1293 320 1344T172 1395H103Q51 1395 51 1438Q51 1456 65 1468T110 1480H209Q335 1480 417 1446T540 1351T581 1216Q581
1136 544 1071T458 952T372 851T335 760Q335 718 363 694T447 669Q475 669 493 679T529 700T579 710Q623 710 647 681T671 612Q671 574 647 545T579 515Q548 515 530 525T493 545T447 556Q392 556 364 532T335 465Q335 421 372 374T458 273T544 154T581 9Q581 -68
541 -127T418 -221T209 -255H110Q79 -255 65 -243T51 -213Q51 -170 103 -170H172Q268 -170 319 -119T371 22Q371 78 340 131T267 235T195 336T164 439Q164 506 222 546T389 587Q419 587 419 612Z" />
<glyph unicode="~" horiz-adv-x="1275" d="M887 533Q820 533 756 565T630 638T509 712T390 744Q328 744 285 704T230 582Q224 559 210 548T175 537Q125 537 125 596Q125 668 159 728T253 824T388 860Q465 860 532 829T660 756T776 682T885 650Q947 650 991 687T1043
806Q1051 832 1066 843T1100 855Q1150 855 1150 796Q1150 722 1116 663T1022 568T887 533Z" />
<glyph unicode="&#xa0;" horiz-adv-x="442" />
<glyph unicode="&#xa1;" horiz-adv-x="609" d="M308 -330Q228 -330 191 -292T154 -190Q154 -167 157 -142T166 -89L255 640Q262 672 273 687T308 703Q330 703 342 688T361 640L450 -89Q456 -117 459 -142T462 -190Q462 -253 425 -291T308 -330ZM308 1172Q353 1172
389 1149T448 1088T470 1006Q470 960 448 923T390 863T308 841Q262 841 225 863T167 922T146 1006Q146 1050 167 1088T225 1149T308 1172Z" />
<glyph unicode="&#xa2;" horiz-adv-x="1025" d="M574 484Q574 406 576 332T581 189T586 64T591 -38T593 -111Q593 -137 581 -150T547 -164Q528 -164 515 -151T502 -109Q502 -82 504 -38T509 63T514 188T519 331T521 484Q521 556 519 627T515 762T509 881T504 978T502
1046Q502 1071 515 1084T549 1098Q569 1098 581 1085T593 1044Q593 1019 591 977T587 881T581 762T576 627T574 484ZM960 678Q960 625 930 591T848 557Q796 557 767 591T737 686V730Q737 797 689 837T558 878Q482 878 423 836T330 717T296 533Q296 407 338 321T455
189T623 144Q721 144 789 189T889 304Q901 317 909 322T927 328Q940 327 947 319T953 293Q946 210 893 143T752 38T552 -1Q412 -1 305 54T137 211T76 453Q76 592 138 703T312 880T574 945Q695 945 781 909T913 811T960 678Z" />
<glyph unicode="&#xa3;" horiz-adv-x="1275" d="M439 292L374 303Q431 339 456 383T481 476Q481 526 454 576T387 678T307 785T240 901T213 1029Q213 1148 269 1239T439 1383T722 1435Q876 1435 975 1387T1122 1260T1170 1083Q1170 1010 1136 968T1040 925Q978
925 940 966T901 1081V1168Q901 1267 849 1320T704 1374Q596 1374 541 1298T486 1074Q486 1010 503 945T543 815T583 685T599 558Q598 479 562 409T439 292ZM93 106Q93 170 124 223T215 308T362 340Q434 340 501 322T632 279T758 237T882 218Q971 218 1021 250T1096
355Q1103 369 1116 377T1144 384Q1158 383 1167 373T1176 342Q1167 212 1128 131T1024 12T871 -26Q813 -26 763 -8T665 51T568 162Q522 206 492 224T426 243Q393 243 378 215T355 125Q353 73 337 40T290 -10T216 -26Q156 -26 125 10T93 106ZM154 652Q154 665 164
673T189 682L424 690L478 624H190Q174 624 164 631T154 652ZM536 624L527 682H920Q937 682 945 674T953 653Q953 624 920 624H536Z" />
<glyph unicode="&#xa4;" horiz-adv-x="1158" d="M154 316Q135 300 134 278T151 238Q170 220 193 222T234 240L412 420L330 495L154 316ZM151 1092Q132 1074 133 1052T154 1013L330 834L410 912L234 1089Q216 1106 193 1107T151 1092ZM1013 1093Q994 1111 971 1110T928
1091L750 911L831 835L1010 1015Q1029 1033 1030 1054T1013 1093ZM1013 237Q1032 255 1031 276T1010 314L833 493L752 417L928 239Q947 222 970 221T1013 237ZM580 329Q677 329 755 371T879 489T925 666Q925 767 879 842T756 958T580 1000Q483 1000 406 958T282
842T236 666Q236 565 281 489T404 371T580 329ZM581 417Q511 417 459 449T377 538T348 666Q348 737 377 793T458 881T581 914Q651 914 704 882T786 793T815 666Q815 595 786 539T704 450T581 417Z" />
<glyph unicode="&#xa5;" horiz-adv-x="1379" d="M805 479L601 436L197 1243Q182 1271 170 1284T133 1306L101 1315Q78 1323 70 1334T61 1359Q61 1378 75 1389T117 1400H560Q588 1400 603 1390T619 1359Q619 1327 571 1313L518 1304Q474 1292 469 1277T480 1230L797
560L716 513L1047 1189Q1068 1234 1058 1263T1000 1305L942 1316Q926 1321 916 1331T906 1359Q906 1378 919 1389T961 1400H1264Q1292 1400 1306 1389T1320 1359Q1320 1344 1312 1335T1281 1316L1266 1310Q1246 1302 1229 1290T1195 1252T1155 1181L805 479ZM563
539L822 541V154Q822 135 834 121T872 99L933 87Q973 72 973 41Q973 22 960 11T919 0H466Q438 0 425 11T412 41Q412 72 452 87L514 99Q540 107 551 121T563 154V539ZM176 488Q176 503 185 511T209 519H1177Q1194 519 1203 511T1212 488Q1212 458 1177 458H208Q176
458 176 488ZM865 700L891 762H1177Q1194 762 1203 754T1212 731Q1212 700 1177 700H865ZM176 731Q176 745 185 753T209 762H617L646 700H208Q176 700 176 731Z" />
<glyph unicode="&#xa6;" horiz-adv-x="684" d="M375 778Q375 742 364 726T326 710Q302 710 289 726T276 778Q276 838 271 926T259 1112T247 1301T242 1457Q242 1500 263 1524T325 1548Q366 1548 387 1524T409 1457Q409 1398 404 1309T392 1121T380 932T375 778ZM276
462Q276 497 288 513T326 529Q350 529 362 513T375 462Q375 401 380 313T392 127T404 -62T409 -219Q409 -261 388 -285T325 -310Q284 -310 263 -286T242 -219Q242 -159 247 -70T259 118T271 307T276 462Z" />
<glyph unicode="&#xa7;" horiz-adv-x="1167" d="M646 191L639 250Q735 255 787 305T840 431Q840 484 816 525T733 604T568 682Q419 733 331 790T205 920T167 1086Q167 1187 215 1263T348 1383T544 1426Q617 1426 665 1411T745 1381T800 1365Q821 1365 830 1381T851
1412T885 1427Q904 1427 916 1416T936 1378L1016 1099Q1023 1079 1015 1065T986 1045Q949 1035 930 1070Q877 1171 817 1231T694 1318T563 1345Q479 1345 428 1293T376 1157Q376 1099 399 1056T476 977T617 906Q771 852 856 794T976 668T1011 515Q1011 425 967
353T840 238T646 191ZM467 820L489 765Q402 749 359 702T315 579Q315 519 343 475T432 395T595 321Q747 267 832 208T952 81T987 -71Q987 -163 942 -238T811 -356T604 -400Q536 -400 487 -386T407 -356T358 -341Q337 -341 325 -356T302 -386T269 -402Q250 -402
239 -392T222 -357L158 -97Q147 -55 185 -44Q203 -38 218 -45T246 -73Q293 -165 348 -219T464 -296T591 -320Q681 -320 732 -270T784 -139Q784 -90 763 -50T690 25T546 97Q395 149 307 206T182 334T144 499Q144 583 182 651T293 764T467 820Z" />
<glyph unicode="&#xa8;" horiz-adv-x="759" d="M186 1056Q128 1056 93 1090T58 1180Q58 1237 93 1271T186 1305Q245 1305 279 1271T314 1180Q314 1125 280 1091T186 1056ZM579 1056Q521 1056 486 1090T450 1180Q450 1236 485 1270T579 1305Q639 1305 673 1271T708
1180Q708 1125 674 1091T579 1056Z" />
<glyph unicode="&#xa9;" horiz-adv-x="1878" d="M939 -110Q1120 -110 1271 -50T1534 119T1705 378T1766 704Q1766 881 1706 1030T1534 1288T1272 1457T939 1517Q758 1517 607 1457T345 1288T173 1030T112 704Q112 527 173 378T344 120T606 -50T939 -110ZM939 -32Q722
-32 557 63T299 324T206 704Q206 918 299 1084T557 1344T939 1439Q1102 1439 1236 1385T1468 1233T1619 1000T1672 704Q1672 543 1619 409T1469 176T1237 23T939 -32ZM1372 478Q1371 433 1343 383T1262 288T1134 216T962 188Q810 188 698 253T526 432T465 695Q465
846 528 964T703 1150T953 1218Q1023 1218 1067 1202T1137 1170T1181 1153Q1199 1153 1211 1165T1234 1189T1260 1201Q1275 1201 1283 1193T1296 1164L1366 912Q1371 893 1361 880T1333 864Q1313 860 1299 868T1277 899Q1226 1034 1154 1085T992 1137Q913 1137
854 1086T762 944T729 731Q729 603 768 512T879 373T1042 324Q1117 324 1175 351T1266 423Q1293 453 1307 472T1330 502T1350 511Q1372 507 1372 478Z" />
<glyph unicode="&#xaa;" horiz-adv-x="1043" d="M165 1203Q165 1257 210 1308T341 1392T551 1425Q699 1425 771 1362T844 1187V744Q844 719 854 706T883 693Q903 693 912 701T927 718T942 726Q953 726 960 719T967 699Q967 677 948 651T893 607T805 588Q734 588
690 621T646 716L633 738V1230Q633 1294 599 1329T502 1364Q441 1364 410 1337T378 1274V1213Q378 1168 347 1142T260 1116Q215 1116 190 1139T165 1203ZM658 935Q625 948 590 957T513 966Q433 966 387 928T340 822Q340 757 378 722T477 686Q531 686 580 711T665
779L684 733Q633 665 552 627T379 588Q266 588 195 642T124 787Q124 890 221 954T493 1019Q547 1019 594 1010T675 985L658 935Z" />
<glyph unicode="&#xab;" horiz-adv-x="1146" d="M100 478Q100 500 114 521T165 571Q218 613 266 652T357 726T438 794T507 853Q523 866 536 868T560 863Q569 855 568 842T558 812Q529 765 491 709T402 587T289 443V513Q352 436 402 370T490 248T558 144Q567 127
568 114T560 94Q550 86 537 88T507 103Q476 131 439 162T358 230T266 305T165 385Q129 413 115 435T100 478ZM573 478Q573 500 587 521T638 571Q691 613 739 652T830 726T911 794T980 853Q996 866 1009 868T1033 863Q1042 855 1041 842T1031 812Q1002 765 964 709T875
587T762 443V513Q825 436 875 370T963 248T1031 144Q1040 127 1041 114T1033 94Q1023 86 1010 88T980 103Q949 131 912 162T831 230T739 305T638 385Q602 413 588 435T573 478Z" />
<glyph unicode="&#xac;" horiz-adv-x="1116" d="M127 792Q127 817 145 831T188 845H892Q923 845 942 830T962 783V465Q962 444 946 430T902 415Q874 415 858 430T841 466V760L861 739H186Q163 739 145 752T127 792Z" />
<glyph unicode="&#xad;" horiz-adv-x="826" d="M681 645Q744 645 721 584L697 520Q687 491 672 481T631 471H145Q81 471 105 532L128 596Q139 625 153 635T194 645H681Z" />
<glyph unicode="&#xae;" horiz-adv-x="1475" d="M736 265Q879 265 999 312T1208 443T1345 643T1394 894Q1394 1029 1345 1142T1208 1338T999 1467T736 1513Q593 1513 474 1468T266 1339T130 1142T81 894Q81 758 129 643T265 444T472 312T736 265ZM736 335Q571
335 443 407T242 606T169 894Q169 1055 242 1179T443 1373T736 1443Q900 1443 1029 1373T1232 1178T1306 894Q1306 733 1233 606T1031 407T736 335ZM1058 1009Q1058 937 1009 886T879 819Q850 814 827 808T773 801Q722 801 678 815T601 848L603 902Q641 877 677
868T748 858Q818 858 855 896T892 1007Q892 1088 849 1141T728 1194H653V648Q653 629 659 620T677 605L707 598Q720 592 724 587T728 573Q728 550 695 550H450Q416 550 416 573Q416 590 440 599L466 607Q480 611 486 620T492 648V1153Q492 1170 486 1180T469 1193L440
1200Q416 1208 416 1228Q416 1253 450 1253H729Q886 1253 972 1183T1058 1009ZM761 824L915 843L1030 642Q1041 624 1052 615T1079 601Q1095 596 1101 590T1107 575Q1107 562 1098 556T1073 549H846Q813 549 813 572Q813 585 830 593L853 598Q867 601 868 610T861
636L761 824Z" />
<glyph unicode="&#xaf;" horiz-adv-x="726" d="M58 1171Q58 1203 72 1218T114 1233H586Q613 1233 627 1218T642 1171Q642 1139 628 1125T586 1110H114Q87 1110 73 1125T58 1171Z" />
<glyph unicode="&#xb0;" horiz-adv-x="790" d="M395 1426Q484 1426 552 1387T658 1280T697 1126Q697 1041 659 975T552 870T395 832Q306 832 238 871T132 977T93 1129Q93 1212 130 1279T236 1386T395 1426ZM395 1340Q307 1340 254 1279T201 1129Q201 1039 255
980T395 920Q481 920 535 979T589 1127Q589 1218 536 1279T395 1340Z" />
<glyph unicode="&#xb1;" horiz-adv-x="1118" d="M134 840Q134 864 150 878T189 892H945Q966 892 982 878T998 840Q998 815 982 801T945 787H188Q167 787 151 801T134 840ZM562 429Q538 429 524 445T510 484V1240Q510 1261 524 1277T562 1293Q587 1293 601 1277T615
1240V483Q615 462 601 446T562 429ZM131 192Q131 216 147 230T186 244H942Q963 244 979 230T995 192Q995 167 979 153T942 139H185Q164 139 148 153T131 192Z" />
<glyph unicode="&#xb2;" horiz-adv-x="737" d="M165 844L126 866L264 959Q334 1003 375 1042T434 1125T452 1223Q452 1309 426 1346T352 1384Q301 1384 278 1356T255 1283V1227Q255 1189 231 1167T168 1145Q129 1145 106 1167T83 1230Q83 1307 154 1367T369 1428Q504
1428 570 1371T636 1226Q636 1178 612 1137T533 1053T383 960L165 844ZM70 772Q70 829 119 863T269 897Q316 897 359 882T441 852T518 837Q550 837 570 850T600 898Q604 911 613 916T634 921Q669 919 664 879Q654 777 612 735T500 692Q446 692 409 715T338 787Q315
813 299 825T267 837Q248 837 240 822T230 773Q229 732 209 712T149 692Q113 692 92 713T70 772Z" />
<glyph unicode="&#xb3;" horiz-adv-x="688" d="M316 1062L304 1078Q318 1081 334 1083T370 1085Q484 1085 553 1035T622 894Q622 797 542 739T330 681Q203 681 138 730T72 849Q72 888 97 912T162 937Q201 937 221 916T242 858V809Q242 773 265 750T334 727Q383
727 413 761T444 872Q444 952 412 989T315 1027H276Q258 1027 248 1034T238 1054Q238 1065 243 1074T264 1096L506 1317L512 1270H229Q191 1270 183 1240L170 1194Q166 1181 157 1173T131 1165Q113 1165 103 1174T95 1202L112 1361Q114 1379 128 1389T167 1400H590Q609
1400 619 1392T629 1370Q629 1360 621 1350T593 1325L316 1062Z" />
<glyph unicode="&#xb4;" horiz-adv-x="467" d="M168 1287Q197 1347 231 1381T316 1408Q362 1403 384 1371T402 1304Q397 1264 370 1234T293 1175L117 1047Q104 1041 90 1041T67 1049Q56 1058 58 1070T68 1095L168 1287Z" />
<glyph unicode="&#xb5;" horiz-adv-x="1242" d="M173 284H222Q222 156 236 56T269 -121T301 -258T316 -366Q316 -416 285 -446T208 -476Q160 -476 129 -445T97 -359Q97 -314 108 -254T135 -114T161 64T173 284ZM824 259L866 216L817 172Q699 67 610 22T439 -23Q319
-23 246 53T172 265V845Q172 872 185 888T222 913L307 942Q331 950 346 954T377 958Q395 958 405 947T415 919V312Q415 218 458 172T574 125Q620 125 671 147T782 221L824 259ZM995 -23Q905 -23 856 19T805 151L798 189V844Q798 871 811 888T848 913L932 942Q956
950 971 954T1003 958Q1020 958 1030 947T1040 919V162Q1040 132 1052 118T1085 103Q1108 103 1118 114T1135 136T1153 147Q1165 147 1172 139T1180 116Q1180 86 1159 54T1097 0T995 -23Z" />
<glyph unicode="&#xb6;" horiz-adv-x="1285" d="M869 173V1221Q869 1252 851 1272T784 1292Q738 1292 718 1270T698 1221V173Q698 147 718 125T784 103Q832 103 850 123T869 173ZM1122 0H403Q383 0 371 10T359 37Q359 57 371 70T403 87L481 101Q510 108 524 122T539
157V650Q516 645 493 641T440 637Q261 637 158 733T54 996Q54 1118 110 1208T271 1349T522 1400H1128Q1148 1400 1163 1390T1179 1360Q1179 1343 1169 1333T1142 1316L1083 1299Q1057 1291 1043 1276T1029 1236V160Q1029 138 1041 123T1079 101L1136 87Q1156 82
1167 72T1178 43Q1178 22 1161 11T1122 0Z" />
<glyph unicode="&#xb7;" horiz-adv-x="564" d="M282 336Q237 336 200 359T142 420T120 502Q120 548 141 585T200 645T282 667Q328 667 365 645T423 586T445 502Q445 458 424 420T365 359T282 336Z" />
<glyph unicode="&#xb8;" horiz-adv-x="546" d="M248 12H318L237 -141L193 -129Q210 -126 229 -125T275 -123Q368 -123 419 -164T471 -275Q471 -350 414 -395T256 -440Q171 -440 117 -408T58 -330Q58 -314 67 -305T89 -294Q102 -293 111 -298T129 -313Q144 -344
172 -358T233 -372Q316 -372 316 -274Q316 -232 293 -207T224 -182H192Q170 -182 165 -169T168 -138L248 12Z" />
<glyph unicode="&#xb9;" horiz-adv-x="598" d="M125 1312H180Q199 1312 207 1304T215 1272V818Q215 799 206 789T180 775L111 765Q80 760 80 736Q80 708 118 708H487Q526 708 526 736Q526 759 495 765L433 775Q417 779 409 789T401 818V1398Q401 1432 365 1432Q354
1432 345 1428T322 1416Q298 1396 270 1386T194 1376H127Q107 1376 96 1367T85 1344Q85 1329 94 1321T125 1312Z" />
<glyph unicode="&#xba;" horiz-adv-x="1075" d="M541 1423Q671 1423 770 1370T926 1222T982 1003Q982 882 925 788T767 639T534 585Q404 585 305 638T149 785T93 1004Q93 1124 150 1219T308 1368T541 1423ZM603 666Q666 675 706 723T759 851T753 1037Q733 1146
691 1217T593 1320T473 1343Q412 1333 371 1286T317 1159T323 972Q344 864 386 793T484 689T603 666Z" />
<glyph unicode="&#xbb;" horiz-adv-x="1146" d="M1046 480Q1046 458 1032 437T981 387Q928 345 880 306T789 232T708 164T639 105Q623 92 610 90T586 95Q577 103 578 116T588 146Q617 193 655 249T744 371T857 515V445Q794 522 744 588T656 710T588 814Q579 831
578 844T586 864Q596 872 609 870T639 855Q670 827 707 796T788 728T880 653T981 573Q1017 545 1031 523T1046 480ZM573 480Q573 458 559 437T508 387Q455 345 407 306T316 232T235 164T166 105Q150 92 137 90T113 95Q104 103 105 116T115 146Q144 193 182 249T271
371T384 515V445Q321 522 271 588T183 710T115 814Q106 831 105 844T113 864Q123 872 136 870T166 855Q197 827 234 796T315 728T407 653T508 573Q544 545 558 523T573 480Z" />
<glyph unicode="&#xbc;" horiz-adv-x="1552" d="M169 1312H224Q243 1312 251 1304T259 1272V818Q259 799 250 789T224 775L155 765Q124 760 124 736Q124 708 162 708H531Q570 708 570 736Q570 759 539 765L477 775Q461 779 453 789T445 818V1398Q445 1432 409
1432Q398 1432 389 1428T366 1416Q342 1396 314 1386T238 1376H171Q151 1376 140 1367T129 1344Q129 1329 138 1321T169 1312ZM1136 327Q1136 342 1140 351T1154 367L1258 456Q1269 466 1277 469T1293 472Q1315 472 1315 448L1316 106Q1316 89 1325 80T1349 66L1391
56Q1406 53 1414 46T1423 28Q1423 0 1384 0H1063Q1024 0 1024 28Q1024 50 1055 56L1102 66Q1119 69 1127 79T1136 106V327ZM1040 456Q1067 479 1078 498T1090 534Q1090 555 1079 570T1056 603T1044 646Q1044 684 1073 709T1160 735Q1208 735 1238 711T1268 645Q1268
609 1248 572T1168 483L872 207L858 234H1399Q1416 234 1425 228T1435 208Q1435 179 1398 179H844Q825 179 815 187T804 209Q804 217 809 226T831 248L1040 456ZM854 783Q840 763 828 759T798 763Q782 771 782 785T790 819Q806 850 829 895T880 994T935 1104T991
1213T1043 1310T1083 1382Q1104 1415 1134 1424T1198 1415Q1230 1397 1235 1368T1220 1306Q1205 1282 1178 1242T1117 1153T1046 1051T973 948T906 855T854 783ZM667 613Q683 632 696 637T725 634Q741 625 741 611T731 576Q716 546 693 501T643 401T587 291T531
181T480 84T439 12Q419 -19 389 -28T325 -20Q293 -2 287 27T302 88Q317 113 344 153T405 242T476 344T550 448T616 542T667 613Z" />
<glyph unicode="&#xbd;" horiz-adv-x="1577" d="M172 1312H227Q246 1312 254 1304T262 1272V818Q262 799 253 789T227 775L158 765Q127 760 127 736Q127 708 165 708H534Q573 708 573 736Q573 759 542 765L480 775Q464 779 456 789T448 818V1398Q448 1432 412
1432Q401 1432 392 1428T369 1416Q345 1396 317 1386T241 1376H174Q154 1376 143 1367T132 1344Q132 1329 141 1321T172 1312ZM854 783Q840 763 828 759T798 763Q782 771 782 785T790 819Q806 850 829 895T880 994T935 1104T991 1213T1043 1310T1083 1382Q1104
1415 1134 1424T1198 1415Q1230 1397 1235 1368T1220 1306Q1205 1282 1178 1242T1117 1153T1046 1051T973 948T906 855T854 783ZM667 613Q683 632 696 637T725 634Q741 625 741 611T731 576Q716 546 693 501T643 401T587 291T531 181T480 84T439 12Q419 -19 389
-28T325 -20Q293 -2 287 27T302 88Q317 113 344 153T405 242T476 344T550 448T616 542T667 613ZM990 131L951 153L1089 246Q1159 290 1200 329T1259 412T1277 510Q1277 596 1251 633T1177 671Q1126 671 1103 643T1080 570V514Q1080 476 1056 454T993 432Q954 432
931 454T908 517Q908 594 979 654T1194 715Q1329 715 1395 658T1461 513Q1461 465 1437 424T1358 340T1208 247L990 131ZM895 59Q895 116 944 150T1094 184Q1141 184 1184 169T1266 139T1343 124Q1375 124 1395 137T1425 185Q1429 198 1438 203T1459 208Q1494 206
1489 166Q1479 64 1437 22T1325 -21Q1271 -21 1234 2T1163 74Q1140 100 1124 112T1092 124Q1073 124 1065 109T1055 60Q1054 19 1034 -1T974 -21Q938 -21 917 0T895 59Z" />
<glyph unicode="&#xbe;" horiz-adv-x="1602" d="M1186 327Q1186 342 1190 351T1204 367L1308 456Q1319 466 1327 469T1343 472Q1365 472 1365 448L1366 106Q1366 89 1375 80T1399 66L1441 56Q1456 53 1464 46T1473 28Q1473 0 1434 0H1113Q1074 0 1074 28Q1074
50 1105 56L1152 66Q1169 69 1177 79T1186 106V327ZM1090 456Q1117 479 1128 498T1140 534Q1140 555 1129 570T1106 603T1094 646Q1094 684 1123 709T1210 735Q1258 735 1288 711T1318 645Q1318 609 1298 572T1218 483L922 207L908 234H1449Q1466 234 1475 228T1485
208Q1485 179 1448 179H894Q875 179 865 187T854 209Q854 217 859 226T881 248L1090 456ZM906 783Q892 763 880 759T850 763Q834 771 834 785T842 819Q858 850 881 895T932 994T987 1104T1043 1213T1095 1310T1135 1382Q1156 1415 1186 1424T1250 1415Q1282 1397
1287 1368T1272 1306Q1257 1282 1230 1242T1169 1153T1098 1051T1025 948T958 855T906 783ZM719 613Q735 632 748 637T777 634Q793 625 793 611T783 576Q768 546 745 501T695 401T639 291T583 181T532 84T491 12Q471 -19 441 -28T377 -20Q345 -2 339 27T354 88Q369
113 396 153T457 242T528 344T602 448T668 542T719 613ZM369 1062L357 1078Q371 1081 387 1083T423 1085Q537 1085 606 1035T675 894Q675 797 595 739T383 681Q256 681 191 730T125 849Q125 888 150 912T215 937Q254 937 274 916T295 858V809Q295 773 318 750T387
727Q436 727 466 761T497 872Q497 952 465 989T368 1027H329Q311 1027 301 1034T291 1054Q291 1065 296 1074T317 1096L559 1317L565 1270H282Q244 1270 236 1240L223 1194Q219 1181 210 1173T184 1165Q166 1165 156 1174T148 1202L165 1361Q167 1379 181 1389T220
1400H643Q662 1400 672 1392T682 1370Q682 1360 674 1350T646 1325L369 1062Z" />
<glyph unicode="&#xbf;" horiz-adv-x="978" d="M629 486L614 663Q609 688 596 700T560 712Q538 712 526 701T506 662L493 497Q488 462 476 446T435 421L371 402Q207 354 136 265T65 46Q65 -121 178 -213T506 -305Q634 -305 735 -259T895 -137T954 29Q954 97 918
135T822 174Q755 174 718 132T680 14V-62Q680 -135 638 -180T514 -225Q434 -225 387 -164T340 18Q340 138 373 213T501 333L559 359Q606 380 621 409T629 486ZM563 1172Q607 1172 644 1149T703 1089T725 1006Q725 960 703 923T644 863T563 841Q516 841 480 863T422
922T400 1006Q400 1051 421 1088T479 1149T563 1172Z" />
<glyph unicode="&#xc0;" horiz-adv-x="1448" d="M347 563H940L946 468H339L347 563ZM453 41Q453 23 440 12T397 0H86Q57 0 44 11T30 41Q30 54 38 63T68 83L103 96Q133 110 148 132T182 213L518 1228Q531 1268 525 1285T482 1313Q455 1322 444 1333T433 1360Q433
1379 447 1389T489 1400H940Q969 1400 982 1390T995 1360Q995 1343 985 1332T948 1314Q920 1307 915 1294T920 1249L1276 187Q1290 142 1308 120T1361 89Q1389 79 1399 69T1409 41Q1409 23 1395 12T1352 0H933Q905 0 891 11T877 41Q877 57 887 67T918 83L982 94Q1008
101 1008 118T995 174L627 1294L658 1311L301 226Q289 187 289 163T304 123T353 95L412 82Q433 75 443 66T453 41ZM706 1695L833 1527Q841 1516 845 1505T840 1483Q832 1474 818 1473T791 1477L600 1570Q550 1591 519 1616T479 1683Q470 1716 489 1748T550 1790Q597
1800 633 1773T706 1695Z" />
<glyph unicode="&#xc1;" horiz-adv-x="1448" d="M347 563H940L946 468H339L347 563ZM453 41Q453 23 440 12T397 0H86Q57 0 44 11T30 41Q30 54 38 63T68 83L103 96Q133 110 148 132T182 213L518 1228Q531 1268 525 1285T482 1313Q455 1322 444 1333T433 1360Q433
1379 447 1389T489 1400H940Q969 1400 982 1390T995 1360Q995 1343 985 1332T948 1314Q920 1307 915 1294T920 1249L1276 187Q1290 142 1308 120T1361 89Q1389 79 1399 69T1409 41Q1409 23 1395 12T1352 0H933Q905 0 891 11T877 41Q877 57 887 67T918 83L982 94Q1008
101 1008 118T995 174L627 1294L658 1311L301 226Q289 187 289 163T304 123T353 95L412 82Q433 75 443 66T453 41ZM809 1695Q845 1746 881 1773T964 1790Q1006 1781 1025 1749T1036 1683Q1027 1642 996 1617T915 1570L723 1477Q711 1472 697 1473T675 1483Q666
1493 670 1504T682 1527L809 1695Z" />
<glyph unicode="&#xc2;" horiz-adv-x="1448" d="M347 563H940L946 468H339L347 563ZM453 41Q453 23 440 12T397 0H86Q57 0 44 11T30 41Q30 54 38 63T68 83L103 96Q133 110 148 132T182 213L518 1228Q531 1268 525 1285T482 1313Q455 1322 444 1333T433 1360Q433
1379 447 1389T489 1400H940Q969 1400 982 1390T995 1360Q995 1343 985 1332T948 1314Q920 1307 915 1294T920 1249L1276 187Q1290 142 1308 120T1361 89Q1389 79 1399 69T1409 41Q1409 23 1395 12T1352 0H933Q905 0 891 11T877 41Q877 57 887 67T918 83L982 94Q1008
101 1008 118T995 174L627 1294L658 1311L301 226Q289 187 289 163T304 123T353 95L412 82Q433 75 443 66T453 41ZM767 1645H669L929 1488Q968 1465 990 1483Q1000 1490 1001 1504T986 1534L799 1740Q778 1761 761 1773T719 1786Q693 1786 676 1774T637 1740L450
1534Q434 1518 435 1504T446 1483Q469 1465 507 1488L767 1645Z" />
<glyph unicode="&#xc3;" horiz-adv-x="1448" d="M347 563H940L946 468H339L347 563ZM453 41Q453 23 440 12T397 0H86Q57 0 44 11T30 41Q30 54 38 63T68 83L103 96Q133 110 148 132T182 213L518 1228Q531 1268 525 1285T482 1313Q455 1322 444 1333T433 1360Q433
1379 447 1389T489 1400H940Q969 1400 982 1390T995 1360Q995 1343 985 1332T948 1314Q920 1307 915 1294T920 1249L1276 187Q1290 142 1308 120T1361 89Q1389 79 1399 69T1409 41Q1409 23 1395 12T1352 0H933Q905 0 891 11T877 41Q877 57 887 67T918 83L982 94Q1008
101 1008 118T995 174L627 1294L658 1311L301 226Q289 187 289 163T304 123T353 95L412 82Q433 75 443 66T453 41ZM849 1488Q806 1488 771 1504T706 1542T649 1579T593 1595Q534 1595 525 1511Q517 1482 488 1482Q452 1482 452 1528Q452 1631 492 1683T601 1736Q644
1736 679 1720T744 1683T801 1646T857 1630Q918 1630 926 1714Q933 1743 963 1743Q998 1743 998 1697Q998 1593 958 1541T849 1488Z" />
<glyph unicode="&#xc4;" horiz-adv-x="1448" d="M347 563H940L946 468H339L347 563ZM453 41Q453 23 440 12T397 0H86Q57 0 44 11T30 41Q30 54 38 63T68 83L103 96Q133 110 148 132T182 213L518 1228Q531 1268 525 1285T482 1313Q455 1322 444 1333T433 1360Q433
1379 447 1389T489 1400H940Q969 1400 982 1390T995 1360Q995 1343 985 1332T948 1314Q920 1307 915 1294T920 1249L1276 187Q1290 142 1308 120T1361 89Q1389 79 1399 69T1409 41Q1409 23 1395 12T1352 0H933Q905 0 891 11T877 41Q877 57 887 67T918 83L982 94Q1008
101 1008 118T995 174L627 1294L658 1311L301 226Q289 187 289 163T304 123T353 95L412 82Q433 75 443 66T453 41ZM519 1490Q461 1490 426 1523T391 1611Q391 1666 426 1699T519 1733Q578 1733 612 1700T647 1611Q647 1558 613 1524T519 1490ZM910 1490Q852 1490
817 1523T782 1611Q782 1666 817 1699T910 1733Q970 1733 1004 1700T1039 1611Q1039 1558 1005 1524T910 1490Z" />
<glyph unicode="&#xc5;" horiz-adv-x="1448" d="M347 563H940L946 468H339L347 563ZM453 41Q453 23 440 12T397 0H86Q57 0 44 11T30 41Q30 54 38 63T68 83L103 96Q133 110 148 132T182 213L518 1228Q531 1268 525 1285T482 1313Q455 1322 444 1333T433 1360Q433
1379 447 1389T489 1400H940Q969 1400 982 1390T995 1360Q995 1343 985 1332T948 1314Q920 1307 915 1294T920 1249L1276 187Q1290 142 1308 120T1361 89Q1389 79 1399 69T1409 41Q1409 23 1395 12T1352 0H933Q905 0 891 11T877 41Q877 57 887 67T918 83L982 94Q1008
101 1008 118T995 174L627 1294L658 1311L301 226Q289 187 289 163T304 123T353 95L412 82Q433 75 443 66T453 41ZM722 1471Q636 1471 577 1518T518 1645Q518 1723 577 1770T722 1818Q809 1818 867 1770T926 1645Q926 1567 868 1519T722 1471ZM723 1754Q684 1754
658 1725T632 1645Q632 1595 658 1565T723 1534Q762 1534 787 1564T812 1645Q812 1695 787 1724T723 1754Z" />
<glyph unicode="&#xc6;" horiz-adv-x="1969" d="M1041 1400L1012 1310H918L315 226Q285 172 294 141T345 95L404 82Q423 75 434 66T445 41Q445 23 432 12T389 0H63Q35 0 22 11T8 41Q8 65 46 83L78 95Q107 107 130 135T181 213L750 1228Q771 1265 761 1284T715
1313Q689 1321 677 1332T664 1359Q664 1379 678 1389T721 1400H1041ZM443 627H998L1003 533H435L443 627ZM1110 746H1423Q1485 746 1510 770T1546 863Q1555 907 1590 909Q1625 912 1636 870L1711 578Q1722 532 1686 520Q1648 509 1626 543Q1599 590 1577 614T1527
647T1456 656H1110V746ZM940 154V1400H1585Q1618 1400 1640 1410T1681 1431T1725 1441Q1752 1441 1766 1426T1790 1377L1869 1096Q1876 1073 1869 1058T1841 1036Q1819 1030 1801 1038T1771 1070Q1734 1147 1703 1194T1641 1267T1572 1300T1484 1309H1212V184Q1212
137 1239 114T1323 91H1517Q1583 91 1631 112T1722 197T1820 385Q1829 406 1844 413T1878 418Q1901 415 1910 399T1913 358L1830 29Q1821 -5 1806 -21T1761 -37Q1739 -37 1720 -28T1679 -9T1624 0H844Q816 0 803 11T789 41Q789 75 829 87L891 99Q915 105 927 119T940
154Z" />
<glyph unicode="&#xc7;" horiz-adv-x="1399" d="M1331 361Q1331 292 1293 222T1184 94T1010 -1T779 -37Q564 -37 409 56T169 314T84 691Q84 852 134 987T274 1223T487 1378T753 1434Q855 1434 918 1414T1018 1372T1075 1351Q1100 1351 1111 1369T1135 1404T1172
1422Q1188 1422 1199 1412T1217 1377L1323 1035Q1330 1013 1320 997T1287 976Q1266 973 1249 981T1223 1011Q1168 1131 1102 1202T957 1305T785 1337Q692 1337 614 1296T478 1177T389 992T357 750Q357 546 422 404T600 188T857 114Q997 114 1098 179T1254 363Q1265
384 1277 391T1304 396Q1318 394 1324 385T1331 361ZM731 12H801L720 -141L676 -129Q693 -126 712 -125T758 -123Q851 -123 902 -164T954 -275Q954 -350 897 -395T739 -440Q654 -440 600 -408T541 -330Q541 -314 550 -305T572 -294Q585 -293 594 -298T612 -313Q627
-344 655 -358T716 -372Q799 -372 799 -274Q799 -232 776 -207T707 -182H675Q653 -182 648 -169T651 -138L731 12Z" />
<glyph unicode="&#xc8;" horiz-adv-x="1306" d="M429 746H761Q823 746 848 770T884 863Q889 885 900 896T928 909Q963 912 973 870L1049 578Q1055 554 1049 540T1023 520Q1005 515 990 520T963 543Q937 590 915 614T864 647T793 656H429V746ZM108 1359Q108 1378
121 1389T163 1400H923Q957 1400 979 1410T1020 1431T1064 1441Q1091 1441 1105 1426T1129 1377L1207 1096Q1214 1073 1207 1058T1180 1036Q1157 1030 1139 1038T1109 1070Q1073 1147 1042 1194T979 1267T910 1300T823 1309H531V184Q531 137 558 114T643 91H852Q918
91 965 112T1057 197T1154 385Q1164 406 1179 413T1213 418Q1235 415 1245 399T1248 358L1165 29Q1155 -5 1140 -21T1096 -37Q1074 -37 1055 -28T1014 -9T959 0H163Q135 0 122 11T108 41Q108 75 148 87L210 99Q234 105 247 119T260 154V1246Q260 1267 247 1281T210
1301L148 1313Q108 1325 108 1359ZM640 1695L767 1527Q775 1516 779 1505T774 1483Q766 1474 752 1473T725 1477L534 1570Q484 1591 453 1616T413 1683Q404 1716 423 1748T484 1790Q531 1800 567 1773T640 1695Z" />
<glyph unicode="&#xc9;" horiz-adv-x="1306" d="M429 746H761Q823 746 848 770T884 863Q889 885 900 896T928 909Q963 912 973 870L1049 578Q1055 554 1049 540T1023 520Q1005 515 990 520T963 543Q937 590 915 614T864 647T793 656H429V746ZM108 1359Q108 1378
121 1389T163 1400H923Q957 1400 979 1410T1020 1431T1064 1441Q1091 1441 1105 1426T1129 1377L1207 1096Q1214 1073 1207 1058T1180 1036Q1157 1030 1139 1038T1109 1070Q1073 1147 1042 1194T979 1267T910 1300T823 1309H531V184Q531 137 558 114T643 91H852Q918
91 965 112T1057 197T1154 385Q1164 406 1179 413T1213 418Q1235 415 1245 399T1248 358L1165 29Q1155 -5 1140 -21T1096 -37Q1074 -37 1055 -28T1014 -9T959 0H163Q135 0 122 11T108 41Q108 75 148 87L210 99Q234 105 247 119T260 154V1246Q260 1267 247 1281T210
1301L148 1313Q108 1325 108 1359ZM742 1695Q778 1746 814 1773T897 1790Q939 1781 958 1749T969 1683Q960 1642 929 1617T848 1570L656 1477Q644 1472 630 1473T608 1483Q599 1493 603 1504T615 1527L742 1695Z" />
<glyph unicode="&#xca;" horiz-adv-x="1306" d="M429 746H761Q823 746 848 770T884 863Q889 885 900 896T928 909Q963 912 973 870L1049 578Q1055 554 1049 540T1023 520Q1005 515 990 520T963 543Q937 590 915 614T864 647T793 656H429V746ZM108 1359Q108 1378
121 1389T163 1400H923Q957 1400 979 1410T1020 1431T1064 1441Q1091 1441 1105 1426T1129 1377L1207 1096Q1214 1073 1207 1058T1180 1036Q1157 1030 1139 1038T1109 1070Q1073 1147 1042 1194T979 1267T910 1300T823 1309H531V184Q531 137 558 114T643 91H852Q918
91 965 112T1057 197T1154 385Q1164 406 1179 413T1213 418Q1235 415 1245 399T1248 358L1165 29Q1155 -5 1140 -21T1096 -37Q1074 -37 1055 -28T1014 -9T959 0H163Q135 0 122 11T108 41Q108 75 148 87L210 99Q234 105 247 119T260 154V1246Q260 1267 247 1281T210
1301L148 1313Q108 1325 108 1359ZM711 1645H613L873 1488Q912 1465 934 1483Q944 1490 945 1504T930 1534L743 1740Q722 1761 705 1773T663 1786Q637 1786 620 1774T581 1740L394 1534Q378 1518 379 1504T390 1483Q413 1465 451 1488L711 1645Z" />
<glyph unicode="&#xcb;" horiz-adv-x="1306" d="M429 746H761Q823 746 848 770T884 863Q889 885 900 896T928 909Q963 912 973 870L1049 578Q1055 554 1049 540T1023 520Q1005 515 990 520T963 543Q937 590 915 614T864 647T793 656H429V746ZM108 1359Q108 1378
121 1389T163 1400H923Q957 1400 979 1410T1020 1431T1064 1441Q1091 1441 1105 1426T1129 1377L1207 1096Q1214 1073 1207 1058T1180 1036Q1157 1030 1139 1038T1109 1070Q1073 1147 1042 1194T979 1267T910 1300T823 1309H531V184Q531 137 558 114T643 91H852Q918
91 965 112T1057 197T1154 385Q1164 406 1179 413T1213 418Q1235 415 1245 399T1248 358L1165 29Q1155 -5 1140 -21T1096 -37Q1074 -37 1055 -28T1014 -9T959 0H163Q135 0 122 11T108 41Q108 75 148 87L210 99Q234 105 247 119T260 154V1246Q260 1267 247 1281T210
1301L148 1313Q108 1325 108 1359ZM466 1490Q408 1490 373 1523T338 1611Q338 1666 373 1699T466 1733Q525 1733 559 1700T594 1611Q594 1558 560 1524T466 1490ZM857 1490Q799 1490 764 1523T729 1611Q729 1666 764 1699T857 1733Q917 1733 951 1700T986 1611Q986
1558 952 1524T857 1490Z" />
<glyph unicode="&#xcc;" horiz-adv-x="788" d="M530 154Q530 133 543 119T579 99L641 87Q681 75 681 41Q681 22 668 11T627 0H162Q134 0 121 11T107 41Q107 75 147 87L209 99Q233 105 246 119T259 154V1246Q259 1267 246 1281T209 1301L147 1313Q107 1325 107
1359Q107 1378 120 1389T162 1400H627Q655 1400 668 1389T681 1359Q681 1325 641 1313L579 1301Q556 1295 543 1281T530 1246V154ZM372 1695L499 1527Q507 1516 511 1505T506 1483Q498 1474 484 1473T457 1477L266 1570Q216 1591 185 1616T145 1683Q136 1716 155
1748T216 1790Q263 1800 299 1773T372 1695Z" />
<glyph unicode="&#xcd;" horiz-adv-x="788" d="M530 154Q530 133 543 119T579 99L641 87Q681 75 681 41Q681 22 668 11T627 0H162Q134 0 121 11T107 41Q107 75 147 87L209 99Q233 105 246 119T259 154V1246Q259 1267 246 1281T209 1301L147 1313Q107 1325 107
1359Q107 1378 120 1389T162 1400H627Q655 1400 668 1389T681 1359Q681 1325 641 1313L579 1301Q556 1295 543 1281T530 1246V154ZM474 1695Q510 1746 546 1773T629 1790Q671 1781 690 1749T701 1683Q692 1642 661 1617T580 1570L388 1477Q376 1472 362 1473T340
1483Q331 1493 335 1504T347 1527L474 1695Z" />
<glyph unicode="&#xce;" horiz-adv-x="788" d="M530 154Q530 133 543 119T579 99L641 87Q681 75 681 41Q681 22 668 11T627 0H162Q134 0 121 11T107 41Q107 75 147 87L209 99Q233 105 246 119T259 154V1246Q259 1267 246 1281T209 1301L147 1313Q107 1325 107
1359Q107 1378 120 1389T162 1400H627Q655 1400 668 1389T681 1359Q681 1325 641 1313L579 1301Q556 1295 543 1281T530 1246V154ZM444 1645H346L606 1488Q645 1465 667 1483Q677 1490 678 1504T663 1534L476 1740Q455 1761 438 1773T396 1786Q370 1786 353 1774T314
1740L127 1534Q111 1518 112 1504T123 1483Q146 1465 184 1488L444 1645Z" />
<glyph unicode="&#xcf;" horiz-adv-x="788" d="M530 154Q530 133 543 119T579 99L641 87Q681 75 681 41Q681 22 668 11T627 0H162Q134 0 121 11T107 41Q107 75 147 87L209 99Q233 105 246 119T259 154V1246Q259 1267 246 1281T209 1301L147 1313Q107 1325 107
1359Q107 1378 120 1389T162 1400H627Q655 1400 668 1389T681 1359Q681 1325 641 1313L579 1301Q556 1295 543 1281T530 1246V154ZM198 1490Q140 1490 105 1523T70 1611Q70 1666 105 1699T198 1733Q257 1733 291 1700T326 1611Q326 1558 292 1524T198 1490ZM589
1490Q531 1490 496 1523T461 1611Q461 1666 496 1699T589 1733Q649 1733 683 1700T718 1611Q718 1558 684 1524T589 1490Z" />
<glyph unicode="&#xd0;" horiz-adv-x="1579" d="M84 711Q84 726 94 735T121 745H787Q806 745 816 736T826 711Q826 694 816 685T787 676H120Q104 676 94 685T84 711ZM107 41Q107 75 147 87L209 99Q233 105 246 119T259 154V1246Q259 1267 246 1281T209 1301L147
1313Q107 1325 107 1359Q107 1379 120 1389T162 1400H670Q857 1400 1009 1346T1271 1192T1440 958T1499 659Q1499 468 1411 320T1158 86T761 0H162Q134 0 121 11T107 41ZM739 90Q885 90 992 155T1157 347T1216 665Q1216 813 1176 932T1061 1135T880 1265T640 1310H530V178Q530
132 556 111T637 90H739Z" />
<glyph unicode="&#xd1;" horiz-adv-x="1551" d="M540 41Q540 23 527 12T485 0H147Q119 0 105 11T91 41Q91 72 132 87L185 102Q231 118 247 137T264 201V1100Q264 1131 256 1151T218 1207L132 1313Q117 1333 112 1343T106 1365Q106 1382 118 1391T151 1400H352Q379
1400 397 1391T436 1354L1245 295L1201 193V1199Q1201 1242 1186 1262T1122 1298L1069 1313Q1028 1330 1028 1359Q1028 1378 1042 1389T1083 1400H1421Q1449 1400 1463 1389T1477 1359Q1477 1329 1436 1313L1383 1298Q1337 1283 1321 1264T1304 1199V266Q1304 236
1310 215T1330 175L1391 95Q1408 73 1412 62T1417 38Q1417 21 1405 11T1369 0H1134Q1091 0 1091 35Q1091 51 1085 64T1051 115L284 1123L367 1184V201Q367 158 382 139T446 102L499 87Q540 71 540 41ZM917 1488Q874 1488 839 1504T774 1542T717 1579T661 1595Q602
1595 593 1511Q585 1482 556 1482Q520 1482 520 1528Q520 1631 560 1683T669 1736Q712 1736 747 1720T812 1683T869 1646T925 1630Q986 1630 994 1714Q1001 1743 1031 1743Q1066 1743 1066 1697Q1066 1593 1026 1541T917 1488Z" />
<glyph unicode="&#xd2;" horiz-adv-x="1591" d="M791 1434Q953 1434 1084 1380T1310 1226T1454 991T1505 691Q1505 533 1455 400T1311 169T1086 17T795 -37Q636 -37 505 17T280 171T136 407T85 707Q85 865 135 997T278 1228T502 1380T791 1434ZM1227 537Q1227
669 1202 789T1130 1009T1022 1183T887 1297T732 1338Q622 1338 540 1281T412 1118T366 861Q366 728 391 608T462 387T569 213T704 99T859 58Q970 58 1052 115T1181 279T1227 537ZM772 1695L899 1527Q907 1516 911 1505T906 1483Q898 1474 884 1473T857 1477L666
1570Q616 1591 585 1616T545 1683Q536 1716 555 1748T616 1790Q663 1800 699 1773T772 1695Z" />
<glyph unicode="&#xd3;" horiz-adv-x="1591" d="M791 1434Q953 1434 1084 1380T1310 1226T1454 991T1505 691Q1505 533 1455 400T1311 169T1086 17T795 -37Q636 -37 505 17T280 171T136 407T85 707Q85 865 135 997T278 1228T502 1380T791 1434ZM1227 537Q1227
669 1202 789T1130 1009T1022 1183T887 1297T732 1338Q622 1338 540 1281T412 1118T366 861Q366 728 391 608T462 387T569 213T704 99T859 58Q970 58 1052 115T1181 279T1227 537ZM875 1698Q911 1749 947 1776T1030 1793Q1072 1784 1091 1752T1102 1686Q1093 1645
1062 1620T981 1573L789 1480Q777 1475 763 1476T741 1486Q732 1496 736 1507T748 1530L875 1698Z" />
<glyph unicode="&#xd4;" horiz-adv-x="1591" d="M791 1434Q953 1434 1084 1380T1310 1226T1454 991T1505 691Q1505 533 1455 400T1311 169T1086 17T795 -37Q636 -37 505 17T280 171T136 407T85 707Q85 865 135 997T278 1228T502 1380T791 1434ZM1227 537Q1227
669 1202 789T1130 1009T1022 1183T887 1297T732 1338Q622 1338 540 1281T412 1118T366 861Q366 728 391 608T462 387T569 213T704 99T859 58Q970 58 1052 115T1181 279T1227 537ZM844 1645H746L1006 1488Q1045 1465 1067 1483Q1077 1490 1078 1504T1063 1534L876
1740Q855 1761 838 1773T796 1786Q770 1786 753 1774T714 1740L527 1534Q511 1518 512 1504T523 1483Q546 1465 584 1488L844 1645Z" />
<glyph unicode="&#xd5;" horiz-adv-x="1591" d="M791 1434Q953 1434 1084 1380T1310 1226T1454 991T1505 691Q1505 533 1455 400T1311 169T1086 17T795 -37Q636 -37 505 17T280 171T136 407T85 707Q85 865 135 997T278 1228T502 1380T791 1434ZM1227 537Q1227
669 1202 789T1130 1009T1022 1183T887 1297T732 1338Q622 1338 540 1281T412 1118T366 861Q366 728 391 608T462 387T569 213T704 99T859 58Q970 58 1052 115T1181 279T1227 537ZM920 1491Q877 1491 842 1507T777 1545T720 1582T664 1598Q605 1598 596 1514Q588
1485 559 1485Q523 1485 523 1531Q523 1634 563 1686T672 1739Q715 1739 750 1723T815 1686T872 1649T928 1633Q989 1633 997 1717Q1004 1746 1034 1746Q1069 1746 1069 1700Q1069 1596 1029 1544T920 1491Z" />
<glyph unicode="&#xd6;" horiz-adv-x="1591" d="M791 1434Q953 1434 1084 1380T1310 1226T1454 991T1505 691Q1505 533 1455 400T1311 169T1086 17T795 -37Q636 -37 505 17T280 171T136 407T85 707Q85 865 135 997T278 1228T502 1380T791 1434ZM1227 537Q1227
669 1202 789T1130 1009T1022 1183T887 1297T732 1338Q622 1338 540 1281T412 1118T366 861Q366 728 391 608T462 387T569 213T704 99T859 58Q970 58 1052 115T1181 279T1227 537ZM599 1490Q541 1490 506 1523T471 1611Q471 1666 506 1699T599 1733Q658 1733 692
1700T727 1611Q727 1558 693 1524T599 1490ZM990 1490Q932 1490 897 1523T862 1611Q862 1666 897 1699T990 1733Q1050 1733 1084 1700T1119 1611Q1119 1558 1085 1524T990 1490Z" />
<glyph unicode="&#xd7;" horiz-adv-x="1019" d="M174 311Q133 347 175 384L766 1048Q785 1065 805 1066T847 1051Q868 1033 868 1017T848 980L257 315Q238 299 216 297T174 311ZM845 312Q825 296 802 297T763 314L174 977Q154 995 154 1014T176 1048Q213 1081
255 1045L847 380Q865 364 865 346T845 312Z" />
<glyph unicode="&#xd8;" horiz-adv-x="1591" d="M171 -45Q159 -37 158 -25T166 0L1358 1437Q1368 1450 1381 1452T1408 1444Q1420 1434 1421 1423T1413 1400L221 -39Q210 -52 197 -53T171 -45ZM791 1434Q953 1434 1084 1380T1310 1226T1454 991T1505 691Q1505
533 1455 400T1311 169T1086 17T795 -37Q636 -37 505 17T280 171T136 407T85 707Q85 865 135 997T278 1228T502 1380T791 1434ZM1227 537Q1227 669 1202 789T1130 1009T1022 1183T887 1297T732 1338Q622 1338 540 1281T412 1118T366 861Q366 728 391 608T462 387T569
213T704 99T859 58Q970 58 1052 115T1181 279T1227 537Z" />
<glyph unicode="&#xd9;" horiz-adv-x="1494" d="M1181 594L1145 1209Q1143 1249 1125 1271T1066 1302L1014 1312Q985 1319 975 1330T964 1359Q964 1378 977 1389T1016 1400H1375Q1401 1400 1414 1389T1428 1359Q1428 1341 1417 1330T1377 1312L1329 1303Q1281
1292 1264 1267T1250 1203L1286 594Q1290 543 1292 495T1296 394Q1300 270 1242 173T1067 21T771 -35Q583 -35 458 17T269 165T209 391Q209 416 211 454T216 541T222 643L255 1239Q257 1267 242 1281T191 1302L138 1312Q87 1323 87 1358Q87 1378 100 1389T140 1400H640Q666
1400 679 1389T693 1358Q693 1341 682 1330T642 1313L588 1302Q557 1297 544 1283T528 1240L494 645Q490 574 489 516T486 411Q482 238 574 154T829 70Q943 70 1024 109T1149 220T1189 394Q1188 463 1186 509T1181 594ZM795 1695L922 1527Q930 1516 934 1505T929
1483Q921 1474 907 1473T880 1477L689 1570Q639 1591 608 1616T568 1683Q559 1716 578 1748T639 1790Q686 1800 722 1773T795 1695Z" />
<glyph unicode="&#xda;" horiz-adv-x="1494" d="M1181 594L1145 1209Q1143 1249 1125 1271T1066 1302L1014 1312Q985 1319 975 1330T964 1359Q964 1378 977 1389T1016 1400H1375Q1401 1400 1414 1389T1428 1359Q1428 1341 1417 1330T1377 1312L1329 1303Q1281
1292 1264 1267T1250 1203L1286 594Q1290 543 1292 495T1296 394Q1300 270 1242 173T1067 21T771 -35Q583 -35 458 17T269 165T209 391Q209 416 211 454T216 541T222 643L255 1239Q257 1267 242 1281T191 1302L138 1312Q87 1323 87 1358Q87 1378 100 1389T140 1400H640Q666
1400 679 1389T693 1358Q693 1341 682 1330T642 1313L588 1302Q557 1297 544 1283T528 1240L494 645Q490 574 489 516T486 411Q482 238 574 154T829 70Q943 70 1024 109T1149 220T1189 394Q1188 463 1186 509T1181 594ZM897 1695Q933 1746 969 1773T1052 1790Q1094
1781 1113 1749T1124 1683Q1115 1642 1084 1617T1003 1570L811 1477Q799 1472 785 1473T763 1483Q754 1493 758 1504T770 1527L897 1695Z" />
<glyph unicode="&#xdb;" horiz-adv-x="1494" d="M1181 594L1145 1209Q1143 1249 1125 1271T1066 1302L1014 1312Q985 1319 975 1330T964 1359Q964 1378 977 1389T1016 1400H1375Q1401 1400 1414 1389T1428 1359Q1428 1341 1417 1330T1377 1312L1329 1303Q1281
1292 1264 1267T1250 1203L1286 594Q1290 543 1292 495T1296 394Q1300 270 1242 173T1067 21T771 -35Q583 -35 458 17T269 165T209 391Q209 416 211 454T216 541T222 643L255 1239Q257 1267 242 1281T191 1302L138 1312Q87 1323 87 1358Q87 1378 100 1389T140 1400H640Q666
1400 679 1389T693 1358Q693 1341 682 1330T642 1313L588 1302Q557 1297 544 1283T528 1240L494 645Q490 574 489 516T486 411Q482 238 574 154T829 70Q943 70 1024 109T1149 220T1189 394Q1188 463 1186 509T1181 594ZM867 1645H769L1029 1488Q1068 1465 1090
1483Q1100 1490 1101 1504T1086 1534L899 1740Q878 1761 861 1773T819 1786Q793 1786 776 1774T737 1740L550 1534Q534 1518 535 1504T546 1483Q569 1465 607 1488L867 1645Z" />
<glyph unicode="&#xdc;" horiz-adv-x="1494" d="M1181 594L1145 1209Q1143 1249 1125 1271T1066 1302L1014 1312Q985 1319 975 1330T964 1359Q964 1378 977 1389T1016 1400H1375Q1401 1400 1414 1389T1428 1359Q1428 1341 1417 1330T1377 1312L1329 1303Q1281
1292 1264 1267T1250 1203L1286 594Q1290 543 1292 495T1296 394Q1300 270 1242 173T1067 21T771 -35Q583 -35 458 17T269 165T209 391Q209 416 211 454T216 541T222 643L255 1239Q257 1267 242 1281T191 1302L138 1312Q87 1323 87 1358Q87 1378 100 1389T140 1400H640Q666
1400 679 1389T693 1358Q693 1341 682 1330T642 1313L588 1302Q557 1297 544 1283T528 1240L494 645Q490 574 489 516T486 411Q482 238 574 154T829 70Q943 70 1024 109T1149 220T1189 394Q1188 463 1186 509T1181 594ZM622 1490Q564 1490 529 1523T494 1611Q494
1666 529 1699T622 1733Q681 1733 715 1700T750 1611Q750 1558 716 1524T622 1490ZM1013 1490Q955 1490 920 1523T885 1611Q885 1666 920 1699T1013 1733Q1073 1733 1107 1700T1142 1611Q1142 1558 1108 1524T1013 1490Z" />
<glyph unicode="&#xdd;" horiz-adv-x="1372" d="M814 451L603 410L170 1243Q154 1274 141 1286T105 1306L73 1315Q51 1323 42 1334T33 1359Q33 1378 47 1389T89 1400H546Q575 1400 590 1390T606 1359Q606 1325 558 1313L504 1304Q467 1296 459 1280T466 1230L808
534L716 484L1073 1189Q1095 1233 1085 1262T1026 1305L968 1316Q951 1321 942 1331T932 1359Q932 1378 946 1389T988 1400H1293Q1322 1400 1335 1389T1349 1359Q1349 1344 1341 1334T1310 1316L1295 1310Q1274 1303 1258 1290T1224 1252T1184 1181L814 451ZM565
510H837V154Q837 133 850 119T886 99L948 87Q988 75 988 41Q988 22 975 11T934 0H469Q441 0 428 11T414 41Q414 75 454 87L516 99Q540 105 552 119T565 154V510ZM843 1695Q879 1746 915 1773T998 1790Q1040 1781 1059 1749T1070 1683Q1061 1642 1030 1617T949 1570L757
1477Q745 1472 731 1473T709 1483Q700 1493 704 1504T716 1527L843 1695Z" />
<glyph unicode="&#xde;" horiz-adv-x="1370" d="M412 1044V1124H707Q883 1124 1014 1071T1218 923T1291 700Q1291 574 1224 484T1037 346T757 298Q681 298 620 308T507 338T409 385L422 456Q459 433 502 416T595 389T701 379Q833 379 913 459T993 699Q993 856
896 950T613 1044H412ZM525 154Q525 131 539 119T574 99L636 83Q655 74 665 65T676 38Q676 21 663 11T622 0H162Q134 0 121 11T107 41Q107 72 147 87L209 99Q232 105 245 118T259 154V1246Q259 1269 246 1282T209 1301L147 1313Q107 1328 107 1359Q107 1378 120
1389T162 1400H622Q650 1400 663 1390T676 1362Q676 1346 666 1336T636 1317L574 1301Q553 1294 539 1282T525 1246V154Z" />
<glyph unicode="&#xdf;" horiz-adv-x="1353" d="M1298 350Q1298 477 1233 574T1050 727T773 780L764 758Q900 769 997 818T1146 945T1198 1120Q1198 1215 1151 1288T1007 1405T764 1448Q594 1448 478 1386T302 1207T243 935V873L282 926H127Q104 926 92 917T79
892Q79 876 93 865T136 844L194 829Q216 822 228 811T240 772V145Q240 121 227 107T192 87L142 77Q100 67 100 35Q100 20 113 10T149 0H414Q451 0 465 18T479 74V956Q479 1157 547 1263T748 1370Q845 1370 903 1306T962 1126Q962 1047 936 982T849 872T679 805Q650
794 640 782T629 753Q629 732 643 721T696 704Q803 695 885 647T1014 516T1061 324Q1061 207 1014 145T885 83Q824 83 782 117T712 231L689 284Q680 303 668 314T637 325Q619 325 608 312T597 278V27Q597 7 609 -7T642 -21Q657 -21 671 -11T698 14T723 38T748 48Q763
48 787 30T852 -7T960 -25Q1061 -25 1136 22T1255 153T1298 350Z" />
<glyph unicode="&#xe0;" horiz-adv-x="1102" d="M691 125V145L675 150V734Q675 813 636 855T524 898Q456 898 421 870T386 801V717Q386 663 351 634T251 605Q195 605 166 632T137 706Q137 769 187 828T333 925T569 964Q746 964 832 890T919 692V161Q919 131 931
117T964 102Q988 102 998 113T1017 135Q1023 141 1028 145T1042 150Q1053 150 1058 142T1064 120Q1064 89 1043 56T979 -1T873 -24Q789 -24 740 15T691 125ZM94 209Q94 330 202 406T505 483Q572 483 626 471T722 440L703 381Q665 397 626 407T539 418Q449 418 398
373T346 249Q346 172 389 131T499 89Q559 89 614 116T709 194L731 142Q673 63 581 20T384 -24Q255 -24 175 39T94 209ZM538 1287L638 1095Q646 1082 648 1070T640 1049Q631 1040 617 1040T589 1047L412 1175Q364 1204 337 1234T304 1304Q299 1339 321 1371T390
1408Q441 1415 475 1381T538 1287Z" />
<glyph unicode="&#xe1;" horiz-adv-x="1102" d="M691 125V145L675 150V734Q675 813 636 855T524 898Q456 898 421 870T386 801V717Q386 663 351 634T251 605Q195 605 166 632T137 706Q137 769 187 828T333 925T569 964Q746 964 832 890T919 692V161Q919 131 931
117T964 102Q988 102 998 113T1017 135Q1023 141 1028 145T1042 150Q1053 150 1058 142T1064 120Q1064 89 1043 56T979 -1T873 -24Q789 -24 740 15T691 125ZM94 209Q94 330 202 406T505 483Q572 483 626 471T722 440L703 381Q665 397 626 407T539 418Q449 418 398
373T346 249Q346 172 389 131T499 89Q559 89 614 116T709 194L731 142Q673 63 581 20T384 -24Q255 -24 175 39T94 209ZM609 1287Q638 1347 672 1381T757 1408Q803 1403 825 1371T843 1304Q838 1264 811 1234T734 1175L558 1047Q545 1041 531 1041T508 1049Q497
1058 499 1070T509 1095L609 1287Z" />
<glyph unicode="&#xe2;" horiz-adv-x="1102" d="M691 125V145L675 150V734Q675 813 636 855T524 898Q456 898 421 870T386 801V717Q386 663 351 634T251 605Q195 605 166 632T137 706Q137 769 187 828T333 925T569 964Q746 964 832 890T919 692V161Q919 131 931
117T964 102Q988 102 998 113T1017 135Q1023 141 1028 145T1042 150Q1053 150 1058 142T1064 120Q1064 89 1043 56T979 -1T873 -24Q789 -24 740 15T691 125ZM94 209Q94 330 202 406T505 483Q572 483 626 471T722 440L703 381Q665 397 626 407T539 418Q449 418 398
373T346 249Q346 172 389 131T499 89Q559 89 614 116T709 194L731 142Q673 63 581 20T384 -24Q255 -24 175 39T94 209ZM601 1247H501L766 1050Q784 1038 800 1038T828 1045Q837 1053 837 1066T824 1097L633 1337Q613 1360 596 1372T552 1385Q525 1385 507 1373T468
1337L278 1097Q264 1080 264 1067T274 1045Q285 1037 301 1037T336 1050L601 1247Z" />
<glyph unicode="&#xe3;" horiz-adv-x="1102" d="M691 125V145L675 150V734Q675 813 636 855T524 898Q456 898 421 870T386 801V717Q386 663 351 634T251 605Q195 605 166 632T137 706Q137 769 187 828T333 925T569 964Q746 964 832 890T919 692V161Q919 131 931
117T964 102Q988 102 998 113T1017 135Q1023 141 1028 145T1042 150Q1053 150 1058 142T1064 120Q1064 89 1043 56T979 -1T873 -24Q789 -24 740 15T691 125ZM94 209Q94 330 202 406T505 483Q572 483 626 471T722 440L703 381Q665 397 626 407T539 418Q449 418 398
373T346 249Q346 172 389 131T499 89Q559 89 614 116T709 194L731 142Q673 63 581 20T384 -24Q255 -24 175 39T94 209ZM677 1050Q634 1050 599 1068T533 1111T474 1153T417 1172Q385 1172 369 1149T347 1077Q339 1047 310 1047Q274 1047 274 1094Q274 1205 314
1261T426 1317Q469 1317 504 1299T570 1256T629 1214T686 1195Q718 1195 734 1219T755 1291Q763 1320 793 1320Q828 1320 828 1273Q828 1162 788 1106T677 1050Z" />
<glyph unicode="&#xe4;" horiz-adv-x="1102" d="M691 125V145L675 150V734Q675 813 636 855T524 898Q456 898 421 870T386 801V717Q386 663 351 634T251 605Q195 605 166 632T137 706Q137 769 187 828T333 925T569 964Q746 964 832 890T919 692V161Q919 131 931
117T964 102Q988 102 998 113T1017 135Q1023 141 1028 145T1042 150Q1053 150 1058 142T1064 120Q1064 89 1043 56T979 -1T873 -24Q789 -24 740 15T691 125ZM94 209Q94 330 202 406T505 483Q572 483 626 471T722 440L703 381Q665 397 626 407T539 418Q449 418 398
373T346 249Q346 172 389 131T499 89Q559 89 614 116T709 194L731 142Q673 63 581 20T384 -24Q255 -24 175 39T94 209ZM354 1056Q296 1056 261 1090T226 1180Q226 1237 261 1271T354 1305Q413 1305 447 1271T482 1180Q482 1125 448 1091T354 1056ZM747 1056Q689
1056 654 1090T618 1180Q618 1236 653 1270T747 1305Q807 1305 841 1271T876 1180Q876 1125 842 1091T747 1056Z" />
<glyph unicode="&#xe5;" horiz-adv-x="1102" d="M691 125V145L675 150V734Q675 813 636 855T524 898Q456 898 421 870T386 801V717Q386 663 351 634T251 605Q195 605 166 632T137 706Q137 769 187 828T333 925T569 964Q746 964 832 890T919 692V161Q919 131 931
117T964 102Q988 102 998 113T1017 135Q1023 141 1028 145T1042 150Q1053 150 1058 142T1064 120Q1064 89 1043 56T979 -1T873 -24Q789 -24 740 15T691 125ZM94 209Q94 330 202 406T505 483Q572 483 626 471T722 440L703 381Q665 397 626 407T539 418Q449 418 398
373T346 249Q346 172 389 131T499 89Q559 89 614 116T709 194L731 142Q673 63 581 20T384 -24Q255 -24 175 39T94 209ZM551 1037Q462 1037 401 1087T340 1221Q340 1305 401 1355T551 1405Q641 1405 701 1354T762 1221Q762 1139 702 1088T551 1037ZM552 1339Q510
1339 481 1307T452 1221Q452 1168 481 1136T552 1104Q594 1104 622 1136T650 1221Q650 1275 622 1307T552 1339Z" />
<glyph unicode="&#xe6;" horiz-adv-x="1658" d="M701 385Q663 402 623 412T534 422Q445 422 395 377T345 250Q345 170 388 127T499 83Q570 83 633 121T744 221L788 169Q727 81 624 29T398 -23Q260 -23 179 41T97 213Q97 333 206 408T509 484Q574 484 627 472T720
441L701 385ZM1563 580Q1563 536 1535 513T1451 490H852V554H1267Q1318 554 1318 598Q1318 732 1266 804T1131 877Q1066 877 1015 838T936 723T908 539Q908 339 998 237T1235 135Q1330 135 1401 184T1498 309Q1519 334 1536 333Q1548 332 1555 324T1563 300Q1558
212 1505 139T1363 21T1156 -23Q1004 -23 896 36T732 201T675 447V732Q675 811 636 853T525 895Q456 895 421 865T385 792V723Q385 671 350 640T251 609Q200 609 172 635T144 709Q144 770 192 828T331 925T550 963Q673 963 747 914T855 773L809 771Q867 859 957
911T1161 964Q1283 964 1373 914T1513 777T1563 580Z" />
<glyph unicode="&#xe7;" horiz-adv-x="1031" d="M962 697Q962 645 927 610T832 575Q775 575 745 607T714 691V722Q714 792 669 834T545 877Q475 877 420 836T334 720T302 542Q302 414 345 326T465 192T639 146Q729 146 796 185T896 292Q911 311 920 317T941 324Q956
324 962 311T968 281Q962 197 909 128T766 17T561 -24Q419 -24 310 35T139 201T77 452Q77 597 139 713T313 897T578 965Q697 965 783 928T915 830T962 697ZM520 12H590L509 -141L465 -129Q482 -126 501 -125T547 -123Q640 -123 691 -164T743 -275Q743 -350 686
-395T528 -440Q443 -440 389 -408T330 -330Q330 -314 339 -305T361 -294Q374 -293 383 -298T401 -313Q416 -344 444 -358T505 -372Q588 -372 588 -274Q588 -232 565 -207T496 -182H464Q442 -182 437 -169T440 -138L520 12Z" />
<glyph unicode="&#xe8;" horiz-adv-x="1054" d="M979 588Q979 538 950 512T867 485H235V556H680Q730 556 730 600Q730 733 677 805T535 877Q466 877 413 837T331 721T301 542Q301 345 394 246T639 146Q733 146 802 186T906 295Q921 313 930 319T951 326Q965 326
972 313T978 282Q973 199 919 129T772 18T561 -24Q418 -24 309 35T138 201T76 452Q76 601 135 716T305 898T568 965Q696 965 788 917T929 784T979 588ZM540 1287L640 1095Q648 1082 650 1070T642 1049Q633 1040 619 1040T591 1047L414 1175Q366 1204 339 1234T306
1304Q301 1339 323 1371T392 1408Q443 1415 477 1381T540 1287Z" />
<glyph unicode="&#xe9;" horiz-adv-x="1054" d="M979 588Q979 538 950 512T867 485H235V556H680Q730 556 730 600Q730 733 677 805T535 877Q466 877 413 837T331 721T301 542Q301 345 394 246T639 146Q733 146 802 186T906 295Q921 313 930 319T951 326Q965 326
972 313T978 282Q973 199 919 129T772 18T561 -24Q418 -24 309 35T138 201T76 452Q76 601 135 716T305 898T568 965Q696 965 788 917T929 784T979 588ZM611 1287Q640 1347 674 1381T759 1408Q805 1403 827 1371T845 1304Q840 1264 813 1234T736 1175L560 1047Q547
1041 533 1041T510 1049Q499 1058 501 1070T511 1095L611 1287Z" />
<glyph unicode="&#xea;" horiz-adv-x="1054" d="M979 588Q979 538 950 512T867 485H235V556H680Q730 556 730 600Q730 733 677 805T535 877Q466 877 413 837T331 721T301 542Q301 345 394 246T639 146Q733 146 802 186T906 295Q921 313 930 319T951 326Q965 326
972 313T978 282Q973 199 919 129T772 18T561 -24Q418 -24 309 35T138 201T76 452Q76 601 135 716T305 898T568 965Q696 965 788 917T929 784T979 588ZM603 1247H503L768 1050Q786 1038 802 1038T830 1045Q839 1053 839 1066T826 1097L635 1337Q615 1360 598 1372T554
1385Q527 1385 509 1373T470 1337L280 1097Q266 1080 266 1067T276 1045Q287 1037 303 1037T338 1050L603 1247Z" />
<glyph unicode="&#xeb;" horiz-adv-x="1054" d="M979 588Q979 538 950 512T867 485H235V556H680Q730 556 730 600Q730 733 677 805T535 877Q466 877 413 837T331 721T301 542Q301 345 394 246T639 146Q733 146 802 186T906 295Q921 313 930 319T951 326Q965 326
972 313T978 282Q973 199 919 129T772 18T561 -24Q418 -24 309 35T138 201T76 452Q76 601 135 716T305 898T568 965Q696 965 788 917T929 784T979 588ZM356 1056Q298 1056 263 1090T228 1180Q228 1237 263 1271T356 1305Q415 1305 449 1271T484 1180Q484 1125 450
1091T356 1056ZM749 1056Q691 1056 656 1090T620 1180Q620 1236 655 1270T749 1305Q809 1305 843 1271T878 1180Q878 1125 844 1091T749 1056Z" />
<glyph unicode="&#xec;" horiz-adv-x="616" d="M444 913V149Q444 120 454 107T482 86L522 76Q540 70 549 61T558 37Q558 20 545 10T509 0H134Q111 0 99 10T86 37Q86 51 94 60T120 76L163 86Q181 93 191 106T201 148V750Q201 774 193 784T168 797L108 799Q91 803
83 811T75 832Q75 846 85 855T118 873L315 939Q345 949 363 953T400 958Q420 958 432 946T444 913ZM538 1287L638 1095Q646 1082 648 1070T640 1049Q631 1040 617 1040T589 1047L412 1175Q364 1204 337 1234T304 1304Q299 1339 321 1371T390 1408Q441 1415 475
1381T538 1287Z" />
<glyph unicode="&#xed;" horiz-adv-x="616" d="M444 913V149Q444 120 454 107T482 86L522 76Q540 70 549 61T558 37Q558 20 545 10T509 0H134Q111 0 99 10T86 37Q86 51 94 60T120 76L163 86Q181 93 191 106T201 148V750Q201 774 193 784T168 797L108 799Q91 803
83 811T75 832Q75 846 85 855T118 873L315 939Q345 949 363 953T400 958Q420 958 432 946T444 913ZM353 1287Q382 1347 416 1381T501 1408Q547 1403 569 1371T587 1304Q582 1264 555 1234T478 1175L302 1047Q289 1041 275 1041T252 1049Q241 1058 243 1070T253
1095L353 1287Z" />
<glyph unicode="&#xee;" horiz-adv-x="616" d="M444 913V149Q444 120 454 107T482 86L522 76Q540 70 549 61T558 37Q558 20 545 10T509 0H134Q111 0 99 10T86 37Q86 51 94 60T120 76L163 86Q181 93 191 106T201 148V750Q201 774 193 784T168 797L108 799Q91 803
83 811T75 832Q75 846 85 855T118 873L315 939Q345 949 363 953T400 958Q420 958 432 946T444 913ZM605 1247H515L753 1050Q769 1038 784 1038T809 1045Q817 1053 817 1066T805 1097L633 1337Q615 1360 600 1372T560 1385Q536 1385 520 1373T485 1337L314 1097Q301
1080 301 1067T310 1045Q320 1037 335 1037T366 1050L605 1247Z" />
<glyph unicode="&#xef;" horiz-adv-x="616" d="M444 913V149Q444 120 454 107T482 86L522 76Q540 70 549 61T558 37Q558 20 545 10T509 0H134Q111 0 99 10T86 37Q86 51 94 60T120 76L163 86Q181 93 191 106T201 148V750Q201 774 193 784T168 797L108 799Q91 803
83 811T75 832Q75 846 85 855T118 873L315 939Q345 949 363 953T400 958Q420 958 432 946T444 913ZM392 1056Q345 1056 317 1090T289 1180Q289 1237 317 1271T392 1305Q439 1305 466 1271T494 1180Q494 1125 467 1091T392 1056ZM706 1056Q660 1056 632 1090T603
1180Q603 1236 631 1270T706 1305Q754 1305 781 1271T809 1180Q809 1125 782 1091T706 1056Z" />
<glyph unicode="&#xf0;" horiz-adv-x="1183" d="M1107 556Q1107 370 1042 240T861 42T588 -26Q431 -26 317 40T140 223T78 493Q78 622 134 729T291 902T528 967Q610 967 681 938T804 849T878 697L857 689Q828 848 761 984T595 1221T370 1377Q339 1392 327 1406T317
1439Q320 1458 339 1469T398 1476Q545 1443 673 1358T899 1148T1052 873T1107 556ZM335 547Q335 422 374 320T480 158T629 98Q691 98 745 133T832 240T866 421Q866 549 822 644T709 791T566 844Q495 844 443 809T363 707T335 547ZM317 1099Q308 1117 313 1133T339
1158L909 1432Q932 1443 948 1437T971 1415Q990 1376 946 1355L376 1081Q355 1071 340 1077T317 1099Z" />
<glyph unicode="&#xf1;" horiz-adv-x="1255" d="M447 901V149Q447 120 456 106T484 86L525 76Q556 64 556 39Q556 0 505 0H134Q108 0 96 10T84 37Q84 51 92 60T119 76L163 86Q182 92 191 105T201 148V746Q201 770 193 780T168 794L108 797Q90 800 83 808T75 829Q75
844 84 853T118 871L294 935Q328 947 349 953T389 959Q418 959 432 943T447 901ZM417 684L375 727L416 763Q538 872 625 918T793 965Q915 965 982 884T1064 667L1122 152Q1126 121 1134 107T1163 86L1202 76Q1220 70 1228 61T1237 37Q1237 20 1226 10T1188 0H813Q762
0 762 39Q762 64 793 76L835 86Q856 92 866 107T874 152L819 630Q808 723 771 770T662 817Q617 817 567 793T459 719L417 684ZM771 1050Q728 1050 693 1068T627 1111T568 1153T511 1172Q479 1172 463 1149T441 1077Q433 1047 404 1047Q368 1047 368 1094Q368 1205
408 1261T520 1317Q563 1317 598 1299T664 1256T723 1214T780 1195Q812 1195 828 1219T849 1291Q857 1320 887 1320Q922 1320 922 1273Q922 1162 882 1106T771 1050Z" />
<glyph unicode="&#xf2;" horiz-adv-x="1179" d="M593 965Q744 965 858 902T1037 727T1102 469Q1102 328 1036 217T854 41T585 -24Q434 -24 320 39T142 215T77 472Q77 615 142 726T324 901T593 965ZM664 71Q740 82 786 136T847 284T839 508Q817 637 770 722T658
844T514 870Q439 858 392 804T331 657T339 433Q361 304 408 219T520 97T664 71ZM577 1287L677 1095Q685 1082 687 1070T679 1049Q670 1040 656 1040T628 1047L451 1175Q403 1204 376 1234T343 1304Q338 1339 360 1371T429 1408Q480 1415 514 1381T577 1287Z" />
<glyph unicode="&#xf3;" horiz-adv-x="1179" d="M593 965Q744 965 858 902T1037 727T1102 469Q1102 328 1036 217T854 41T585 -24Q434 -24 320 39T142 215T77 472Q77 615 142 726T324 901T593 965ZM664 71Q740 82 786 136T847 284T839 508Q817 637 770 722T658
844T514 870Q439 858 392 804T331 657T339 433Q361 304 408 219T520 97T664 71ZM648 1287Q677 1347 711 1381T796 1408Q842 1403 864 1371T882 1304Q877 1264 850 1234T773 1175L597 1047Q584 1041 570 1041T547 1049Q536 1058 538 1070T548 1095L648 1287Z" />
<glyph unicode="&#xf4;" horiz-adv-x="1179" d="M593 965Q744 965 858 902T1037 727T1102 469Q1102 328 1036 217T854 41T585 -24Q434 -24 320 39T142 215T77 472Q77 615 142 726T324 901T593 965ZM664 71Q740 82 786 136T847 284T839 508Q817 637 770 722T658
844T514 870Q439 858 392 804T331 657T339 433Q361 304 408 219T520 97T664 71ZM640 1247H540L805 1050Q823 1038 839 1038T867 1045Q876 1053 876 1066T863 1097L672 1337Q652 1360 635 1372T591 1385Q564 1385 546 1373T507 1337L317 1097Q303 1080 303 1067T313
1045Q324 1037 340 1037T375 1050L640 1247Z" />
<glyph unicode="&#xf5;" horiz-adv-x="1179" d="M593 965Q744 965 858 902T1037 727T1102 469Q1102 328 1036 217T854 41T585 -24Q434 -24 320 39T142 215T77 472Q77 615 142 726T324 901T593 965ZM664 71Q740 82 786 136T847 284T839 508Q817 637 770 722T658
844T514 870Q439 858 392 804T331 657T339 433Q361 304 408 219T520 97T664 71ZM715 1050Q672 1050 637 1068T571 1111T512 1153T455 1172Q423 1172 407 1149T385 1077Q377 1047 348 1047Q312 1047 312 1094Q312 1205 352 1261T464 1317Q507 1317 542 1299T608
1256T667 1214T724 1195Q756 1195 772 1219T793 1291Q801 1320 831 1320Q866 1320 866 1273Q866 1162 826 1106T715 1050Z" />
<glyph unicode="&#xf6;" horiz-adv-x="1179" d="M593 965Q744 965 858 902T1037 727T1102 469Q1102 328 1036 217T854 41T585 -24Q434 -24 320 39T142 215T77 472Q77 615 142 726T324 901T593 965ZM664 71Q740 82 786 136T847 284T839 508Q817 637 770 722T658
844T514 870Q439 858 392 804T331 657T339 433Q361 304 408 219T520 97T664 71ZM392 1056Q334 1056 299 1090T264 1180Q264 1237 299 1271T392 1305Q451 1305 485 1271T520 1180Q520 1125 486 1091T392 1056ZM785 1056Q727 1056 692 1090T656 1180Q656 1236 691
1270T785 1305Q845 1305 879 1271T914 1180Q914 1125 880 1091T785 1056Z" />
<glyph unicode="&#xf7;" horiz-adv-x="1116" d="M543 972Q516 972 494 984T459 1018T446 1064Q446 1089 458 1110T493 1143T543 1155Q571 1155 593 1143T628 1110T641 1064Q641 1039 628 1018T593 985T543 972ZM133 682Q133 706 149 720T188 734H944Q965 734 981
720T997 682Q997 657 981 643T944 629H187Q166 629 150 643T133 682ZM543 217Q516 217 494 229T459 263T446 309Q446 334 458 355T493 388T543 400Q571 400 593 388T628 355T641 309Q641 284 628 263T593 230T543 217Z" />
<glyph unicode="&#xf8;" horiz-adv-x="1169" d="M165 -52Q152 -46 150 -33T156 -8L313 203L331 214L804 777L808 792L955 984Q964 996 977 999T1002 994Q1015 986 1018 974T1012 950L856 743L842 736L373 179L367 162L213 -42Q193 -69 165 -52ZM593 965Q744 965
858 902T1037 727T1102 469Q1102 328 1036 217T854 41T585 -24Q434 -24 320 39T142 215T77 472Q77 615 142 726T324 901T593 965ZM664 71Q740 82 786 136T847 284T839 508Q817 637 770 722T658 844T514 870Q439 858 392 804T331 657T339 433Q361 304 408 219T520
97T664 71Z" />
<glyph unicode="&#xf9;" horiz-adv-x="1235" d="M808 130V187L801 192V746Q801 770 794 780T769 793L708 797Q691 800 683 808T675 829Q675 844 684 853T718 871L894 934Q929 947 950 952T990 958Q1018 958 1032 943T1047 900V149Q1047 120 1056 106T1085 86L1126
76Q1145 70 1153 61T1162 37Q1162 20 1150 10T1112 0H923Q873 0 841 35T808 130ZM174 275V746Q174 770 166 780T141 793L81 797Q63 800 56 808T48 829Q48 844 57 853T91 871L267 934Q303 947 324 952T360 958Q390 958 405 943T420 900V312Q420 218 465 171T586
124Q633 124 687 147T800 222L841 258L884 215L842 178Q720 66 629 21T455 -24Q329 -24 252 57T174 275ZM586 1287L686 1095Q694 1082 696 1070T688 1049Q679 1040 665 1040T637 1047L460 1175Q412 1204 385 1234T352 1304Q347 1339 369 1371T438 1408Q489 1415
523 1381T586 1287Z" />
<glyph unicode="&#xfa;" horiz-adv-x="1235" d="M808 130V187L801 192V746Q801 770 794 780T769 793L708 797Q691 800 683 808T675 829Q675 844 684 853T718 871L894 934Q929 947 950 952T990 958Q1018 958 1032 943T1047 900V149Q1047 120 1056 106T1085 86L1126
76Q1145 70 1153 61T1162 37Q1162 20 1150 10T1112 0H923Q873 0 841 35T808 130ZM174 275V746Q174 770 166 780T141 793L81 797Q63 800 56 808T48 829Q48 844 57 853T91 871L267 934Q303 947 324 952T360 958Q390 958 405 943T420 900V312Q420 218 465 171T586
124Q633 124 687 147T800 222L841 258L884 215L842 178Q720 66 629 21T455 -24Q329 -24 252 57T174 275ZM657 1287Q686 1347 720 1381T805 1408Q851 1403 873 1371T891 1304Q886 1264 859 1234T782 1175L606 1047Q593 1041 579 1041T556 1049Q545 1058 547 1070T557
1095L657 1287Z" />
<glyph unicode="&#xfb;" horiz-adv-x="1235" d="M808 130V187L801 192V746Q801 770 794 780T769 793L708 797Q691 800 683 808T675 829Q675 844 684 853T718 871L894 934Q929 947 950 952T990 958Q1018 958 1032 943T1047 900V149Q1047 120 1056 106T1085 86L1126
76Q1145 70 1153 61T1162 37Q1162 20 1150 10T1112 0H923Q873 0 841 35T808 130ZM174 275V746Q174 770 166 780T141 793L81 797Q63 800 56 808T48 829Q48 844 57 853T91 871L267 934Q303 947 324 952T360 958Q390 958 405 943T420 900V312Q420 218 465 171T586
124Q633 124 687 147T800 222L841 258L884 215L842 178Q720 66 629 21T455 -24Q329 -24 252 57T174 275ZM649 1247H549L814 1050Q832 1038 848 1038T876 1045Q885 1053 885 1066T872 1097L681 1337Q661 1360 644 1372T600 1385Q573 1385 555 1373T516 1337L326
1097Q312 1080 312 1067T322 1045Q333 1037 349 1037T384 1050L649 1247Z" />
<glyph unicode="&#xfc;" horiz-adv-x="1235" d="M808 130V187L801 192V746Q801 770 794 780T769 793L708 797Q691 800 683 808T675 829Q675 844 684 853T718 871L894 934Q929 947 950 952T990 958Q1018 958 1032 943T1047 900V149Q1047 120 1056 106T1085 86L1126
76Q1145 70 1153 61T1162 37Q1162 20 1150 10T1112 0H923Q873 0 841 35T808 130ZM174 275V746Q174 770 166 780T141 793L81 797Q63 800 56 808T48 829Q48 844 57 853T91 871L267 934Q303 947 324 952T360 958Q390 958 405 943T420 900V312Q420 218 465 171T586
124Q633 124 687 147T800 222L841 258L884 215L842 178Q720 66 629 21T455 -24Q329 -24 252 57T174 275ZM402 1056Q344 1056 309 1090T274 1180Q274 1237 309 1271T402 1305Q461 1305 495 1271T530 1180Q530 1125 496 1091T402 1056ZM795 1056Q737 1056 702 1090T666
1180Q666 1236 701 1270T795 1305Q855 1305 889 1271T924 1180Q924 1125 890 1091T795 1056Z" />
<glyph unicode="&#xfd;" horiz-adv-x="1124" d="M666 133L537 -111L140 787Q122 828 104 842T44 867Q25 873 17 882T9 905Q9 923 22 933T58 943H483Q506 943 519 934T532 906Q532 891 523 882T493 868L453 861Q406 851 398 828T414 746L666 133ZM486 -177L558
1L589 63L858 736Q881 795 873 821T817 857L775 866Q754 871 745 881T735 906Q735 924 748 933T783 943H1068Q1091 943 1104 933T1117 905Q1117 893 1109 884T1079 866Q1033 853 1010 832T965 756L595 -161Q543 -287 498 -356T400 -451T274 -478Q165 -478 102 -421T39
-280Q39 -220 67 -187T144 -153Q190 -153 215 -181T254 -258L265 -294Q272 -330 290 -347T332 -365Q357 -365 379 -351T428 -296T486 -177ZM680 1287Q709 1347 743 1381T828 1408Q874 1403 896 1371T914 1304Q909 1264 882 1234T805 1175L629 1047Q616 1041 602
1041T579 1049Q568 1058 570 1070T580 1095L680 1287Z" />
<glyph unicode="&#xfe;" horiz-adv-x="1209" d="M413 1454V-323Q413 -353 423 -367T451 -386L511 -396Q528 -402 537 -411T546 -435Q546 -452 534 -462T498 -472H103Q81 -472 69 -462T56 -435Q56 -422 65 -413T90 -397L133 -386Q151 -380 161 -367T171 -324V1291Q171
1315 163 1325T138 1338L78 1341Q62 1345 54 1352T45 1374Q45 1400 88 1414L285 1481Q314 1491 332 1495T369 1499Q390 1499 401 1487T413 1454ZM367 682L335 732Q410 842 508 903T724 964Q843 964 935 905T1081 739T1134 494Q1134 336 1072 220T903 41T666 -23Q549
-23 461 30T319 185L369 247Q413 162 478 120T619 78Q694 78 753 120T846 248T881 467Q881 595 848 679T757 806T626 848Q552 848 486 807T367 682Z" />
<glyph unicode="&#xff;" horiz-adv-x="1124" d="M666 133L537 -111L140 787Q122 828 104 842T44 867Q25 873 17 882T9 905Q9 923 22 933T58 943H483Q506 943 519 934T532 906Q532 891 523 882T493 868L453 861Q406 851 398 828T414 746L666 133ZM486 -177L558
1L589 63L858 736Q881 795 873 821T817 857L775 866Q754 871 745 881T735 906Q735 924 748 933T783 943H1068Q1091 943 1104 933T1117 905Q1117 893 1109 884T1079 866Q1033 853 1010 832T965 756L595 -161Q543 -287 498 -356T400 -451T274 -478Q165 -478 102 -421T39
-280Q39 -220 67 -187T144 -153Q190 -153 215 -181T254 -258L265 -294Q272 -330 290 -347T332 -365Q357 -365 379 -351T428 -296T486 -177ZM426 1056Q368 1056 333 1090T298 1180Q298 1237 333 1271T426 1305Q485 1305 519 1271T554 1180Q554 1125 520 1091T426
1056ZM819 1056Q761 1056 726 1090T690 1180Q690 1236 725 1270T819 1305Q879 1305 913 1271T948 1180Q948 1125 914 1091T819 1056Z" />
<glyph unicode="&#x2013;" horiz-adv-x="1049" d="M64 529Q64 555 76 570T113 585H936Q962 585 973 570T984 529Q984 503 973 488T936 472H113Q88 472 76 487T64 529Z" />
<glyph unicode="&#x2014;" horiz-adv-x="1661" d="M64 529Q64 555 76 570T113 585H1548Q1573 585 1584 570T1596 529Q1596 502 1585 487T1548 472H113Q88 472 76 487T64 529Z" />
<glyph unicode="&#x2018;" horiz-adv-x="448" d="M233 1213Q308 1213 347 1177T386 1082Q386 1017 339 976T224 935Q146 935 95 989T44 1157Q44 1262 84 1339T186 1464T315 1525Q342 1531 357 1525T376 1503Q379 1488 369 1475T327 1449Q274 1428 236 1396T179
1327T160 1256Q160 1236 170 1225T210 1213H233Z" />
<glyph unicode="&#x2019;" horiz-adv-x="445" d="M153 1237Q78 1237 39 1273T0 1369Q0 1433 47 1474T162 1516Q240 1516 291 1462T342 1293Q342 1188 302 1111T200 987T71 925Q44 919 29 925T10 948Q7 963 17 976T59 1001Q112 1022 150 1054T207 1124T226 1194Q226
1214 216 1225T176 1237H153Z" />
<glyph unicode="&#x201a;" horiz-adv-x="476" d="M231 1Q155 1 117 38T78 133Q78 198 125 239T239 280Q318 280 368 226T419 57Q419 -48 379 -125T278 -249T149 -310Q122 -316 107 -310T88 -288Q84 -273 94 -260T136 -234Q190 -214 227 -182T284 -112T304 -42Q304
-21 293 -10T254 1H231Z" />
<glyph unicode="&#x201c;" horiz-adv-x="879" d="M233 1214Q308 1214 347 1178T386 1082Q386 1017 339 976T224 935Q146 935 95 990T44 1158Q44 1263 84 1340T186 1464T315 1526Q342 1531 357 1525T376 1503Q379 1488 369 1475T327 1449Q274 1429 236 1397T179
1327T160 1257Q160 1236 170 1225T210 1214H233ZM664 1214Q739 1214 778 1178T817 1082Q817 1017 770 976T656 935Q577 935 527 990T476 1158Q476 1263 515 1340T617 1464T746 1526Q773 1532 788 1526T807 1503Q810 1488 800 1475T759 1449Q705 1429 668 1397T611
1327T591 1257Q591 1236 601 1225T641 1214H664Z" />
<glyph unicode="&#x201d;" horiz-adv-x="910" d="M644 1240Q569 1240 530 1276T491 1372Q491 1436 538 1477T652 1519Q731 1519 781 1465T832 1296Q832 1191 792 1114T691 990T562 928Q535 922 520 928T501 951Q497 966 507 979T549 1004Q603 1025 640 1057T697
1127T717 1197Q717 1217 706 1228T667 1240H644ZM213 1240Q137 1240 99 1276T60 1372Q60 1436 107 1477T221 1518Q300 1518 350 1464T401 1296Q401 1191 361 1114T259 990T131 928Q103 922 89 928T70 951Q66 966 76 979T118 1004Q172 1025 209 1057T266 1127T285
1197Q285 1217 275 1228T236 1240H213Z" />
<glyph unicode="&#x201e;" horiz-adv-x="909" d="M662 -1Q587 -1 548 35T509 131Q509 195 556 236T670 278Q749 278 799 224T850 55Q850 -50 811 -127T709 -251T580 -313Q553 -319 538 -313T519 -290Q515 -275 526 -262T567 -237Q621 -216 658 -184T715 -114T735
-44Q735 -24 724 -13T685 -1H662ZM231 -1Q155 -1 117 35T78 131Q78 195 125 236T239 278Q318 278 368 224T419 55Q419 -50 379 -127T278 -251T149 -313Q122 -319 107 -313T88 -290Q84 -275 94 -262T136 -237Q190 -216 227 -184T284 -114T304 -44Q304 -24 293 -13T254
-1H231Z" />
<glyph unicode="&#x2022;" horiz-adv-x="770" d="M384 251Q317 251 262 285T174 377T141 500Q141 569 173 625T261 715T384 748Q453 748 508 715T596 626T629 500Q629 434 597 377T509 286T384 251Z" />
<glyph unicode="&#x2039;" horiz-adv-x="673" d="M94 478Q94 500 108 521T159 571Q212 613 260 652T351 726T432 794T501 853Q517 866 530 868T554 863Q563 855 562 842T552 812Q523 765 485 709T396 587T283 443V513Q346 436 396 370T484 248T552 144Q561 127
562 114T554 94Q544 86 531 88T501 103Q470 131 433 162T352 230T260 305T159 385Q123 413 109 435T94 478Z" />
<glyph unicode="&#x203a;" horiz-adv-x="673" d="M579 479Q579 457 565 436T514 386Q461 344 413 305T322 231T241 163T172 104Q156 91 143 89T119 94Q110 102 111 115T121 145Q150 192 188 248T277 370T390 514V444Q327 521 277 587T189 709T121 813Q112 830
111 843T119 863Q129 871 142 869T172 854Q203 826 240 795T321 727T413 652T514 572Q550 544 564 522T579 479Z" />
</font>
</defs>
</svg>
